/* XPM */
static char *f1012e283937461cde5e15ce7c85ade4qb7vgSql1DYdUANu[] = {
/* columns rows colors chars-per-pixel */
"32 32 169 2 ",
"   c #093405",
".  c #013F02",
"X  c #0A3B03",
"o  c #0A3A0C",
"O  c #1D3F05",
"+  c #093813",
"@  c #3C2D07",
"#  c #033522",
"$  c #063A37",
"%  c #4D1C02",
"&  c #521D01",
"*  c #4A2408",
"=  c #422A08",
"-  c #4E2C0A",
";  c #552004",
":  c #5A260A",
">  c #5D280D",
",  c #443411",
"<  c #632E14",
"1  c #69331A",
"2  c #6F3921",
"3  c #733E26",
"4  c #044500",
"5  c #0A4502",
"6  c #0C4904",
"7  c #07490A",
"8  c #114504",
"9  c #104B08",
"0  c #0B540B",
"q  c #1A500F",
"w  c #0B5C11",
"e  c #2E410F",
"r  c #3D501E",
"t  c #096416",
"y  c #096619",
"u  c #116C1F",
"i  c #0A4222",
"p  c #045238",
"a  c #2B5F23",
"s  c #3D5C25",
"d  c #047725",
"f  c #097522",
"g  c #0C792B",
"h  c #19782C",
"j  c #2F6C2F",
"k  c #3E622B",
"l  c #34692D",
"z  c #347835",
"x  c #434A1A",
"c  c #614625",
"v  c #77563C",
"b  c #063C65",
"n  c #003D76",
"m  c #144C55",
"M  c #284A4C",
"N  c #567B6F",
"B  c #804B35",
"V  c #8D5845",
"C  c #9A6554",
"Z  c #06842E",
"A  c #06892F",
"S  c #079035",
"D  c #019F3F",
"F  c #12933C",
"G  c #29853C",
"H  c #239345",
"J  c #269645",
"K  c #06A945",
"L  c #05B24C",
"P  c #18A055",
"I  c #1BAC52",
"U  c #05BA52",
"Y  c #1ABE5E",
"T  c #28AD58",
"R  c #479E5D",
"E  c #7EAA7C",
"W  c #04C358",
"Q  c #15C25D",
"!  c #12C862",
"~  c #05D766",
"^  c #0CDA6B",
"/  c #02E26D",
"(  c #08E673",
")  c #02EC74",
"_  c #01F57A",
"`  c #0BF37D",
"'  c #969576",
"]  c #054694",
"[  c #0451A8",
"{  c #1154AE",
"}  c #034FBD",
"|  c #044FC4",
" . c #0050D6",
".. c #2664D3",
"X. c #7DB690",
"o. c #6F80A8",
"O. c #14EF89",
"+. c #19EE8C",
"@. c #0CF183",
"#. c #11F086",
"$. c #26EC8A",
"%. c #2FEE8A",
"&. c #34EC8A",
"*. c #23EA94",
"=. c #2FE79E",
"-. c #2AE99B",
";. c #33E69F",
":. c #3AE2A6",
">. c #45D682",
",. c #61D790",
"<. c #4EE792",
"1. c #5EE89B",
"2. c #6CE29B",
"3. c #76E09D",
"4. c #44DFAE",
"5. c #4BDDB3",
"6. c #5AD8BF",
"7. c #47E0AF",
"8. c #53E0B9",
"9. c #5FD7C2",
"0. c #5DD8C1",
"q. c #68DAC6",
"w. c #74D9CD",
"e. c #77D5D1",
"r. c #7DD5D6",
"t. c #7CDFD2",
"y. c #9CA281",
"u. c #A8BAAB",
"i. c #C89188",
"p. c #CE9890",
"a. c #CCB0A3",
"s. c #C7BEB5",
"d. c #E7B0AC",
"f. c #E5BCB6",
"g. c #F2BCBA",
"h. c #94C69A",
"j. c #8BDCA5",
"k. c #A2C6BA",
"l. c #B4DCBC",
"z. c #8AE2AC",
"x. c #CFD0B9",
"c. c #9D9ACC",
"v. c #D7B7C6",
"b. c #81D6D6",
"n. c #8ADFD7",
"m. c #83D7D8",
"M. c #86D9D9",
"N. c #8DDBDB",
"B. c #93DDDE",
"V. c #A8D4D4",
"C. c #9FE2E3",
"Z. c #A5E5E6",
"A. c #DBCECF",
"S. c #C9D5C2",
"D. c #E9C9CA",
"F. c #FEC6C6",
"G. c #FBC8C7",
"H. c #FECAC7",
"J. c #F4CDC8",
"K. c #FFCACA",
"L. c #FFD1CE",
"P. c #E5C0D0",
"I. c #FFCCD0",
"U. c #E8D8D4",
"Y. c #F4D5D3",
"T. c #FFD2D3",
"R. c #FFDFE0",
"E. c #FFE3E3",
"W. c #FFE8E8",
/* pixels */
"_ _ _ _ _ _ _ _ _ _ _ _ _ _ _ _ _ _ _ _ _ _ _ _ _ _ _ _ _ _ _ _ ",
"_ _ _ _ _ _ _ _ ^ I J l s s z ^ J ^ _ _ _ _ _ _ _ _ _ _ _ _ _ _ ",
"_ _ _ _ _ _ _ J x - < 2 > & < c ; l Y _ _ _ _ _ _ _ _ _ _ _ _ _ ",
"_ _ _ _ _ _ _ r % % < < : > & & % & - Q _ _ _ _ _ _ _ _ _ _ _ _ ",
"_ _ _ _ _ _ _ Q v 3 1 V 1 2 B V C : > j _ _ _ _ _ _ _ _ _ _ _ _ ",
"_ _ _ _ _ _ _ $.D.F.H.T.i.p.G.K.g.3 ' ( _ _ _ _ _ _ _ _ _ _ _ _ ",
"_ _ _ _ _ _ _ 3.F.R.U.U.T.T.T.R.K.d.J.%._ _ _ _ _ _ _ _ _ _ _ _ ",
"_ _ _ _ _ _ _ j.F.E.S.D.K.F.W.s.U.K.H.<._ _ _ _ _ _ _ _ _ _ _ _ ",
"_ _ _ _ _ _ _ 2.H.K.R.T.F.F.R.U.Y.K.H.&._ _ _ _ _ _ _ _ _ _ _ _ ",
"_ _ _ _ _ _ _ %.J.F.F.H.K.F.F.T.K.H.x.` _ _ _ _ _ _ _ _ _ _ _ _ ",
"_ _ _ _ _ _ _ _ z.T.H.H.F.H.H.F.K.L.1._ _ _ _ _ _ _ _ _ _ _ _ _ ",
"_ _ _ _ _ _ ) ~ ^ h.T.F.H.F.H.K.Y.,._ _ _ _ _ _ _ _ _ _ _ _ _ _ ",
"_ _ _ _ _ K t 0 7 g X.T.F.F.P.u.R U ( _ _ _ _ _ _ _ _ _ _ _ _ _ ",
"_ _ _ _ U 6 6 6 6 . N T.H.L.o.p 4 4 y W _ _ _ _ _ _ _ _ _ _ _ _ ",
"_ _ _ _ f 6 6 6 6 6 m c.D.v.M 4 6 6 6 t / _ _ _ _ _ _ _ _ _ _ _ ",
"_ _ _ ( w 6 6 6 6 5 # } ..{ $ 8 6 6 6 6 L _ _ _ _ _ _ _ _ *.@._ ",
"_ _ _ ~ 0 6 6 6 5 5 + [  .n i 6 6 6 6 6 Z _ _ _ _ _ _ *.8.q.#._ ",
"_ _ _ ~ 6 4 4 5 6 5 + { | $ 7 6 6 6 6 6 d _ _ _ _ @.7.N.B.q._ _ ",
"_ _ _ ) y q k 6 6 5 + } ] o 6 6 6 6 5 4 Z _ _ #.;.q.B.M.r.q.` _ ",
"_ _ _ ` E a.' w 6 6 8 b $ 5 6 6 6 4 k k P =.8.t.Z.Z.B.B.B.w.O._ ",
"_ _ _ ` D.T.h.F 4 6 6   5 6 6 6 5 u y.f.k.Z.Z.Z.n.e.e.q.q.5.@._ ",
"_ _ _ ` 3.l.>.t 6 6 X X 6 6 6 6 4 T S.I.A.r.8.*.O.@.O.#._ ` _ _ ",
"_ _ _ _ _ _ ! 4 6 5   6 9 6 6 6 4 I <.x.V.m.0.*._ _ _ _ _ _ _ _ ",
"_ _ _ _ _ _ D 6 6   5 6 6 6 6 6 6 d _ *.t.C.B.w.:._ _ _ _ _ _ _ ",
"_ _ _ _ _ _ S 6   X 6 6 6 6 6 6 6 w / _ =.B.B.B.M.0.-._ _ _ _ _ ",
"_ _ _ _ _ _ K X   6 6 6 6 6 6 6 6 w / _ _ 5.B.N.N.B.e.5.+._ _ _ ",
"_ _ _ _ _ ) g X 6 6 6 6 6 6 6 6 6 y ) _ _ @.4.M.B.b.B.m.6.@._ _ ",
"_ _ _ _ _ ~ 9 8 6 6 6 6 6 6 6 8 6 A _ _ _ _ _ 4.M.B.e.8.O._ _ _ ",
"_ _ _ _ _ _ h = @ 9 6 6 6 6 O @ e ~ _ _ _ _ _ O.9.m.7._ _ _ _ _ ",
"_ _ _ _ _ _ H * = h A f f S a % , ^ _ _ _ _ _ _ *.q.#._ _ _ _ _ ",
"_ _ _ _ _ _ ^ G H _ _ _ _ _ ! l H ) _ _ _ _ _ _ _ @._ _ _ _ _ _ ",
"_ _ _ _ _ _ _ _ _ _ _ _ _ _ _ _ _ _ _ _ _ _ _ _ _ _ _ _ _ _ _ _ "
};
