/* XPM */
static char *b1b00255e6b743d0d1f434319cd53905pdcbMElTLKBKatDk[] = {
/* columns rows colors chars-per-pixel */
"32 32 116 2 ",
"   c None",
".  c #0A3604",
"X  c #013E01",
"o  c #0A3B03",
"O  c #093008",
"+  c #0A3A0C",
"@  c #1E3F05",
"#  c #093712",
"$  c #093914",
"%  c #3B2D07",
"&  c #253A05",
"*  c #323206",
"=  c #033522",
"-  c #033933",
";  c #083B35",
":  c #07393D",
">  c #4C1700",
",  c #4E1A00",
"<  c #521D01",
"1  c #4A2408",
"2  c #422A08",
"3  c #552003",
"4  c #592509",
"5  c #5D280D",
"6  c #632E14",
"7  c #653016",
"8  c #6B351D",
"9  c #6F3921",
"0  c #733E26",
"q  c #044400",
"w  c #0A4502",
"e  c #0C4904",
"r  c #0B480B",
"t  c #114504",
"y  c #134C0B",
"u  c #1A500F",
"i  c #1D5212",
"p  c #0A4222",
"a  c #044031",
"s  c #3E5F28",
"d  c #3E642C",
"f  c #7F4B38",
"g  c #4B6C3A",
"h  c #063C65",
"j  c #003D76",
"k  c #144C55",
"l  c #284A4C",
"z  c #256E40",
"x  c #657950",
"c  c #5A756E",
"v  c #804B35",
"b  c #8B5542",
"n  c #8F5A47",
"m  c #9A6554",
"M  c #938F71",
"N  c #9F967C",
"B  c #B9867A",
"V  c #054694",
"C  c #0451A8",
"Z  c #1D54A6",
"A  c #034FBD",
"S  c #0553B5",
"D  c #727DA9",
"F  c #044FC4",
"G  c #0050D6",
"H  c #2664D3",
"J  c #71CFD1",
"K  c #74D1D2",
"L  c #7CD4D5",
"P  c #7CD6D8",
"I  c #A99B82",
"U  c #AC9E99",
"Y  c #C89188",
"T  c #CE9890",
"R  c #CEAFA0",
"E  c #CCB0A3",
"W  c #D2B7AD",
"Q  c #C7AFB4",
"!  c #C7BEB5",
"~  c #E7B0AC",
"^  c #E6BCB6",
"/  c #F2BCBA",
"(  c #ABC3BD",
")  c #CEC4BB",
"_  c #9D9ACC",
"`  c #D7B7C6",
"'  c #E8BFD1",
"]  c #82D6D7",
"[  c #84D7D8",
"{  c #86D8D9",
"}  c #8BDBDB",
"|  c #93DDDE",
" . c #A8D4D4",
".. c #9FE2E3",
"X. c #A3E3E4",
"o. c #A9E6E7",
"O. c #A6E8EA",
"+. c #DBCECF",
"@. c #EFC5CB",
"#. c #E2CDCB",
"$. c #FEC6C6",
"%. c #FFCCC7",
"&. c #FFC7C8",
"*. c #FFCACA",
"=. c #FFD1CE",
"-. c #FFCED1",
";. c #EBD2D0",
":. c #E5D8D2",
">. c #E9DDDA",
",. c #F4D7D5",
"<. c #FFD1D4",
"1. c #FFD2D8",
"2. c #FFDEDF",
"3. c #FFDFE0",
"4. c #FFE3E3",
"5. c #FFE8E8",
/* pixels */
"                                                                ",
"                      3 < 3 4                                   ",
"                < 3 7 0 5 < 6 8 < <                             ",
"              < > < 7 7 4 5 < , , 3 <                           ",
"                f f 7 v 8 9 f n m 5 3 >                         ",
"                &.$.@.=.Y T $.*./ 0 B                           ",
"                $.2.>.,.<.*.*.4.*.~ &.                          ",
"              &.$.4.) +.=.*.5.! ;.=.&.                          ",
"                &.*.4.<.&.$.4.:.,.*.&.                          ",
"                &.&.$.&.&.$.$.<.*.&.&.                          ",
"                1.*.&.&.$.*.*.$.*.=.                            ",
"                  W =.&.*.$.*.-.<.                              ",
"            e e q y U -.&.&.@.Q x                               ",
"          e e e r q c <.%.=.D - q q e                           ",
"        e e e e e w k _ @.` l q e e e e                         ",
"        e e e e e w = A H Z - e e e e e                         ",
"        e e e e t o + C G j p e e e e e e               L L     ",
"        e e e w e w $ S F : r e e e e e e           L } | {     ",
"        q u d y e e # A V o e e w w w q q         { | { L L     ",
"        N E M r e e w h ; e e e w q s g z   P } X...| | | [     ",
"        -.<.R i w e e . o e e e e y I ^ ( O.o.X.| [ L L J K     ",
"          1.  w w e o o e e e e q g -.-.+.] L                   ",
"              q e w . e e e e e q     #. .{ K                   ",
"              e e . w e e e e e e q     } ..| P K               ",
"            e e o o e e e e e e e w       | | | { K             ",
"              o o e e y e e e e e e       J | } } | L J         ",
"            w . e e e e e e e e e e         K { | [ | [ K       ",
"            o t t e e e e e e t e e           K { | L [         ",
"            & 2 % t e e e e & % *               K ] K           ",
"              1 1 t e e e e % 1 1                 K             ",
"              1               1                                 ",
"                                                                "
};
