/* XPM */
static char *Marvin_FS1679315725[] = {
/* columns rows colors chars-per-pixel */
"64 64 166 2 ",
"   c None",
".  c #020202",
"X  c #0C0C0C",
"o  c #10090C",
"O  c #0D1113",
"+  c #141414",
"@  c #171A19",
"#  c #1C1C1C",
"$  c #211C1E",
"%  c #242424",
"&  c #2B2B2B",
"*  c #2B3130",
"=  c #333333",
"-  c #3B3B3B",
";  c #323A3C",
":  c #3E403F",
">  c #483F42",
",  c #287657",
"<  c #434444",
"1  c #4B4B4B",
"2  c #504F50",
"3  c #535353",
"4  c #5B5B5B",
"5  c #5A5558",
"6  c #5F5460",
"7  c #507F63",
"8  c #636363",
"9  c #6A6464",
"0  c #6B6469",
"q  c #6C6C6C",
"w  c #66696B",
"e  c #72666C",
"r  c #69766F",
"t  c #706E73",
"y  c #6A7574",
"u  c #757575",
"i  c #7C7C7C",
"p  c #3E8A5D",
"a  c #358B6E",
"s  c #388678",
"d  c #239875",
"f  c #369D71",
"g  c #38A471",
"h  c #2EBC77",
"j  c #44815E",
"k  c #5A816B",
"l  c #529B7F",
"z  c #6A8776",
"x  c #0ED565",
"c  c #27C776",
"v  c #2BC677",
"b  c #15E774",
"n  c #0EF175",
"m  c #18F470",
"M  c #14FA75",
"N  c #24E57C",
"B  c #32E47C",
"V  c #23FF7E",
"C  c #82807E",
"Z  c #798B83",
"A  c #6C9D80",
"S  c #7C9688",
"D  c #58AD8D",
"F  c #63A783",
"G  c #3CCB88",
"H  c #1CFB86",
"J  c #18FB86",
"K  c #21EC81",
"L  c #31ED84",
"P  c #28FA8A",
"I  c #30F885",
"U  c #31F68C",
"Y  c #2BFE91",
"T  c #33FE93",
"R  c #30FDA1",
"E  c #54D296",
"W  c #76C598",
"Q  c #49F598",
"!  c #6FCBA1",
"~  c #40FDA6",
"^  c #4FF2B1",
"/  c #71E2AF",
"(  c #7EEAB7",
")  c #73FDBB",
"_  c #6DFDC3",
"`  c #63FFC6",
"'  c #848484",
"]  c #8C8C8C",
"[  c #8C908E",
"{  c #948D92",
"}  c #8E9291",
"|  c #939394",
" . c #9C9C9C",
".. c #80AA94",
"X. c #81B199",
"o. c #98A6A0",
"O. c #A3A3A3",
"+. c #ABABAB",
"@. c #ADA8A1",
"#. c #B0AEAF",
"$. c #BAB0AD",
"%. c #AAB9B5",
"&. c #AAB2B4",
"*. c #B4B4B4",
"=. c #B8B9B7",
"-. c #B8B7B9",
";. c #BBBCBC",
":. c #C1BCB8",
">. c #B6C9BE",
",. c #A3D2B4",
"<. c #8BE6BD",
"1. c #BDC4C1",
"2. c #BFD6CF",
"3. c #B7DACC",
"4. c #8DFEC9",
"5. c #8AFDC7",
"6. c #92F9D1",
"7. c #B7F3C8",
"8. c #B1E8D5",
"9. c #AFF9DF",
"0. c #AFFFE7",
"q. c #BBFFE4",
"w. c #C3C4C3",
"e. c #C7C8C8",
"r. c #CCCCCC",
"t. c #CDC6C4",
"y. c #D0CFCD",
"u. c #C4DAC8",
"i. c #CCDCD6",
"p. c #D5D4D4",
"a. c #DAD4D4",
"s. c #D4DDD5",
"d. c #DBDBDB",
"f. c #D1D7DB",
"g. c #E1C5C9",
"h. c #E5D9DD",
"j. c #D8E4DC",
"k. c #E2E2DD",
"l. c #E4DEE1",
"z. c #F3DEE6",
"x. c #DEEBE6",
"c. c #C0FFEC",
"v. c #D6FFE4",
"b. c #DBFEEB",
"n. c #D7F4E6",
"m. c #CEFFF2",
"M. c #DAFFF9",
"N. c #E4E4E3",
"B. c #E6E8E7",
"V. c #ECECEC",
"C. c #F2EEED",
"Z. c #FDEAEE",
"A. c #E3F5E7",
"S. c #FFF4EF",
"D. c #FEEFF7",
"F. c #FFEDFB",
"G. c #FAE4F5",
"H. c #E7FEF1",
"J. c #ECFAF3",
"K. c #F4F4F4",
"L. c #FBF5F6",
"P. c #F4FBF6",
"I. c #FCFDF6",
"U. c #FDF4FA",
"Y. c #F6FCFA",
"T. c #FEFEFE",
/* pixels */
"                                                                                                                                ",
"                                                              + # +                                                             ",
"                                                      X = 4 ' ' ' i 9 > # .                                                     ",
"                                                  = t O.p.V.T.T.T.T.K.x.+.u - +                                                 ",
"                                              % i e.Y.T.T.T.T.K.T.K.K.T.T.K.p.' =                                               ",
"                                            1 +.T.T.T.K.K.V.K.K.K.K.K.K.T.T.T.T.;.1 #                                           ",
"                                        . 4 y.T.T.T.T.T.T.T.T.T.T.T.L.Y.T.K.K.T.T.B.4 .                                         ",
"                                        2 p.T.T.K.K.T.L.T.T.T.T.T.T.T.T.T.T.T.K.T.T.B.4                                         ",
"                                      = e.T.T.T.T.T.T.T.T.T.T.T.T.T.T.T.T.T.L.K.K.T.T.l.2                                       ",
"                                    + ' T.T.K.K.T.T.T.T.T.T.T.T.T.T.T.T.T.T.T.T.T.K.T.T.+.&                                     ",
"                                    3 V.T.T.T.Y.T.T.T.T.T.T.T.T.T.T.T.T.T.T.T.T.K.T.T.T.Y.i                                     ",
"                                  + | T.T.T.T.T.T.T.T.T.T.T.Y.Y.Y.T.K.T.K.T.Y.L.L.K.T.T.T.w.&                                   ",
"                                  = s.T.T.T.T.I.T.T.T.L.L.K.K.Y.P.P.K.K.L.L.U.U.L.T.T.T.T.Y.8                                   ",
"                                  4 K.T.T.T.T.I.F.h.t.;.-.#.-.#.-.#.-.*.=.*.:.t.a.G.D.U.T.T.O.#                                 ",
"                                $ } T.T.T.z.a.@.[ z r t w e 9 9 0 9 0 e e 9 t y z A X.u.U.F.i.=                                 ",
"                                % =.T.U.N.$.z a , , p z Z { { | [ [ ] { ] ] C k 7 j f D s.k.s.5                                 ",
"                                > 1.K.s...l s d c B Q 7.J.L.T.J.T.U.T.K.P.K.n.( N x c v ! >.a.w                                 ",
"                                - p.C.y.F g h N H Y ` T.T.T.T.T.T.T.T.T.T.T.T.0.T n M b E ,.e.t                                 ",
"                                < >.F.h.W G L H M P _ M.T.T.T.T.T.T.T.T.T.T.T.c.R J m N / 3.u.0                                 ",
"                                ; %.F.T.j.<.Q U I P ) b.P.I.T.T.T.T.T.T.T.T.Y.q.R Y U ^ 8.x.u.6                                 ",
"                                # o.T.U.T.A.9._ Y T 4.J.T.T.T.T.T.T.T.T.T.T.I.H.4.) 6.n.L.U.p.;                                 ",
"                                X y T.T.T.L.Y.m.5.5.H.I.T.T.T.T.T.T.T.T.T.T.T.Y.b.v.T.T.U.T.&.O                                 ",
"                                  : x.T.U.T.T.L.Y.Y.T.T.T.T.T.T.T.T.T.T.T.T.T.T.P.P.L.U.T.T.w                                   ",
"                                  @ %.T.T.T.U.T.I.T.T.T.T.T.T.T.T.T.T.T.T.T.T.T.I.T.L.T.T.f.*                                   ",
"                                    4 V.T.C.T.T.T.T.T.T.T.T.T.T.T.T.T.T.T.T.T.T.Y.Y.L.T.T.]                                     ",
"                                    @ O.T.T.T.T.T.T.T.T.T.T.T.T.T.T.T.T.T.T.T.T.T.T.T.T.f.-                                     ",
"                                      1 ;.T.T.V.T.T.T.T.T.T.T.T.T.T.T.T.T.T.T.T.K.T.T.B.8                                       ",
"                                        8 p.T.T.T.T.T.T.T.T.T.T.T.T.T.T.T.T.T.T.T.T.K.' %                                       ",
"                                        @ 8 e.T.T.V.T.K.T.K.T.T.T.T.T.T.T.T.T.T.T.N.u % % +                                     ",
"                                      $ X @ 5 w.T.T.T.T.T.T.T.T.T.T.T.T.T.T.T.T.p.] 3 - 1 = +                                   ",
"                                  . % 1 < = = < ' ;.T.T.T.T.T.T.T.K.T.T.T.T.a. .< < ' =.*.' 5 X                                 ",
"                                . * | :.{ 1 = % # - | e.N.T.K.T.T.T.T.C.d.-.i * + & ' T.T.T.w.- #                               ",
"                              X - O.B.T.=.1 + + + % = < 4 u ' | | | ' C i 4 = % $ # 5 t.T.T.T.O.&                               ",
"                            . < =.T.T.T.O.% + @ X # < < $ + % % & # X # 1 4 - $ # + * z L.T.T.N.8 #                             ",
"                          . < =.T.T.T.d.- X O X # - +.| - X O + # X % = ] d.] & + + # < d.T.T.T.p.- +                           ",
"                          #  .T.T.T.I.#.X o X X =  .T.T.i & % + # X & < e.T.p.4 % + # % #.Y.T.T.T.] %                           ",
"                        X - d.T.T.T.B.u + . X = { I.T.T.e.| 1 - = - 1 O.K.T.T.*.< @ + & q T.T.T.T.d.- .                         ",
"                        + 8 T.T.T.T.y.1 % # = ' d.T.T.T.T.B.+.] i ' w.B.T.T.T.B.] 1 & = 5 e.T.T.T.T.9 +                         ",
"                        # O.T.T.T.K.;.* % = +.T.T.T.T.T.T.T.T.K.T.T.T.T.T.T.T.K.K.r.u 5 3 O.T.T.T.T.*.%                         ",
"                        = r.T.T.T.K.O.$ = 4 r.T.T.T.T.T.T.T.T.T.T.T.T.T.T.T.K.T.T.T.y.q 1 u T.T.T.T.d.1                         ",
"                        4 V.L.T.T.V.8 % # * ' +.>.t.y.d.l.N.B.C.V.V.V.B.K.V.V.L.T.D.{ 5 - w d.T.L.T.U.i                         ",
"                        q T.T.T.T.K.4 % @ # & 1 4 8 q u i u ' C i i u u ' ] i ' z u 3 - % 3 a.T.T.K.T. .                        ",
"                        u T.K.T.T.L.1 @ + @ % - # + < - - = ; = - - - - * & - - - & % # + - d.T.K.T.C.] .                       ",
"                        C V.V.T.T.T.1 $ @ # 1 w ] ' 4 5 2 1 1 1 1 < 1 1 1 1 5 1 < = + @ X % e.T.Y.K.B.Z .                       ",
"                        q B.K.T.T.B.- # $ & 4 +.B.V.d.r.N.N.N.l.B.B.d.p.d.p.r.i = # $ # . # O.T.L.B.e.3                         ",
"                        3 p.T.T.T.h.- + + # 1 ' K.T.T.T.T.T.T.T.T.T.T.T.T.T.p.3 = = # # . X u T.T.K.O.%                         ",
"                        = O.V.T.T.w.+ . = = X = t d.T.T.T.T.T.T.L.Y.L.T.T.r.8 = # # = %     - O.d.=.5 X                         ",
"                        @ 4 e.T.T.} @ . - < O . = ] V.T.K.B.K.Y.T.K.K.T.N.i % + X = - %       = 9 3 +                           ",
"                        + & q O.' < . % O.;.< # @ 1 p.T.K.B.T.L.T.T.T.K.o.2 & % < | +.u                                         ",
"                          + # % = # . 1 N.T.B.u % = ] T.T.T.T.T.T.T.T.T.' 1 1 5 | B.T.;.&                                       ",
"                                    # 1 N.T.T.p.4 % 2 -.T.T.T.I.T.T.T.T.{ - = +.h.T.T.d.-                                       ",
"                                    % 1 B.T.T.T.O.- # - O.d.K.K.V.T.T.y.4 % 3 r.K.T.T.K.3 #                                     ",
"                                      1 B.T.T.T.K.4 % # = < 8 w 9 w 4 - $ % 3 p.V.T.T.K.4 X                                     ",
"                                    & 1 d.T.T.T.T.] % X # $ + X X . +     + < w.K.T.T.K.4 X                                     ",
"                                    $ 5 B.T.K.T.K.#.@                       - O.N.T.T.B.< X                                     ",
"                                    = 3 N.T.T.K.T.*.#                       % O.B.T.T.B.- .                                     ",
"                                    & 9 N.T.T.K.K.O..                       + u N.T.T.O.+                                       ",
"                                      1 d.T.T.T.V.'                         . = ' *. .1 .                                       ",
"                                      = +.T.T.T.=.-                           + + % + X                                         ",
"                                      + 4 ;.d.=.2 .                                                                             ",
"                                        X - < & .                                                                               ",
"                                                                                                                                ",
"                                                                                                                                ",
"                                                                                                                                "
};
