/* XPM */
static char *_b4590b501e34a07d4abe08c134f4e84gWjHTqA2n5Uq9EJ8[] = {
/* columns rows colors chars-per-pixel */
"64 64 206 2 ",
"   c #020303",
".  c #090606",
"X  c #050708",
"o  c #06090A",
"O  c #0D0D0D",
"+  c #0B0807",
"@  c #110E0D",
"#  c #1B0D0C",
"$  c #17050A",
"%  c #12100E",
"&  c #1D110D",
"*  c #0E0F11",
"=  c #0E1112",
"-  c #0F1619",
";  c #121212",
":  c #191413",
">  c #1A1816",
",  c #131619",
"<  c #151A1B",
"1  c #1A1A1A",
"2  c #171817",
"3  c #10100F",
"4  c #250B0B",
"5  c #2C0C0B",
"6  c #2C0D06",
"7  c #330D0A",
"8  c #3D0C0C",
"9  c #23120C",
"0  c #2E110B",
"q  c #34130B",
"w  c #3C140C",
"e  c #221A18",
"r  c #26221E",
"t  c #151B24",
"y  c #181D24",
"u  c #1B2325",
"i  c #19222B",
"p  c #12202E",
"a  c #192535",
"s  c #1B273A",
"d  c #2A2622",
"f  c #2D2926",
"g  c #2B2B2B",
"h  c #242727",
"j  c #302B25",
"k  c #3C352E",
"l  c #323232",
"z  c #3A3A39",
"x  c #470909",
"c  c #540B0B",
"v  c #580907",
"b  c #41140B",
"n  c #49170C",
"m  c #56150A",
"M  c #4C1811",
"N  c #6C0807",
"B  c #6E0909",
"V  c #670705",
"C  c #710B0B",
"Z  c #790606",
"A  c #691708",
"S  c #771A05",
"D  c #731111",
"F  c #6F0D10",
"G  c #5B240D",
"H  c #562614",
"J  c #73290D",
"K  c #6F2711",
"L  c #40372F",
"P  c #413A32",
"I  c #4C4339",
"U  c #53483E",
"Y  c #1C2D43",
"T  c #1C2C4D",
"R  c #1F3247",
"E  c #1B2E52",
"W  c #1F375D",
"Q  c #22354C",
"!  c #233757",
"~  c #223E68",
"^  c #29456A",
"/  c #294979",
"(  c #30557E",
")  c #4B4C4B",
"_  c #464644",
"`  c #5E5245",
"'  c #585857",
"]  c #5A4D41",
"[  c #69594C",
"{  c #776656",
"}  c gray39",
"|  c #797978",
" . c #8E0706",
".. c #8F0806",
"X. c #890706",
"o. c #900907",
"O. c #920B0A",
"+. c #990705",
"@. c #8B1403",
"#. c #8C1314",
"$. c #AD0505",
"%. c #A60807",
"&. c #B20405",
"*. c #B7090A",
"=. c #B4141D",
"-. c #AE130E",
";. c #86370E",
":. c #862910",
">. c #9D3612",
",. c #912B0A",
"<. c #A73C12",
"1. c #AE3307",
"2. c #9D3938",
"3. c #C40403",
"4. c #C40B05",
"5. c #CD0402",
"6. c #D0100F",
"7. c #E70504",
"8. c #F60203",
"9. c #F70702",
"0. c #F91407",
"q. c #CB3405",
"w. c #F9250A",
"e. c #FA350D",
"r. c #CA2222",
"t. c #9C4812",
"y. c #A74213",
"u. c #B4500F",
"i. c #B66918",
"p. c #FA4F0F",
"a. c #FA4F11",
"s. c #F94015",
"d. c #FB5010",
"f. c #F95E16",
"g. c #D97A1B",
"h. c #FA6F1E",
"j. c #E07A1C",
"k. c #FA701E",
"l. c #FA6D21",
"z. c #FA7422",
"x. c #CE7460",
"c. c #F4942B",
"v. c #FAC53A",
"b. c #9C8770",
"n. c #AD937A",
"m. c #D7967B",
"M. c #FBD74A",
"N. c #FCE259",
"B. c #FBF65B",
"V. c #FDD369",
"C. c #FCD467",
"Z. c #FCFA76",
"A. c #FCFA77",
"S. c #FCE66C",
"D. c #325A88",
"F. c #2F548B",
"G. c #36659B",
"H. c #3B689D",
"J. c #3570AC",
"K. c #47709D",
"L. c #4577AC",
"P. c #427AB1",
"I. c #417DC0",
"U. c #3A81B8",
"Y. c #4482B4",
"T. c #498CD5",
"R. c #4484CA",
"E. c #6B9FC4",
"W. c #6CA4C8",
"Q. c #73A5C7",
"!. c #8B8B8A",
"~. c #959594",
"^. c #BD9D81",
"/. c #A8A8A7",
"(. c #B0B0AE",
"). c #BABAB8",
"_. c #EA8785",
"`. c #C5A78B",
"'. c #D4B595",
"]. c #DFBF9D",
"[. c #CCAF91",
"{. c #C0BFBC",
"}. c #FDFF9D",
"|. c #FCFF80",
" X c #EAC9A6",
".X c #F1CEAA",
"XX c #F5D1AC",
"oX c #FDFFA4",
"OX c #FDFFA8",
"+X c #8DB3C8",
"@X c #8DBAD5",
"#X c #97BAD1",
"$X c #92B3C8",
"%X c #A1BED2",
"&X c #B7C6D3",
"*X c #CCCCCA",
"=X c #C6C6C5",
"-X c #C6CDDA",
";X c #CBD2D7",
":X c #DDD7DA",
">X c #DCCED7",
",X c #E1E1DF",
"<X c #E8E8E6",
"1X c #F0F0EE",
"2X c #F5F5F3",
"3X c #F9F9F7",
/* pixels */
"O O O O O O O O O O O O O O O O O o O O O O O O O O O O O O O O O @ ; ; O O O O O O O O O O O O O O O O O O @ 3 O O O O O O O O ",
"O O O O O O O O O O O O o O O O O + O O O O O O O O O O O O O O O 3 ; = O O O O O O O O O O O O O O O O O O O O O 3 O O O O O O ",
"O O O O O O O O O O O O O O ; = ; O % O O o O O O O O O O O O O O O O 3 O O O O O O O O O O O O O O O O O % % O O O O O O O O O ",
"O O O O O O O * O O O O @ * ; O O * O O O O O O O O O O O O O O O 3 O O O O O O O O O O O O O O O O O O @ O O O ; O O O O O O O ",
"O O O O @ O @ O @ O ; ; 2 2 o + > ; ; % O O O @ O O O O O O O O O O O O O O O O O O O O O O O O O O @ O @ 3 @ O O O O O O O O O ",
"O O @ O @ O O O O O O + O   + . o O O O ; O O O O O O O O O O O O O O O O O O O O O O O O O O O O O @ % 3 O % @ @ O @ O O @ O O ",
"O O @ @ @ O O + @ O @ +       X o . O o O O o O O + O O O O O O O O O O O O O O O O O O O O O O + O % % % % % @ @ O O O O O O O ",
"O O @ O O o * O O O @ .   2 ) ) ;   + O O O O 3 O o O O O O O O O O O O O O O O O O O O O O @ O @ @ O O # # @ % @ O O O O O O O ",
"O O O 3 O o o O @ * = o < l *X=Xh     : ; O ; ; ; O O O O O O O O O O O O O O O O O O O O O * * O O & 7 c m 7 o & O O O O O O O ",
"= O o + O 4 q 9 @ ; - O   l =X).f     % ; 3 ; O O O @ O O O O O O O O O O O O O O O % O ; @ @ @ @ ; w :.y.<.:.q # % O O O O O O ",
"O O # 6 A @.%.S 9 = = + + 2 ) l >   + @ @ ; O o 2 ; ; @ O O O O O O O o @ O O O % O O ; ; ; O + * : H <.j.j.>.b @ % % 3 O O O O ",
"% 3 7 J 1.q.q.@.4 O 3 O O +     O + o o O     X o @ O O = O O O O O O O O O O O O O O O o   + + o o M <.c.j.<.8 @ O @ O O O @ O ",
"& 4 A 1.i.u.1.m @ = = % % O       o o o         .   O = O O o O O O O O O + O o O o X .         o X & K y.>.A 6 @ @ O 3 O @ O O ",
"9 w S u.i.i.,.5 + 3 ; ; ; 3 O O O O 3 o o d ` U ; . o 3 O O O @ O O O O O O O o O + o o 2 k _ l 2 X O 9 n w 9 % @ % @ + O O O O ",
"6 b @.1.u.t.m # @ O 3 O + 3 = - ; O ; o r U .X].r     = ; O O O O O O O O O % O = = O . ] n..X^., X X * & & O O @ O O O O O O O ",
"9 q Z ,.,.J 9 + % o O 3 O O 3 3 O @ : @ ; I ].[.d   o O O O O O O O O O O O 3 ; = + ; : I b. X^.e   + * % % @ @ O O O O O O O O ",
"# 9 6 m m 9 % O O O * + O O O O ; O O o O > I f *   * O O O O O O O O O O O O O ; O + O O d k r ; + O @ O O O O O O O O O O O O ",
"% @ % & @ + % + O O * O O O * O % @ O o O +     X + @ O O O O O O O O O O O O O @ ; o o X .     o ; * @ O O O O O O O O O O O O ",
"O @ O % % O % O @ O O O O O O O O ; @ @ O O o o O + O O O O O O O o O O O O O O O % ; O O X + o O + O O O O O O O o O O O O O O ",
"@ O O O O O O O O O O O O O * O O @ ; ; ; % O @ = O O O o % O @ O O O 3 O O O @ O % @ ; O O % @ = O O O O = % @ O o % O O O O O ",
"O O O O O O O O O O O O O O O O O O O O O O ; ; @ O O O * O @ * % O O O O O O o O O ; @ O O ; ; % @ O O ; @ * O % O O 3 O O O O ",
"O O O O O O O O O O O O O O O O * O O O o O O @ O O O O O * * O O O O O O O O O O O 3 O o O O O O O O O O O @ O O O O O O O O O ",
"O O O O O O O O O O O O O O O O O O O O O O @ O = O @ = ; ; @ O ; O ; % O O O O O O O O O O @ O O @ = % 2 2 + @ ; O O @ 3 O O O ",
"O O O O O O O O O O O O O O O O O = O O O O @ O O O O * +   o O o O O O = O O O O O O O O O O O O O O O o   o o o + O o ; O O O ",
"O O O O O O O O o O O O O * O = ; O O O O O O o + O o + X o * > 2   O O O + O = O O O O O O O o O O O O   + @ : ;   O O O o O O ",
"O O O O O O O O O O O O * O O O O O = O O * * O O O @ o = z | | z @ O * O o @ O O O O O O O O O O O O     e [ { k % O O O O O O ",
"O O O O O O O O O * O O + @ = * * ; = = @ O O O 3 = ; + g } <X,X' 1 O ; O ; O O O O O O O O O O O ; ; O o f [.XX{ e O @ O 3 O O ",
"O O O O O O O # x v B C B N N B F F C B B B B C B B C B X.2._.m.2.B N B B C B B N B N B N B B B B B Z N V D x.`.[ : O o O % ; O ",
"O O O O O @ 4 c X.+.$.$.$.$.%.-.=.=.*.$.%.$.$.$.$.$.$.$.$.*.r.r.*.$.$.$.$.$.$.$.$.$.$.$.$.&.$.$.$.$.$.$.&.$.-.#.b # O o O O O O ",
"O O O O @ 6 V $.7.8.8.8.8.8.8.8.8.8.8.8.8.8.8.8.8.9.8.8.8.8.8.8.8.8.8.8.8.8.8.8.8.8.8.8.8.8.8.8.8.9.8.8.8.9.8.5.X.x & O 3 O O O ",
"O O O O 6 x %.7.9.e.f.h.h.h.h.h.z.l.k.h.l.h.h.k.h.h.k.k.z.l.k.z.z.k.k.k.h.h.z.h.z.h.k.k.h.h.h.h.l.z.z.z.z.d.w.8.5.Z 5 # * O O O ",
"O O O O 8 V 3.8.a.v.B.Z.A.A.Z.Z.A.A.Z.Z.Z.Z.Z.Z.Z.Z.Z.Z.Z.Z.Z.A.Z.Z.Z.Z.Z.Z.Z.Z.A.Z.Z.Z.Z.Z.A.Z.Z.A.A.A.A.B.c.w.7.%.x 4 O O % O ",
"O O O O x C 5.9.z.B.A.}.OXOXOXOXOXOXOXOXOXOXOXOXOXOXOXOXOXOXOXOXOXOXOXOXOXOXOXOXOXOXOXOXOXOXOXOXoX}.}.oX}.Z.v.e.9.%.x 4 O O @ O ",
"O O O O 5 c $.8.s.c.M.N.C.V.C.V.V.V.V.V.V.V.V.V.V.V.V.V.V.V.V.V.V.C.V.V.V.V.V.V.V.V.V.V.V.V.V.V.V.V.V.V.S.N.k.0.7.X.8 # O O O O ",
"O O * O # 5 Z 3.0.w.e.d.d.d.d.d.a.a.a.d.p.p.d.a.a.a.d.d.a.a.d.d.p.p.p.d.p.p.p.p.d.p.a.d.a.d.a.a.a.a.d.d.d.e.0.7.+.c # = * O O O ",
"O O O * * # 7 V +.&.3.4.4.4.4.4.4.4.4.4.4.4.4.4.4.4.4.4.4.4.4.4.4.4.4.4.4.4.4.4.4.4.4.4.4.4.4.4.4.4.4.4.4.*.$.X.c 9 @ O O O O O ",
"O O O + o O @ 5 v Z X.o. . .......o.o.o... ... .o.o.o.o.O.O...X.O.O.o.o.o.o.o.o. ...o. ...o. . .o.o.o.O.O.#.D x 9 O O O O O O O ",
"O O * o O O @ .   : ' ' ;   o % O o O O O o O O O O O @ o   .   O @ O O @ O O O O O O O O O O O * + - Q D.D.W t - = O O O O O O ",
"O O O O @ ; ; o = l *X*Xh     ; ; O O O O O O O O O O O         o o O O O O O O O O O O O O O = = + s / R.R.D.s * * O O * O O O ",
"O O O O @ ; > +   l {.).f   o O * 3 3 O O O O O O O O .   O k L :   o O O o O O O O O O O O * O @ O a ( R.T.H.s * O * * O O O O ",
"O O O O = : ; + . ; _ g ;   ; O O O @ O O O O O O ; ; O X r '.'.f o X * % O O O O O O O O O = * O O - Q G.H.^ p * * * O O O O O ",
"O O O O ; ; @ O o .       . ; O * O o O O O @ O O O > O   j  X Xk X X O O 3 % = O O O O O O * O O O O - R s t ; * = * + O * O O ",
"@ @ : ; O o ; O O . . . o O O + O @ O O O O O * 3 % ; O   1 { [ 1   @ % O * O O O O O O O O O * * O O = 3 = O O * O O O O O O O ",
"O O *   X X * O = * O O O O O O O = O O O O O O O O ; *   = r @ = o @ @ O O O O O O O O O O * * = O 3 O = = O O * O O O O O O O ",
"O           . o O o ; * O % O O O + O O O O O O * * ; ; ; - o = O O = O 3 O O o O O O O O O O O * * O * O O O O O O O O O O O O ",
"O . o : k k @   X O % O O O O 3 O O O O O o O O * * : 1 2 , < 1 2 * = = O O O O O O O O O O O O O O * O O O O @ @ o O O O O O O ",
"O X j [  X'.> .   = ; O O O O O O O O O O O O @ O = , < u i h u u < ; = = O O O O O O O O O O O 3 O % O = % % O O O O O O O O O ",
"2 ; 1 [  X'.d   . ; % = O O O 3 O O o O O O = = ; , y Y ~ / D./ Y i < < = * O O O O O O O o O O = O % O 3 O 3 O O O O O O O O O ",
"o o = r U k =   * O O O O O O O O O O * O * = = , t Q F.J.J.Y.J.~ T y > * * O O O O O O O O O O @ ; ; % O O ; = O O O O @ O O O ",
"+ O O + X     + ; O O O o O O O O O O O * O - ; 2 s / J.W.$X$XW.P./ s y ; ; * O O O O O O O O O = O ; O = O ; ; * O O O O O O O ",
"= = O O o X O o @ @ @ * O O O O O O * O O O = , y E G.E.#X&X&X%XQ.J.E t , * O * O O O O O O = O + o @ o ; O 2 ; 1 * O O O O O O ",
"; @ = O O O % % @ @ % @ O O O O O O O O = = ; 2 t W J.@X;X>X>X-X$XL.W t , - = = O O O O O O ; @ O O 2 g _ ) g , 2 2 = @ O O O O ",
"@ % O O * * * 3 @ @ O O 3 O O O O @ O O * * ; < y E K.@X;X:X>X-X+XP.E y < - * * O O O O O ; ; * O 1 _ !./.(.~.' 1 O @ O ; O O O ",
"@ O O O O O O o @ @ o O O O % O O O O * * * = ; t Y G.W.&X;X;X&XQ.G.Y 1 < ; * O * @ O O 3 O 2 ; O h !.:X<X2X<X~.z 1 ; ; O ; O O ",
"O O O O O O O $ 4 5 # X O O O O O O O O O * ; ; , i ! K.E.@X#XQ.L.! y t ; = = % O O * O O ; O 2 : l /.3X1X2X<X).) 1 1 ; ; O O O ",
"O O O O O o $ n ;.;.b @ @ O O O O O O O * O * ; ; 2 p E F.G.K.F.! y y < ; O O O O = O O = @ ; ; O z (.3X3X3X1X=X) 1 1 ; = O 3 O ",
"O O O O % O q J g.g.G $ O @ @ O O O O O O O * = ; , < i p Y Y a y : ; = = O O O O O O O % % ; ; ; g !.1X1X3X<X/.z 1 1 ; O O = O ",
"O % O O % % 6 J j.g.G $ + @ O % O O O O O O * * ; = , , 1 2 t < < , = 3 3 = O 3 O O O O * O = @ O 1 ) !.).=X/.} y 2 2 O O O O @ ",
"O O % O O % # b ;.J q $ % O O O O O O O O O O O = = = , ; - - = - = = * O O O O O O O O O O ; ; ; 2 1 z ' ' _ h : O ; O ; O O O ",
"O O % % O o O # 7 4 # @ @ O O O O O O O O O O O O * * * = = - = = 3 O = = O O O O O O O O O ; * O ; ; : : = ; 2 2 . * O O * O O ",
"O O % O % O % @ O O O + O O O O O O O O O O O O O O O O O O O O * O O O O O O O O O O O O O O ; ; ; ; ; 2 ; 2 = ; O O O O O O O ",
"O O O O @ @ % O @ 3 3 O O O O O O O O O O O 3 O O O O O O O O O O O O O O O O O O O O O O O O O = @ ; ; ; @ ; ; O @ O O O O O O ",
"O O O O O O O O O O O O O O O O O O O O O O O O O O O O O O O O O O O O O O O O O O O O O O O O O O O O O O % O O O O O O O O O ",
"O O O O O O O O O @ O O O O O O O O O O O O O * O * O O O O O O O O O O O O O O O O O O O O O ; O O O O o O O O O = O O O O O O "
};
