/* XPM */
static char *projectiles_FS1679315726[] = {
/* columns rows colors chars-per-pixel */
"64 64 211 2 ",
"   c None",
".  c #F60000",
"X  c #F70000",
"o  c #F60100",
"O  c #F60001",
"+  c #F70001",
"@  c #F60002",
"#  c #F70002",
"$  c #F70102",
"%  c #F70302",
"&  c #F60601",
"*  c #F70701",
"=  c #F60402",
"-  c #F70402",
";  c #F70403",
":  c #F70503",
">  c #F70602",
",  c #F70603",
"<  c #F70703",
"1  c #F70404",
"2  c #F70405",
"3  c #F70604",
"4  c #F80001",
"5  c #F80102",
"6  c #F80403",
"7  c #F90403",
"8  c #F80703",
"9  c #F90704",
"0  c #F70801",
"q  c #F70A01",
"w  c #F70802",
"e  c #F70902",
"r  c #F70803",
"t  c #F70B03",
"y  c #F70E01",
"u  c #F70F01",
"i  c #F70C02",
"p  c #F70D03",
"a  c #F70F02",
"s  c #F70804",
"d  c #F70904",
"f  c #F70805",
"g  c #F70A04",
"h  c #F70A05",
"j  c #F80A01",
"k  c #F90802",
"l  c #F80A02",
"z  c #F80B02",
"x  c #F80C01",
"c  c #F90F03",
"v  c #F80904",
"b  c #F90904",
"n  c #F80905",
"m  c #F90B04",
"M  c #F80B06",
"N  c #F90D04",
"B  c #F80C05",
"V  c #F90D06",
"C  c #F90F06",
"Z  c #F90F07",
"A  c #F80C09",
"S  c #F71001",
"D  c #F71101",
"F  c #F71003",
"G  c #F91005",
"H  c #F91106",
"J  c #F91007",
"K  c #F91306",
"L  c #F91407",
"P  c #F91A03",
"I  c #F91A04",
"U  c #F81806",
"Y  c #F91B06",
"T  c #F91508",
"R  c #F9170A",
"E  c #F91809",
"W  c #F91909",
"Q  c #F9180A",
"!  c #F91C08",
"~  c #F91D09",
"^  c #F91E09",
"/  c #F91D0A",
"(  c #F91E0A",
")  c #F91E0B",
"_  c #FA1C0C",
"`  c #FA2103",
"'  c #FA2307",
"]  c #F8210B",
"[  c #F8230B",
"{  c #FA240A",
"}  c #F8230D",
"|  c #FA260C",
" . c #FA280D",
".. c #FA280E",
"X. c #FA290E",
"o. c #F8340B",
"O. c #F93110",
"+. c #F83710",
"@. c #F83D14",
"#. c #FA4212",
"$. c #F95416",
"%. c #F95417",
"&. c #FA5716",
"*. c #F8501A",
"=. c #F96419",
"-. c #FB791E",
";. c #FB791F",
":. c #FB7A1F",
">. c #F97422",
",. c #FB7920",
"<. c #FB7A20",
"1. c #FC7A23",
"2. c #FC7B23",
"3. c #FB7C22",
"4. c #FC7C23",
"5. c #FB7A24",
"6. c #FB7C26",
"7. c #FA7D27",
"8. c #FB7F26",
"9. c #FC7C24",
"0. c #FC7D24",
"q. c #FC7C25",
"w. c #FC7E26",
"e. c #FA7A28",
"r. c #FA8022",
"t. c #FB8325",
"y. c #FC8026",
"u. c #FC8126",
"i. c #FC8227",
"p. c #F98C25",
"a. c #FB8228",
"s. c #FA882A",
"d. c #FA8B2B",
"f. c #FA9129",
"g. c #FA9229",
"h. c #FA9329",
"j. c #FA912A",
"k. c #FA922A",
"l. c #FA932A",
"z. c #FA952A",
"x. c #FA942B",
"c. c #FA952B",
"v. c #FA922C",
"b. c #FA952C",
"n. c #FA962C",
"m. c #FA972C",
"M. c #FA962D",
"N. c #FA952E",
"B. c #FA992F",
"V. c #FA9E2D",
"C. c #F99E2E",
"Z. c #FA9330",
"A. c #FA9633",
"S. c #FA9830",
"D. c #FA9D32",
"F. c #FA9F34",
"G. c #FAC640",
"H. c #FAD044",
"J. c #FAD445",
"K. c #FBD44F",
"L. c #FAEF4C",
"P. c #FBE85D",
"I. c #FBF055",
"U. c #FCDD7D",
"Y. c #FCDE7C",
"T. c #FCDE7D",
"R. c #FCDF7D",
"E. c #FCDE7E",
"W. c #FCED6E",
"Q. c #FBFC6B",
"!. c #FBFF6A",
"~. c #FBFA6C",
"^. c #FCE976",
"/. c #FCE07A",
"(. c #FDE87D",
"). c #FDE87E",
"_. c #FDE97F",
"`. c #FCEE7E",
"'. c #FCF073",
"]. c #FCF276",
"[. c #FCF376",
"{. c #FCF576",
"}. c #FCF777",
"|. c #FCFF74",
" X c #FCFF75",
".X c #FCF778",
"XX c #FCF878",
"oX c #FCFF7C",
"OX c #FCFE7D",
"+X c #FCFF7D",
"@X c #FCFF7E",
"#X c #FCDF82",
"$X c #FDE980",
"%X c #FDE981",
"&X c #FDEA81",
"*X c #FDE982",
"=X c #FDEB82",
"-X c #FBFF81",
";X c #FCFF86",
":X c #FDFF95",
">X c #FDFA98",
",X c #FDFF98",
"<X c #FDFF99",
"1X c #FDFF9A",
"2X c #FDFF9C",
"3X c #FDFF9D",
"4X c #FDFF9F",
"5X c #FDFFA0",
"6X c #FDFFA2",
"7X c #FDFFA3",
"8X c #FDFFA4",
/* pixels */
"                                                                                                                                ",
"                                                                                                                                ",
"                                                                                                                                ",
"                                                                                                                                ",
"                                                                                                                                ",
"                                                                                                                                ",
"                                                                                                                                ",
"                                                                                                                                ",
"                                                                                                                                ",
"                                                                                                                                ",
"                                                                                                                                ",
"                                                                                                                                ",
"                                                                                                                                ",
"                                                                                                                                ",
"                                                                                                                                ",
"                                                                                                                                ",
"                                                                                                                                ",
"                                                                                                                                ",
"                                                                                                                                ",
"                                                                                                                                ",
"                                                                                                                                ",
"                                                                                                                                ",
"                                                                                                                                ",
"                                                                                                                                ",
"                                                                                                                                ",
"                                                                                                                                ",
"                                                                                                                                ",
"            . . . 5 . . . : . . . . . . . : . . . . . . . . . . . . . . . . . . . . . . . . . : . : . . . . . . .               ",
"        . 5 : 1 d d k : d r n 6 d : n : r r n 1 d : n 1 d r n 1 d d d k d d d 1 n : d 1 d 1 d n d n d 1 d d d 6 . 5 : .         ",
"      . . 5 6 k T B E G E B E B E G E B E G E B E G E B E G E B E B E A E G E G E B E G E J T B E B E J E G T B k 6 r r .       ",
"    . 5 B o.=.p.s.Z.z.C.v.M.k.M.k.M.k.v.k.M.k.M.k.M.k.M.v.M.z.M.k.M.k.z.k.M.k.B.k.B.k.M.k.z.k.v.k.M.v.D.M.F.A.D.r.&.] . r .     ",
"    . 5 +.C.L.!.|.+X].+X}.+X}.+XXX+X}.+X.X+X}.+XXX+XXX+XXX+XXX+X}.+X}.+X}.+X}.+XXX+XXX+X.X+X.X+X}.+X].+X}.+X^.|.!.K.>.[ i B     ",
"    : d *.G.!.;X1X8X6X6X4X6X6X6X6X6X6X6X6X6X6X8X6X6X6X6X6X6X6X6X6X6X6X6X6X6X6X6X6X6X6X8X6X8X6X6X4X6X1X4X:X1X>X1X-XI.7.} 1 d     ",
"    . 6 @.s.J.P.W.^.U._.Y.(.Y._.U._.Y.%XU.%XU.%XU.%XU._.U.%XU.%XU.%XU.%XY._.U.%XU.%XU.%XU.%XU.%XU.%X/.%XU.=X#X`.~.H.&.U : :     ",
"    . 6 B O.&.4.y.t.y.y.4.y.-.w.;.4.;.4.;.4.;.3.;.4.;.2.;.4.;.4.;.4.;.4.;.2.;.4.;.4.;.4.<.w.;.4.<.2.<.2.3.6.a.6.6.#.( n r       ",
"      . 1 B n G P ` P { Y { ] ..( ..( ..( ..( ..( ..( ..( ..( ..( ..( ..( ..( ..( ..( ..( ..( ..( | ( ..Y { P _ z n A n         ",
"          : r r D r D z D k D r i k D r D z D k i k D r D k D r D k D z i k D r D k D r D r D k i k D k D r i r r : :           ",
"              : d 1 r r r 1 : 1 : : : : : 1 : 1 : : : : : 1 : 1 : 1 : 1 : : : : : 1 : 1 : 1 : 1 : : 1 1 : : 9 .                 ",
"                                                                                                                                ",
"                                                                                                                                ",
"                                                                                                                                ",
"                                                                                                                                ",
"                                                                                                                                ",
"                                                                                                                                ",
"                                                                                                                                ",
"                                                                                                                                ",
"                                                                                                                                ",
"                                                                                                                                ",
"                                                                                                                                ",
"                                                                                                                                ",
"                                                                                                                                ",
"                                                                                                                                ",
"                                                                                                                                ",
"                                                                                                                                ",
"                                                                                                                                ",
"                                                                                                                                ",
"                                                                                                                                ",
"                                                                                                                                ",
"                                                                                                                                ",
"                                                                                                                                ",
"                                                                                                                                ",
"                                                                                                                                ",
"                                                                                                                                ",
"                                                                                                                                "
};
