/* XPM */
static char *button_end_Tavola_disegno_11679567765[] = {
/* columns rows colors chars-per-pixel */
"64 64 109 2 ",
"   c None",
".  c #8F6F82",
"X  c #966681",
"o  c #976681",
"O  c #966781",
"+  c #9B6180",
"@  c #996380",
"#  c #9A6280",
"$  c #9B6381",
"%  c #9C6080",
"&  c #9C6381",
"*  c #986481",
"=  c #996481",
"-  c #9B6783",
";  c #9B6784",
":  c #936A81",
">  c #926B81",
",  c #946881",
"<  c #956881",
"1  c #946981",
"2  c #916C82",
"3  c #906D82",
"4  c #906E82",
"5  c #976E86",
"6  c #877783",
"7  c #877784",
"8  c #8B7383",
"9  c #8D7182",
"0  c #8E7082",
"q  c #8C7283",
"w  c #897583",
"e  c #8A7483",
"r  c #8A7583",
"t  c #887683",
"y  c #877883",
"u  c #837B84",
"i  c #857984",
"p  c #867884",
"a  c #867984",
"s  c #847A84",
"d  c #837C84",
"f  c #827D84",
"g  c #9A7088",
"h  c #9B7189",
"j  c #9A778C",
"k  c #997E90",
"l  c #7E8084",
"z  c #7E8185",
"x  c #7C8385",
"c  c #7B8485",
"v  c #7A8585",
"b  c #778886",
"n  c #768986",
"m  c #778986",
"M  c #718F87",
"N  c #748C86",
"B  c #748D86",
"V  c #748C87",
"C  c #6E9387",
"Z  c #6B9688",
"A  c #6D9A8B",
"S  c #719087",
"D  c #78938C",
"F  c #709E8F",
"G  c #72A292",
"H  c #75A696",
"J  c #75A796",
"K  c #77AB99",
"L  c #78AB9A",
"P  c #78AC9A",
"I  c #7AAF9D",
"U  c #7DB4A1",
"Y  c #7DB5A2",
"T  c #968693",
"R  c #998594",
"E  c #908C93",
"W  c #988F98",
"Q  c #988F99",
"!  c #97979D",
"~  c #97989D",
"^  c #8EADA5",
"/  c #96A4A3",
"(  c #96A5A4",
")  c #80B9A5",
"_  c #80BAA6",
"`  c #81BCA7",
"'  c #83BEAA",
"]  c #95BAAF",
"[  c #84C0AB",
"{  c #85C3AD",
"}  c #87C5AF",
"|  c #8BCCB5",
" . c #8BCDB6",
".. c #8CCFB7",
"X. c #94C1B3",
"o. c #93C7B6",
"O. c #93C9B7",
"+. c #8DD0B8",
"@. c #8ED0B9",
"#. c #8FD3BB",
"$. c #8FD4BB",
"%. c #93D0BB",
"&. c #90D4BC",
"*. c #90D5BC",
"=. c #91D6BD",
"-. c #92D5BE",
";. c #91D6BE",
":. c #91D7BE",
">. c #92D8BF",
/* pixels */
"                                                                                                                                ",
"                                                                                                                                ",
"                                                                                                                                ",
"                                                                                                                                ",
"                                                                                                                                ",
"                                                        Z Z Z Z Z Z                                                             ",
"                                              Z Z Z Z Z Z Z Z Z Z Z Z Z Z Z Z                                                   ",
"                                        Z Z Z Z Z Z Z Z Z Z Z Z Z Z Z Z Z Z Z Z Z Z                                             ",
"                                    Z Z Z Z Z Z Z Z Z Z Z Z Z Z Z Z Z Z Z Z Z Z Z Z n %                                         ",
"                                Z Z Z Z Z Z Z Z Z Z Z Z Z Z Z Z Z Z Z Z Z Z Z Z Z Z C % % %                                     ",
"                              Z Z Z Z Z Z Z Z Z Z Z Z Z Z Z Z Z Z Z Z Z Z Z Z Z Z Z Z N + + %                                   ",
"                            c Z Z Z Z Z Z Z Z Z Z Z Z ..>.=.=.+.=.' Z Z Z Z Z Z Z Z Z Z C p + % %                               ",
"                        p n Z Z Z Z Z Z Z Z Z Z Z Z K >.=.>.>.>.>.>.Z Z Z Z Z Z Z Z Z Z Z Z M O % %                             ",
"                      p n Z Z Z Z Z Z Z Z Z Z N p w T ( ( ( ( ( ( / p M Z Z Z Z Z Z Z Z Z Z Z M j % %                           ",
"                    2 N Z Z Z Z Z Z Z Z Z c = % % % % + O : O : % % % % 0 n Z Z Z Z Z Z Z Z Z G >.W % %                         ",
"                  % 2 Z Z Z Z Z Z Z Z Z z % % % ; h ; N Z Z Z Z Z Z M n f w 8 M Z Z Z Z Z Z Z J >.>.W % %                       ",
"                % % b Z Z Z Z Z Z Z Z D + & R X.>.>.>.Z Z Z Z Z Z Z Z Z Z Z Z Z Z Z Z Z Z Z Z Z #.>.>.k % %                     ",
"                % O Z Z Z Z Z Z M 2 5 ] >.>.>.>.>.=.' Z Z Z Z Z Z Z Z Z Z Z Z Z Z Z Z Z Z Z Z Z G =.>.%.% %                     ",
"              % + M Z Z Z Z Z Z + % ! >.>.>.>.} L Z Z Z Z Z Z Z Z Z Z Z Z Z Z Z Z Z Z Z Z Z Z Z Z G ;.=.h + %                   ",
"            % % 0 Z Z Z Z Z Z c + W >.>.>.' A Z Z Z Z Z Z Z Z Z Z Z Z Z Z Z Z Z Z Z Z Z Z Z Z Z Z Z F A p % %                   ",
"            % % C Z Z Z Z Z Z ^ O.>.>.@.G Z Z Z Z Z Z Z Z Z Z Z Z Z Z Z Z Z Z Z Z Z Z Z Z Z Z Z Z Z Z Z C = % %                 ",
"          % + p Z Z Z Z Z Z J >.>.>.} A Z Z Z Z Z Z Z Z Z Z Z Z Z Z Z Z Z Z Z Z Z Z Z Z Z Z Z Z Z Z Z Z Z z % %                 ",
"          % + C Z Z Z Z Z Z $.>.>.{ Z Z Z Z Z Z Z M M Z Z Z Z Z Z Z Z Z Z Z Z Z Z Z Z Z Z Z Z M Z Z Z Z Z Z : % %               ",
"        % % w Z Z Z Z Z Z P >.>...Z Z Z Z Z Z Z S % % 0 Z Z Z Z Z Z Z Z Z Z Z Z Z Z Z Z Z Z Z q M Z Z Z Z Z b % %               ",
"        % % M Z Z Z Z Z Z  .>.=.A Z Z Z Z Z Z n 2 %   = y Z Z Z Z Z Z Z Z Z Z Z Z Z Z Z Z Z Z z : Z Z Z Z Z Z : %               ",
"        % = Z Z Z Z Z Z F >.>.) A Z Z Z Z Z Z 2 +       : S Z Z Z Z Z Z Z Z Z Z Z Z Z Z Z Z Z C % z Z Z Z Z Z z % %             ",
"        % 0 Z Z Z Z Z Z ' =.=.A Z Z Z Z Z Z Z S 2       % p Z Z Z Z Z Z Z c 2 c Z Z Z Z Z Z Z Z = = Z Z Z Z Z Z + %             ",
"      % + z Z Z Z Z Z Z =.>.' Z Z Z Z Z Z Z Z Z 2 %   > 0 C Z Z Z Z Z Z Z   + + N Z Z Z Z Z Z Z w % n Z Z Z Z Z 2 %             ",
"      % % n Z Z Z Z Z G >.>.G Z Z Z Z Z Z Z Z Z z % % n Z Z Z Z Z Z Z Z         u Z Z Z Z Z Z Z f % p Z Z Z Z Z 7 %             ",
"      % % Z Z Z Z Z Z Y >.&.Z Z Z Z Z Z Z Z Z Z Z n C Z Z Z Z Z Z Z Z Z         + M Z Z Z Z Z Z b % : Z Z Z Z Z 7 %             ",
"      % % Z Z Z Z Z Z } >.} Z Z Z Z Z Z Z Z Z Z Z Z Z Z Z Z Z Z Z Z Z Z 2     2 . C Z Z Z Z Z Z n % % Z Z Z Z Z 6 % %           ",
"      % + Z Z Z Z Z Z ..>.Y Z Z Z Z Z Z Z Z Z Z Z Z Z Z Z Z Z Z Z Z Z Z 2 + = M Z Z Z Z Z Z Z Z Z % % Z Z Z Z Z E % %           ",
"      % : Z Z Z Z Z Z ..>.J Z Z Z Z Z Z Z Z Z Z Z Z Z Z Z Z Z Z Z Z Z Z S n Z Z Z Z Z Z Z Z Z Z Z % % Z Z Z Z ' o.% %           ",
"      % = Z Z Z Z Z Z ..>.F Z Z Z Z Z Z Z Z S c 6 z Z Z Z Z Z Z Z Z Z Z Z Z Z Z Z Z Z Z Z Z Z Z Z % % Z Z Z A >.=.%             ",
"      % % Z Z Z Z Z Z [ >.Z Z Z Z Z Z Z c : w = % % 8 Z Z Z Z Z Z Z Z Z Z Z Z Z Z Z Z Z Z Z Z Z C % % Z Z Z J >.;.~             ",
"      % % Z Z Z Z Z Z P >.Z Z Z Z Z Z Z % %       % + S Z Z Z Z Z Z Z Z Z Z Z Z Z Z Z Z Z Z Z Z b % % Z Z Z Y >.>.>.            ",
"      % % N Z Z Z Z Z A =.Z Z Z Z Z Z Z :         % % n Z Z Z Z Z Z Z N c Z Z Z Z Z Z Z Z Z Z Z z % : Z Z Z ) >.+.J             ",
"      % + z Z Z Z Z Z Z ) Z Z Z Z Z Z Z M w     % % + c Z Z Z Z C f w + + + z Z Z Z Z Z Z Z Z Z 8 % . Z Z Z ' =.F Z             ",
"      % % 0 Z Z Z Z Z Z A L Z Z Z Z Z Z Z Z Z 0 % % : Z Z Z Z Z 2 %     % % + Z Z Z Z Z Z Z Z Z O % z Z Z Z +.' Z Z             ",
"        + + Z Z Z Z Z Z Z F Z Z Z Z Z Z Z Z Z C w f C Z Z Z Z Z :         % + n Z Z Z Z Z Z Z C % % C Z Z Z I Z Z Z             ",
"        % % N Z Z Z Z Z Z Z Z Z Z Z Z Z Z Z Z Z Z Z Z Z Z Z Z Z n       % % % n Z Z Z Z Z Z Z p % 0 Z Z Z Z Z Z Z               ",
"        % % w Z Z Z Z Z Z Z Z Z Z Z Z Z Z Z Z Z Z Z Z Z Z Z Z Z Z Z Z = + + > Z Z Z Z Z Z Z Z + % M Z Z Z Z Z Z Z               ",
"          % % C Z Z Z Z Z Z Z Z Z Z Z Z Z Z Z Z Z Z Z Z Z Z Z Z Z Z Z c = 0 C Z Z Z Z Z Z Z z % p Z Z Z Z Z Z Z Z               ",
"          % + p Z Z Z Z Z Z Z Z Z Z Z Z Z Z Z Z Z Z Z Z Z Z Z Z Z Z Z Z Z Z Z Z Z Z Z Z Z C = w Z Z Z Z Z Z Z Z                 ",
"          % % + Z Z Z Z Z Z Z Z Z Z Z Z Z Z Z Z Z Z Z Z Z Z Z Z Z Z Z Z Z Z Z Z Z Z Z Z Z p p Z Z Z Z Z Z Z Z Z                 ",
"            % % 0 Z Z Z Z Z Z Z Z Z Z Z Z Z Z Z Z Z Z Z Z Z Z Z Z Z Z Z Z Z Z Z Z Z Z Z Z S Z Z Z Z Z Z Z Z Z                   ",
"            % % % b Z Z Z Z Z Z Z Z Z Z Z Z Z Z Z Z Z Z Z Z Z Z Z Z Z Z Z Z Z Z Z Z Z Z Z Z Z Z Z Z Z Z Z Z                     ",
"              % % % C Z Z Z Z Z Z Z Z Z Z Z Z Z Z Z Z Z Z Z Z Z Z Z Z Z Z Z Z Z Z Z Z Z Z Z Z Z Z Z Z Z Z Z                     ",
"                % % > Z Z Z Z Z Z Z Z Z Z Z Z Z Z Z Z Z Z Z Z Z Z Z Z Z Z Z Z Z Z Z Z Z Z Z Z Z Z Z Z Z Z                       ",
"                  % + 0 Z Z Z Z Z Z Z Z Z Z Z Z Z Z Z Z Z Z Z Z Z Z Z Z Z Z Z Z Z Z Z Z Z Z Z Z Z Z Z Z Z                       ",
"                  % % % p Z Z Z Z Z Z Z Z Z Z Z Z Z Z Z Z Z Z Z Z Z Z Z Z N Z Z Z Z Z Z Z Z Z Z Z Z Z Z                         ",
"                    % % + p Z Z Z Z Z Z Z Z Z Z Z Z Z Z p % % + % : N N z z Z Z Z Z Z Z Z Z Z Z Z Z Z                           ",
"                      % + % q Z Z Z Z Z Z Z Z Z Z Z Z Z Z N p w f N Z Z Z Z Z Z Z Z Z Z Z Z Z Z Z Z                             ",
"                        % % % > C Z Z Z Z Z Z Z Z Z Z Z Z Z Z Z Z Z Z Z Z Z Z Z Z Z Z Z Z Z Z Z Z                               ",
"                          % % % % c Z Z Z Z Z Z Z Z Z Z Z Z Z Z Z Z Z Z Z Z Z Z Z Z Z Z Z Z Z                                   ",
"                              % % % : M Z Z Z Z Z Z Z Z Z Z Z Z Z Z Z Z Z Z Z Z Z Z Z Z Z Z                                     ",
"                                % % % % 0 M Z Z Z Z Z Z Z Z Z Z Z Z Z Z Z Z Z Z Z Z Z Z                                         ",
"                                    % % % % O f n Z Z Z Z Z Z Z Z Z Z Z Z Z Z Z Z Z                                             ",
"                                        % % % % + + : 6 p c n c b p y y p N Z                                                   ",
"                                              % % % % % + + % % % % % %                                                         ",
"                                                                                                                                ",
"                                                                                                                                ",
"                                                                                                                                ",
"                                                                                                                                "
};
