/* XPM */
static char *Cuore_d_oro_FS1679315726[] = {
/* columns rows colors chars-per-pixel */
"64 64 236 2 ",
"   c None",
".  c #171818",
"X  c #0C0D0B",
"o  c #281613",
"O  c #210C13",
"+  c #1B2120",
"@  c #222424",
"#  c #262C2B",
"$  c #2A2E2D",
"%  c #343B3A",
"&  c #373837",
"*  c #33322C",
"=  c #25281F",
"-  c #7B1918",
";  c #641C1E",
":  c #792825",
">  c #6F3639",
",  c #6D3D12",
"<  c #39413F",
"1  c #764F1A",
"2  c #7E3D47",
"3  c #3A4341",
"4  c #454949",
"5  c #59574A",
"6  c #4C5151",
"7  c #555C5A",
"8  c #41504B",
"9  c #784F56",
"0  c #5A605E",
"q  c #6F4E72",
"w  c #5B6565",
"e  c #4D6467",
"r  c #636B6A",
"t  c #6A706F",
"y  c #747C7B",
"u  c #6A7B7D",
"i  c #7A6D4E",
"p  c #86181B",
"a  c #9A1B1C",
"s  c #8A1E22",
"d  c #8B2324",
"f  c #893232",
"g  c #993839",
"h  c #972B2C",
"j  c #A73234",
"k  c #986723",
"l  c #884752",
"z  c #AE4A4C",
"x  c #837D7A",
"c  c #AE6970",
"v  c #965760",
"b  c #C44D4A",
"n  c #C9706C",
"m  c #7A827D",
"M  c #7F826A",
"N  c #E8AD3D",
"B  c #99814C",
"V  c #D8B163",
"C  c #F5DA78",
"Z  c #EEC250",
"A  c #1A4F88",
"S  c #1C528B",
"D  c #1E5599",
"F  c #24558E",
"G  c #25588E",
"H  c #225493",
"J  c #255B93",
"K  c #265A9A",
"L  c #3D589B",
"P  c #27619B",
"I  c #245EA5",
"U  c #2C64A4",
"Y  c #2D6BAD",
"T  c #2864A7",
"R  c #336CAC",
"E  c #356AA7",
"W  c #3A72AE",
"Q  c #2C69B4",
"!  c #3473B4",
"~  c #3C74B4",
"^  c #3B75BB",
"/  c #3B7BBD",
"(  c #3A79B7",
")  c #697C87",
"_  c #796083",
"`  c #457CBA",
"'  c #497DBA",
"]  c #4478B6",
"[  c #7672A6",
"{  c #525692",
"}  c #3A7DC3",
"|  c #457DC1",
" . c #6C7BC0",
".. c #8E7093",
"X. c #807EAE",
"o. c #AB6581",
"O. c #3A80BF",
"+. c #798381",
"@. c #798D95",
"#. c #7F9494",
"$. c #4782BC",
"%. c #4B82BD",
"&. c #4E8ABA",
"*. c #5385BD",
"=. c #528ABE",
"-. c #5B8ABF",
";. c #5983BA",
":. c #658CBE",
">. c #6993BE",
",. c #7898B9",
"<. c #6E89A2",
"1. c #5B8898",
"2. c #3781C8",
"3. c #4582C4",
"4. c #4C84C2",
"5. c #488AC7",
"6. c #5C8CC1",
"7. c #5689C2",
"8. c #4D93CB",
"9. c #5D92C4",
"0. c #5494C8",
"q. c #5A9AD6",
"w. c #4B93D2",
"e. c #648BC3",
"r. c #6492C3",
"t. c #6C95C3",
"y. c #6899C9",
"u. c #7395C3",
"i. c #7499C4",
"p. c #7B9DC5",
"a. c #739CCB",
"s. c #669CD1",
"d. c #7DA1C5",
"f. c #7DA3CA",
"g. c #77A9D5",
"h. c #6EA9D4",
"j. c #6DB5E4",
"k. c #838C8B",
"l. c #878C8B",
"z. c #899594",
"x. c #949B9A",
"c. c #8D8F95",
"v. c #BC8686",
"b. c #B78D95",
"n. c #99A19B",
"m. c #8E93AF",
"M. c #9BA5A3",
"N. c #9AA9A8",
"B. c #86A3BA",
"V. c #9BB0B3",
"C. c #A4AAA8",
"Z. c #A9B5B4",
"A. c #B3BAB9",
"S. c #AEACB3",
"D. c #C69697",
"F. c #D5938B",
"G. c #D6A495",
"H. c #CEB0AE",
"J. c #E3B2AC",
"K. c #B3C3BE",
"L. c #F6EDB9",
"P. c #F0E3A4",
"I. c #8699C4",
"U. c #919AC3",
"Y. c #84A7C8",
"T. c #92AAC4",
"R. c #9BB7CA",
"E. c #81ABDB",
"W. c #87B4DD",
"Q. c #97B2D1",
"!. c #A3BEC6",
"~. c #A7BFD4",
"^. c #89BBE4",
"/. c #97BAE5",
"(. c #A9BDE1",
"). c #9BC6DF",
"_. c #AAC5CA",
"`. c #B6C5C3",
"'. c #BDC9C7",
"]. c #A5C3D1",
"[. c #B4CAD5",
"{. c #8FCAEC",
"}. c #B8D8EA",
"|. c #A9D9F1",
" X c #B9D6F2",
".X c #A7C9E8",
"XX c #B8E0F1",
"oX c #C4CCCA",
"OX c #C4C8C7",
"+X c #C7D1CF",
"@X c #C2CADA",
"#X c #CBD5D3",
"$X c #CDD9D6",
"%X c #CEDBDA",
"&X c #C3D5D4",
"*X c #D2DAD6",
"=X c #D1DDDB",
"-X c #D9D9D8",
";X c #D4D0C9",
":X c #D4E1DE",
">X c #D8E3DD",
",X c #EAEFD0",
"<X c #C4D2EF",
"1X c #CEE3E3",
"2X c #D5E4E2",
"3X c #D9E6E4",
"4X c #D6E9E6",
"5X c #DAE9E6",
"6X c #D6EBEA",
"7X c #DCECEB",
"8X c #D2E6E9",
"9X c #DEF1EE",
"0X c #D3F0EF",
"qX c #CCEDF5",
"wX c #CCEAF8",
"eX c #D8EEF3",
"rX c #DEF2F1",
"tX c #DDFCFC",
"yX c #D6F4F7",
"uX c #CCF0F5",
"iX c #E1EEEC",
"pX c #E1E6E3",
"aX c #E1F1EE",
"sX c #EBF1EC",
"dX c #E2F5F4",
"fX c #E9F6F5",
"gX c #E4F9F7",
"hX c #E3F6FA",
"jX c #E6FBFA",
"kX c #EAFEFE",
"lX c #EBF7FA",
"zX c #F3FFFE",
"xX c #FCFFFF",
"cX c #F6F4F3",
"vX c #F4F2EB",
"bX c #ECDBD7",
/* pixels */
"                                                                                                                                ",
"                                                                                                                                ",
"                                            @ 3 7 y c.n.K.%X6X7X6X8X$XK.x.k.m r w %                                             ",
"                                          @ 0 y n.A.A.K.'.=X6XdXrX7X8X$X'.Z.Z.M.k.r 4                                           ",
"                                    . 3 z.oX3XaXcXfXfX5X=X2X7XdXlXjXkXdXiX2X2X=X5X:XoXc.6 X                                     ",
"                                  < x.1XxXxXxXxXjXjXgXdX3X3X5XdXjXzXzXkXdXiX5X5XiXdXxXjXpXk.3                                   ",
"                              & x H.iXkXkXkXkXkXzXzXkXjXdX7X=X2XgXkXkXzXjXdX5X2X5XdXlXzXxXjXOXt @                               ",
"                            3 N.kXzXtXyXyXyXjXkXkXkXkXjXjXdX=X#X5XdXjXkXjXdX3X=X=X2XaXdXdXkXxX3XM.6                             ",
"                        e u 4XzXlXtX0X3X7X7XdXkXkXkXkXkXkXgX9X$X=X7XgXdXkXkXdX5X%X=X7XrXfXgXdXdXaX#Xy .                         ",
"                n H.;XK.K.#XsXbXJ.v.v.b.;X-XdXfXkXkXkXkXjXjXjX2X$X2XdXjXkXkXkX9X=X%X5XrXdXhX7X7X5XiXgXz.#                       ",
"              g g z n G.;XbXJ.n j a h z b.-XaXfXkXjXkXkXkXkXjXdX=X#X9XkXkXkXkXdX9X#X%XgXgXjXdX7X3X3XfXfXV.+                     ",
"            h d - : l b.S.S.v p p p a g D.-XaXiXgXjXkXkXkXkXjXtX6X#X2XdXkXkXkXkXdX:X$X7XdXgXgXaX6X2X2XkXxXM.@                   ",
"            a s - > q [ X...2 - s - p g v.;XpXsXjXfXkXkXkXkXkXjXdX$X$XrXhXkXkXkXgX6X#X:XgXgXkXjX5X2X2X2XzXzXz.X                 ",
"            - : l X.e.e.:.[ _ l d s s f c H.-XiXgXjXkXkXkXkXkXjXkX2X#X4XgXjXkXkXkX7X$X$XgXgXhXgXrX2X2X5XiXxXzXy                 ",
"            ; q U.^.E.a.r.a.a...g s p - g c H.-X9XdXjXkXkXkXkXjXgX7X$X%XdXgXkXkXjXrX2X+X7XgXkXkXhX5X=X:XaXfXxXiX7               ",
"            > m./.^.s.r.8.e.a.U.c g p - s z D.*X5XdXgXjXkXkXkXkXkXrX=X$X9XgXkXkXkXgX6X#X2XrXkXkXhX9X=X=XiXdXzXxXZ.#             ",
"            +.W.W.s.5.~ | 4.0.,.m...f : f z H.-X7X7XrXgXkXkXkXkXkXdX3X$X5XgXkXkXkXgX9X#X%XdXjXkXkXdX5X=X2X5XjXzXzX@.            ",
"          % >.g.r.;.` ` ] ~ O.$. .X.2 > g b J.iX6X5XrXgXjXkXkXkXkXgX7X%X3XtXjXkXkXkXgX%X$X9XjXkXkXhX7X2X3X5XfXzXxX:X&           ",
"        . 1.g.e.' ' y.Y.I.9.` ~ } ' _ 9 z D.iXtX7X5X7XdXjXkXkXkXkXjXrX$X%XdXkXkXkXkXgX>X+X2XgXjXkXjXdX:X5X7XdXkXzXzXz.X         ",
"        < y.s.` ' :.Y.Y.d.6.` ~ W Y L q o.J.gXkX9X7X7XaXgXkXkXkXkXjXgX2X$X9XgXkXkXkXjX6X#X=XgXjXkXkXdX5X2X7XdXhXjXxX1X4         ",
"        m g.2.} -.p.r.0.&.] ] W R U K L m.iXlXlXrX6X6XaXgXjXkXkXkXkXjX8X#X6XgXkXkXkXkXaX#X$XdXjXkXkXgX5X*X5XrXtXcXzXlXc.        ",
"      * <.h.2.( >.I.4./ ] ' %.~ ! E K T a.hXlXlXdX9X4XaXgXkXkXkXkXjXgX7X#X3XhXkXkXkXkXdX#X$XrXjXkXkXjX7X*X5XjXtXlXlXcXV 1       ",
"    * w f.s.] *.B.e.=.^ :.p.:.` R K K I w.wXlXlXgXeX:X7XgXkXkXkXkXkXjX9X#X=XgXjXkXkXkXdX%X#XrXjXkXkXkX7X$X=X9XjXlXcXP.Z k ,     ",
"    5 ) i.0.&.:.>.9.=.9.Y.Y.;.] R U J I 2. XlXlXgX9X2X7XgXjXkXkXkXkXjXdX$X=XgXkXkXkXjXgX:X$X9XjXkXkXkX9X*X$X9XrXcX,XP.N k 1     ",
"    B ;.9.8.r.u.e.%.:.Y.y.*.^ R R U J H } {.hXzXhXrX3X5XrXkXkXkXkXkXkXrX$X%XgXjXkXkXkXgX2X$X9XgXkXkXkXdX$X$X9XaX,XP.C Z v i     ",
"    n.,.0.5.d.I.=./ >.T.%.Q ~ ^ ! U G G I j.hXkXjXdX5X7XjXkXkXkXkXkXkXjX%X$XgXjXkXkXkXjX3X$XrXgXkXkXkXgX*X#X6XaX,X,XL.P.C.z.    ",
"    V.,.` 5.d.i.] ` Y.Y.$.T *.t.;.E H G D j.gXkXkXdX5X7XjXjXkXkXkXkXkXrX=X#XrXjXkXkXkXkX6X=X7XgXkXkXkXjX$X+X6XrXfXfXzXvX[.R.    ",
"    K.B.` 3.d.Y.' ' p.a.] Q a.f.7.E F G D q.yXzXjXdX7XiXjXjXjXkXjXkXkXjX:X$XrXgXkXkXkXgX5X=X9XgXkXkXkXgX=X+X4XrXjXkXkXvX&X[.    ",
"    ].T./ 3.d.I.%.$.u.>.( 4.f.f.` I F F D w.qXzXhXhX7XaXgXkXkXkXkXkXkXgX:X+X9XjXkXkXkXjX5X:X9XdXjXkXkXgX=XoX2XrXjXkXkXzX4X'.    ",
"    ].].` O.i.Y.=.' r.r.*.9.f.r.( I F F D } qXzXkXhX7XaXgXjXjXkXkXkXkXjX=X#X9XjXkXkXkXjX7X>X7XdXjXkXkXkX$XOX=XrXfXkXzXfX4X1X    ",
"    [.].$.^ p.p.-.' -.>.r.y.t.;.T K S A S } qXzXhXtX7X7XgXjXkXkXkXkXkXjX:X+X9XgXkXkXkXhX7X2X7XdXkXkXkXjX=XOX=X9XkXkXzXfX0X4X    ",
"    [.].%.^ a.Y.6.$.*.e.t.a.6.] T J A A H } qXlXkXhX7XaXgXkXkXkXkXkXkXjX:X#X9XjXkXkXkXgX7X:X7XdXgXkXzXjX%X'.:X9XkXkXzXjX9X0X    ",
"    [.].| ^ u.p.-.] *.r.a.i.-.( T D A A S / qXzXgXdX5X7XtXjXjXkXkXkXkXkX=X#X7XgXkXkXkXjX7X2X9XdXgXkXkXkX=X'.=X9XhXkXzXjXdX4X    ",
"    [.~.4.^ i.p.:.%.*.r.f.a.-.] Y D S A K / uXxXkXgX9XaXgXjXkXkXkXkXkXjX=X$XrXjXkXkXkXgX5X2X7XrXjXkXkXgX$X'.=X9XjXkXzXjX7X8X    ",
"    _.R.| 3.i.p.-.$.-.t.i.a.r.` Y P D S H 3.uXzXhXdX7XaXgXkXkXjXkXkXkXjX>X+XaXjXkXkXkXgX7X=X9XdXgXkXkXkX=XOX:XeXjXkXzXjX6X%X    ",
"    _.R.%.5.i.p.*.' -.t.y.a.i.*.! T J S K w.yXzXkXhX7X9XtXkXkXkXkXkXkXjX:X$XrXjXkXkXkXgX7X=X7XhXjXkXzXjX$X'.:XrXlXkXzXjX2X&X    ",
"    !.T.| 0.i.u.%.' :.i.y.r.a.e.O.R P P D s.tXkXtXrX7X7XgXkXkXkXkXkXkXgX=X$XrXjXkXkXkXkX7X%X9XgXkXkXkXkX%XoX2XrXfXkXzXfX%X`.    ",
"    Z.B.4.0.i.u.' $.u.i.6.6.t.y.3.Y P G K j.jXkXgXrX5XiXgXkXkXkXkXkXkXgX%X$XdXjXkXkXkXjX7X%X7XrXjXkXkXkX=XoX3XrXgXkXkXfX'.V.    ",
"    x.m.=.0.r.t.%.*.u.i.*.%.r.r.| Y P G I ^.kXkXgX9X2X5XgXkXkXkXkXkXkXdX$X$XdXjXkXkXkXjX5X$X9XgXkXkXkXjX%X#X3XrXjXkXzXkX'.z.    ",
"    M <.r.r.9.7.7.-.t.,.6.*.6.-.( P J F Q |.zXkXdXaX3X5XgXkXkXkXkXkXkXaX$X:XgXjXkXkXkXgX5X$X9XgXjXkXkXjX$X$X6XdXjXlXzXjXV.r     ",
"    5 +.f.s.( *.:.r.t.-.u.i.=.$.R P F H 3.XXzXkXdX7X:X5XhXkXkXkXkXkXkX7X#X=XgXjXkXkXkXjX8X#X9XgXkXkXkXdX=X=X5XdXgXkXzXfXm 4     ",
"    # e T.h.' ' >.u.r.$.>.p.*.] U P H I q.yXzXjXdX7X>XiXjXkXkXkXkXkXkX5X#X3XkXkXkXkXkXjX=X#X9XjXkXkXkXdX=X=X7XdXdXkXzX6X7 +     ",
"      * B.W.0.~ u.:.-.*.:.>.=.( U P J Q ^.kXkXhXdX7X>XrXgXkXkXkXkXjXjX8X#X5XjXkXkXkXkXrX$X#XrXjXkXkXkX7X=X2XdXdXfXkXxX'.#       ",
"        #./.h.4.:.:.7.7.%.*.$.W U P P | |.zXjXlX9X7X5XdXkXkXkXkXkXjXgX:X#X9XkXkXkXkXkXrX$X$XrXkXkXjXgX7X:X5XdXdXdXzXxXz.        ",
"        5 ~..X:.] ' *.%.' ` ] W E U R q.uXzXjXdX7X:X5XgXjXkXkXkXkXjXgX$X*XgXgXkXkXkXkX7XoX%XrXkXkXjXrX7X2X5XdXdXfXxXaX%         ",
"        . x.}.f.] R ] ^ ^ R E E E R 4.{.jXzXhXdX7X>X9XjXkXkXkXkXkXjX9X#X:XjXkXkXkXkXkX6X#X3XjXkXkXjXrX6X5X7XdXhXzXzXM.X         ",
"          5 R.(.y.! U ] R Y Y R ~ | ^.wXkXkXhX9X:X5XrXtXkXkXkXkXkXjX6X#X6XgXjXkXkXjXjX2X+X3XgXkXkXdX7X6X5X5XiXjXxX2X%           ",
"            c. X).8.~ E W R ^ | s.W.}.lXkXkXhX7X:X7XgXjXkXkXkXkXjXrX:X+X7XjXkXkXkXjXrX%X#XrXkXkXgXdX7X2X5XdXaXxXzXx.            ",
"            3 V. X^.q.( ^ $.9.s.{..XyXkXkXkXdX5X=XdXgXkXkXkXkXkXkX7X#X%XrXjXkXkXgXkXrX#X=XrXjXkXhXdX3X%X2XiXfXxX`.%             ",
"              7 @X<X(.E.s.s.g.^.|.wXjXkXkXgX7X-X2XkXjXkXkXkXkXkXjX:X$X6XjXkXkXkXkXkX5X#X2XgXkXkXdX7X2X2X5XfXxX5X7               ",
"                r @X<X(.Q.U..X}.uXhXlXjXkXrX5X3XrXgXjXkXkXkXkXjXgX#X#XrXgXkXkXkXkXrX=X=X7XdXjXkXdX7X2X5X5XzXzX@.                ",
"                X 9 D.S.o.b.@X6XhXjXlXjXhX6X2X3XgXjXkXkXkXkXjXgX7X+X=XjXjXkXkXkXkX9X=X=XrXgXjXjXrX5X2XiXxXkXN.X                 ",
"                  o : b n D.;X7XdXjXjXhXiX2X7XrXhXjXkXkXkXkXkXdX%X=X7XgXkXkXkXkXhX5X=X5XdXgXgXdX7X3X=XaXzXZ.+                   ",
"                    O - b F.iXlXdXdXdX7X3X5X7XdXgXkXkXkXkXkXgX6X%X2XgXkXkXkXkXgXrX:X2X9XgXkXdXdX6X7XaX7XZ.$                     ",
"                      o h F.lXjXfXaXaXaX5X7XaXgXkXkXkXkXkXjX9X%X$X9XgXkXkXkXhXhX3X=X5X5XdXdXdX7X5XdX5XM.+                       ",
"                        o 0 -XxXjXaXdXiX9X9XdXjXkXkXkXkXjXrX=X$X:XtXjXkXjXkXkX9X:X%X7XaXdXlXhXfXdX#Xk..                         ",
"                            6 C.jXzXzX5X5X7XjXfXkXkXkXgXdX5X$X=X9XgXkXkXjXkX7X5X2X5X5XdXdXzXzXiXx.4                             ",
"                              + k.%XfXzXlXjXzXkXkXkXkXhX7X:X:X7XgXkXzXkXkXgX9X7X5XfXdXzXxXzX$Xl.*                               ",
"                                  3 c.:XzXxXxXjXzXkXzXaX3X3XdXkXkXzXkXkXgXdX3X2XaXjXxXzX7XC.6                                   ",
"                                    X % z.`.fXfXfXaX3X=X$X3XgXjXkXjXkXkXgX7X:X=X1X%X'.x.7 .                                     ",
"                                          $ w l.x.C.C.`.'.0XrX9X9X7X7X8X#XA.C.c.+.w %                                           ",
"                                            # 4 7 t +.M.&X6X6X9X4X2X1X+XZ.x.m w 4 $                                             ",
"                                                                                                                                ",
"                                                                                                                                "
};
