/* XPM */
static char *Death_001679567765[] = {
/* columns rows colors chars-per-pixel */
"64 64 248 2 ",
"   c None",
".  c #720709",
"X  c #790907",
"o  c #6C1318",
"O  c #741417",
"+  c #6E0B0F",
"@  c #671D2A",
"#  c #741A24",
"$  c #5F2531",
"%  c #7B2B3B",
"&  c #7B2B36",
"*  c #75272E",
"=  c #5C1F2C",
"-  c #593D53",
";  c #743547",
":  c #6A3C53",
">  c #653E58",
",  c #713D53",
"<  c #6E3A4D",
"1  c #65435A",
"2  c #674358",
"3  c #754959",
"4  c #584E67",
"5  c #614862",
"6  c #5F435C",
"7  c #860B07",
"8  c #95120E",
"9  c #9D130E",
"0  c #99170B",
"q  c #9A0D15",
"w  c #8C1717",
"e  c #951413",
"r  c #9C1412",
"t  c #951619",
"y  c #991519",
"u  c #951A1C",
"i  c #991A16",
"p  c #8A110E",
"a  c #A50E0B",
"s  c #A3140D",
"d  c #AB140B",
"f  c #A41A0E",
"g  c #AA180B",
"h  c #B2180D",
"j  c #A21512",
"k  c #AA1613",
"l  c #A41914",
"z  c #AB1B13",
"x  c #A5191B",
"c  c #B31D12",
"v  c #9B231B",
"b  c #87231B",
"n  c #B7260E",
"m  c #A92315",
"M  c #B42313",
"N  c #BB2A13",
"B  c #BA2517",
"V  c #B83618",
"C  c #AA2913",
"Z  c #8D1E23",
"A  c #861A20",
"S  c #931B21",
"D  c #951C26",
"F  c #8A232B",
"G  c #872428",
"H  c #942225",
"J  c #952528",
"K  c #832531",
"L  c #832A36",
"P  c #AD2F2D",
"I  c #AC1F20",
"U  c #C52516",
"Y  c #CC2514",
"T  c #CE2B16",
"R  c #C4241B",
"E  c #CC261A",
"W  c #CD2B1B",
"Q  c #C52B18",
"!  c #D32C15",
"~  c #D32B1A",
"^  c #D62919",
"/  c #CC331B",
"(  c #D53215",
")  c #DC3515",
"_  c #DD3B15",
"`  c #D33219",
"'  c #DB341A",
"]  c #DD3B1A",
"[  c #D43B1A",
"{  c #DE370E",
"}  c #E13515",
"|  c #E33C15",
" . c #E13519",
".. c #E23A1A",
"X. c #CA2821",
"o. c #D53921",
"O. c #C83726",
"+. c #AC4D2A",
"@. c #DD4315",
"#. c #DD431A",
"$. c #DD4B19",
"%. c #D2521F",
"&. c #E9530E",
"*. c #E44315",
"=. c #EC4C14",
"-. c #E2451A",
";. c #E34B1B",
":. c #EB4C1A",
">. c #E74816",
",. c #F14E16",
"<. c #EB5314",
"1. c #EB5B15",
"2. c #E4531B",
"3. c #EC5319",
"4. c #ED5C1A",
"5. c #E55517",
"6. c #F05215",
"7. c #F15919",
"8. c #EB4E0F",
"9. c #EC631C",
"0. c #EA6719",
"q. c #F1661E",
"w. c #EA7916",
"e. c #D44622",
"r. c #DB562A",
"t. c #E75A26",
"y. c #E95323",
"u. c #ED6C22",
"i. c #EC6C2C",
"p. c #E96427",
"a. c #F36C25",
"s. c #F46D29",
"d. c #F16628",
"f. c #EE7B2B",
"g. c #EC7428",
"h. c #F17326",
"j. c #F2742A",
"k. c #F37D2C",
"l. c #F8782C",
"z. c #EC7833",
"x. c #F17B33",
"c. c #F47734",
"v. c #F26B31",
"b. c #D46A2F",
"n. c #EF7F42",
"m. c #EC8718",
"M. c #F5BB1A",
"N. c #F0A91B",
"B. c #ED872A",
"V. c #F3832D",
"C. c #F5892B",
"Z. c #EE9828",
"A. c #F39B2D",
"S. c #ED8A34",
"D. c #F48433",
"F. c #F48C33",
"G. c #F48C39",
"H. c #F88934",
"J. c #EE993C",
"K. c #F49335",
"L. c #F39A35",
"P. c #F4933B",
"I. c #F39A3A",
"U. c #F99739",
"Y. c #F4A62A",
"T. c #F5A23B",
"R. c #F5A738",
"E. c #F8BA3C",
"W. c #F1A92B",
"Q. c #F5DB0D",
"!. c #F9D90D",
"~. c #F6C819",
"^. c #F6D515",
"/. c #F8D514",
"(. c #F5D914",
"). c #F6D41B",
"_. c #F9D41B",
"`. c #F5DA1B",
"'. c #F9DA18",
"]. c #F7CB24",
"[. c #F6D828",
"{. c #F8C339",
"}. c #F6D837",
"|. c #EFDD29",
" X c #F5E12A",
".X c #EE9841",
"XX c #F59B42",
"oX c #F89745",
"OX c #F38B48",
"+X c #EDA846",
"@X c #F8A846",
"#X c #FAB445",
"$X c #FABB43",
"%X c #FBB44B",
"&X c #F6BB4C",
"*X c #FABB4B",
"=X c #F6B447",
"-X c #F2A953",
";X c #FCB350",
":X c #F9B955",
">X c #F7B769",
",X c #FCBB7D",
"<X c #F7B779",
"1X c #F7AC6F",
"2X c #FACC4D",
"3X c #F8C548",
"4X c #F8D449",
"5X c #EBCC50",
"6X c #F8CB55",
"7X c #F5D454",
"8X c #FAD153",
"9X c #F5D55C",
"0X c #F6D85B",
"qX c #E9C64D",
"wX c #F3E350",
"eX c #F9C467",
"rX c #F6D864",
"tX c #F7C575",
"yX c #F5DC73",
"uX c #F9E769",
"iX c #F9EA7C",
"pX c #F7EA77",
"aX c #F8F073",
"sX c #FBBB82",
"dX c #F9C687",
"fX c #F5D28B",
"gX c #F8E987",
"hX c #F6F18A",
"jX c #FAED95",
"kX c #FAEC9C",
"lX c #F6EA96",
"zX c #F6F199",
"xX c #EFE08D",
"cX c #FAEDA2",
"vX c #F9EEAB",
"bX c #F6EDA7",
"nX c #F8F1A7",
"mX c #F7F2B7",
"MX c #F7EFB9",
"NX c #F8EAC4",
"BX c #FBF8D9",
"VX c #FAF1CE",
"CX c #FCFBE4",
"ZX c #FCFCEC",
"AX c #FAF4E5",
"SX c #FDFEF5",
"DX c #FDFEFC",
"FX c #F6EFE0",
/* pixels */
"                                                                                                                                ",
"                                                        @ X e r R ~ E ~ }  .^ ~ k 9 j e                                         ",
"                                                        # 7 e 9 Q ~ ~ ` -.-.` ( c z z l :                                       ",
"                                                    $ X e l r s !  .:.<.k.F.9.=...' E W x u                                     ",
"                                                    @ X 8 s x z ) | =.<.D.U.g.p.2.;.) ` c k :                                   ",
"                                                    # X e j T _ =.=.,.&.V.K.1XsX}.(.0.:.' Q x t                                 ",
"                                                    @ X e r T ..=.<.:.1.V.K.:XtX4X Xm.&._ ` c j                                 ",
"                                                    @ X 8 j `  .=.<.u.h.h.j.N.[.bXCX4X/.C.v.[ E     ; e D t                     ",
"                                                    $ O w s ` | 3.1.a.h.j.u.M.Q.mXDXwXQ.m.s.] R     % s l f <                   ",
"                                                        K a @.:.k.K.f.s.h.h.M.Q.mXDXwXQ.w.=.N r     & d T | u +                 ",
"                                                        J C %.9.G..XV.h.i.p.N.).bXFX4X~.w.:.M w 2   % r Q ] 9 X -               ",
"                                                    % e b.F.1XsXsXsX:X=X%.U p.k.z.x.9.0. .^ 8 X w S p X e l 7 X -               ",
"                                                    F d i.I.>XtXtXeX*X*Xe.Y y.p.p.p.;.>.V P w X s k p . e r O o                 ",
"                                                % y / { .X*X].(.)._.$X%Xe.E M 9 s 9 s s 3   K s R ~ 0 . e r                     ",
"                                                G d ( { J.&X}.|.(.Q.E.%Xe.E z e Z Z Z Z 1   L d X.` r . e 9                     ",
"                                        % y D u B E ;.&.J.:XNXAXwXQ.E.$X2.' r X -       % u B E E ~ 0 . e r                     ",
"                                        J h j j U ( >.=.K.%XNXSX0X].3X;X5.*.0 .         K d U ) E X.e X 8 t 3                   ",
"                    @ + o o         % y / o.k 9 #.6.| ) f.I.<XdXtXtX&X%XV.f.v .         P Y -.6.M r r r p . u r                 ",
"                    o 7 7 X 6       % y / ) z f *.6.| ) f.P.1X,XtX,X:X%XS.f.C + -       P o.>.6.n j l r p . 8 9 ;               ",
"                & u y r r y S Z         G d ` ' d.h.6.=.B.K.K.P.;X;X2X8X*X;X+.* O o A S o.3.<.<._ ) M q q q p X w S             ",
"              4 H d f f k s j y 1       F d ` | d.j.9.1.V.K.A.Z.#X%X6X9X*X;X+.O p 7 e 9 [ 6.<.3.*.| O.j x x 7 X p j :           ",
"            & u R T *.:...) z r u S u S y 9 *.8.k.K.C.C.@X#X]./.wXpXgXkX-XK.u.$./ R k e B ! *.<.-.} y.v.d.v.V 8 7 X t S >       ",
"            H d E ! <.7.*.@.M i f f j r i f $.1.B.U.K.L.@X&X[.|.uXhXkXvX-XF.q.6.} ! z f R ~ *.5.*.) d.c.v.l./ l w 7 e s :       ",
"        & u R Y >.:.V.H.H.D.5.;.! E l 8 z.G.F.F.@X%X%X#XfXkXVXCXCXSXSXSXtX#XD.s.3.;.d.i.i.a.1.8.2.8.OX%XE./.Z.d.e.` z 9 :       ",
"        Z s E ! 8.1.K.J.K.J.0.6.( ~ z 0 z.L.U.K.=X*X*X=XlXmXBXSXZXSXSXZXeX=XS.j.9.3.u.j.j.f.1.5.<.8.K.3X[.`.Z.j.:.| c e :       ",
"    & S y j #.=.f.K.rXuXuXuXS.V.#.' g.S.@X%XU.F.@X#X2X2XNXSXmXvXvXnXyX9X:X%XI.H.C.D.F.F.F.K.j.a.7.8.N.'.uXjX6X;Xp.} h 9 :       ",
"    H s z f 2.9.S.+XpXhXhXhX+XJ.;.{ V.L.E.$XJ.K.E.$X6X9XVXDXMXbXnXnXyX9X3X:XR.A.L.L.K.K.K.K.f.a.4.8.N.(.uXkX6X@Xr.( m D         ",
"    F j -.5.XX%XrXiXVXZXZXCXgXuXu.>.XX*X].).$X%X].).pXkXAXDXSXZXZXSXZXCXjXuX}./.E.%XL.F.j.j.4.<.8.=.K.$X[. Xm.<.Q s 1           ",
"    F s ;.1.@X*XuXaXCXDXDXDXzXaXg.&.I.$X).(.E.$X~.Q.iXnXAXDXDXDXDXDXDXDXnXiX X(.{.%XL.F.k.a.7.<.3.<.G.&X]._.w.:.N 9 1           ",
"    F s ;.<.@X&XuXiXAXDXDXSXhXuXJ.B.~.'./.Q.).^.(.(.iXcXbXbXCXDXDXDXDXDXZXCXhXuX[./.E.%XP.F.F.D.j.d.j.x.0.0.V s l y u u         ",
"    F 9 -.1.XX=XuXiXBXSXZXCXgXuX.XC.].^.(./././.^.(.iXnXkXlXCXDXDXDXDXDXDXDXnXaX|.).{.*XT.U.L.A.k.j.g.h.4.,.n e y r j s ;       ",
"    # 7 ` | 1.1.+X3XiXhXhXgX+XJ.0.&.T.3X'.!.{.$X].Q.iXbXnXkXCXDXSXSXDXDXDXDXSXZXyX4X8X8X2X2X]._.Y.F.H.K.9.6.N r r j i r u S 1   ",
"    @ + /  .=.&.T.&XuXaXaXaXL.H.5.8.XX=X].).E.;X].Q.pXkXkXkXCXDXSXSXSXDXDXDXDXDXxX5X9X9X9X7X`.!.W.Z.J.F.9.6.N e s s j r 0 9 :   ",
"        H h *.6.F.J.,XdXdXtXi.6.*.| ;.;.F.L.V.k.~.Q.4XrXlXnXZXDXDXSXDXSXDXSXDXSXZXAXbXgXaXuX XQ./.~.W.K.9.6.B e B E R E f 7 -   ",
"        G s -.<.V.G.>XsX,X<Xp.8...' } ) x.P.j.a.M._.}.6XiXkXBXSXSXSXSXSXSXDXDXSXDXDXMXnXhXiX}.(.'.'.Y.K.9.6.n 8 R ^ E ^ i +     ",
"        H a Q ( <.9.G..XI.I.7.<.n f R ! _ @.3.&.T.3X2X6XrX9XlXmXZXDXDXSXSXSXSXDXDXDXSXZXCXZXnXgX0X4XR.F.9.6.N e l l x j ;       ",
"        K u B W *.,.V.H.V.C.4.;.z q R ~  .} =.&.U.%X2X4X2X2XgXlXBXZXZXZXSXSXDXSXDXDXSXZXZXZXmXjXrX4XR.U.9.<.N s l l j r <       ",
"            D f Y ! <.6.*.| c f l r R T :.6.q.h.H.U.].`.{.;X6X8XlXmXbXbXZXDXSXDXDXDXkXiXyXrXpXaX[.`.Y.F.9.=...' ~ E z r u u 5   ",
"            K r R T ;.3.] O.v u e r R ! >.3.d.j.H.A.~.(.{.#X3X4XgXzXzXzXBXZXSXSXSXSXjXuX4X4XuXuX XQ.Y.oX0.5.-.} ! ! h e 9 j ,   ",
"              4 H k z m 3       F s R Y _ | 3.1.P.=X#X$X]._./.[.4XrX9XrXkXmXmXmXmXmXyX9X[.`.`.`.'.!.3X<X1X1XOXq.3.=.` R M r u G ",
"                K y i e         F j U ! ) | =.&.T.:X*X#X].'.'.'.}.2X8X2XgXjXjXjXlXhX9X4X`.Q.).Q.'.'.eXdXdXfXOXg.9.,._ ~ c r 9 j ",
"                    v y         Z j _ ,.,.:.=.8.XX*X].'.{.E.E.E.=X:X&X&X6X9X7X7X}.|.).).(.Q./.(.uXjXkXkXcXnX-XF.q.=.|  .B r r r ",
"                    G y         F 9 @.1.=.1.1.=.XX$X_._.E.;X*X%X%X%X=X%X2X8X8X8X[.!.^.).`.(.(.^.aXcXcXkXcXcX-XK.q.=.|  .B e r i ",
"                        % G G F [ @.j.G.V.V.a.u.G.U.A.Y.L.L.I.L.I.L.P.L.%X*X3X*XR.Z.E.{.{.4X4X4X0XrXgXnXfXdX@XK.q.1.*.| ! E z r ",
"                        F s s g ;.<.D.P.K.I.x.h.D.F.H.K.K.F.K.C.K.F.F.K.@X*X=X@XP.H.@X%X2X6X8X8X8X8XiXcXdX,X-XF.q.=.*. .( W c y ",
"                        K s Q ( j.F.@X%X%X%XJ.J.V.j.t.<.k.U.0.6.h.j.h.g.R.:Xf.5.1.1.S.I.=X*X&X&X2X8XtXdXdXdXOXh.4.6.| ..U s s r ",
"                        F s ) _ B.L.-X:X:X:X.XJ.k.a.1.8.B.K.0.8.a.s.h.h.@X*Xh.=.=.=.k.F.@X=X#X=X2X6XeXsX,XsXOXa.4.6.| ..B e t u ",
"    & u F Z H G     L H X.[ c.S.@X:XNXAXAXBX>X=Xp.<.k.F.M./.A.D.2._ :.7.XX*Xp.} | | 3.1.u.f.F.L.#X*X+XP.P.oXa.1.>.| n j s l ;   ",
"    H s j r s y     Z s ! | D.I.@X;XFXDXDXDXtX#Xu.&.x.P.~.`.A.P.;.) =.=.XX:Xt.}  .} :.=.d.j.D.K.R.%XU.F.F.K.q.,.|  .z y r y 1   ",
"G F B E E R E X.J G y j ! | k.J.&X&XVXDXDXSXgXuXI.V.2.-.B.Y.a.5.n s l z i.D.#.! ! ^ ! ! ..-.5.4.j.V.f.j.9.4.*.| ' ^ h 9 ;       ",
"s s E ^ / T ! ! k r r j ! _ D.K.qX5XVXSXSXSXlXpX@XF.;.! j.K.4.:.z 9 r r r.l.o.E E W E T ( ) =.=.d.d.j.j.5.<.*._ ( ^ c r :       ",
"E U -.:.c.x.5.:.~ R l 9 ( ..B.L.qX5XpXhXvXvXkXjX+XF.;. .#.@.N k R W E E ] -.B r l l j f U ! ! ^ ( ` _ *.p.a.k.D.t.=.M e :       ",
"E ^ >.1.G.U.9.=.~ E l j ` ] G.K.qX7XuXuXgXkXkXkX-XF.;.} ..' z r R ! Y ! ) } c 0 r r y r B W ~ W W E ' } t.h.C.U.9.<.n y <       ",
"^ T i.C.F.K.V.D.] E j e l m r.r.S.R.6X0XrXrX6XeXp.$.M k z z B E -.>.i.x.3.,.^ R R E U E M z k k g k ! | j.K.F.K.H.G.V y H G     ",
"W ! x.U.K.F.U.F.o.X.m q y e X.[ x.F.$X6X6X2X#X%X;.) l y r 9 R ! :.&.V.L.9.1.' ^ ~ ! ~ E z e i u u e Q } c.K.F.K.K.oX+.x i d :   ",
"^ E 2.1.H.K.9.1.~ ~ 3       H h @.@.F.T.T.L.u.4.N l j 9 Q ) ! ~ j.F.F.K.D.H.e.Y p.G.V j j 9 :       L g [ @.f.U.0.p.O.O.B r 1   ",
"~ W >.<.D.G.7.y.o.X.        L r ^ _ c.G.G.G.4.3.M e y i W ..! E z.U.K.F.K.U.e.Y c.oXV e r u         % 0 Q ) g.U.q.=.) W M 9 1   ",
"k k ) *.;.;.] O.I D             J h C V [ o.| ..c r :   J h U ~ 3.9.V.U.q.9.N k C C x j <           L s z z [ ;.*.| U s l 9 1   ",
"y r ^ ..] ~ ~ X.y A             K r y r R E  . .g i     & e U ^ *.=.k.K.4.<.B y r r y y             % r i 9 Q } .._ c 9 r y >   ",
"  5 H h k c k m 3                     4 J d g z ,           H h ' | *.$.N k ,   G 9 ,                   K a s z g h j e ;       ",
"    K j j j a y                         K r y u             & e / .. .] z e     L u                     % y i y i e i y         ",
"                                                                # 8 8 p                                                         ",
"                                                                = X + +                                                         ",
"                                                                                                                                "
};
