/* XPM */
static char *Death_021679567765[] = {
/* columns rows colors chars-per-pixel */
"64 64 248 2 ",
"   c None",
".  c #760402",
"X  c #7C0402",
"o  c #790808",
"O  c #741217",
"+  c #6E0F12",
"@  c #661C25",
"#  c #771F22",
"$  c #5F2B3E",
"%  c #7B242C",
"&  c #622B3C",
"*  c #632636",
"=  c #7E2C34",
"-  c #7C2C3A",
";  c #762639",
":  c #79323D",
">  c #6C313C",
",  c #573246",
"<  c #593A56",
"1  c #622E42",
"2  c #782E42",
"3  c #6B3A4C",
"4  c #683549",
"5  c #733244",
"6  c #763648",
"7  c #6B3A52",
"8  c #663D57",
"9  c #763D52",
"0  c #5D455C",
"q  c #58445C",
"w  c #654259",
"e  c #7C4759",
"r  c #744954",
"t  c #7F665D",
"y  c #5D4661",
"u  c #684962",
"i  c #6E5363",
"p  c #8C0C0B",
"a  c #850A06",
"s  c #930E0B",
"d  c #9C0D0C",
"f  c #940508",
"g  c #8F120B",
"h  c #9C120D",
"j  c #99120B",
"k  c #9D0F12",
"l  c #881618",
"z  c #961415",
"x  c #9C1413",
"c  c #94151A",
"v  c #931A1D",
"b  c #991918",
"n  c #A10D0B",
"m  c #A00C05",
"M  c #A2120D",
"N  c #AB150C",
"B  c #AC1A0D",
"V  c #A41509",
"C  c #B41B0C",
"Z  c #A21413",
"A  c #A31B12",
"S  c #AC1B11",
"D  c #A81714",
"F  c #B71C13",
"G  c #AA0809",
"H  c #97241E",
"J  c #B72A0D",
"K  c #AA2618",
"L  c #BC2314",
"P  c #BB2818",
"I  c #B9381C",
"U  c #AB391E",
"Y  c #8D1D23",
"T  c #821F23",
"R  c #911C23",
"E  c #84232A",
"W  c #8C2528",
"Q  c #94282B",
"!  c #832532",
"~  c #842A35",
"^  c #862835",
"/  c #963433",
"(  c #A53327",
")  c #B7332B",
"_  c #AD3534",
"`  c #B03435",
"'  c #A92D2B",
"]  c #C32414",
"[  c #CC2315",
"{  c #CE2B13",
"}  c #CD291B",
"|  c #C62818",
" . c #D12414",
".. c #D32C14",
"X. c #D22419",
"o. c #D32A1A",
"O. c #DB2B14",
"+. c #CC3316",
"@. c #CA341A",
"#. c #C73718",
"$. c #D43315",
"%. c #DB3413",
"&. c #DD3B14",
"*. c #DB341A",
"=. c #D53C1A",
"-. c #DC3B19",
";. c #D43419",
":. c #CB2C0D",
">. c #E33B15",
",. c #E33B1A",
"<. c #E73717",
"1. c #E93A15",
"2. c #C62623",
"3. c #AD4637",
"4. c #DB431A",
"5. c #DB4817",
"6. c #DD561B",
"7. c #D14617",
"8. c #EA4C0D",
"9. c #E54B0B",
"0. c #EC530E",
"q. c #E44313",
"w. c #E94516",
"e. c #EB4D13",
"r. c #E34C1B",
"t. c #EB4D19",
"y. c #E44917",
"u. c #F04C16",
"i. c #ED5313",
"p. c #E4531C",
"a. c #EC531A",
"s. c #EC5C1A",
"d. c #EB5917",
"f. c #F25314",
"g. c #F25816",
"h. c #F2510B",
"j. c #ED641C",
"k. c #EB6A1D",
"l. c #EB6118",
"z. c #F16E1F",
"x. c #CB4622",
"c. c #D84C24",
"v. c #D85626",
"b. c #D1572F",
"n. c #E54422",
"m. c #E65923",
"M. c #D6692F",
"N. c #EB6323",
"B. c #EE6B21",
"V. c #EB6D2C",
"C. c #E96529",
"Z. c #F16D24",
"A. c #F26824",
"S. c #EE7425",
"D. c #EB732A",
"F. c #EE7C2A",
"G. c #EA7828",
"H. c #F37226",
"J. c #F2732A",
"K. c #F27C2B",
"L. c #F67627",
"P. c #E97B35",
"I. c #F77A31",
"U. c #E66931",
"Y. c #963D43",
"T. c #873C44",
"R. c #834453",
"E. c #8D4952",
"W. c #81484E",
"Q. c #E3774A",
"!. c #F2AD19",
"~. c #EC8429",
"^. c #F3842D",
"/. c #F48A2E",
"(. c #F28422",
"). c #F29A2A",
"_. c #E88639",
"`. c #F58432",
"'. c #F38C34",
"]. c #F38C3A",
"[. c #F98C37",
"{. c #F49335",
"}. c #F29D36",
"|. c #F59439",
" X c #FA953A",
".X c #F49B3A",
"XX c #FB9839",
"oX c #F3A62B",
"OX c #F5A13F",
"+X c #F6A83E",
"@X c #F3B333",
"#X c #D18A3F",
"$X c #F5DA0E",
"%X c #F6D709",
"&X c #F5D716",
"*X c #F5C01A",
"=X c #F5DB24",
"-X c #F8D92A",
";X c #F5D638",
":X c #F7C730",
">X c #F6E116",
",X c #D38B41",
"<X c #E68844",
"1X c #F69349",
"2X c #EC8C53",
"3X c #F6A342",
"4X c #F5AC44",
"5X c #F9AA46",
"6X c #F8A747",
"7X c #FBB64B",
"8X c #FBBB4C",
"9X c #F6B847",
"0X c #FABD54",
"qX c #F5B757",
"wX c #EEA74E",
"eX c #F0AD6A",
"rX c #F6C44C",
"tX c #FAC54D",
"yX c #F9D54B",
"uX c #FAC855",
"iX c #F6D353",
"pX c #FAD353",
"aX c #F8DA57",
"sX c #F5C568",
"dX c #F5D766",
"fX c #F9C774",
"gX c #F7D876",
"hX c #EFC16F",
"jX c #F8EA74",
"kX c #F5E869",
"lX c #F7E253",
"zX c #F5BE86",
"xX c #EEBDA6",
"cX c #FCC385",
"vX c #F6D586",
"bX c #EFD593",
"nX c #F8E786",
"mX c #F8EA9A",
"MX c #F8F19C",
"NX c #F7EAA8",
"BX c #F8F3A6",
"VX c #F7F3B8",
"CX c #EFDDAD",
"ZX c #F9F5C8",
"AX c #FAF8D6",
"SX c #FDFEFC",
"DX c #FBFDF5",
"FX c #FDF9E6",
/* pixels */
"                                                                                                                                ",
"                                                                                                                                ",
"                                                                                                                                ",
"                                                                                                                                ",
"                                                                                                                                ",
"                                                                                                                                ",
"                  , 7 7 4 ,                                         4 9 E.r 6 w                   , 4 7 4 ,                     ",
"                @ X p x a . 1                                     w m C 1.O.d Y                 & . p x p X @                   ",
"                % a A L x a 5                                     u F ] ,.o.L U 9 u w 0         1 a x | D o @                   ",
"                ! M ;.,.P Z 6                                     R.1.,.<.,.f.t.o.o.D z y       6 x | 1.| o @                   ",
"                % j L $.S s 4                                     T.$.;.y.r.j.a...} D b 0       4 s S *.P o @                   ",
"                @ X s M p X 1                             5 M z b x j K J.H.H.B.{ } N h 0       * . s M s . @                   ",
"                * O T W % O <                             ^ B A Z x x K K.^._._.;.o.H E         , O # W T O *                   ",
"                                              Q Q     : z | ,.| x x k U 4XsXMXvXs.a.i                                           ",
"                                              E Y     ^ N @.n.2.M Z x U 4XqXmXbXv.b.                                            ",
"                                                      3.o.2XcXQ.$.;.[ =.~.G.l.b.i                                               ",
"                                                      ` >.2XvX<X%.*.X.=.I.C.h.v.                                                ",
"                                                  - E x.8.oX-X@X1XP.{ | S K C H     - E                                         ",
"                                                  W d 4.8.!.$X:XtX].X.] k z x R     R M u                                       ",
"                                              5 = P ..w.8.eXNXvX7X].O.4.v.x.x b ~ : w y     7 ^                                 ",
"                                              b V $.1.w.9.xXSXCX4X]...q.I.C.s j n x         ~ G 3                               ",
"                                              Y h &.8.A.G.2XbXhXuX4XP.F.H.C.7.x.+.#._ E.      8                                 ",
"                                              Y j y.0.^.|./.(.+XaXpXrX6XH.H.L.L.g.g... .e                                       ",
"                            9 R.R.R.R.R.R.7 6 I J N.B.{.OX@X!.rXjXsX3X|.J.H.H.Z.5.,...} u     4 9                               ",
"                        : d F o.X.X.X...[ n h y.i.'.|.5X9X:X%XlXBXfX/.^.D.H.J.B.{  .X.2.u   ; n k x p . *                       ",
"                      w Q D | *.*.*.;.O.} J J B.G.F.K.4XrXdXkXjXBXvX.X{.J.H.H.V.4.-.o.} E.e ( J J J M a ;                       ",
"                    ~ M L } ,.f.u.i.e.>.>.e.d.9X0Xj.8.9XaXVXSXZXMXvX9X3XZ.Z.Z.V.J.J.$.X.X.[ q.a.f.g.#.j ~                       ",
"                    ~ j ] $.r.j.l.l.d.>.5.s.l.3X4Xv.4._.wXbXAXZXVXmXsXqX~.~.F.K.G.F.7.+.%.O.6.k.s.f.+.h ~                       ",
"                    ^ d $.g.J.|.{.}.^.i.s.[.{.{.{.K k x s ,XyXNXSXAXmXnXaXrX'.{.{.'.D.D.d.8.|.uXF.i.+.d ~                       ",
"                    5 W I y.B.`.(./.J.5.r.^.`.{.'.I S x f ,XyXNXSXFXVXNXdXuX}.}.}.}.(.(.j.d.].4XG.h.#.d ~                       ",
"                        ~ M +.i.h.i.4.M B 8.d./.{.s.a.J f ,XpXmXSXDXSXAXmXnXpXpXpXyX&X&XoX[.B.i.i.h.:.j -                       ",
"                        6 l I m.m.m.x.z A v.6.`.'.l.i.J d ,XaXNXSXSXSXFXNXmXiXiXiXpX-X=XoX`.N.e.t.p.#.j ^                       ",
"                                            i v.g.K.[.p.7.eXmXZXSXSXSXSXDXAXjXjXjXkXnXMX~.d.#.A K K x x v v -                   ",
"                                              v.h.'.).j.9.eXMXZXSXSXDXSXDXAXkXjXjXjXMXMX_.p.K b v x x D D G E                   ",
"                                y Y Q ) ) b.v.t.0.!.&X).^.9XaXnXBXNXVXmXgXaX=X=X=X=X=X;XqXeXQ.U.6.r.=.| P k !                   ",
"                                w j B X...e.h.d.d.*X>XoX|.9XyXgXNXmXMXnXtXyX$X$X$X$X$X&XsXcX1XG.j.f.q. .] h !                   ",
"                            0 E ( 5.p.K.F.`.`.Z.S.).).}.'.4X9XuXdXaX-X-X&X&X&X&X$X&XkXnXnXNXwX[.k.e.q.,.} d !                   ",
"                            4 d J f.l.{.{.{.{.S.H.'.{.[.{.4X8XuXyX;X$X$X$X$X&X$X%X&XnXNXNXNXqX[.B.e.q.>.{ j E                   ",
"                            T. .r.I.`.5X5X5X5X'.`.B.j.^.{.|.}.+XrX@XoXoX:X:X;X;X;X;XkXgXvXvXwX[.z.e.w.%.$.] '                   ",
"                            E.<.m. X.X7X7X7X7X|.{.s.e.K..X{.{.1X0X5X[..XqX0XpXpXpXpXpXpXeXzXwX XZ.e.w.>.%.X.`                   ",
"                            E.O.m.{.3XgXfX7X7X3X1Xp.%.j.k.F.F..XuX.Xk.K.OX4XrX9XrXrXpXiXfXeX1X`.j.f.w.&.$.C Q                   ",
"                            R.X.m. XqXBXMX0X7X8XqXx. .y.f.A.H.|.0X|.8.s.[..X7X7X7X7XuXpXfXcX1XI.j.a.w.1.} n E                   ",
"                            e F @.C.P.hXeX4X+X+X3X=.[ ;.:.6.j.`.uX].>.a.J.F..XXXOXOXuXtX7XeXM.7.5.8.%.] ' : 8                   ",
"                            4 m D [ =.'.XXXX{.{.1X=.X.D g =.0.~.uX|.O.&.e.d.H.K. X}.7X0X}.{.3.g ] 1.L m ~                       ",
"          q y     <         0 - Q ] @.V.G.V.D.V.V.@.P D k ;.q.B..XP.&.>.e.e.m.m.C.M._._.].[.3.6 / 3./ ^ 7                       ",
"        + X x z o +             8 j N [  . .[  .[ D k Z x F } &.e.8.a.t.>.%.[ [ M d ] ] m.I.E.                                  ",
"        O p D C p o               % Q ` ` ` _ _ _ W ! b x L ..&.f.i.0.e.>.*.[ P E W 2.[ m.C.i                                   ",
"        c A ;.,.L z                                   ~ M | >.q.a.e.i.e.,...M Y     Y n k m     3 x b b z x =                   ",
"        v h ;.-.S x                                   2 v I *.q.t.e.f.t.>.;.Z W     = v Y R 8   ~ S A K A A W                   ",
"        o a x A p o                                       ~ m ] ,.8.i.t.>...n v             2 v #.a.N.'.G.i.4.v E               ",
"        @ o l v O +                                       5 c P ,.>.a.r.>.@.c !             ~ k #.i.S.XXF.0.y.M W               ",
"                                                              2 D S B D N Q                 ~ d v.[./.{.{.~.D.x l               ",
"                                                              7 z c z c z !                 - d M.1X{.{.|.|.P.M Y               ",
"                                                                                            ~ h #.p.D.|.^.j.p.] )               ",
"                                                                                            - x L <.N.XXK.d.e...)               ",
"                                      * > e 6 r 1                                             8 / L I x.) :.( R.                ",
"                                      . X b D o o                                               5 d d d d d %                   ",
"                                      l j L L g l                                                 7 3 7 7 7 8                   ",
"                                      c S >.1.B R                                                                               ",
"                                      l g P | z l                                                                               ",
"                                      o a n h X .                                                                               ",
"                                      & * 5 5 & 1                                                                               ",
"                                                                                                                                ",
"                                                                                                                                "
};
