/* XPM */
static char *Death_031679567765[] = {
/* columns rows colors chars-per-pixel */
"64 64 221 2 ",
"   c None",
".  c #7B0C0D",
"X  c #780909",
"o  c #76100F",
"O  c #7B0F11",
"+  c #750E12",
"@  c #65161E",
"#  c #6D151C",
"$  c #741215",
"%  c #791214",
"&  c #741319",
"*  c #78121B",
"=  c #741B1E",
"-  c #6D0805",
";  c #641B24",
":  c #6A1C25",
">  c #641E2B",
",  c #711B22",
"<  c #7E1B29",
"1  c #671F32",
"2  c #781B30",
"3  c #5E2028",
"4  c #5E2739",
"5  c #64222D",
"6  c #6D222C",
"7  c #7A222D",
"8  c #642536",
"9  c #7D2A34",
"0  c #752C3C",
"q  c #7A2837",
"w  c #593D54",
"e  c #6C2F43",
"r  c #702943",
"t  c #653D51",
"y  c #68465A",
"u  c #7D4C5C",
"i  c #5B4C69",
"p  c #6B4B64",
"a  c #725761",
"s  c #665267",
"d  c #860501",
"f  c #8B0200",
"g  c #840A02",
"h  c #830D0B",
"j  c #880A05",
"k  c #980D00",
"l  c #900603",
"z  c #86120E",
"x  c #9D130D",
"c  c #99120B",
"v  c #8E1C1D",
"b  c #891318",
"n  c #951515",
"m  c #9D1513",
"M  c #911B1D",
"N  c #9C1D1B",
"B  c #981B17",
"V  c #A20F09",
"C  c #A2120B",
"Z  c #A61A0B",
"A  c #AC1C0D",
"S  c #AB180A",
"D  c #B41406",
"F  c #BD1A04",
"G  c #B2150A",
"H  c #B71807",
"J  c #A11515",
"K  c #A41B16",
"L  c #AA1B12",
"P  c #B21913",
"I  c #9D241D",
"U  c #92241E",
"Y  c #BC220C",
"T  c #B3230B",
"R  c #A92614",
"E  c #BD2918",
"W  c #861D23",
"Q  c #8D1D23",
"!  c #831F2B",
"~  c #911D22",
"^  c #9E1D22",
"/  c #872025",
"(  c #8C2225",
")  c #84252C",
"_  c #89232B",
"`  c #92292A",
"'  c #962326",
"]  c #812833",
"[  c #932A31",
"{  c #9D3439",
"}  c #A7282A",
"|  c #B32C2C",
" . c #B92A26",
".. c #AD332F",
"X. c #B93B29",
"o. c #A72A31",
"O. c #B12F30",
"+. c #AC3734",
"@. c #B23533",
"#. c #C21E02",
"$. c #C21B1B",
"%. c #C42102",
"&. c #CB2615",
"*. c #CA251A",
"=. c #C62819",
"-. c #D32A14",
";. c #DB2D15",
":. c #D42B19",
">. c #CE3B1C",
",. c #CA311D",
"<. c #DB3313",
"1. c #D4321A",
"2. c #D93519",
"3. c #D53C1B",
"4. c #DB3C1A",
"5. c #D73A13",
"6. c #E8360D",
"7. c #E32E14",
"8. c #EB3D13",
"9. c #E43B15",
"0. c #E92A0D",
"q. c #C22823",
"w. c #C23523",
"e. c #C43828",
"r. c #D23822",
"t. c #B5462D",
"y. c #BD4E31",
"u. c #CE461F",
"i. c #DD4B16",
"p. c #D84619",
"a. c #DF5016",
"s. c #EC490E",
"d. c #EB450B",
"f. c #E94416",
"g. c #E54A15",
"h. c #EA4C14",
"j. c #E84E1A",
"k. c #E34517",
"l. c #F14D12",
"z. c #ED5414",
"x. c #EB5319",
"c. c #EB5C1A",
"v. c #E85918",
"b. c #F45514",
"n. c #F25B1A",
"m. c #F75914",
"M. c #F95609",
"N. c #ED6116",
"B. c #ED631B",
"V. c #E66118",
"C. c #F16217",
"Z. c #F4631A",
"A. c #FC6219",
"S. c #F1721D",
"D. c #C54827",
"F. c #D34A26",
"G. c #CC5227",
"H. c #C35330",
"J. c #E05626",
"K. c #DD7937",
"L. c #EA6625",
"P. c #F26425",
"I. c #F26C26",
"U. c #E5702E",
"Y. c #ED7C2D",
"T. c #ED7729",
"R. c #F27627",
"E. c #F17D24",
"W. c #F27D2D",
"Q. c #F87525",
"!. c #EE7D36",
"~. c #F27E34",
"^. c #933D44",
"/. c #A33C42",
"(. c #F3832D",
"). c #F48A2D",
"_. c #F68A29",
"`. c #F09E2C",
"'. c #EE8233",
"]. c #EE8C3E",
"[. c #F38531",
"{. c #F48C33",
"}. c #F58939",
"|. c #EE933B",
" X c #F49435",
".X c #F29A34",
"XX c #F49438",
"oX c #F49B3C",
"OX c #F89437",
"+X c #F4A13B",
"@X c #F7C619",
"#X c #F5D61E",
"$X c #F7CE22",
"%X c #F6DC25",
"&X c #EC9943",
"*X c #F59B44",
"=X c #F9A541",
"-X c #F5AB44",
";X c #F9AC45",
":X c #F5A84A",
">X c #FAB44A",
",X c #F7BD4D",
"<X c #FBBE4F",
"1X c #F6B44D",
"2X c #F8BE56",
"3X c #E9A146",
"4X c #F6B472",
"5X c #F7CD49",
"6X c #F9D34B",
"7X c #FACC52",
"8X c #F7C65D",
"9X c #F9D050",
"0X c #F9D856",
"qX c #F7C978",
"wX c #F8CB64",
"eX c #FAE977",
"rX c #F3BE81",
"tX c #F2D783",
"yX c #FAEE95",
"uX c #F7E797",
"iX c #FAF1A3",
/* pixels */
"                                                                                                                                ",
"                                                                                                                                ",
"                                                                                                                                ",
"                                                                                                                                ",
"                                                                                                      8 $ W ( % @               ",
"                                                                                                      8 d x x g %               ",
"              > $ Q ~ % ;                                                                             9 C C m x M               ",
"              , g m m d $                                                                             9 c J J m M               ",
"              _ x m m C ~                                                                             6 f x C j .               ",
"              ) x J J C Q                                                                             8 . Q ( $ @               ",
"              & f V C f O                                                                                                       ",
"              5 $ W ( $ ;                                                                                                       ",
"                                                                                                                                ",
"                                                                                                                                ",
"                                                              8 : 2 ) o.o.= 3                                                   ",
"                                                              * d Z P 2.2.k .                                                   ",
"                                                              W c p.g.W.'.R b                                                   ",
"                                                              ` Z g.m._.{.E N                                                   ",
"                                                              @.&.h.z.C.c.;.q.                                                  ",
"                                                              | &.k.f.h.f.-. .t                                                 ",
"                                                          5 & j j &.7.7.;.m . + >                                               ",
"                                                          5 & @ & o. . .| z - d . w                                             ",
"                                                                        i & X m B O 1                                           ",
"                                                                          1 O n m h #                                           ",
"                                                      0 Q < ) +.e.G.G.I ) i   & O w                                             ",
"                                                      I D S G 5.s.M.b.#.Z     > ;                                               ",
"                                          0 )     ^.,.p.g.i.i.|.3XR.I.j.p.w...y                                                 ",
"                                          I Z y   +.:.j.z.n.c.;X<X[.Q.n.x.0.*.p                                                 ",
"                                      0 N u.g.F.H.a   ' Y Y.). XOX}.{.c.h.2.*.^ Q ( ( M ]                                       ",
"                                      U #.i.A.m.c.a   q B K.].|.OX{.{.B.x.4.,.P C S S D N y                                     ",
"                                  0 L 3.x.W. X{.}.F.e.s   ` R &X>XB.z.P.I.}.[.>.*.k.j.x.i.R !                                   ",
"                                  0 K u.n.W.OXOX}.x.4.s   Q m &X1XB.z.S.E.XX&Xp.;.j.b.b.h.F M                                   ",
"                                      ( G i.Z.[.XX{.!.F.r.K n a.c.[.).@X@XwX4X!.Z.n.h.3.*.P v                                   ",
"                                      _ D p.N.[.oX.X{.g.<.A A i.v._.`.$X%XqXrX&XI.n.h.<.*.G ~                                   ",
"                                      @.6.T.OX=X1X>X-Xc.h.h.g.Y.).@X#XeXuXiXuX&X(.c.h.9.1.D M                                   ",
"                                      X.d.(.oX1X2X1X-Xc.l.x.c.{.`.@X#XeXuXiXuX:X).Z.l.f.2.A 7                                   ",
"                                      O.6.T.=XtXyX8X-XV.z.(.{.;X1X5X6X0XwXqXtX*X).Z.h.8.>.u                                     ",
"                                      +.:.U.oXtXuX8X=Xc.x.(.{.;X>X7X6X6X9XqX4X*X(.B.h.6.w.                                      ",
"                                        p X.9.|.1X+XXXf.6.n.c. XoX>X,X6X7X:X*X[.Q.m.h.%.m                                       ",
"                                          { ,.U.(.'.!.F.r.g.g.R.).=X-X7X5XXXY.I.L.x.p.R <                                       ",
"                                            p X.6.<.>.y   e.<.x.N.E.(.<X,XJ.1.Y Z k z t                                         ",
"                                              { q.q.O.    | *.f.x.B.L.*X3X3.$.^ W + ;                                           ",
"                                                          ^ G :.1.1.3.4.2.D J y                                                 ",
"                                                          0 ~ E *.*.*.q. .N )                                                   ",
"                                                              ^ G D L                                                           ",
"                                                              9 Q v /                                                           ",
"                                                                                                                                ",
"                                                                                                                                ",
"  4 : ) ) , 6                                                                                                                   ",
"  $ d C V f .                                                                                                                   ",
"  Q x m m m v                                                                                     e ~ t.H.[ 0                   ",
"  ( m m J C M                                                                                     ( D s.m.#.B                   ",
"  & d x C l O                                                                                     t.s.T.(.j.G.                  ",
"  > # / ( $ ;                                                                                     H.M.(.OXc.p.                  ",
"                                                                                                  [ #.z.n.=.I                   ",
"                                                                                                  r v w.F.' <                   ",
"                                  8 % Q ~ * :                                                                                   ",
"                                  : f c C d $                                                                                   ",
"                                  ] C m m x v                                                                                   ",
"                                  ] C m K C v                                                                                   ",
"                                  6 d n ' ( $                                                                                   ",
"                                  5 h ` /.{ q                                                                                   ",
"                                                                                                                                ",
"                                                                                                                                "
};
