/* XPM */
static char *Death_011679567765[] = {
/* columns rows colors chars-per-pixel */
"64 64 253 2 ",
"   c None",
".  c #6C0709",
"X  c #7C0302",
"o  c #770809",
"O  c #7B140D",
"+  c #740F14",
"@  c #6A131A",
"#  c #7B161B",
"$  c #660A10",
"%  c #5E1524",
"&  c #691A24",
"*  c #741C25",
"=  c #631F36",
"-  c #5A293B",
";  c #7B252B",
":  c #672838",
">  c #7B2A38",
",  c #6E2B34",
"<  c #79211F",
"1  c #5A2D42",
"2  c #58364B",
"3  c #5A3C55",
"4  c #662D44",
"5  c #752D42",
"6  c #7B2D40",
"7  c #6C364B",
"8  c #69384B",
"9  c #753546",
"0  c #653E54",
"q  c #6B3C52",
"w  c #653F59",
"e  c #733C53",
"r  c #5D3E62",
"t  c #5C445B",
"y  c #664257",
"u  c #794659",
"i  c #7E404F",
"p  c #6C4865",
"a  c #4D5576",
"s  c #830100",
"d  c #830C06",
"f  c #890A09",
"g  c #930C0D",
"h  c #9C0E0D",
"j  c #950A07",
"k  c #89120B",
"l  c #9C130D",
"z  c #971409",
"x  c #940E11",
"c  c #970B12",
"v  c #881518",
"b  c #941414",
"n  c #9B1313",
"m  c #941A1B",
"M  c #991817",
"N  c #870917",
"B  c #A40D06",
"V  c #A4130C",
"C  c #AB160B",
"Z  c #B51B0C",
"A  c #A31513",
"S  c #A61B14",
"D  c #AB1B13",
"F  c #AA1615",
"G  c #B51D14",
"H  c #B9240E",
"J  c #AA2615",
"K  c #B32212",
"L  c #BB2315",
"P  c #B92818",
"I  c #BB361C",
"U  c #AD2611",
"Y  c #871C26",
"T  c #911F26",
"R  c #852429",
"E  c #962728",
"W  c #832A35",
"Q  c #963737",
"!  c #8C2F34",
"~  c #A62522",
"^  c #B93B2B",
"/  c #A73A3A",
"(  c #B5362E",
")  c #9C2020",
"_  c #C61E16",
"`  c #D31C16",
"'  c #C5290D",
"]  c #C52C13",
"[  c #CC2915",
"{  c #CD2B1A",
"}  c #C62418",
"|  c #D42C14",
" . c #D52B1A",
".. c #D72815",
"X. c #C93618",
"o. c #D53216",
"O. c #DC3314",
"+. c #DC3A13",
"@. c #D4331A",
"#. c #DC3B1B",
"$. c #D63819",
"%. c #D42F0E",
"&. c #E6370B",
"*. c #E43B14",
"=. c #E53A16",
"-. c #E02B14",
";. c #C83023",
":. c #BC421A",
">. c #B64D0A",
",. c #B8452F",
"<. c #BF633B",
"1. c #C8421C",
"2. c #DA451A",
"3. c #D55819",
"4. c #E7480C",
"5. c #E8530E",
"6. c #E44514",
"7. c #EB4315",
"8. c #E54B14",
"9. c #EB4C13",
"0. c #E44D1B",
"q. c #EB4B1A",
"w. c #E6441A",
"e. c #EC5314",
"r. c #EC541B",
"t. c #EE5C1C",
"y. c #E75718",
"u. c #F35C1B",
"i. c #F15615",
"p. c #F34C11",
"a. c #ED641B",
"s. c #EB661B",
"d. c #F2671C",
"f. c #E87A1A",
"g. c #ED6C13",
"h. c #D85825",
"j. c #CC4C25",
"k. c #E54824",
"l. c #E95B25",
"z. c #DC672A",
"x. c #D36538",
"c. c #EB6522",
"v. c #ED6B24",
"b. c #E86729",
"n. c #F36C23",
"m. c #F36826",
"M. c #ED722B",
"N. c #EC7726",
"B. c #F17325",
"V. c #F3742A",
"C. c #F37C2C",
"Z. c #F67B28",
"A. c #EA7A35",
"S. c #F27C31",
"D. c #983B45",
"F. c #8C3742",
"G. c #854853",
"H. c #8F4B4C",
"J. c #8E635A",
"K. c #9F6056",
"L. c #C06B40",
"P. c #F2B413",
"I. c #EF832B",
"U. c #F3832D",
"Y. c #F58A2E",
"T. c #F1992B",
"R. c #EC8734",
"E. c #F38532",
"W. c #F38B33",
"Q. c #F78936",
"!. c #F59235",
"~. c #F49B35",
"^. c #F49539",
"/. c #F49C3B",
"(. c #FA973A",
"). c #EF9333",
"_. c #F4AA29",
"`. c #F5B625",
"'. c #F4A23D",
"]. c #F7A439",
"[. c #F6B93B",
"{. c #E9AB2C",
"}. c #F5DB0C",
"|. c #F4D609",
" X c #F6CB1A",
".X c #F5DB12",
"XX c #F6D518",
"oX c #EED915",
"OX c #F8CD23",
"+X c #F7C827",
"@X c #F7D725",
"#X c #F8C939",
"$X c #F7D636",
"%X c #F7E129",
"&X c #F8E316",
"*X c #EE9643",
"=X c #F49945",
"-X c #EA9255",
";X c #F6A342",
":X c #FAA543",
">X c #FAAC45",
",X c #F9AE4A",
"<X c #F5AC47",
"1X c #F5B444",
"2X c #FAB345",
"3X c #FAB44B",
"4X c #FBBA4C",
"5X c #F7B947",
"6X c #F5A657",
"7X c #F9B852",
"8X c #E7A74E",
"9X c #F3A765",
"0X c #F8B66F",
"qX c #F29F66",
"wX c #FAC24D",
"eX c #F8C849",
"rX c #F8D44A",
"tX c #FACC53",
"yX c #F9C555",
"uX c #F9D353",
"iX c #F7D559",
"pX c #F7E755",
"aX c #F7E345",
"sX c #F8C969",
"dX c #F9D666",
"fX c #F6C872",
"gX c #F6D773",
"hX c #F8E667",
"jX c #F8E678",
"kX c #F8F175",
"lX c #7E8284",
"zX c #F9BD89",
"xX c #FAC585",
"cX c #F8D987",
"vX c #F7D59B",
"bX c #F7E988",
"nX c #F9EC9B",
"mX c #F8E997",
"MX c #F8F399",
"NX c #F9F189",
"BX c #F6DBAF",
"VX c #F9EEA3",
"CX c #F8EDA8",
"ZX c #FAF2A7",
"AX c #F8F2B9",
"SX c #F6EBB4",
"DX c #F9F4C7",
"FX c #FAF8D9",
"GX c #F8E8C1",
"HX c #FCFCEC",
"JX c #F9F9E6",
"KX c #FCFEF4",
"LX c #FDFEFD",
/* pixels */
"                                                                                                                                ",
"                                                                                                                                ",
"                                                                          3 3 y y w 0 0 3                                       ",
"                                                                          + o b b b b o $                                       ",
"                                                                        7 k k G G G G c N ,                                     ",
"                                                    : + + + v m v $ + m b f h | ....} A b o @ 3                                 ",
"                                                    : X o d l Z A k z D U J I 3.h.+.@.K S j d 3                                 ",
"                                                    & s j M P *.o.o.%.| 2.A.R.<X=Xe.=.{ } V b w                                 ",
"                                                    1 * b A { =.*.w.=.w.l.Q.~.4X3XN.a.2.@._ S y                                 ",
"                                                        > V ] =.*.9.r.v.v.B.U.,X5X;X/.A.b.#.}     q E T R 5                     ",
"                                                        7 V ] =.8.a.v.V.V.n.V.>X4XwX4XW.m.#.} u   9 B B C E                     ",
"                                & * W ; & -             4 B ' p.a.Y.Z.n.V.V.U.3X4X7X7XC.r.' V q   7 F P @.P & -                 ",
"                              3 X j C V s +             > U 1.u.B.=X!.N.V.m.M.,X2X7X<XM.k.J Y     8 V L w.] X @                 ",
"                              q c S [ ] V T         8 W ,.b.-XqX9X0X9X;XR.#.2.E.Q.C.M.q.$.G.      4 f l H V X &                 ",
"                              y A K =.$.C T         R B z.>X0XxXxXxXfX4X=X} [ b.l.4.6.[ P p       2 o d v v + &                 ",
"                              0 f z L D j #         Q [ M.2X#X$X$X#X#X4X*X{ [ I X.] P G.p F.>       3 3 y t 3                   ",
"                              3 o o b b o @         ,.7.E.tX@X}.}.}. X7X=X[ } x x x Y     W B q                                 ",
"                                4 4 9 9 4 2       - ^ p.E.wXgXmXpX}.OX5X*XO.{ h v 5 e 9 7 7 8                                   ",
"                                                & X X.u.Y.yXBXLXMX|.OX3X*X*.{ d @     R B                                       ",
"                                              9 m C +.i.U.3X0XBXsX X#XeX<Xz.z.O + 7 y J ]           7 0 3                       ",
"                                            Y C o.=.7.5.B.!.Y.I./.1X4XuXeXwX8XO o g F 4.t.        q B g o =                     ",
"                    3     w y 3 3           T S $.9.u.n.W.;X_.{.[.yXsXjXgX<X*XJ b n S %.w.H.    y Q X.U d * 3                   ",
"                  - . N M b M N . :         * V #.e.N.!.;X1X X|.$XkXNXVXcX).I.@.} z x } { F m N b 1.E.j.g f . %                 ",
"                y R z U K G D n d #       y J H y.d.Y.=X7XsXiXpXkXMXNXkXdX'.Q.#.%.I P X.#.P K K K 2.Z.h.U U h v                 ",
"              , b X.9.8.6.O._ G b b + # Y M +.q.C.!.'.3XgXmXGXJXHXHXCXoXOX5X:Xy.9.c.v.n.m.t.8.8.q.t.V.n.v.l.@.(                 ",
"            y E Z 2.d.a.u.0. .{ C l o o D H y.f.W.~.>X7XcXAXFXKXKXJXCXoXOX5X<Xs.u.Z.C.C.Z.a.i.i.e.s.U.S.V.m.=.j.                ",
"          , m o.8.c.Y.U.U.t.&.*.O.K . d %.8.*X:XW.).[.iXSXKXDXnXCXCXbX#XeX7X,XR.U.W.!.W.Q.C.n.t.5.I.4X/.V.m.*.,.                ",
"          E Z 8.d.U.'.'.'.U.a.t.7.o.k S c.B.5XeX~.).[.iXAXLXFXCXCXCXbXdXiX5X[.'./.!.!.!.W.S.m.u.e.C.3X!.c.l.| (                 ",
"          ( *.V.!.].2X4XeX1X;XE.4.6.2.3.=X'.OX XT.W.].yXGXLXKXJXHXHXDXmXjXXX X2X<X!.Y.C.V.u.e.9.9.v.E.B.i.8.C E                 ",
"          ^ =.S.'.].wXiXdXtX4X/.e.i.e.g.4X#X}.|.T.Q.].3XvXFXKXLXLXLXJXCXjX@X@X#X2X^.^.Z.V.a.e.i.r.u.n.l.4.1.m >                 ",
"          ^ =.S.'.1XuXgXmXdXeX1XU.B.9.g.+X X.X XT.Q.!./.eXpXZXLXLXLXFXnXNXjXhXOXOX[.>XW.U.S.C.n.m.u.u.2.Z E                     ",
"          ^ 7.V.(.[.iXjXnXjXrX4X!.C.9.g. X.X}.XX{.^.W.!.P.}.NXLXKXLXFXVXVXAXnX%X XeX4X'.^.~.~.U.V.d.p.X.N 5                     ",
"          ;.=.u.v./.tXdXdXdXwX;Xs.s.9.s.[.$X.X.X[.,X/.R._.#XnXLXLXLXHXFXFXFXDXrX#XeXeX7X1X+X XT.I.d.p.,.3                       ",
"          ,.&.=.q.R.4XeXrXeX,XR.8.y.k.b.,X5X XoX[.3X/.Q.=X7XBXLXKXLXLXLXLXLXJXgXiXiXiXiXiX%X.X`.R.V.5.K.                        ",
"          Q ' | w.c.Y./.2X^.N.z.P ^ J.H.x.b.f.f.N.I.;X5X5XrXcXFXDXDXFXLXLXLXHXSXCXhXhXdXhXhXhX'.I.x.H.                          ",
"          R V G  .%.9.m.!.v.4.X.b ,     G ` ..-.&.5.<XpXuXuXjXnXmXmXAXKXLXLXLXLXKXNXhXkXkXMXCX6Xb.J.                            ",
"          8 W ~ _ O.w.l.b.2.] ( 5 q     ( ..=.7.r.s.`.$X#XwXdXbXmXMXCXFXFXKXLXLXKXNXhXhXhXNXbX*X5.<.J.H.G.G.F.p 0 w             ",
"              > B Z | ` } C h 5         } ..9.i.m.Z.P.&X[.,XwXuXgXZXVXnXSXLXLXLXJXNXkXiXeXhXkXR.&.a.V.u.=.-...[ B T             ",
"              q > F.D.D.D.F.9 y         H./ $.6.l.d._.@X+X#X#X$XiXjXjXcXmXFXFXFXDXjXdX$X$XaXpX{.I.).-XA.q.q.+.$.G ~ e t         ",
"                                          a ~ ..7.y./.7X@X}.}..X@XuXrXrXdXVXVXCXmXdXrX@X}.}.|.}.}.$XzX9Xv.n.p.k...} C m         ",
"                                      y p G.;.#.7.e._.#X+XOXOXOX#XtXeXtXiXbXjXjXhXrX$X.X.X}.oX%X$XgXvX9XN.B.e.q.O.{ V M         ",
"                                    b n P ;.7.q.9.5.P..X#X7X5X5X4X4X4X3X4XuXrX@XXX.X.X}..X}..XhXZXZXMXfXW.Z.9.9.=.o.V M         ",
"                                  e U H @.2.t.a.r.y.P.XX[.,X,X>X>X2X>X>X2XtXeXOX X XXX@XXXXX@XhXMXnXnXfXY.U.5.9.=.@.V m         ",
"                                v ~ 6.0.S.U.W.U.m.v.W.~.~.W.^./.~.).~.~.'.5X5X~.].2X#XeXrXrXrXiXiXfXxX9XY.U.e.q.+.o.C m         ",
"                              y C ] a.d.~./././.C.C.C.E.Q.!.Y.I.E.W.W.U.!.3X>XE.U.<X2XwXtXtXtXrXuXsXzX9XE.S.5.8.*.O.F m         ",
"                              u ..k.Q.W.>X3X3X,X!.Q.a.e.S.!.s.4.s.C.C.V.W.4X;Xa.a.W.=X5XwX4XwXeXuXfXxX6XN.v.e.e.7.-.B n         ",
"                              H.7.l././.3X4X3X3X'.!.s.5.I.T.B.9.t.c.m.n.N.5X<Xy.q.Z.E.;X<X>X>XeXtXsX0XqXb.b.e.8.$.[ m R         ",
"              1 & @ =       R ^ Y.W.2X,X3X3X3X2X2X>X^.U.+XXX`.Q.M.#.0.i.N.4X,X0.7.u.d.Z.Q.!.'.2XyX7X9XS.t.c.0.#.Z E p           ",
"              * X s o :   5 B :.].].7X4X3X3X7X7X7X3X=X!.`.|.{.R.b...*.9.y.,X=X#.O.6.8.l.m.C.Y./.,X9XqXA.y.y.2.{ l Y             ",
"          2 & v g g x R 6 E l :.(.'.7X4X3X7XjXcXyX3XZ.a.3.>.:.I X.|  . .$.b.h.K Z K P #.k.k.k.k.l.K.lXK.I H Z S h R             ",
"          @ s b S S A n l l n I (.^.3X3X2X7XMXnXsX>Xd.4.G N c c F  .{ { { O.%.V b g h _ ..` _ ` ` H.  t n l M M F R             ",
"          * z j.z.j.} G l z f U l.M.'.'.2X4XfXsXwX3XB.p.H.r > h L w.0.b.b.w.w.L G P G G S S U Z F Q F.Q h.j.z.h.$.X.W 8         ",
"          Y J R.:Xu.O.] b k . n O.k.W.!.3X3X>X2X4X3Xn.8.J.  e B ] u.d.].W.y.e. . . . .n O O O d k k h X.Q.Y.(.(.u.9.C n         ",
"          Y A h.V.q.O.U f * 2 W } @.b.V.:X:X:X;X!.S.h.] ! 7 E G 1.Z.C.(.Y.B.c.@...G K M k v < < ; Y n 1.Q.Y.!.W.B.s.C m         ",
"          W F { -.=.+.C $ 2   y h F %.2.Y.W.Q.E.t.7.K g n V _  .l.(.(.!.!.(.R.@.I b v k k >       e h :.(.(.!.!.(.I.C m         ",
"          8 W J H L U R 1       9 ! ' X.j.h.z.l.9.w.K z n A G  .2.Z.C.!.W.C.b.;.J k v ; W         7 h X.V.V.^.Q.I.c.L ~         ",
"              = X X . 2             n l c l _ { -.#.G V n M G  .#.e.a.^.U.e.8.V b O O             7 B H +.k.(.Q.p.4...;.        ",
"              2 = : :               6 > > W D./ I P L G F n G L o.q.l.M.b.X.I b m ! >             t > E { $.M.b.2.X./ H.        ",
"                                                @ X ] q.} h h V H =.*.*.] O # O R                     y z Z =. .z v             ",
"                                                1 & ~ @.E ; W W ~ o.o.@.( ; # O ;                       W E ,.( R >             ",
"                                                    * X 2       9 l n M Q                                                       ",
"                                                    1 @         0 M S A R                                                       ",
"                                                                                                                                ",
"                                                                                                                                "
};
