/* XPM */
static char *Death_041679567765[] = {
/* columns rows colors chars-per-pixel */
"64 64 214 2 ",
"   c None",
".  c #780604",
"X  c #602C3C",
"o  c #7D2B36",
"O  c #752E3C",
"+  c #7B2D3C",
"@  c #76323E",
"#  c #7A3139",
"$  c #59374D",
"%  c #5D3C53",
"&  c #5F3C5A",
"*  c #6D2F44",
"=  c #722F42",
"-  c #7E2E43",
";  c #6E3345",
":  c #63364B",
">  c #6D364D",
",  c #673A4E",
"<  c #6D3A4C",
"1  c #743443",
"2  c #72354A",
"3  c #743A4B",
"4  c #7C3E4D",
"5  c #7A3746",
"6  c #653B54",
"7  c #6B3C53",
"8  c #643E5A",
"9  c #683F58",
"0  c #763D52",
"q  c #7B3E51",
"w  c #773E58",
"e  c #5F425A",
"r  c #7D434E",
"t  c #63415A",
"y  c #6B435E",
"u  c #734154",
"i  c #7B4455",
"p  c #79455A",
"a  c #7D4C5D",
"s  c #784A59",
"d  c #7D515C",
"f  c #5C4662",
"g  c #5D4468",
"h  c #604665",
"j  c #795362",
"k  c #774A64",
"l  c #890807",
"z  c #9D0B07",
"x  c #950D0D",
"c  c #9C0D0C",
"v  c #95110E",
"b  c #9C120E",
"n  c #9F1005",
"m  c #8B0F10",
"M  c #940F12",
"N  c #9B0F13",
"B  c #921113",
"V  c #9C1212",
"C  c #921318",
"Z  c #9B1618",
"A  c #9A1818",
"S  c #A40C05",
"D  c #AA0A03",
"F  c #A40C09",
"G  c #A2110C",
"H  c #AE1B0E",
"J  c #B4150D",
"K  c #B41A0E",
"L  c #BD1B0E",
"P  c #BE170A",
"I  c #A71610",
"U  c #B41C14",
"Y  c #BB1B12",
"T  c #B21919",
"R  c #B01416",
"E  c #BE220E",
"W  c #B72214",
"Q  c #BB2214",
"!  c #BA2615",
"~  c #8B1F23",
"^  c #9E1F23",
"/  c #932D2F",
"(  c #992B2E",
")  c #9C2729",
"_  c #822731",
"`  c #8A2D36",
"'  c #922B33",
"]  c #8B333B",
"[  c #89373A",
"{  c #96373C",
"}  c #983739",
"|  c #B22F28",
" . c #A33A2D",
".. c #A5352F",
"X. c #A53A36",
"o. c #AC312F",
"O. c #C41B07",
"+. c #C21D0D",
"@. c #C91A0C",
"#. c #DB1E0F",
"$. c #C51C11",
"%. c #CA1D11",
"&. c #C32B0D",
"*. c #C72409",
"=. c #DA240E",
"-. c #DD330D",
";. c #D5390E",
":. c #C32213",
">. c #CC2113",
",. c #C12A13",
"<. c #CC2B14",
"1. c #C32419",
"2. c #C9211C",
"3. c #C62B19",
"4. c #CC2B1C",
"5. c #D42413",
"6. c #DE2713",
"7. c #D22B14",
"8. c #DA2A15",
"9. c #D4231A",
"0. c #D42D1B",
"q. c #D92B1A",
"w. c #CB3314",
"e. c #CE3E19",
"r. c #C73A15",
"t. c #D23314",
"y. c #DC3515",
"u. c #D53C15",
"i. c #DE3C15",
"p. c #DB321A",
"a. c #DC391A",
"s. c #E62C0F",
"d. c #E93A0D",
"f. c #F5350C",
"g. c #E23514",
"h. c #E43C15",
"j. c #E33B19",
"k. c #E93D1D",
"l. c #E73614",
"z. c #F23715",
"x. c #D12D21",
"c. c #8A403D",
"v. c #BB402F",
"b. c #AB433C",
"n. c #AA4E36",
"m. c #C7481D",
"M. c #D7471A",
"N. c #F6510D",
"B. c #E54515",
"V. c #EB4313",
"C. c #EC4B15",
"Z. c #E5411B",
"A. c #E9441A",
"S. c #EB491B",
"D. c #F14816",
"F. c #ED5614",
"G. c #E95B1E",
"H. c #E9561B",
"J. c #F35314",
"K. c #FB5511",
"L. c #FC5B11",
"P. c #FB5B1C",
"I. c #F35818",
"U. c #DD4F24",
"Y. c #D84621",
"T. c #CE5120",
"R. c #C24F33",
"E. c #E54620",
"W. c #E75923",
"Q. c #E66626",
"!. c #EA6621",
"~. c #E5692A",
"^. c #FA6D26",
"/. c #F37326",
"(. c #F4732C",
"). c #F47C2C",
"_. c #F37825",
"`. c #E07B3A",
"'. c #823B45",
"]. c #8B3A42",
"[. c #8C3D49",
"{. c #833A46",
"}. c #913E49",
"|. c #943844",
" X c #89484C",
".X c #954B4B",
"XX c #9A4843",
"oX c #844354",
"OX c #894252",
"+X c #884955",
"@X c #934852",
"#X c #825A5C",
"$X c #895854",
"%X c #955851",
"&X c #A34644",
"*X c #A44941",
"=X c #A14848",
"-X c #A25345",
";X c #B15A42",
":X c #84665E",
">X c #8E665C",
",X c #90695D",
"<X c #A0634C",
"1X c #BC6E42",
"2X c #836360",
"3X c #F7802C",
"4X c #F08235",
"5X c #F38E32",
"6X c #F28E38",
"7X c #EE9037",
"8X c #FA9738",
"9X c #FDA442",
"0X c #F9BF54",
"qX c #FDC655",
/* pixels */
"                                                                                                                                ",
"                                                                                                                                ",
"                                                                                                                                ",
"                                                                                                                                ",
"                                                                                                                                ",
"                                                                                                                                ",
"                                                                                                                                ",
"                                                                                                                                ",
"                                                                                                                                ",
"                                                                                                                                ",
"                                                                < r +X                                                          ",
"                                                              1 F ! j.d                                                         ",
"                                                              [ *.7.p.+X    7                                                   ",
"                                                              *Xf.s.9.k   1 c g                                                 ",
"                                                                b.@X[.4 7 ) Y [                                                 ",
"                                                                      O D :.q.K B 6                                             ",
"                                                      f > i @Xr 6       {.) Q ' ;                                               ",
"                                                      1 F Q g.K M %       # D t                                                 ",
"                                                      ].O.M.!.,.R b.,X      1                                                   ",
"                                                      =Xf./.9XU.$.W.4X:X                                                        ",
"                                                    X 5  Xn.T.M.y.B.U.d                 1                                       ",
"                                                  * . $   * S u.P.h.1.p               _ F t                                     ",
"                                            2       X       1  .t.0.4.|.              t 1                                       ",
"                                          @ S 7               = S Y x.{.                                                        ",
"                                            2                   @ '.[.3 > '. X                                                  ",
"                                                                      1 D @.q.p                                                 ",
"                                  0 oXq < < <  X%XoX<       3 {.+X0 > ) K Y W k     3 < 7 $                                     ",
"                              2 c $.8.Y b V c ;.L.w.z 6   1 S :.q.U N :.q.H C e   - F G b l .                                   ",
"                            , ( Y 0.B.u.w.3.:.y.A.0.U p     2 ( Y Y Q L U ` 6     + G Q 3.G m                                   ",
"                          2 S L <.j.F.J.P.C.j.a.y.y.<.oX      ; F Q 0.U B e       @ G t.k.Q Z                                   ",
"                          4 U 7.i.H./.G.A.h.g.l.h.<.U u       @ F ' oX3 ,         { *.6.h.{ 6                                   ",
"                          OX4.h.J._.8X~.y.g.a.i.i.W v 6       @ b e               *Xz.l.a.j                                     ",
"                            oX .! r.m.e.s.X.XX..Q H I 7         1                 [ :.8.y.' >                                   ",
"                              % v x l T q.p   ; N Z Z 7                           o z Q 4.J c                                   ",
"                                < , 5 ].OX      O 2 <       2 {.OX5 2           5 ~ b ] +X^ V                                   ",
"                                                          1 D %.6.P V 6       _ D G A     o I                                   ",
"                                1 {.[.XX-X*X-Xc.;         {.$.t.B.<.T t       XX;.;.e.      6                                   ",
"                              2 S +.5.d.K.N.L.*.z 2       }.6.B.I.h.3.s       ;XL.L.G.#X                                        ",
"                              2 z &.h.Q.5X5X6XT.Y q       }.s.V.F.Q.4X1X<X.XOX.X$X%X#X                                          ",
"                              < C r.J.6X0X0XqX~.9.oX      [.5.A.F.7XqX8X^.D.>.y                                                 ",
"                                8  .g.G.).).).M.J 3         p X.d.!.8X).(.A.2.    +X&X{ @                                       ",
"                                  oX2.p.C.C.C.! B <           [.#.U././.(.E.1.    *Xf.O.c e                                     ",
"                                    p X.&.,.&.[ t < 1 1 1 @ = 4     >XR.A.C.W.j     oXu 6                                       ",
"                                      : b v z t   2 S G G D G 7       |.>.H.4X2X                                                ",
"                                                  5 F W w.t.u.v.=X      p #X:X                                                  ",
"                                                  2 F <.E.D.I.V.g.+X                                                            ",
"                                                    9 ( +.7.V.h.h.| =                                                           ",
"                                                      ; c Q k.h.j.$.v 8                                                         ",
"                                                        t / +.L U ] f                                                           ",
"                                                          2 c V C 6                                                             ",
"                                                                                                                                ",
"                                                                                                                                ",
"                                                                                                  6 o { } ] +                   ",
"                                                                                                  _ F >.0.J G                   ",
"                                                                                                  } >.j.A.q.:.                  ",
"                                                                                                  X.6.S.I.p.4.                  ",
"                                                                                                  ` K 7.y.L H                   ",
"                                                                                                  o G 1.4.I Z                   ",
"                                                                                                          f h                   ",
"                                                                                                                                ",
"                                                                                                                                ",
"                                                                                                                                ",
"                                                                                                                                ",
"                                                                                                                                "
};
