/* XPM */
static char *Death_051679567766[] = {
/* columns rows colors chars-per-pixel */
"64 64 195 2 ",
"   c None",
".  c #7E0000",
"X  c #770905",
"o  c #7E0801",
"O  c #7C0A0A",
"+  c #6E0D11",
"@  c #6B1A1E",
"#  c #7F101A",
"$  c #6B1820",
"%  c #7F1620",
"&  c #601F32",
"*  c #7D2C34",
"=  c #7A2A3B",
"-  c #77303E",
";  c #79313C",
":  c #5F3E5B",
">  c #6F2F46",
",  c #762E41",
"<  c #7A2C42",
"1  c #6E3546",
"2  c #6D3845",
"3  c #6C3B4C",
"4  c #743344",
"5  c #7A3443",
"6  c #713846",
"7  c #793946",
"8  c #723649",
"9  c #71384B",
"0  c #7C3C4F",
"q  c #653C54",
"w  c #6B3C53",
"e  c #603F5C",
"r  c #753C52",
"t  c #5D4057",
"y  c #5E465E",
"u  c #634054",
"i  c #63425B",
"p  c #6C4059",
"a  c #654B5B",
"s  c #7C4553",
"d  c #7D4E56",
"f  c #714F5F",
"g  c #764558",
"h  c #6F515C",
"j  c #77555B",
"k  c #5F4563",
"l  c #5F4863",
"z  c #624463",
"x  c #634861",
"c  c #6C4B62",
"v  c #6D4868",
"b  c #655165",
"n  c #820006",
"m  c #810F0D",
"M  c #8C0B0D",
"N  c #850B06",
"B  c #940F0F",
"V  c #9D0D0C",
"C  c #8E120E",
"Z  c #9C120E",
"A  c #990F12",
"S  c #8E1413",
"D  c #8A1816",
"F  c #941414",
"G  c #9B1413",
"H  c #981814",
"J  c #96161A",
"K  c #9A1618",
"L  c #941A1C",
"P  c #981C1B",
"I  c #AF0702",
"U  c #A40C04",
"Y  c #A20B0A",
"T  c #A3120D",
"R  c #AD160C",
"E  c #A3180E",
"W  c #A41206",
"Q  c #B51B0C",
"!  c #A31313",
"~  c #A91612",
"^  c #A51913",
"/  c #AB1A14",
"(  c #A41D1A",
")  c #B41D13",
"_  c #BA1D12",
"`  c #B31D1C",
"'  c #BF240D",
"]  c #AF2016",
"[  c #A9251C",
"{  c #B32215",
"}  c #BC2415",
"|  c #B62B1D",
" . c #BF2A19",
".. c #BC2918",
"X. c #831B24",
"o. c #8C1D23",
"O. c #921B23",
"+. c #862426",
"@. c #8D2126",
"#. c #83242C",
"$. c #8A252C",
"%. c #80292C",
"&. c #8F2B2F",
"*. c #982825",
"=. c #952728",
"-. c #9F2C2E",
";. c #99262C",
":. c #9B332A",
">. c #832731",
",. c #882732",
"<. c #812B37",
"1. c #822B3A",
"2. c #962C31",
"3. c #902B38",
"4. c #9E3537",
"5. c #AB2726",
"6. c #BF2A23",
"7. c #B92D2A",
"8. c #A63839",
"9. c #B93F32",
"0. c #C31F15",
"q. c #D8240F",
"w. c #C42314",
"e. c #CD2615",
"r. c #C42C14",
"t. c #CC2B15",
"y. c #C42618",
"u. c #CB261A",
"i. c #CB2A1B",
"p. c #C42F1B",
"a. c #D12516",
"s. c #D52C15",
"d. c #DA2D15",
"f. c #D42419",
"g. c #D42A19",
"h. c #DD2E1A",
"j. c #CD301F",
"k. c #C5321B",
"l. c #D53116",
"z. c #DB3412",
"x. c #DF3D13",
"c. c #D3341C",
"v. c #D83319",
"b. c #D63E1B",
"n. c #DA3A1B",
"m. c #D33D16",
"M. c #E3250A",
"N. c #E42916",
"B. c #E42B19",
"V. c #E73713",
"C. c #EB3E17",
"Z. c #E23618",
"A. c #E33C1D",
"S. c #ED3E1B",
"D. c #F23B14",
"F. c #C02824",
"G. c #CA2A21",
"H. c #C03025",
"J. c #C73A21",
"K. c #CD3E2B",
"L. c #DC3B23",
"P. c #BE4233",
"I. c #EB4C0E",
"U. c #EB4B15",
"Y. c #ED4D1A",
"T. c #EB461A",
"R. c #ED5314",
"E. c #EE5219",
"W. c #EC5815",
"Q. c #F35414",
"!. c #F6581D",
"~. c #F8531A",
"^. c #CD4E2D",
"/. c #DA4A25",
"(. c #D2592B",
"). c #E05726",
"_. c #F16D27",
"`. c #F36B2B",
"'. c #F2722B",
"]. c #F37326",
"[. c #F57631",
"{. c #803845",
"}. c #883D48",
"|. c #943C42",
" X c #943D4B",
".X c #934047",
"XX c #91444C",
"oX c #9D474A",
"OX c #9C4A44",
"+X c #8D554F",
"@X c #824453",
"#X c #80425D",
"$X c #844953",
"%X c #915855",
"&X c #87676B",
/* pixels */
"                                                                                                                                ",
"                                                                                                                                ",
"                                                                                                                                ",
"                                                                                                                                ",
"                                                                                                                                ",
"                                                                                                                                ",
"                                                                                                                                ",
"                                                                                                                                ",
"                                                                                                                                ",
"                                                                                                                                ",
"                                                                                                                                ",
"                                                                                                                                ",
"                                                                                                                                ",
"                                                                >.#.+.*                                                         ",
"                                                              l K T T K                                                         ",
"                                                              l K Z G P     q =                                                 ",
"                                                              l G T T L     >.Y q                                               ",
"                                                                3 2 3 2 8 1 5.} 3.8                                             ",
"                                                                        O.U 0.B.` U ,                                           ",
"                                                            $X          8 * 5.0.;.= e                                           ",
"                                                      4 B { D.P.            >.U q                                               ",
"                                                      {.Q } h.J.            5 $.k                                               ",
"                                                      oXD.k.C D                                                                 ",
"                                                      XX/.9.+.+.                                                                ",
"                                                              &X(.^.@.P O.o.    2 P O.L <                                       ",
"                                                              j W.U.T ! T G z   5 G ! H =                                       ",
"                                          & $ X.X.X.#         h A.V.u.y.^ F k                                                   ",
"                                          + o M n n . 7       h L.Z.g.i.^ G k                                                   ",
"                                      = ,.0.e.( M [  .*.= :   a ] _ f.g.w...v   q = :                                           ",
"                                      B ^ B.N.~ M p.T.' U -   z F ~ i.g.g.j.c   * I =                                           ",
"                                    i G ( h.B.~ M  .A.} B 4     w 5 ` ) _ ` x     9 0  X}.6 q                                   ",
"                                    p A ^ B.N.~ M y.S.w.Y <         H Y Z J         @XM.w.U o.                                  ",
"                                      ;.4.K.e.) / } t.-.< u         4 1.S A ,   u w 0 |.|.1.2                                   ",
"                                          =.W e.d.R B 3                 $ X F ! G Y 8                                           ",
"                                          = $.8.8.2.,.e               c X.N C Z H T 4                                           ",
"                                                          w F ( G.i.i.G.! G m X B T 4                                           ",
"                                                          w T Q s.g.s.c./ E M O C T 4                                           ",
"                                      X.P 7.H./.).J.6.#X  s t.l.Y.E._.`.c.r./ H G Z 2                                           ",
"                                      K R e.s.I.Q.z.q.@X  s a.z.R.W.].'.v.i.( J Z W 5                                           ",
"                                      F.e.T.U.R.Q.T.Y.+X  s a.n._._.'.`.v.u.s   8.z.7.o.8                                       ",
"                                      G.d.Y.E.Q.R.Q.~.%X  @Xi.n.[.'.'.[.c.i.v   OXS.i.V =                                       ",
"                                    x ( _ l.z.U.Q.A.z.@X  r ~ _ b.b.b.m.{ ^ z   b d g y                                         ",
"                                      F ~ e.t.U.!.z.f.@X  w G ~ a.a.f.u.G F                                                     ",
"                                      w 4 ` { ..r.i.g.:.8 2 3 0 @X@X@X@Xr q                                                     ",
"                                          L V Z V 0.d._ V 1                                                                     ",
"                                          5 ; 4 ; }.|.5._ 2.w w 3 i                                                             ",
"                                                      OXD.i.G G T L                                                             ",
"                                                      .Xl.| ! L * ,                                                             ",
"                                                      4 U T T $.                                                                ",
"                                                      w O.@.O.=                                                                 ",
"                                                                                                                                ",
"                                                                                                                                ",
"                                                                                                                                ",
"                                                                                                                                ",
"                                                                                                                                ",
"                                                                                                                                ",
"                                                                                                                                ",
"                                                                                                                                ",
"                                                                                                                                ",
"                                                                                                                                ",
"                                                                                                                                ",
"                                                                                                                                ",
"                                                                                                                                ",
"                                                                                                                                "
};
