/* XPM */
static char *duck_end1679567766[] = {
/* columns rows colors chars-per-pixel */
"48 54 171 2 ",
"   c None",
".  c #080705",
"X  c #0A0907",
"o  c #0D0C0A",
"O  c #100F0D",
"+  c #0E1007",
"@  c #131507",
"#  c #11100E",
"$  c #161908",
"%  c #191C0A",
"&  c #1D1009",
"*  c #141411",
"=  c #191916",
"-  c #1D1D1B",
";  c #391A0D",
":  c #201F1D",
">  c #1E240B",
",  c #1F201D",
"<  c #21260B",
"1  c #262D0B",
"2  c #282F0F",
"3  c #35200C",
"4  c #2B330D",
"5  c #2F380D",
"6  c #30390D",
"7  c #23211C",
"8  c #26291D",
"9  c #2B3319",
"0  c #353F13",
"q  c #242522",
"w  c #272825",
"e  c #2C2D2A",
"r  c #292A27",
"t  c #382D21",
"y  c #2F302D",
"u  c #2F3325",
"i  c #333825",
"p  c #3B3D39",
"a  c #353734",
"s  c #40270E",
"d  c #5D2913",
"f  c #4B331B",
"g  c #5B3613",
"h  c #4A2F22",
"j  c #3A460F",
"k  c #3B480F",
"l  c #36410E",
"z  c #344211",
"x  c #3D4B10",
"c  c #3F413D",
"v  c #404D10",
"b  c #434D1D",
"n  c #445411",
"m  c #4B5B13",
"M  c #754210",
"N  c #765019",
"B  c #4D6716",
"V  c #526414",
"C  c #5A6E16",
"Z  c #55681A",
"A  c #5C7116",
"S  c #557018",
"D  c #5F7418",
"F  c #647A17",
"G  c #60751C",
"H  c #40423E",
"J  c #4A5037",
"K  c #774524",
"L  c #576724",
"P  c #424440",
"I  c #474A46",
"U  c #484B47",
"Y  c #4B4F4A",
"T  c #4E524D",
"R  c #535751",
"E  c #555954",
"W  c #595E58",
"Q  c #5D625C",
"!  c #60655F",
"~  c #853C1A",
"^  c #903D1C",
"/  c #814810",
"(  c #9D471E",
")  c #9F571F",
"_  c #A0441F",
"`  c #A65D16",
"'  c #89771D",
"]  c #92721F",
"[  c #AF6217",
"{  c #A46A1F",
"}  c #BC6816",
"|  c #B86616",
" . c #934627",
".. c #935825",
"X. c #A74620",
"o. c #A65D21",
"O. c #9C6C20",
"+. c #937320",
"@. c #AE6521",
"#. c #B16926",
"$. c #C26A19",
"%. c #CF5927",
"&. c #C35C25",
"*. c #D15727",
"=. c #D55A27",
"-. c #D65D2A",
";. c #CA6225",
":. c #DC6723",
">. c #D96428",
",. c #C67225",
"<. c #C87427",
"1. c #D47A27",
"2. c #DA7628",
"3. c #E96E2B",
"4. c #E9632A",
"5. c #F6662D",
"6. c #F06A2C",
"7. c #E3712A",
"8. c #6B8419",
"9. c #6F881A",
"0. c #718B1B",
"q. c #7A961C",
"w. c #7E9B1D",
"e. c #75911C",
"r. c #6D8329",
"t. c #739629",
"y. c #819E1E",
"u. c #83A21E",
"i. c #8AA91F",
"p. c #9D8E23",
"a. c #809D20",
"s. c #8DAF23",
"d. c #87A623",
"f. c #86B223",
"g. c #8CB222",
"h. c #8EBF26",
"j. c #92B521",
"k. c #96BA22",
"l. c #99BE23",
"z. c #97BC28",
"x. c #9EC323",
"c. c #99CF29",
"v. c #94C22A",
"b. c #9ED42E",
"n. c #A0C624",
"m. c #A4CB24",
"M. c #A7CC27",
"N. c #A7D025",
"B. c #AAD326",
"V. c #AFD927",
"C. c #ABD52A",
"Z. c #ADDB29",
"A. c #A5DE2B",
"S. c #B1DB27",
"D. c #B4DE28",
"F. c #A8E22F",
"G. c #B6E128",
"H. c #B9E529",
"J. c #B3EE2D",
"K. c #BDEA2A",
"L. c #BFFD2F",
"P. c #BBFD31",
"I. c #C0EE2B",
"U. c #C1E52D",
"Y. c #C4F32C",
"T. c #C4FC2E",
"R. c #C8FC2F",
"E. c #C2FD30",
"W. c #ACB394",
"Q. c #B7BBAD",
"!. c #C2C3C1",
/* pixels */
"                            X . . . . . . .                                                     ",
"                    . . . * = o . . w * 7 . . = X o = .                                         ",
"            . . . . . . . Q O o # - T q # O w E y q * - o X                                     ",
"        . . . . . r . X . W e * X p o * . H = y r I U R r - . .                                 ",
"            . . = Q y y = I = q . U * P e w * = e y y T : a T - o                               ",
"              . . U w e * : X w . i 5 V j.y.6 6 1 * ! E p p Y y *                               ",
"                . q P # = R . @ r.B.B.B.N.N.N.N.N.k.1 X a H =                                   ",
"                  . p e = * > n.S.S.S.S.S.S.V.B.B.N.m.G u o .                                   ",
"                  . z E - < n.D.G.G.G.G.G.D.D.D.S.V.B.N.m.G                                     ",
"                . u.S.L 8 z.H.I.I.I.Y.I.K.K.U.H.G.G.S.V.B.B.Z                                   ",
"                q.S.G.l.8.K.Y.Y.Y.Y.Y.Y.Y.Y.Y.I.H.H.G.D.D.N.m.>                                 ",
"              $ B.S.D.D.K.Y.Y.R.R.z.W.J m.Y.Y.Y.Y.K.H.G.D.S.m.m..                               ",
"              V N.S.G.G.Y.Y.Y.R.C.Q.!.U % Y.Y.Y.Y.Y.I.H.G.G.B.N.l                               ",
"            . x.N.m.S.H.Y.E.R.R.j.Y o o o Y.I.Y.Y.Y.Y.I.K.G.D.N.u.                              ",
"    & ( X.; . y.( =.{ M.K.Y.Y.Y.2 = . . n K.I.Y.Y.R.Y.Y.K.H.D.N.j.                              ",
"  f q t K *.( 5.5.5.5.` H.K.Y.Y.z.X . @ S.H.K.Y.R.R.R.Y.Y.K.D.N.m.5                             ",
"  1.#.1.<...3.5.5.5.5.5.+.H.K.Y.R.V . e.K.K.K.Y.R.R.R.R.Y.K.D.N.N.j                             ",
"  ,.1.1.1.1.1.3.5.5.5.5.6.N V.Y.Y.R.R.Y.K.K.K.Y.R.R.R.R.R.K.D.N.N.l                             ",
"  g 1.1.1.1.1.1.3.5.5.5.5.5.>.' G.R.R.R.Y.K.Y.Y.R.R.R.R.R.I.G.N.N.5                             ",
"    3 ,.1.1.1.1.2.2.6.5.5.5.5.5.;.I.R.R.R.R.R.R.R.R.R.R.R.I.G.N.l.                              ",
"        s @.1.1.1.1.1.1.7.5.5.5.6.] R.R.R.R.R.R.R.R.R.R.R.H.G.N.V     % 9.V.S.x.m .             ",
"          M $.} } } } } } } } 4.5.o.R.R.R.R.R.R.R.R.R.R.Y.H.D.N.<     j.S.S.S.S.S.B.4           ",
"        X } } } } } } } } $.:.5.5.+.R.R.R.R.R.R.R.R.R.R.Y.H.S.0.    A K.H.G.G.S.G.D.x.          ",
"        - [ ` ` | / ` $.:.6.5.4.] R.R.R.R.R.R.R.R.R.R.R.K.D.S.<   C K.K.K.H.K.Y.K.G.D.x         ",
"          7 h  .-.~ =.5.5.&.p.U.R.R.R.R.R.R.R.R.R.R.R.Y.H.V.A @ C K.U.Y.Y.Y.Y.Y.Y.I.G.0.        ",
"            d *.*.^ O.N.B.Y.R.R.R.R.R.R.R.R.R.R.R.R.R.K.K.n.k m.K.I.Y.Y.R.Y.R.Y.Y.I.G.j.        ",
"                    m H.K.I.Y.Y.K.T.T.R.R.R.R.R.R.R.K.K.m.A n.K.U.U.Y.R.R.R.R.R.Y.I.G.N..       ",
"                      L D.G.G.G.G.H.H.H.K.K.K.H.H.H.H.j.n.G.G.K.Y.Y.R.R.R.R.R.Y.Y.H.G.S.m       ",
"                  4 d.n.B.B.V.S.S.S.S.D.S.S.S.V.Z.V.S.S.G.G.G.K.Y.Y.Y.R.R.R.R.Y.I.G.D.D.8.      ",
"              4 0.k.x.m.N.N.N.S.S.D.G.G.G.V.G.G.G.G.G.H.H.G.K.H.Y.Y.Y.Y.Y.Y.Y.I.H.D.D.S.B..     ",
"          $ q.x.x.x.m.B.S.G.H.K.Y.K.K.K.H.Y.Y.Y.Y.K.K.Y.K.K.K.Y.Y.Y.Y.Y.Y.Y.I.H.D.D.V.S.S.5     ",
"        $ u.n.n.n.N.S.G.K.Y.Y.Y.R.R.R.R.E.E.L.E.P.T.R.R.R.R.R.Y.Y.Y.Y.Y.Y.I.H.D.D.S.S.V.S.i.    ",
"      k x.m.N.B.G.K.K.K.T.R.T.T.P.L.P.P.P.c.v.h.h.w.P.P.R.R.R.Y.Y.Y.9.w.s.k.H.G.S.S.S.V.S.S.6   ",
"    5 x.x.N.B.G.K.Y.R.T.T.T.L.L.P.P.P.J.z > S S B > 9 b.R.R.R.R.K.8.G.K.M.b D.D.S.S.S.V.S.V.k   ",
"    j.x.m.V.K.K.R.R.L.L.P.P.P.P.P.P.c.. B P.P.P.P.P.F.v.f.f.g.B.g.R.R.R.R.B.l.S.V.V.S.S.S.S.v   ",
"  $ x.n.B.G.K.R.T.L.L.L.P.P.P.P.P.J.x c.P.P.P.P.P.P.P.P.L.T.T.L.R.R.R.R.R.B.m.D.S.S.V.S.S.S.k.  ",
"  Z x.m.S.K.Y.R.L.L.P.P.P.P.P.P.P.h.B P.P.P.P.P.P.P.P.P.P.L.T.L.L.L.T.R.R.V.N.G.S.S.S.V.S.V.m.% ",
"  F x.B.D.Y.R.T.L.P.P.P.P.P.P.P.P.h.h.P.P.P.P.P.P.P.P.P.P.P.L.L.L.T.T.T.R.N.N.G.S.V.S.S.V.S.S.k ",
"  D x.B.H.Y.R.T.L.P.P.P.P.P.P.P.P.v.v.P.P.P.P.P.P.P.P.P.L.P.T.L.T.L.T.R.R.S V.G.S.S.V.V.B.S.S.k ",
"  D m.V.K.Y.R.L.P.P.P.P.P.P.P.P.P.v.w.P.P.P.P.P.P.P.T.T.T.L.L.T.L.T.R.R.g.l.G.G.S.V.B.V.B.S.m.$ ",
"  D N.B.K.Y.T.L.P.P.P.P.P.P.P.P.P.b.k L.P.P.P.L.L.T.L.T.T.L.T.T.T.R.R.Y.G.H.G.S.V.N.B.B.B.B.x.  ",
"  1 m.V.G.Y.T.L.P.P.P.P.P.P.P.P.P.P.4 L.P.P.L.T.L.L.T.L.L.T.R.R.R.R.R.Y.H.G.S.S.N.N.N.N.N.N.8.  ",
"    x.V.D.Y.T.L.P.P.P.P.P.P.P.P.P.P.t.S J.L.L.L.T.L.L.T.Y.R.R.R.R.Y.Y.H.G.D.B.B.B.N.N.N.N.N.6   ",
"    k B.S.K.R.L.P.P.P.P.P.P.P.P.P.P.L.l > J.T.L.L.T.R.R.R.R.R.R.Y.I.H.G.S.B.N.B.N.N.N.N.m.u.    ",
"    5 x.V.K.K.T.P.P.P.P.P.P.P.P.P.L.L.L.m x f.G.T.R.R.Y.Y.Y.Y.I.K.G.D.S.B.V.N.N.N.m.n.x.x.$     ",
"      9.N.V.K.T.L.P.P.P.P.P.P.P.L.L.L.L.L.Z.0.K.R.R.R.Y.Y.I.I.H.D.S.S.N.N.B.N.N.m.n.x.x.m       ",
"        w.B.G.K.L.L.P.P.P.P.P.P.L.L.T.R.T.T.R.R.R.Y.Y.Y.K.H.G.S.S.N.N.N.N.N.m.m.x.x.x.8..       ",
"        . l.B.G.K.T.L.P.P.P.L.L.T.T.R.R.R.R.R.R.Y.Y.I.K.G.G.S.S.N.N.N.N.N.m.x.x.x.n.n .         ",
"          n x.m.H.K.R.T.T.L.R.T.E.R.R.R.Y.Y.Y.I.K.K.H.G.D.S.B.N.N.N.m.n.n.x.x.x.i.1             ",
"            m 0.N.S.H.Y.Y.Y.R.Y.Y.Y.Y.I.K.G.H.G.G.G.D.S.B.m.N.m.n.n.x.x.n.x.l.F $               ",
"                4 x.V.S.G.H.G.G.G.G.G.S.S.S.B.N.N.N.N.m.m.n.x.x.x.x.x.x.u.V .                   ",
"                    k j.N.V.S.S.B.N.N.N.m.m.m.m.n.n.n.x.x.x.x.x.x.y.F 1                         ",
"                        k C A n w.F k.m.n.n.n.n.n.x.n.s.i.i.d.m v                               ",
"                                      . . . . . . . . .                                         "
};
