/* XPM */
static char *W_F_end_Tavola_disegno_11679567766[] = {
/* columns rows colors chars-per-pixel */
"64 64 211 2 ",
"   c None",
".  c #020304",
"X  c #040608",
"o  c #070A0C",
"O  c #090B0D",
"+  c #080D11",
"@  c #070B10",
"#  c #0B1115",
"$  c #0D1419",
"%  c #0D1B19",
"&  c #13191E",
"*  c #1A1C1F",
"=  c #131517",
"-  c #2A1919",
";  c #3B1A19",
":  c #0C281B",
">  c #0A361D",
",  c #0D1D2B",
"<  c #0D182A",
"1  c #111722",
"2  c #131B24",
"3  c #1A1E21",
"4  c #121D2B",
"5  c #0E1A39",
"6  c #1C232A",
"7  c #1B2126",
"8  c #0C3921",
"9  c #123E27",
"0  c #0E2438",
"q  c #192736",
"w  c #0F2E20",
"e  c #21262A",
"r  c #23282D",
"t  c #2A2221",
"y  c #342B2A",
"u  c #322725",
"i  c #3B302F",
"p  c #232D35",
"a  c #2B343B",
"s  c #273138",
"d  c #393A3B",
"f  c #471D1B",
"g  c #50201C",
"h  c #4F201C",
"j  c #472B29",
"k  c #532521",
"l  c #522925",
"z  c #562A26",
"x  c #49302E",
"c  c #433533",
"v  c #4A3D3A",
"b  c #4A3936",
"n  c #543734",
"m  c #55332F",
"M  c #0C4825",
"N  c #0E5E2E",
"B  c #0D5129",
"V  c #4E413E",
"C  c #50403D",
"Z  c #0A1952",
"A  c #0F294A",
"S  c #0D2746",
"D  c #142C42",
"F  c #163044",
"G  c #19384F",
"H  c #0D325A",
"J  c #193A55",
"K  c #0E2D50",
"L  c #353D42",
"P  c #293C4A",
"I  c #071864",
"U  c #041A76",
"Y  c #0D3667",
"T  c #062478",
"R  c #0E396D",
"E  c #1E415B",
"W  c #384349",
"Q  c #354551",
"!  c #3B4B57",
"~  c #0B417C",
"^  c #1E4D71",
"/  c #1A537B",
"(  c #134D70",
")  c #325268",
"_  c #24567B",
"`  c #3A627E",
"'  c #454444",
"]  c #514441",
"[  c #5B4C49",
"{  c #5B4743",
"}  c #454D55",
"|  c #485156",
" . c #565758",
".. c #4B5B64",
"X. c #575D61",
"o. c #5D656A",
"O. c #586874",
"+. c #4C6374",
"@. c #6B6C6C",
"#. c gray39",
"$. c #626B72",
"%. c #6B6E71",
"&. c #6B7277",
"*. c #737678",
"=. c #07338A",
"-. c #0B4486",
";. c #185788",
":. c #084C98",
">. c #1F5F91",
",. c #215983",
"<. c #1A6799",
"1. c #276A9B",
"2. c #326588",
"3. c #0754AB",
"4. c #0852A6",
"5. c #0656B3",
"6. c #065CBC",
"7. c #0658B8",
"8. c #064DAC",
"9. c #1B73B5",
"0. c #2274AF",
"q. c #287AB8",
"w. c #2A74A8",
"e. c #767D82",
"r. c #697B87",
"t. c #045FC2",
"y. c #0360C5",
"u. c #2B7FC0",
"i. c #7B8287",
"p. c #5CA2BE",
"a. c #0A95DB",
"s. c #1A8ACF",
"d. c #2983C7",
"f. c #268AD6",
"g. c #258CD9",
"h. c #2889D4",
"j. c #2E93DB",
"k. c #3D99D6",
"l. c #3797DA",
"z. c #388CC7",
"x. c #1F8EE7",
"c. c #059DE4",
"v. c #099EEA",
"b. c #099CE5",
"n. c #1B93E4",
"m. c #1399E5",
"M. c #159EED",
"N. c #1B9BEC",
"B. c #1A96E9",
"V. c #1B9AF3",
"C. c #179CF2",
"Z. c #228DE2",
"A. c #218FE8",
"S. c #2593E4",
"D. c #2193ED",
"F. c #249DEE",
"G. c #2999E6",
"H. c #349CE5",
"J. c #2196F3",
"K. c #05A3EC",
"L. c #0AA1EE",
"P. c #18A1EF",
"I. c #06A6F2",
"U. c #0BA3F1",
"Y. c #05A8F4",
"T. c #36A3ED",
"R. c #479DD1",
"E. c #5AA7C9",
"W. c #47A3DB",
"Q. c #54ACDC",
"!. c #52A6D3",
"~. c #64B0CE",
"^. c #67B3D9",
"/. c #62AECC",
"(. c #46A7E3",
"). c #55B1E2",
"_. c #62B9E5",
"`. c #74BBE4",
"'. c #67C2EB",
"]. c #888A8A",
"[. c #858C91",
"{. c #8C9398",
"}. c #919192",
"|. c #999B9C",
" X c #94979B",
".X c #9DA2A4",
"XX c #96AFBA",
"oX c #A8A8A9",
"OX c #B7B7B8",
"+X c #8FBDD1",
"@X c #B6BCC0",
"#X c #B8C0C4",
"$X c #91CDE9",
"%X c #AED6E9",
"&X c #B3D7EB",
"*X c #B4DBEC",
"=X c #B9D9E7",
"-X c #D5D9DB",
";X c #C5C6C6",
":X c #CBE6EE",
">X c #DEEBEE",
",X c #D9E6EA",
"<X c #CDE9F3",
"1X c #E3E6E6",
"2X c #E6E9EA",
"3X c #E9EBEC",
"4X c #E1EEF1",
"5X c #E6F2F5",
"6X c #F4F5F5",
"7X c #FCFDFD",
"8X c #F7F8F8",
/* pixels */
"                                                                                                                                ",
"                                                                                                                                ",
"                                                                          ^.j.G.N.S.l.      j.M.P.C.N.W.                        ",
"                                                                          Q.U.Y.Y.Y.P.~.    P.Y.Y.Y.Y.H.                        ",
"                                                                      Q.W._.H.P.U.Y.P./.    P.Y.I.M.F.(.Q.Q.                    ",
"                                                                    !.C.K.G.    T.Y.P./.    M.Y.N.    (.U.P.Q.                  ",
"                                                                    !.M.Y.F.    T.U.N.~.    F.L.G.    H.P.C.Q.                  ",
"                                                                      l.l.R.    /.k.(.'.)._.(.l.W.      H.W.                    ",
"                                                                                      F.L.P.p.                                  ",
"                                                                                      H.U.F.                                    ",
"                                                                                      E.).!.                                    ",
"                                                                                                                                ",
"                                                                                                                                ",
"                                                                    OXr * * * * * 3 * 3 * * * 3 * * * 3 * 7 oX                  ",
"                                                                    oX. . . . . . . . . . . . . . . X . X . @.                  ",
"                                                          OX|.}.}.}.{.# + + + + + + + O + + + + + + + O + + &.OX;X              ",
"                                                          L o o O O 2 n.m.m.m.m.m.m.m.m.m.m.m.m.m.m.m.m.m.m.F O 3 |.            ",
"                                                          e . X . . # m.Y.Y.I.Y.Y.Y.I.Y.Y.Y.Y.Y.Y.Y.Y.Y.Y.Y.F . X [.            ",
"                                                    oX .X.Q 4 , , , <.V.v.v.v.v.v.v.v.v.v.c.L.L.v.L.Y.Y.Y.Y.a./ J &.+.r.        ",
"                                                    ... o 0.U.Y.Y.Y.Y.J.J.J.J.J.J.V.J.J.J.J.J.J.J.J.J.L.Y.I.I.Y.L.$ . &         ",
"                                                     .. @ u.Y.Y.Y.Y.L.J.J.J.J.J.J.J.J.J.J.J.J.J.J.J.J.v.Y.Y.Y.Y.Y.# . 2         ",
"              L e o.    i.' a e.               XQ W ) ^ >.V.C.v.v.v.V.J.J.J.J.J.J.J.J.J.J.J.J.J.J.J.J.V.v.Y.Y.Y.Y.# . 3         ",
"              # . =     e.. .  .              $.. X / L.Y.C.J.J.J.J.J.J.J.J.J.J.J.J.J.J.J.J.J.J.J.J.J.J.J.V.Y.Y.Y.# . 2         ",
"            .X$ X r OX  e.. . o.              $.. X Y I.Y.v.J.J.J.J.J.J.J.J.J.J.J.J.J.J.J.J.J.J.J.J.J.J.J.J.Y.Y.Y.# X 3         ",
"        ..3 s q.g.2.| 6 +.h.h.) $ $ i.        $.X . G N.V.V.J.J.J.J.J.J.J.J.J.J.J.J.J.J.J.J.J.J.J.J.J.J.J.J.Y.Y.Y.$ . 2         ",
"        a . . B.Y.n.X . / U.v.,.. X *.        $.. . J Z.J.J.J.J.J.J.J.J.J.J.J.J.J.J.J.J.J.J.J.J.J.J.J.J.J.J.Y.Y.Y.$ . 1         ",
"        s . . B.Y.B.0 # 0.U.v.,.. X *.        $.. . F S.J.J.J.J.J.J.J.J.J.J.J.J.J.J.J.J.J.J.l.k.k.k.k.H.J.J.Y.Y.Y.$ . $         ",
"        a . . B.I.K.m.N.v.K.v.,.. X &.        $.. . F A.J.J.J.J.J.J.J.J.J.J.J.J.J.J.J.J.J.j.&X4X4X4X5X$XJ.J.Y.Y.Y.# . $         ",
"        s . . n.I.K.K.K.I.K.v.,.. X %.        O.. . F Z.J.J.J.J.J.J.J.J.J.J.J.J.J.J.J.J.J.k.5X7X7X7X7X&XD.J.U.Y.I.$ X $         ",
"        a . . n.K.K.K.K.K.K.b./ . X %.        o.. . F Z.J.J.D.J.J.J.J.J.J.J.J.J.J.J.J.J.J.z.#X-X5X7X7X*XD.J.Y.Y.Y.# . $         ",
"        s . . n.K.K.K.K.K.c.b._ . X %.        $.. . F Z.J.J.J.J.J.J.J.J.J.J.J.J.J.J.J.J.J.1.o . | 7X7X*XD.J.Y.Y.Y.$ . #         ",
"        a . . g.K.c.c.c.c.c.a.^ . X %.        &.. X J A.D.J.J.J.J.J.J.J.J.J.J.J.J.J.J.J.V.1.X . a 6X7X&XD.V.Y.Y.Y.$ X $         ",
"        o.p ! _ ;.s.c.a.a.0.,.P 4 6 &.  }.} a Q J J u.V.J.D.J.J.J.J.J.J.J.J.J.J.J.J.J.J.J.d.D 4 ) &X*X_.J.J.Y.Y.Y.$ . =         ",
"            %.# . 0 ;.;.9.@ + 2 R -.2    X+ 1 4 h.x.J.D.D.J.D.J.J.J.J.J.J.J.J.J.J.J.J.J.J.J.D.D.S.g.D.D.J.J.Y.Y.Y.$ X $         ",
"            ' $ . 1 < 5 J @ 2 -.y.t.:.& *.1 R 0 9.A.D.D.D.J.J.J.J.J.J.J.J.J.J.J.J.J.J.S.f.f.f.f.f.f.h.f.h.f.M.I.I.$ . #         ",
"            L & . 1 R =.Y , :.y.y.y.y.=.1 R t.R J A.x.D.D.D.D.J.J.J.J.J.J.J.J.J.J.J.J.`.%X&X&X&X&X&X&X&X*X*X*X<X:X& . $         ",
"            d $ + 2 =.6.:.~ 6.y.y.y.y.t.8.6.y.4.< 9.A.A.J.D.J.J.J.J.J.J.J.J.J.J.J.J.G.:X7X7X7X7X7X7X7X7X7X7X7X7X3X= . $         ",
"            ' $ $ Z =.y.y.:.0 K 6.y.4., , -.y.t.A ;.Z.Z.g.Z.Z.S.S.S.S.S.D.J.J.J.D.Z.H.,X7X7X7X7X7X7X7X7X7X7X6X3X3X6 o 3         ",
"            ' X.6 5 U 7.5.A H Y 0 :.0 K J A 8.t.A -.^.,X,X,X>X>X2X4X>X4X4X$XJ.J.q.4 7 -X7X7X7X7X7X7X7X7X7X7XOXp q *.[..X        ",
"                # 5 U =.4.Y y.:.Y :.Y t.5.-.7.t.A >.+X3X6X8X8X8X7X7X7X7X7X:XD.J.J X X -X7X7X7X7X7X7X7X7X7X7Xi.. X ].            ",
"                X 2 Z U 7.7.6.t.t.y.t.t.t.t.6.Y J q.XX-X1X1X2X2X2X2X4X4X5X=Xd.d.7 . . @X1X1X1X1X1X1X1X1X2X1Xi.d W }.            ",
"                  3 p Z T U T 8.5.4.3.7.7.U S 1 # # + o o o o O o o P j.j.w.+ O . . . X X X X X X X X . X $ [.OXOX              ",
"                  . . 1 3 I U I I I I 5 S $ @ . . . . . . . . . . . 2 S.J.1.. . . . . . . . . . . . . . X . ].                  ",
"                  . . . r $ < $ : % $ $ $ & 2 3 7 6 e e e e p 1 . . o 1.q.` e r r r 3 . . . . . . r r r r 6 *.                  ",
"                  . . + % : % X N N X # 9 9 w 3  . .#.#.#.@.@.oX+ . . . . O.].@.@.@.|.& X . . . 7 oX                            ",
"                  . O : B N N > B N o M N N N w #             ].& . . . . $.        ].& . . . . *                               ",
"                    % M N N N N + N : N N N N 8 #             *.O.| Q Q Q {.          +.W a a L O.                              ",
"                    = M M 8 > > o N + > > > > : *                                                                               ",
"                    y 2 v v ] c o N O y c c v t u                                                                               ",
"                    i b b c c ] X N X ] [ v [ [ -                                                                               ",
"                    i [ C v V ] i d 7 b ] c ] v y                                                                               ",
"                    = m { c [ y ] y ] b j c x j                                                                                 ",
"                      x z z k f { - n k n ; ; j                                                                                 ",
"                      t l g k k z k g g h ; x y                                                                                 ",
"                        j g g g g g g g h f n                                                                                   ",
"                        z k g h g h g g g g C                                                                                   ",
"                        x k g g h h h g g g v                                                                                   ",
"                        y l g g h h g g g l c                                                                                   ",
"                          m g g h h g g g l                                                                                     ",
"                          ; f g h g g g g ;                                                                                     ",
"                              - ; ; f                                                                                           ",
"                                                                                                                                ",
"                                                                                                                                ",
"                                                                                                                                "
};
