/* XPM */
static char *wool_end_Tavola_disegno_11679567766[] = {
/* columns rows colors chars-per-pixel */
"64 64 129 2 ",
"   c None",
".  c #9D6080",
"X  c #9B6C86",
"o  c #857A84",
"O  c #997287",
"+  c #96778B",
"@  c #9A748A",
"#  c #957D8B",
"$  c #9D7E8F",
"%  c #997E90",
"&  c #A46384",
"*  c #A96587",
"=  c #A36987",
"-  c #AC6689",
";  c #AF6A8B",
":  c #B1678B",
">  c #B3698C",
",  c #B86A8F",
"<  c #A3738D",
"1  c #BD6C92",
"2  c #A57590",
"3  c #AE7592",
"4  c #AF7894",
"5  c #B07593",
"6  c #B87394",
"7  c #BC7E9B",
"8  c #C26E94",
"9  c #C77097",
"0  c #C87097",
"q  c #C6769A",
"w  c #CC729A",
"e  c #D4749E",
"r  c #D776A0",
"t  c #D976A0",
"y  c #D67DA3",
"u  c #DE78A3",
"i  c #E37AA6",
"p  c #E77CA8",
"a  c #EC7EAA",
"s  c #748C87",
"d  c #6E9488",
"f  c #77928A",
"g  c #7B948E",
"h  c #72A091",
"j  c #8A8D91",
"k  c #988895",
"l  c #988D98",
"z  c #97929A",
"x  c #9D929C",
"c  c #A98399",
"v  c #BC829D",
"b  c #B8889D",
"n  c #BD84A0",
"m  c #BC8FA5",
"M  c #B397A7",
"N  c #B298A8",
"B  c #BB9DAD",
"V  c #97A2A2",
"C  c #80B9A5",
"Z  c #95BAAF",
"A  c #BCA2B1",
"S  c #B9ADB6",
"D  c #A2B4B0",
"F  c #BEB9BF",
"G  c #C2809D",
"H  c #C385A2",
"J  c #C08FA6",
"K  c #C78FA9",
"L  c #C88CA8",
"P  c #DD81A7",
"I  c #D18CAA",
"U  c #DA8BAD",
"Y  c #C194AA",
"T  c #CF9BB2",
"R  c #D59EB7",
"E  c #EB85AF",
"W  c #EA8DB3",
"Q  c #E893B6",
"!  c #E59BBA",
"~  c #C5A3B5",
"^  c #CBA3B6",
"/  c #D2AFBF",
"(  c #DBABBF",
")  c #E5A2BE",
"_  c #8DC4B1",
"`  c #94C3B4",
"'  c #93C9B7",
"]  c #93CCB9",
"[  c #93D0BB",
"{  c #92D8BF",
"}  c #A4C6BB",
"|  c #A9C1BA",
" . c #A1CABC",
".. c #D8AFC2",
"X. c #DBB6C6",
"o. c #D7B8C6",
"O. c #DEBBCB",
"+. c #E2ACC3",
"@. c #E0B5C7",
"#. c #9ADBC4",
"$. c #A6E0CC",
"%. c #ABE2CF",
"&. c #BCE9D9",
"*. c #C4C0C5",
"=. c #CCC0C7",
"-. c #CFC7CD",
";. c #C5CACC",
":. c #D5C7CF",
">. c #D0C9CE",
",. c #C9CED0",
"<. c #DEC4D1",
"1. c #D7CBD2",
"2. c #DBCCD3",
"3. c #C9DAD6",
"4. c #D6D2D5",
"5. c #DAD0D5",
"6. c #D7DBDB",
"7. c #D6E2DF",
"8. c #EEDCE5",
"9. c #CAEFE2",
"0. c #D5E5E0",
"q. c #D3EEE5",
"w. c #DEE8E5",
"e. c #D2F2E7",
"r. c #E1E9E7",
"t. c #EDF9F5",
"y. c #F1FAF7",
"u. c #FAF6F8",
"i. c #FBFDFC",
/* pixels */
"                                                                                                                                ",
"                                                                                        &.#.                                    ",
"                                                                                      e.9.{ {                                   ",
"                                                                                    9.e.$.{ {                                   ",
"                                                                                    #.$.#.h g                                   ",
"                                                                                    { { [ d o                                   ",
"                                                                                    { ] #                                       ",
"                                                                                    { #.                                        ",
"                                                t 8 & 1 t                         { {                                           ",
"                                              w a a w 8 u > 1 0 i 1             #.{ {                                           ",
"                                            & . e a a w t w 1 8 a a 8 i a a     { {                                             ",
"                                            a a i 8 p a u a 1 0 8 a a 8 a a a  .{                                               ",
"                                    . e p w w e a 8 > w a a i : e e a p , a a } }                                               ",
"                                . & e e 0 e p e 8 a i . w a 0 i - 8 t a 8 w T D t 1                                             ",
"                            & 8 e u , i a 0 & w w e u a & t u 8 w 8 * p a 4 #.J a , t                                           ",
"                            t t u e > . i 0 1 1 8 1 & * . . i - i * t ; a D _ w a 8 8 w 8                                       ",
"                          t , 8 e t ^ / H K H y i a a a w . & t 1 w u * j h O r a 1 & i a *                                     ",
"                      a E a a a a W 2.0.e.e.e.*.H w e w t p & 0 > a u r d s > a a , . p a u e                                   ",
"                      e a Q B S ~ 8.w.e.e.e.e.e.e.Q e i i w - . 8 e e a O . > a a * & a a a a a                                 ",
"                  & 1 a +.e.e.e.y.y.t.e.6.2.7.7.@.a a e 8 1 r w 8 & p a r * i w a & & 1 1 a a a                 Q ! a           ",
"                  w i , 3 m X.i.i.u.r.7.6.6.2.E a a a a 1 , e - . > 1 w a - a * e w 8 - . - a a t             Q e.2.a w         ",
"                * & , u a t R <.v 8 u . . & & 1 a a a a a i 8 * . * . . i 1 i 8 . & a a p w * a a &         b ! e.! a u         ",
"              - 1 i w - & & . - a a e > , . & 8 a a . w a a a i * . . & - i , t - * 8 1 e a a r u e       f P W +.a i -         ",
"              w , - . > , e 8 t i p 8 a e , u w w a u p i , & . - > . 8 , t * t : i e a w a a a e u $ # G a a w 8 & > .         ",
"            a e w e u - E y a a e e e a t 9 8 t a i w * > w t e & 1 . t i - 0 1 * a 1 e w a a a a r p a i 1     . . .           ",
"            a a a r w u q q.B * e 8 a w & , 1 1 a a u 1 t a a i 0 a & 9 a ; r . , a a e w e i r a a t 9                         ",
"            i 0 a a y t a X.< & 2.U a - 8 t i e > & 1 a a a e & i a i 1 a w > * w r a 1 8 u a a 8 e a a                         ",
"            * 8 e a 2.I w a 5 I 2.a i i w w i e & t a t 8 a a 8 a a a e a p & 0 w 8 a p w i 8 & i a a a                         ",
"            - e - p Q e.+.0 & >.W a 8 i 1 1 w 8 a t 1 8 p a p t a a a i i p , w 8 1 a a * . w a t a a i                         ",
"            e > u : a ! @.p M 7.a E & i a * & a a a a a a a w a a a a i p 8 u > u r p a w . 1 8 a a a 8 & a a                   ",
"          1 w 8 0 >.E a E U 3.@.a a i a a ! F , a p 8 8 a a w a a a a w t . i ; 9 i e a p 8 r a w a a * & a a a                 ",
"          ; i t - :.7.E u Y q.W a p a a a u 2...3 & e a u , a i w a a 0 t - i , e w , a a & a a a w a e     a a a               ",
"          1 p p i . o.2.w 2 7.a a 8 w a a p , ..1.& , : e e a i a a a w 1 - a 0 9 > , a a > e a e p w       w a a               ",
"          . w a e , . e a =.+.a a - , a i 8 p - 8 p : . 8 i a a a a a , 1 8 w r , & 1 p a 0 u a a > a       , a i               ",
"            u e a a 9 - a Q E p a e 0 e i e e p 1 * i e & - e a i a a 0 1 8 0 0 * & e e a w 1 a a , e e   - a w                 ",
"            : , a a i , E ) 8 u u 8 i e a a p 8 8 e , 0 p 8 . . t i a r 1 1 r 8 , : t 8 a i . a a u . , * e *                   ",
"            * i a a a e a a 8 8 e , p 8 e a e 0 e i a a w a a 0 . . i . 8 e t u 8 e e - a i . e a a & . e 1                     ",
"              a a w a a a i e 0 8 & a * p , i i 0 e a a a a a a p 8 & . 1 t t t 8 1 t . a a . 1 a u 8   1 * .                   ",
"              w a 8 e a u e e 1 8 . a : * p u 8 e p a a a a a a e 8 8 . 1 u i 8 1 1 t . i a & , a :     & , .                   ",
"              * p w 8 E , 1 e 8 8 . i 8 8 * u a 8 e w a a a E a i i 8 . 8 i r w 8 w t . w a 0 i E           .                   ",
"                > i 8 a w e u 1 , & w u . 8 e e a a t a a a a e a 8 , . 8 e , p 8 8 e , 1 a w 9 *                               ",
"                * a 8 a 8 e e 1 8 > * a - : * i u t a a a a a a 8 u 8 . 1 e & a * * e e * i . .                                 ",
"                  a 8 a w e t 8 8 , > a e a a 8 - e a a a a e 8 i a e . 8 8 * a . 8 , a * . .                                   ",
"                  1 8 t e u t 0 e - i a u p i e 9 > & 9 a a e p i w . . e 1 8 a . e . a & .                                     ",
"                    & e e 0 0 ; L . a a a e a e i > * > * , e t , 8 * . t 8 1 t . e * a . .                                     ",
"                      - u . < ,.5 * i a a e a e e a u a a w ; . . > . . t , 8 r , i 8 a                                         ",
"                      . . M 4.6 . * 8 a a p 8 u a w p a a e a e u . : . a w 8 > p p p                                           ",
"                      c ;.R & : e > 0 a p a 8 e > 8 a p a w 9 a t 8 i . a t w i a                                               ",
"                    3.6.7 * a a a w v w e i i . , a u a u u 1 a e e a & a 8 a a                                                 ",
"                = A ^ & . & a a E - ' x i 8 a > e a i i , - p a a u a , a & .                                                   ",
"              * w -         , a e x #.V w : i i & . p * w > a a t i i 9 t                                                       ",
"            1 -               & 7 { { % . 0 , a 8 . ; . 8 & e u > a                                                             ",
"                                ` { ` . . , * t a e & . . . e -                                                                 ",
"                              #.{ ] l   . & 8 . p a 1                                                                           ",
"                            { { { V                                                                                             ",
"                            { { Z                                                                                               ",
"                            { [ z                                                                                               ",
"                          { [ @                                                                                                 ",
"                          { %                                                                                                   ",
"                        ] V X                                                                                                   ",
"                        k X                                                                                                     ",
"                        .                                                                                                       ",
"                                                                                                                                ",
"                                                                                                                                "
};
