/* XPM */
static char *result[] = {
/* columns rows colors chars-per-pixel */
"64 64 148 2 ",
"   c #521D3D",
".  c #502A3E",
"X  c #572244",
"o  c #592546",
"O  c #542C43",
"+  c #5F2B4D",
"@  c #5C334C",
"#  c #563A4A",
"$  c #59384C",
"%  c #602D4E",
"&  c #60314F",
"*  c #613151",
"=  c #633954",
"-  c #673D5A",
";  c #6B3F5C",
":  c #5A404E",
">  c #644358",
",  c #704B67",
"<  c #75446B",
"1  c #79456E",
"2  c #754C6A",
"3  c #794C6F",
"4  c #7A4670",
"5  c #7E4C74",
"6  c #7F5276",
"7  c #84593E",
"8  c #A81170",
"9  c #A81E77",
"0  c #AD1778",
"q  c #B01F7E",
"w  c #AD237E",
"e  c #B1207F",
"r  c #804C76",
"t  c #854A79",
"y  c #855C7B",
"u  c #895E7F",
"i  c #82527B",
"p  c #85647C",
"a  c #C57B70",
"s  c #A68A00",
"d  c #C8AD03",
"f  c #D59645",
"g  c #E7BF62",
"h  c #B72487",
"j  c #865780",
"k  c #885D81",
"l  c #94568F",
"z  c #935D8D",
"x  c #9A5C95",
"c  c #8F6384",
"v  c #8F6887",
"b  c #906989",
"n  c #9C6297",
"m  c #9C7396",
"M  c #AF6796",
"N  c #A2799B",
"B  c #AD60A8",
"V  c #AE6CAC",
"C  c #B16AAE",
"Z  c #A670A2",
"A  c #B566B1",
"S  c #B56BB2",
"D  c #B86DB5",
"F  c #BD6DBB",
"G  c #B17EB0",
"H  c #BE70BC",
"J  c #BF7EBD",
"K  c #C175BF",
"L  c #C97AC8",
"P  c #C476C2",
"I  c #DC79D6",
"U  c #D779D8",
"Y  c #DA7EDD",
"T  c #DE7AE4",
"R  c #E17EE4",
"E  c #EF74EA",
"W  c #F175ED",
"Q  c #F677F1",
"!  c #F579F1",
"~  c #9F849D",
"^  c #AB95A9",
"/  c #B090AD",
"(  c #B783B5",
")  c #B78EB2",
"_  c #BC94BB",
"`  c #BC9BBA",
"'  c #DB8B87",
"]  c #E69190",
"[  c #C093BD",
"{  c #E989A6",
"}  c #C48CC3",
"|  c #C19BC0",
" . c #C89BC6",
".. c #D998DB",
"X. c #D0A8CF",
"o. c #D1A5D1",
"O. c #D5AFD6",
"+. c #DCA9DE",
"@. c #D5BAD6",
"#. c #DDB4DF",
"$. c #DBBBDC",
"%. c #E381E6",
"&. c #E783EB",
"*. c #E984EB",
"=. c #E38DE4",
"-. c #F385EE",
";. c #EC95EF",
":. c #E79DE9",
">. c #EA9AEC",
",. c #E39CE6",
"<. c #F486F3",
"1. c #F985FC",
"2. c #FE8BFF",
"3. c #F487FB",
"4. c #EF91F2",
"5. c #EF98F2",
"6. c #F195F6",
"7. c #F29CF4",
"8. c #F591FA",
"9. c #FA95FF",
"0. c #DFA3E1",
"q. c #DFB0E1",
"w. c #DFB8E1",
"e. c #E2ABE4",
"r. c #E6A8E8",
"t. c #EBADEE",
"y. c #E2B4E3",
"u. c #E5BEE7",
"i. c #E6B3E8",
"p. c #EAB6EC",
"a. c #E7BFE9",
"s. c #ECBCEF",
"d. c #EEA1F1",
"f. c #EEAEF1",
"g. c #F3A5F6",
"h. c #EFBFF1",
"j. c #F0BCF3",
"k. c #E7C0E9",
"l. c #EBC1ED",
"z. c #EEC1F1",
"x. c #EFC8F2",
"c. c #F2C1F4",
"v. c #F6C2F9",
"b. c #F9C4FC",
"n. c #FFCBFF",
"m. c #F1C9F4",
"M. c #FFD1FF",
"N. c None",
/* pixels */
"N.N.N.N.N.N.N.N.N.N.N.N.N.9 8 0 w q q w q q w q q q q q e e e e e 9 e e e e e e e w e e e q w e 0 8 9 N.N.N.N.N.N.N.N.N.N.N.N.N.",
"N.N.N.N.N.N.N.N.N.N.N.N.N.w h E 2.1.1.1.1.1.1.1.1.1.1.1.1.1.1.1.1.1.1.1.<.1.1.1.1.1.1.1.1.1.1.2.E h w N.N.N.N.N.N.N.N.N.N.N.N.N.",
"N.N.N.N.N.N.N.N.N.N.N.N.N.w h E 2.3.1.1.1.1.1.1.1.3.1.1.1.1.1.1.1.1.1.1.1.1.1.1.1.1.1.1.1.1.1.2.E h w N.N.N.N.N.N.N.N.N.N.N.N.N.",
"N.N.N.N.N.N.N.N.N.N.N.N.N.w h E 2.1.1.1.1.1.1.1.1.1.1.1.3.1.1.1.1.1.1.3.3.1.1.1.1.1.3.1.1.3.1.1.E h w N.N.N.N.N.N.N.N.N.N.N.N.N.",
"N.N.N.N.N.N.N.N.N.N.N.N.N.w h E 1.1.1.1.1.3.1.1.1.1.1.1.1.1.1.1.1.1.1.1.1.1.1.1.1.1.1.1.1.1.1.2.E h w N.N.N.N.N.N.N.N.N.N.N.N.N.",
"N.N.N.N.N.N.N.N.N.N.N.N.N.w h E 2.1.1.1.1.1.1.1.1.1.1.1.3.1.1.1.1.1.1.1.1.1.1.1.1.3.1.1.1.1.1.1.E h w N.N.N.N.N.N.N.N.N.N.N.N.N.",
"N.N.N.N.N.N.N.N.N.N.N.N.N.w h W 6.@.u.u.u.u.a.a.k.k.u.x.^ V 2.1.1.1.,.$.k.u.k.u.u.u.u.u.k.x.~ Y ! h w N.N.N.N.N.N.N.N.N.N.N.N.N.",
"N.N.N.N.N.N.N.N.N.N.N.N.N.w h E 8.y.a.b.v.v.v.v.v.v.n.y.p B 9.1.1.1.5.$.l.n.c.c.v.v.v.v.n.` k T ! h w N.N.N.N.N.N.N.N.N.N.N.N.N.",
"N.N.N.N.N.N.N.N.N.N.N.N.N.w h E 8.i.z.h.v.v.v.v.v.v.n.[ @ A 2.1.1.! 8.u.z.b.v.v.v.v.v.v.M.b 1 &.! h w N.N.N.N.N.N.N.N.N.N.N.N.N.",
"N.N.N.N.N.N.N.N.N.N.N.N.N.w h E 8.p.z.w.i.i.i.i.i.p.e.u O D 9.1.1.1.;.j.a.+.p.i.i.i.e.h._ = 1 &.! h w N.N.N.N.N.N.N.N.N.N.N.N.N.",
"N.N.N.N.N.N.N.N.N.N.N.N.N.w h E 8.p.c.>.1.1.1.1.1.2.*.t . F 2.1.2.! ;.j.h.4.! 1.1.1.1.2.F * 1 &.! h w N.N.N.N.N.N.N.N.N.N.N.N.N.",
"N.N.N.N.N.N.N.N.N.N.N.N.N.w h W 8.p.c.>.! 2.1.1.1.2.&.t . D 9.1.2.1.;.z.h.6.1.1.1.1.1.2.F * 1 &.! h w N.N.N.N.N.N.N.N.N.N.N.N.N.",
"N.N.N.N.N.N.N.N.N.N.N.N.N.w h E 8.p.c.>.1.1.1.1.1.2.&.t . D 2.1.1.! ;.c.s.;.1.2.1.1.1.2.K % 1 &.! h w N.N.N.N.N.N.N.N.N.N.N.N.N.",
"N.N.N.N.N.N.N.N.N.N.N.N.N.w h E 8.p.c.>.! 1.1.1.1.2.&.t . F 2.1.2.1.;.s.s.4.! 1.1.1.1.2.F * 4 &.! h w N.N.N.N.N.N.N.N.N.N.N.N.N.",
"N.N.N.N.N.N.N.N.N.N.N.N.N.w h E 8.p.c.5.1.2.1.1.1.2.*.t . D 2.1.1.1.6.c.s.4.1.2.1.1.1.2.P * 4 &.! h w N.N.N.N.N.N.N.N.N.N.N.N.N.",
"N.N.N.N.N.N.N.N.N.N.N.N.N.w h W 8.p.c.7.! 1.1.1.1.2.*.t . D 2.1.1.! 4.j.s.4.! 2.1.1.3.9.F * 1 &.! h w N.N.N.N.N.N.N.N.N.N.N.N.N.",
"N.N.N.N.N.N.N.N.N.N.N.N.N.w h W 8.p.c.>.1.2.1.1.1.2.R t O F 9.1.2.! ;.h.h.4.! 1.1.1.1.2.H * 4 &.! h w N.N.N.N.N.N.N.N.N.N.N.N.N.",
"N.N.N.N.N.N.N.N.N.N.N.N.N.w h E 8.p.c.>.! 2.1.1.1.2.*.t . F 2.1.1.1.;.h.s.8.1.1.1.1.1.2.H * 4 &.! h w N.N.N.N.N.N.N.N.N.N.N.N.N.",
"N.N.N.N.N.N.N.N.N.N.N.N.N.w h E 8.p.j.>.! 1.1.1.1.2.*.t . A 2.1.1.! ;.h.s.4.1.2.1.1.1.2.H * 4 &.! h w N.N.N.N.N.N.N.N.N.N.N.N.N.",
"N.N.N.N.N.N.N.N.N.N.N.N.N.w h E 8.p.c.>.2.1.1.1.1.2.*.t . F 2.1.1.2.;.j.s.4.! 2.3.1.3.1.F * 4 &.! h w N.N.N.N.N.N.N.N.N.N.N.N.N.",
"N.N.N.N.N.N.N.N.N.N.N.N.N.w h E 8.p.c.>.! 1.1.1.1.2.&.t . K 2.1.1.1.6.j.s.4.! 1.1.2.1.2.H * 4 &.! h w N.N.N.N.N.N.N.N.N.N.N.N.N.",
"N.N.N.N.N.N.N.N.N.N.N.N.N.q h E 8.p.c.>.1.2.1.1.1.2.&.t . D 9.1.1.! ;.c.s.4.2.1.1.3.1.2.F * 4 W ! h w N.N.N.N.N.N.N.N.N.N.N.N.N.",
"N.N.N.N.N.N.N.N.N.N.N.N.N.w h W 8.p.c.>.1.1.1.1.1.2.E t . A 2.1.1.1.;.j.s.4.1.1.1.1.1.9.P % 4 *.! h w N.N.N.N.N.N.N.N.N.N.N.N.N.",
"N.N.N.N.N.N.N.N.N.N.N.N.N.w h E 8.p.v.5.! 1.1.1.1.2.*.t . F 9.1.1.1.;.l.s.4.1.1.1.1.1.2.F * 4 *.! h w N.N.N.N.N.N.N.N.N.N.N.N.N.",
"N.N.N.N.N.N.N.N.N.N.N.N.N.w h E 8.p.c.>.1.2.1.1.1.2.&.t . D 2.1.1.! ;.h.s.4.! 2.3.1.1.2.K * 4 R ! h w N.N.N.N.N.N.N.N.N.N.N.N.N.",
"N.N.N.N.N.N.N.N.N.N.N.N.N.w h E 8.p.c.>.! 1.1.1.1.2.&.t . D 2.1.2.1.;.h.s.6.1.1.1.1.3.9.K * 4 *.! h w N.N.N.N.N.N.N.N.N.N.N.N.N.",
"N.N.N.N.N.N.N.N.N.N.N.N.N.w h E 8.p.c.>.1.1.1.1.1.2.*.t . F 2.1.1.1.6.h.h.6.1.1.1.1.1.2.F % 4 *.! h w N.N.N.N.N.N.N.N.N.N.N.N.N.",
"N.N.N.N.N.N.N.N.N.N.N.N.N.q h E 8.p.c.>.1.1.1.1.1.2.*.t . D 2.1.1.! 6.h.h.8.! 1.1.1.1.2.P % 4 R ! h w N.N.N.N.N.N.N.N.N.N.N.N.N.",
"N.N.N.N.N.N.N.N.N.N.N.N.N.w h W 8.p.c.>.1.1.1.1.1.2.*.t . D 9.1.1.! ;.h.p.4.1.1.1.1.1.2.H & 1 *.! h w N.N.N.N.N.N.N.N.N.N.N.N.N.",
"N.N.N.N.N.N.N.N.N.N.N.N.N.w h E 8.p.c.>.1.1.1.1.1.1.&.t . F 2.1.1.1.;.h.h.4.! 1.3.1.1.2.H & 1 *.! h w N.N.N.N.N.N.N.N.N.N.N.N.N.",
"N.N.N.N.N.N.N.N.N.N.N.N.N.w h E 8.p.c.5.! 1.1.1.1.1.*.t . D 2.1.1.1.;.h.h.5.1.1.1.1.1.2.H * 1 *.! h w N.N.N.N.N.N.N.N.N.N.N.N.N.",
"N.N.N.N.N.N.N.N.N.N.N.N.N.w h E 8.p.c.} F D D D D K C < o D 2.1.2.1.5.z.p.P A D D D D H n * 4 *.! h w N.N.N.N.N.N.N.N.N.N.N.N.N.",
"N.N.N.N.N.N.N.N.N.N.N.N.N.w h E 8.j.i.y . % % % % % & & & K 2.1.1.! ;.b.| - o % % % % % = @ r &.! h w N.N.N.N.N.N.N.N.N.N.N.N.N.",
"N.N.N.N.N.N.N.N.N.N.N.N.N.w h E 2.s.)   % % % % % % % & > A 9.1.1.1.6.s.c   % % % % % % o = i %.! h w N.N.N.N.N.N.N.N.N.N.N.N.N.",
"N.N.N.N.N.N.N.N.N.N.N.N.N.w h E 9.X.u . % % % % % % % % # C 2.1.1.! 7./ > o % % % % % & % @ , %.Q h w N.N.N.N.N.N.N.N.N.N.N.N.N.",
"N.N.N.N.N.N.N.N.N.N.N.N.N.w h ! 4.( l x x x x n x x x x i K 9.1.1.2.;.Z l x x x x x x x x x z %.! h w N.N.N.N.N.N.N.N.N.N.N.N.N.",
"N.N.N.N.N.N.N.N.N.N.N.N.N.w h E 1.1.1.1.1.1.3.1.1.1.1.1.1.1.2.1.1.1.1.1.2.1.1.1.1.1.3.1.1.1.3.2.E h w N.N.N.N.N.N.N.N.N.N.N.N.N.",
"N.N.N.N.N.N.N.N.N.N.N.N.N.w h E 2.1.1.1.1.1.1.1.1.3.1.1.1.1.<.1.1.1.1.1.2.1.1.1.3.1.2.1.1.1.1.2.E h w N.N.N.N.N.N.N.N.N.N.N.N.N.",
"N.N.N.N.N.N.N.N.N.N.N.N.N.w h E 2.1.1.1.2.3.1.1.1.1.1.1.1.1.1.1.3.1.1.1.1.1.1.1.1.1.1.1.1.1.1.1.E h w N.N.N.N.N.N.N.N.N.N.N.N.N.",
"N.N.N.N.N.N.N.N.N.N.N.N.N.w h E 1.3.1.1.1.1.1.1.1.1.3.1.3.1.1.1.1.1.1.1.1.3.1.1.1.1.1.1.1.3.1.2.E h w N.N.N.N.N.N.N.N.N.N.N.N.N.",
"N.N.N.N.N.N.N.N.N.N.N.N.N.w h E 2.1.1.1.1.1.3.1.1.1.1.1.1.1.1.1.1.1.1.3.1.1.1.1.1.1.<.1.] ' -.2.E h w N.N.N.N.N.N.N.N.N.N.N.N.N.",
"N.N.N.N.N.N.N.N.N.N.N.N.N.w h E 2.1.1.1.1.1.1.1.3.1.1.1.3.1.1.3.1.1.1.1.1.3.2.3.1.1.2.{ g d a 3.! h w N.N.N.N.N.N.N.N.N.N.N.N.N.",
"N.N.N.N.N.N.N.N.N.N.N.N.N.w h E 2.1.1.1.1.1.1.1.1.1.1.1.1.1.1.2.1.1.1.1.1.1.1.1.1.2.2.1.f s 7 T ! h w N.N.N.N.N.N.N.N.N.N.N.N.N.",
"N.N.N.N.N.N.N.N.N.N.N.N.N.w h E 2.3.1.1.1.1.3.1.1.3.1.1.1.1.1.1.1.1.1.3.1.1.1.1.1.1.1.1.<.M I 2.E h w N.N.N.N.N.N.N.N.N.N.N.N.N.",
"N.N.N.N.N.N.N.N.N.N.N.N.N.w h E 2.1.1.1.1.1.1.1.1.1.1.1.1.1.1.1.1.1.1.3.1.1.1.1.1.1.1.1.1.1.1.2.E h w N.N.N.N.N.N.N.N.N.N.N.N.N.",
"N.N.N.N.N.N.N.N.N.N.N.N.N.w h E 2.1.1.1.1.1.1.1.1.1.1.1.1.1.1.1.1.1.1.1.1.1.1.1.1.1.1.1.1.1.1.1.E h w N.N.N.N.N.N.N.N.N.N.N.N.N.",
"N.N.N.N.N.N.N.N.N.N.N.N.N.w h W 8.q.e.r.r.r.y.r.r.r.r.f._ K 2.1.1.1.5.e.r.r.r.r.r.r.r.r.r.t.[ *.! h w N.N.N.N.N.N.N.N.N.N.N.N.N.",
"N.N.N.N.N.N.N.N.N.N.N.N.N.w h W 3.y.l.v.v.v.v.v.v.v.n. .> A 9.1.1.1.5.w.l.v.v.v.j.b.v.b.b.v 1 &.! h w N.N.N.N.N.N.N.N.N.N.N.N.N.",
"N.N.N.N.N.N.N.N.N.N.N.N.N.w h E 8.p.z.+.>.:.>.:.:.5...6 O F 2.1.1.1.;.j.p.e.>.>.:.:.:.g.G & 4 &.! h w N.N.N.N.N.N.N.N.N.N.N.N.N.",
"N.N.N.N.N.N.N.N.N.N.N.N.N.w h E 8.p.c.>.1.1.1.1.1.2.*.t . D 2.1.1.1.;.h.p.4.1.1.1.1.1.2.H % 4 &.! h w N.N.N.N.N.N.N.N.N.N.N.N.N.",
"N.N.N.N.N.N.N.N.N.N.N.N.N.w h E 8.p.c.>.! 1.1.1.1.2.*.t . D 2.1.1.! ;.h.s.4.2.1.1.1.1.2.H * 4 &.! h w N.N.N.N.N.N.N.N.N.N.N.N.N.",
"N.N.N.N.N.N.N.N.N.N.N.N.N.w h W 8.p.c.>.1.2.1.1.1.2.*.t . D 2.1.2.1.;.z.s.4.! 1.1.1.1.2.H * 4 &.! h w N.N.N.N.N.N.N.N.N.N.N.N.N.",
"N.N.N.N.N.N.N.N.N.N.N.N.N.w h E 8.p.v.>.1.1.1.1.1.2.*.t . D 2.1.1.1.6.j.s.4.! 1.1.1.1.9.H * 4 &.! h w N.N.N.N.N.N.N.N.N.N.N.N.N.",
"N.N.N.N.N.N.N.N.N.N.N.N.N.w h E 8.p.c.>.1.1.1.1.1.2.&.t . K 2.1.1.! ;.j.s.4.1.2.1.1.1.2.F % 4 &.! h w N.N.N.N.N.N.N.N.N.N.N.N.N.",
"N.N.N.N.N.N.N.N.N.N.N.N.N.w h E 8.p.j.>.! 2.1.1.1.2.&.t . K 1.1.1.1.;.c.s.4.1.1.1.1.1.2.P % 4 &.! h w N.N.N.N.N.N.N.N.N.N.N.N.N.",
"N.N.N.N.N.N.N.N.N.N.N.N.N.w h W 8.p.v.>.1.1.1.1.1.2.&.t . A 2.1.2.1.;.s.s.6.1.1.1.1.1.2.F * 1 &.! h w N.N.N.N.N.N.N.N.N.N.N.N.N.",
"N.N.N.N.N.N.N.N.N.N.N.N.N.w h E 8.p.c.>.2.1.1.1.1.2.*.t . D 9.1.1.! 5.h.s.4.1.1.1.1.1.2.K % 1 &.! h w N.N.N.N.N.N.N.N.N.N.N.N.N.",
"N.N.N.N.N.N.N.N.N.N.N.N.N.w h E 3.p.c.>.! 1.1.1.1.2.*.t . D 2.1.1.1.>.c.s.4.1.1.1.1.1.9.K * 1 &.! h w N.N.N.N.N.N.N.N.N.N.N.N.N.",
"N.N.N.N.N.N.N.N.N.N.N.N.N.w h E 8.s.p.N 4 r r 5 5 r r - + D 2.1.1.! 8.v.o.y 4 5 5 5 5 r 3 @ 4 &.! h w N.N.N.N.N.N.N.N.N.N.N.N.N.",
"N.N.N.N.N.N.N.N.N.N.N.N.N.w h W 6.O.N   * % % % % % % * : C 9.1.1.1.5.` < X % % % % % % + @ 2 R ! h w N.N.N.N.N.N.N.N.N.N.N.N.N.",
"N.N.N.N.N.N.N.N.N.N.N.N.N.w h W 8.L C D D D D D D D D D V I 1.1.1.1.*.K S D D D D D D D D D D <.! h w N.N.N.N.N.N.N.N.N.N.N.N.N.",
"N.N.N.N.N.N.N.N.N.N.N.N.N.w h E 2.1.1.1.3.1.1.1.1.1.1.1.1.1.1.1.1.1.1.1.1.1.1.1.1.1.3.1.1.1.1.1.E h w N.N.N.N.N.N.N.N.N.N.N.N.N.",
"N.N.N.N.N.N.N.N.N.N.N.N.N.w h E 1.1.1.1.1.1.1.1.1.1.1.1.1.1.1.3.1.1.1.1.1.1.1.1.1.1.1.1.1.1.1.2.E h w N.N.N.N.N.N.N.N.N.N.N.N.N.",
"N.N.N.N.N.N.N.N.N.N.N.N.N.w 8 0 e 9 e e e e q q q q q w e e e e e e q q q w e e q q e q e w q q 9 8 w N.N.N.N.N.N.N.N.N.N.N.N.N."
};
