/* XPM */
static char *frame_0_door_Tavola_disegno_11679567764[] = {
/* columns rows colors chars-per-pixel */
"65 65 99 2 ",
"   c None",
".  c #602D4E",
"X  c #603150",
"o  c #613451",
"O  c #613753",
"+  c #623C54",
"@  c #663D58",
"#  c #663E59",
"$  c #6A435F",
"%  c #6A445F",
"&  c #6D4762",
"*  c #714B67",
"=  c #714C68",
"-  c #714D69",
";  c #744D69",
":  c #754C6C",
">  c #7D4D73",
",  c #7E4C74",
"<  c #7A5370",
"1  c #7B5072",
"2  c #9E7C01",
"3  c #A80F6E",
"4  c #AB1373",
"5  c #AB1374",
"6  c #B01A7C",
"7  c #90576F",
"8  c #BF9602",
"9  c #C19604",
"0  c #DE936C",
"q  c #E29477",
"w  c #E5C75A",
"e  c #875781",
"r  c #885580",
"t  c #8A5884",
"y  c #8E5D89",
"u  c #935F8E",
"i  c #995F93",
"p  c #9A5C95",
"a  c #886280",
"s  c #856A81",
"d  c #8E6986",
"f  c #90658A",
"g  c #9F639B",
"h  c #957192",
"j  c #997996",
"k  c #A7628F",
"l  c #A27A9B",
"z  c #A37F9D",
"x  c #A17E9E",
"c  c #A776A3",
"v  c #AD7AAB",
"b  c #B86DB5",
"n  c #BA6DB8",
"m  c #D279B3",
"M  c #C872C7",
"N  c #E264D4",
"B  c #A882A3",
"V  c #B68EB3",
"C  c #BD80BB",
"Z  c #B791B5",
"A  c #BA90B8",
"S  c #E286B3",
"D  c #C588C3",
"F  c #C29BC0",
"G  c #CA91CA",
"H  c #D680D6",
"J  c #E982DD",
"K  c #F48ADD",
"L  c #D3A0D4",
"P  c #D3A3D4",
"I  c #D6A4D7",
"U  c #D2AAD2",
"Y  c #D5B2D7",
"T  c #D6B2D7",
"R  c #D9B7DA",
"E  c #DCB1DE",
"W  c #DDB5DE",
"Q  c #E79DE9",
"!  c #F986FC",
"~  c #DFA5E1",
"^  c #DEB7E0",
"/  c #DFBBE1",
"(  c #E2A5E4",
")  c #E3A5E5",
"_  c #E4ABE6",
"`  c #E5ABE7",
"'  c #E6A8E8",
"]  c #E5B4E5",
"[  c #E1BAE3",
"{  c #E3BBE5",
"}  c #E3BDE5",
"|  c #E4BCE6",
" . c #E5BEE7",
".. c #E6B3E8",
"X. c #E7BCE9",
"o. c #EBBFEE",
"O. c #EEC0F0",
"+. c #F2C1F5",
"@. c #F6C2F9",
/* pixels */
"                            3 5 6 6 6 6 6 6 6 6 6 6 6 6 6 6 6 6 6 6 6 6 6 6 6 6 6 6 6 6 6 6 6 6 6 4 3                             ",
"                            4 N ! ! ! ! ! ! ! ! ! ! ! ! ! ! ! ! ! ! ! ! ! ! ! ! ! ! ! ! ! ! ! ! ! N 4                             ",
"                            4 N ! ! ! ! ! ! ! ! ! ! ! ! ! ! ! ! ! ! ! ! ! ! ! ! ! ! ! ! ! ! ! ! ! N 4                             ",
"                            4 N ! ! ! ! ! ! ! ! ! ! ! ! ! ! ! ! ! ! ! ! ! ! ! ! ! ! ! ! ! ! ! ! ! N 4                             ",
"                            4 N ! ! ! ! ! ! ! ! ! ! ! ! ! ! ! ! ! ! ! ! ! ! ! ! ! ! ! ! ! ! ! ! ! N 4                             ",
"                            4 N ! ! ! ! ! ! ! ! ! ! ! ! ! ! ! ! ! ! ! ! ! ! ! ! ! ! ! ! ! ! ! ! ! N 4                             ",
"                            4 N ! T }  . . . . . . . . . .s ! ! ! ! ! T  . .X. .O./ O.} } } } h ! N 4                             ",
"                            4 N ! ' [ @.@.@.@.@.@.@.@.@.Z < ! ! ! ! ! ` / @.@.@.@.+.+.@.@.@.B p ! N 4                             ",
"                            4 N ! ' O.o.@.@.@.@.@.@.@.@.< , ! ! ! ! ! ' { @.@.@.@.@.@.@.@.@.& p ! N 4                             ",
"                            4 N ! ' @.^ ..............A X , ! ! ! ! ! ' @.R ..............j . p ! N 4                             ",
"                            4 N ! ' @.' ! ! ! ! ! ! ! b . , ! ! ! ! ! ' @.' ! ! ! ! ! ! ! p . p ! N 4                             ",
"                            4 N ! ' @.' ! ! ! ! ! ! ! b . , ! ! ! ! ! ' @.' ! ! ! ! ! ! ! p . p ! N 4                             ",
"                            4 N ! ' @.' ! ! ! ! ! ! ! b . , ! ! ! ! ! ' @.' ! ! ! ! ! ! ! p . p ! N 4                             ",
"                            4 N ! ' @.' ! ! ! ! ! ! ! b . , ! ! ! ! ! ' @.' ! ! ! ! ! ! ! p . p ! N 4                             ",
"                            4 N ! ' @.' ! ! ! ! ! ! ! b . , ! ! ! ! ! ' @.' ! ! ! ! ! ! ! p . p ! N 4                             ",
"                            4 N ! ' @.' ! ! ! ! ! ! ! b . , ! ! ! ! ! ' @.' ! ! ! ! ! ! ! p . p ! N 4                             ",
"                            4 N ! ' @.' ! ! ! ! ! ! ! b . , ! ! ! ! ! ' @.' ! ! ! ! ! ! ! p . p ! N 4                             ",
"                            4 N ! ' @.' ! ! ! ! ! ! ! b . , ! ! ! ! ! ' @.' ! ! ! ! ! ! ! p . p ! N 4                             ",
"                            4 N ! ' @.' ! ! ! ! ! ! ! b . , ! ! ! ! ! ' @.' ! ! ! ! ! ! ! p . p ! N 4                             ",
"                            4 N ! ' @.' ! ! ! ! ! ! ! b . , ! ! ! ! ! ' @.' ! ! ! ! ! ! ! p . p ! N 4                             ",
"                            4 N ! ' @.' ! ! ! ! ! ! ! b . , ! ! ! ! ! ' @.' ! ! ! ! ! ! ! p . p ! N 4                             ",
"                            4 N ! ' @.' ! ! ! ! ! ! ! b . , ! ! ! ! ! ' @.' ! ! ! ! ! ! ! p . p ! N 4                             ",
"                            4 N ! ' @.' ! ! ! ! ! ! ! b . , ! ! ! ! ! ' @.' ! ! ! ! ! ! ! p . p ! N 4                             ",
"                            4 N ! ' @.' ! ! ! ! ! ! ! b . , ! ! ! ! ! ' @.' ! ! ! ! ! ! ! p . p ! N 4                             ",
"                            4 N ! ' @.' ! ! ! ! ! ! ! b . , ! ! ! ! ! ' @.' ! ! ! ! ! ! ! p . p ! N 4                             ",
"                            4 N ! ' @.' ! ! ! ! ! ! ! b . , ! ! ! ! ! ' @.' ! ! ! ! ! ! ! p . p ! N 4                             ",
"                            4 N ! ' @.' ! ! ! ! ! ! ! b . , ! ! ! ! ! ' @.' ! ! ! ! ! ! ! p . p ! N 4                             ",
"                            4 N ! ' @.' ! ! ! ! ! ! ! b . , ! ! ! ! ! ' @.' ! ! ! ! ! ! ! p . p ! N 4                             ",
"                            4 N ! ' @.' ! ! ! ! ! ! ! b . , ! ! ! ! ! ' @.' ! ! ! ! ! ! ! p . p ! N 4                             ",
"                            4 N ! ' @.' ! ! ! ! ! ! ! b . , ! ! ! ! ! ' @.' ! ! ! ! ! ! ! p . p ! N 4                             ",
"                            4 N ! ' @.' ! ! ! ! ! ! ! b . , ! ! ! ! ! ' @.' ! ! ! ! ! ! ! p . p ! N 4                             ",
"                            4 N ! ' @.L b b b b b b b u . , ! ! ! ! ! ' @.L b b b b b b b r . p ! N 4                             ",
"                            4 N ! ' @.j . . . . . . . O o , ! ! ! ! ! ' +.d . . . . . . . + X p ! N 4                             ",
"                            4 N ! ' W . . . . . . . . . % , ! ! ! ! ! ' U . . . . . . . . . % p ! N 4                             ",
"                            4 N ! ( B . . . . . . . . . O - ! ! ! ! ! I d . . . . . . . . . + t ! N 4                             ",
"                            4 N ! G p p p p p p p p p p p y ! ! ! ! ! D p p p p p p p i p p p g ! N 4                             ",
"                            4 N ! ! ! ! ! ! ! ! ! ! ! ! ! ! ! ! ! ! ! ! ! ! ! ! ! ! ! ! ! ! ! ! ! N 4                             ",
"                            4 N ! ! ! ! ! ! ! ! ! ! ! ! ! ! ! ! ! ! ! ! ! ! ! ! ! ! ! ! ! ! ! ! ! N 4                             ",
"                            4 N ! ! ! ! ! ! ! ! ! ! ! ! ! ! ! ! ! ! ! ! ! ! ! ! ! ! ! ! ! ! ! ! ! N 4                             ",
"                            4 N ! ! ! ! ! ! ! ! ! ! ! ! ! ! ! ! ! ! ! ! ! ! ! ! ! ! ! ! ! ! ! ! ! N 4                             ",
"                            4 N ! ! ! ! ! ! ! ! ! ! ! ! ! ! ! ! ! ! ! ! ! ! ! ! ! ! ! ! ! 0 S ! ! N 4                             ",
"                            4 N ! ! ! ! ! ! ! ! ! ! ! ! ! ! ! ! ! ! ! ! ! ! ! ! ! ! ! ! q w 9 m ! N 4                             ",
"                            4 N ! ! ! ! ! ! ! ! ! ! ! ! ! ! ! ! ! ! ! ! ! ! ! ! ! ! ! ! Q 9 8 7 ! N 4                             ",
"                            4 N ! ! ! ! ! ! ! ! ! ! ! ! ! ! ! ! ! ! ! ! ! ! ! ! ! ! ! ! ! N u ! ! N 4                             ",
"                            4 N ! ! ! ! ! ! ! ! ! ! ! ! ! ! ! ! ! ! ! ! ! ! ! ! ! ! ! ! ! ! ! ! ! N 4                             ",
"                            4 N ! ! ! ! ! ! ! ! ! ! ! ! ! ! ! ! ! ! ! ! ! ! ! ! ! ! ! ! ! ! ! ! ! N 4                             ",
"                            4 N ! ( ` ' ' ' ` ` ' ' ' ' ' c ! ! ! ! ! ( ' ' ' ' ' ' ' ' ' ' ' n ! N 4                             ",
"                            4 N ! ' X.+.@.@.@.@.@.@.@.@.a , ! ! ! ! ! ` } +.@.@.@.@.@.@.@.] ; g ! N 4                             ",
"                            4 N ! ' @.E Q Q Q Q Q Q Q v X , ! ! ! ! ! ' o.^ Q Q Q Q Q Q Q f . p ! N 4                             ",
"                            4 N ! ' @.' ! ! ! ! ! ! ! b . , ! ! ! ! ! ' @.) ! ! ! ! ! ! ! p . p ! N 4                             ",
"                            4 N ! ' @.' ! ! ! ! ! ! ! b . , ! ! ! ! ! ' @.' ! ! ! ! ! ! ! p . p ! N 4                             ",
"                            4 N ! ' @.' ! ! ! ! ! ! ! b . , ! ! ! ! ! ' @.' ! ! ! ! ! ! ! p . p ! N 4                             ",
"                            4 N ! ' @.' ! ! ! ! ! ! ! b . , ! ! ! ! ! ' @.' ! ! ! ! ! ! ! p . p ! N 4                             ",
"                            4 N ! ' @.' ! ! ! ! ! ! ! b . , ! ! ! ! ! ' @.' ! ! ! ! ! ! ! p . p ! N 4                             ",
"                            4 N ! ' @.' ! ! ! ! ! ! ! b . , ! ! ! ! ! ' @.' ! ! ! ! ! ! ! p . p ! N 4                             ",
"                            4 N ! ' @.' ! ! ! ! ! ! ! b . , ! ! ! ! ! ' @.) ! ! ! ! ! ! ! p . p ! N 4                             ",
"                            4 N ! ' @.' ! ! ! ! ! ! ! b . > ! ! ! ! ! ' o.' ! ! ! ! ! ! ! p . p ! N 4                             ",
"                            4 N ! ' @.' ! ! ! ! ! ! ! b . 7 ! ! ! ! ! ' @.' ! ! ! ! ! ! ! p . p ! N 4                             ",
"                            4 N ! ' @.Z , , , , , , > : X > ! ! ! ! ! ' +.c 7 , , , , 7 , & X p ! N 4                             ",
"                            4 N ! I F X . . . . . . . . # - ! ! ! ! ! I x . . . . . . . . . # e ! N 4                             ",
"                            4 N ! M n n b b b b b b b b n n ! ! ! ! ! M n n b b b b b b b b b M ! N 4                             ",
"                            4 N ! ! ! ! ! ! ! ! ! ! ! ! ! ! ! ! ! ! ! ! ! ! ! ! ! ! ! ! ! ! ! ! ! N 4                             ",
"                            4 N ! ! ! ! ! ! ! ! ! ! ! ! ! ! ! ! ! ! ! ! ! ! ! ! ! ! ! ! ! ! ! ! ! N 4                             ",
"                            3 5 6 6 6 6 6 6 6 6 6 6 6 6 6 6 6 6 6 6 6 6 6 6 6 6 6 6 6 6 6 6 6 6 6 5 3                             ",
"                                                                                                                                  "
};
