/* XPM */
static char *result[] = {
/* columns rows colors chars-per-pixel */
"64 64 168 2 ",
"   c #4B1236",
".  c #4D1538",
"X  c #551F41",
"o  c #552342",
"O  c #532B41",
"+  c #5A2847",
"@  c #5D2C4C",
"#  c #5A2246",
"$  c #573649",
"%  c #5A344A",
"&  c #5F3F54",
"*  c #602B4E",
"=  c #622F51",
"-  c #633051",
";  c #67465D",
":  c #77466B",
">  c #774B6E",
",  c #79486E",
"<  c #765B69",
"1  c #7B4B72",
"2  c #7C4671",
"3  c #7E5275",
"4  c #7D5872",
"5  c #7C6071",
"6  c #9D7E00",
"7  c #9E0560",
"8  c #9E0862",
"9  c #9F1368",
"0  c #A20A65",
"q  c #A8106E",
"w  c #A01B6D",
"e  c #AB1574",
"r  c #B11C7E",
"t  c #A02573",
"y  c #A02875",
"u  c #A12F79",
"i  c #A1337C",
"p  c #814F78",
"a  c #81587C",
"s  c #81567A",
"d  c #BB7774",
"f  c #C3AA1C",
"g  c #D08675",
"h  c #B21D81",
"j  c #B71F88",
"k  c #B81F89",
"l  c #B62186",
"z  c #B72088",
"x  c #BB238C",
"c  c #875880",
"v  c #8F5789",
"b  c #945A8C",
"n  c #975A91",
"m  c #9B5C96",
"M  c #965491",
"N  c #8B6386",
"B  c #92678E",
"V  c #996E94",
"C  c #9E619A",
"Z  c #AF66AB",
"A  c #AE6CAB",
"S  c #B064AC",
"D  c #B069AC",
"F  c #A375A0",
"G  c #B767B3",
"H  c #B56DB3",
"J  c #B86DB5",
"K  c #BB6BB9",
"L  c #BA67B5",
"P  c #AF7CB0",
"I  c #BF72BD",
"U  c #DA68CC",
"Y  c #C878C8",
"T  c #DA72CD",
"R  c #D879CA",
"E  c #DE73D1",
"W  c #DF79D4",
"Q  c #D77ED8",
"!  c #DC79D9",
"~  c #E568D8",
"^  c #E074D4",
"/  c #E779DC",
"(  c #E479D8",
")  c #EB77EB",
"_  c #ED79ED",
"`  c #F17EF2",
"'  c #A2879D",
"]  c #AE8BAA",
"[  c #AA86A8",
"{  c #B18EAD",
"}  c #AE94AA",
"|  c #BF9CBE",
" . c #B394B3",
".. c #E18F8E",
"X. c #EC8BB3",
"o. c #BFA1F6",
"O. c #C58AC4",
"+. c #CB81CB",
"@. c #D485D5",
"#. c #D59AD6",
"$. c #F398CC",
"%. c #EE86DB",
"&. c #F38AD2",
"*. c #C6A9C7",
"=. c #CBA8CA",
"-. c #DDA7DE",
";. c #D8ADD9",
":. c #D9B6D7",
">. c #DAB3DC",
",. c #DBB9DB",
"<. c #EC82EC",
"1. c #E29DE4",
"2. c #E69DE9",
"3. c #F682F6",
"4. c #F582F9",
"5. c #FA86FD",
"6. c #F48DFC",
"7. c #FF8BFF",
"8. c #EE99F1",
"9. c #FF92FF",
"0. c #F39CFA",
"q. c #F691FD",
"w. c #DFA9E2",
"e. c #DCB4E0",
"r. c #C3A5F7",
"t. c #CAACF7",
"y. c #D6ADF8",
"u. c #CFB0F7",
"i. c #D2B4F7",
"p. c #D5B8F7",
"a. c #E2A2E5",
"s. c #E6A7E8",
"d. c #E6A9E8",
"f. c #ECA9EE",
"g. c #E9A6EB",
"h. c #E3B2E4",
"j. c #E6BCEA",
"k. c #E9BAEE",
"l. c #E7B7EA",
"z. c #EDA6F0",
"x. c #F1A2F4",
"c. c #F2ACF6",
"v. c #F5AFF8",
"b. c #F2BBF4",
"n. c #ADC7D7",
"m. c #ABDEE1",
"M. c #B2DDE3",
"N. c #BCDBE6",
"B. c #BFDBE8",
"V. c #D7C5D9",
"C. c #DAC2DB",
"Z. c #DDC1E2",
"A. c #CFD6ED",
"S. c #D0D5EE",
"D. c #DCC4F6",
"F. c #DBCBF4",
"G. c #D6D2F0",
"H. c #D8D1F1",
"J. c #E3C5E6",
"K. c #E5C9E7",
"L. c #E4C1E9",
"P. c #EBC4EE",
"I. c #EDC4F0",
"U. c #F6C2F9",
"Y. c #FBC4FD",
"T. c #FECCFF",
"R. c #F1C3F5",
"E. c None",
/* pixels */
"E.E.E.E.E.E.E.E.E.E.r.D.N.e q e r r r r r r r r e r r r r r r e 0 8 0 8 8 8 8 8 8 8 8 8 8 7 8 t w 9 y B.D.o.E.E.E.E.E.E.E.E.E.E.",
"E.E.E.E.E.E.E.E.E.E.t.H.m.t x ~ 7.5.4.5.3.5.5.5.5.5.5.3.5.5.9.8.n.m.m.m.M.M.M.M.M.M.M.M.M.m.m.m.m.i i M.F.r.E.E.E.E.E.E.E.E.E.E.",
"E.E.E.E.E.E.E.E.E.E.t.S.m.r l ~ 7.6.5.5.5.5.5.5.5.6.5.4.5.4.5.0.G.A.S.S.H.H.H.S.G.G.G.H.G.S.A.m.m.i u m.H.t.E.E.E.E.E.E.E.E.E.E.",
"E.E.E.E.E.E.E.E.E.E.u.S.m.r l ~ 9.5.5.4.5.4.5.6.5.5.5.5.5.5.6.6.y.u.u.u.t.t.u.t.t.t.t.u.t.p.S.N.m.i u m.H.t.E.E.E.E.E.E.E.E.E.E.",
"E.E.E.E.E.E.E.E.E.E.u.A.m.r l ^ 7.5.6.5.5.5.5.5.5.5.5.3.5.5.5.4.E.E.E.E.E.E.E.E.E.E.E.E.E.E.i.A.m.i u m.S.t.E.E.E.E.E.E.E.E.E.E.",
"E.E.E.E.E.E.E.E.E.E.u.S.m.r l ~ 7.5.5.5.5.5.5.7.5.4.5.5.6.5.4.7.E.E.E.E.E.E.E.E.E.E.E.E.E.E.t.H.m.i u m.H.t.E.E.E.E.E.E.E.E.E.E.",
"E.E.E.E.E.E.E.E.E.E.u.A.m.h x T e.K.j.I.:.] ` ` w.V.P.j.P.*.+.5.E.E.E.E.E.E.E.E.E.E.E.E.E.E.r.H.m.i u m.H.t.E.E.E.E.E.E.E.E.E.E.",
"E.E.E.E.E.E.E.E.E.E.t.A.m.r x T J.Y.U.T.e.V _ 5.1.J.Y.U.T.| D 7.E.E.E.E.E.E.E.E.E.E.E.E.E.E.t.H.m.i u m.S.t.E.E.E.E.E.E.E.E.E.E.",
"E.E.E.E.E.E.E.E.E.E.u.S.m.h j E j.P.U.T.:.N ) 7.a.K.Y.U.Y.] Z 7.E.E.E.E.E.E.E.E.E.E.E.E.E.E.t.H.m.u u m.H.t.E.E.E.E.E.E.E.E.E.E.",
"E.E.E.E.E.E.E.E.E.E.t.S.m.h j E j.h.k.b.] 2 ` 7.z.C.h.b.;.N S 7.E.E.E.E.E.E.E.E.E.E.E.E.E.E.t.H.m.u u m.S.t.E.E.E.E.E.E.E.E.E.E.",
"E.E.E.E.E.E.E.E.E.E.u.S.m.h j E k.0.5.7.S : 3.7.z.h.4.7.<.b S 7.E.E.E.E.E.E.E.E.E.E.E.E.E.E.r.G.m.i u m.H.t.E.E.E.E.E.E.E.E.E.E.",
"E.E.E.E.E.E.E.E.E.E.u.A.m.h z E k.0.` 7.S : _ 7.f.h.3.7.<.b S 7.E.E.E.E.E.E.E.E.E.E.E.E.E.E.t.G.m.i u m.G.t.E.E.E.E.E.E.E.E.E.E.",
"E.E.E.E.E.E.E.E.E.E.u.S.m.r j E k.8.` 7.Z : ` 7.f.h.3.7.<.b S 7.E.E.E.E.E.E.E.E.E.E.E.E.E.E.t.G.m.i u m.H.t.E.E.E.E.E.E.E.E.E.E.",
"E.E.E.E.E.E.E.E.E.E.t.S.m.h z E k.8.5.7.Z : ` 7.f.h.` 5.<.b S 7.E.E.E.E.E.E.E.E.E.E.E.E.E.E.t.H.m.i u m.H.t.E.E.E.E.E.E.E.E.E.E.",
"E.E.E.E.E.E.E.E.E.E.t.A.m.h z E k.8.5.7.Z : ` 7.x.h.5.5.<.b S 7.E.E.E.E.E.E.E.E.E.E.E.E.E.E.t.H.m.i u m.S.t.E.E.E.E.E.E.E.E.E.E.",
"E.E.E.E.E.E.E.E.E.E.u.A.m.h z ^ b.0.` 7.S : ` 7.f.l.` 5.<.b S 7.E.E.E.E.E.E.E.E.E.E.E.E.E.E.t.H.m.i u m.H.t.E.E.E.E.E.E.E.E.E.E.",
"E.E.E.E.E.E.E.E.E.E.u.S.m.h z E k.8.` 7.S , ` 7.f.h.3.7._ b S 7.E.E.E.E.E.E.E.E.E.E.E.E.E.E.r.G.m.i u m.G.t.E.E.E.E.E.E.E.E.E.E.",
"E.E.E.E.E.E.E.E.E.E.u.S.m.r z E k.8.5.7.S , ` 7.z.h.3.7.<.b S 7.E.E.E.E.E.E.E.E.E.E.E.E.E.E.t.G.m.i u m.H.t.E.E.E.E.E.E.E.E.E.E.",
"E.E.E.E.E.E.E.E.E.E.t.S.m.r j E k.8.5.7.Z : ` 7.z.h.` 5.<.b S 7.E.E.E.E.E.E.E.E.E.E.E.E.E.E.t.G.m.i u m.G.t.E.E.E.E.E.E.E.E.E.E.",
"E.E.E.E.E.E.E.E.E.E.u.S.m.h j E k.8.5.7.Z : ` 7.z.h.5.5.<.b S 7.E.E.E.E.E.E.E.E.E.E.E.E.E.E.t.H.m.i u m.G.t.E.E.E.E.E.E.E.E.E.E.",
"E.E.E.E.E.E.E.E.E.E.u.S.m.r z ^ k.8.` 7.Z : ` 7.f.h.4.7.<.b S 7.E.E.E.E.E.E.E.E.E.E.E.E.E.E.t.H.m.i u m.G.t.E.E.E.E.E.E.E.E.E.E.",
"E.E.E.E.E.E.E.E.E.E.u.A.m.h z ^ k.0.5.7.S : ` 7.f.h.4.7.<.b S 7.E.E.E.E.E.E.E.E.E.E.E.E.E.E.t.G.m.i u m.G.t.E.E.E.E.E.E.E.E.E.E.",
"E.E.E.E.E.E.E.E.E.E.u.A.m.r z ^ k.8.5.7.Z : ` 7.z.h.` 7.<.b S 7.E.E.E.E.E.E.E.E.E.E.E.E.E.E.t.G.m.i u m.G.t.E.E.E.E.E.E.E.E.E.E.",
"E.E.E.E.E.E.E.E.E.E.t.A.m.h z E k.8.` 7.Z : ` 7.z.h.4.7.<.b S 7.E.E.E.E.E.E.E.E.E.E.E.E.E.E.t.H.m.i u m.G.r.E.E.E.E.E.E.E.E.E.E.",
"E.E.E.E.E.E.E.E.E.E.u.A.m.h l ^ k.8.` 7.S : ` 7.z.h.3.7.<.b S 7.E.E.E.E.E.E.E.E.E.E.E.E.E.E.r.G.m.u u m.H.t.E.E.E.E.E.E.E.E.E.E.",
"E.E.E.E.E.E.E.E.E.E.u.S.m.r l E k.8.` 7.Z : ` 7.z.h.` 5.<.b S 7.E.E.E.E.E.E.E.E.E.E.E.E.E.E.t.G.m.u u m.H.t.E.E.E.E.E.E.E.E.E.E.",
"E.E.E.E.E.E.E.E.E.E.t.G.m.h z ^ k.8.5.7.Z : ` 7.x.h.5.5.<.b S 7.E.E.E.E.E.E.E.E.E.E.E.E.E.E.t.G.m.i u m.S.t.E.E.E.E.E.E.E.E.E.E.",
"E.E.E.E.E.E.E.E.E.E.t.A.m.h z ^ k.8.5.7.Z : ` 7.f.h.4.5.<.b S 7.E.E.E.E.E.E.E.E.E.E.E.E.E.E.t.G.m.i u m.G.t.E.E.E.E.E.E.E.E.E.E.",
"E.E.E.E.E.E.E.E.E.E.t.A.m.h z E k.8.` 7.G , ` 7.f.h.` 7.` b S 7.E.E.E.E.E.E.E.E.E.E.E.E.E.E.t.G.m.i u m.S.t.E.E.E.E.E.E.E.E.E.E.",
"E.E.E.E.E.E.E.E.E.E.u.S.m.h z ^ k.8.` 7.Z : ` 7.f.h.` 7.<.b S 7.E.E.E.E.E.E.E.E.E.E.E.E.E.E.r.G.m.i u m.G.t.E.E.E.E.E.E.E.E.E.E.",
"E.E.E.E.E.E.E.E.E.E.u.A.m.h l E k.8.` 7.Z : ` 7.f.h.3.5.<.b S 7.E.E.E.E.E.E.E.E.E.E.E.E.E.E.t.G.m.i u m.H.t.E.E.E.E.E.E.E.E.E.E.",
"E.E.E.E.E.E.E.E.E.E.u.A.m.r z ^ l.O.L Y a 2 ` 7.c.=.H K Z 3 H 7.E.E.E.E.E.E.E.E.E.E.E.E.E.E.t.G.m.i u m.H.t.E.E.E.E.E.E.E.E.E.E.",
"E.E.E.E.E.E.E.E.E.E.t.A.m.r z / >.4 X * O 3 5.7.v.' + # % & K 9.E.E.E.E.E.E.E.E.E.E.E.E.E.E.r.H.m.i i m.G.t.E.E.E.E.E.E.E.E.E.E.",
"E.E.E.E.E.E.E.E.E.E.t.A.m.h x (  .@ @ * O a 5.9.d.5   - + $ J 7.E.E.E.E.E.E.E.E.E.E.E.E.E.E.t.H.m.l i m.G.t.E.E.E.E.E.E.E.E.E.E.",
"E.E.E.E.E.E.E.E.E.E.u.A.m.h x ^ ' o @ * O a 5.9.w.< . @ + % L 7.E.E.E.E.E.E.E.E.E.E.E.E.E.E.t.H.m.i i m.G.t.E.E.E.E.E.E.E.E.E.E.",
"E.E.E.E.E.E.E.E.E.E.u.S.m.l x T P M m m v C 5.9.@.B M m n b Y 7.E.E.E.E.E.E.E.E.E.E.E.E.E.E.t.H.m.i u m.G.t.E.E.E.E.E.E.E.E.E.E.",
"E.E.E.E.E.E.E.E.E.E.u.S.m.r l ^ 7.5.6.5.5.5.5.5.4.5.5.5.5.5.5.6.E.E.E.E.E.E.E.E.E.E.E.E.E.E.t.G.m.i u m.A.o.E.E.E.E.E.E.E.E.E.E.",
"E.E.E.E.E.E.E.E.E.E.u.S.m.r l ( 7.5.5.5.5.6.4.5.5.5.5.4.5.5.5.4.E.E.E.E.E.E.E.E.E.E.E.E.E.E.t.H.m.i u m.A.t.E.E.E.E.E.E.E.E.E.E.",
"E.E.E.E.E.E.E.E.E.E.u.A.m.r l ~ 9.5.5.4.5.5.5.5.5.5.6.5.5.4.5.5.E.E.E.E.E.E.E.E.E.E.E.E.E.E.r.H.m.i u m.G.t.E.E.E.E.E.E.E.E.E.E.",
"E.E.E.E.E.E.E.E.E.E.u.A.m.r l ~ 9.5.5.5.4.5.5.6.5.4.5.5.5.5.5.5.E.E.E.E.E.E.E.E.E.E.E.E.E.E.t.H.m.i u m.G.t.E.E.E.E.E.E.E.E.E.E.",
"E.E.E.E.E.E.E.E.E.E.t.S.m.r l ~ 7.6.5.5.6.5.5.4.5.4.5.7.&...%.7.E.E.E.E.E.E.E.E.E.E.E.E.E.E.t.H.m.u u m.H.t.E.E.E.E.E.E.E.E.E.E.",
"E.E.E.E.E.E.E.E.E.E.u.S.m.r l ~ 7.5.5.4.5.5.5.5.5.5.5.5.$.f g ` E.E.E.E.E.E.E.E.E.E.E.E.E.E.t.H.m.u u m.S.t.E.E.E.E.E.E.E.E.E.E.",
"E.E.E.E.E.E.E.E.E.E.t.S.m.r l ~ 7.5.6.5.5.4.5.6.6.5.5.7.X.6 d 7.E.E.E.E.E.E.E.E.E.E.E.E.E.E.t.G.m.i u m.H.t.E.E.E.E.E.E.E.E.E.E.",
"E.E.E.E.E.E.E.E.E.E.u.S.m.r l ^ 7.5.5.5.5.5.5.5.4.5.5.5.3.R ! 7.E.E.E.E.E.E.E.E.E.E.E.E.E.E.t.H.m.i u m.G.t.E.E.E.E.E.E.E.E.E.E.",
"E.E.E.E.E.E.E.E.E.E.t.S.m.j l ~ 9.5.5.5.5.5.5.5.5.5.5.5.4.5.5.5.E.E.E.E.E.E.E.E.E.E.E.E.E.E.r.H.m.i u m.H.t.E.E.E.E.E.E.E.E.E.E.",
"E.E.E.E.E.E.E.E.E.E.i.S.m.t l ~ 7.5.5.5.6.5.5.4.5.5.5.4.5.5.5.4.E.E.E.E.E.E.E.E.E.E.E.E.E.E.t.H.m.i u m.S.t.E.E.E.E.E.E.E.E.E.E.",
"E.E.E.E.E.E.E.E.E.E.t.S.m.h j E l.d.d.f.a.O.3.7.2.e.d.d.d.#.Q 7.E.E.E.E.E.E.E.E.E.E.E.E.E.E.t.H.m.i u m.H.t.E.E.E.E.E.E.E.E.E.E.",
"E.E.E.E.E.E.E.E.E.E.u.S.m.r j E L.I.U.T.:.N ) 5.a.J.Y.Y.Y.} Z 7.E.E.E.E.E.E.E.E.E.E.E.E.E.E.t.H.m.i u m.H.t.E.E.E.E.E.E.E.E.E.E.",
"E.E.E.E.E.E.E.E.E.E.u.S.m.h j E l.a.8.x.F > ` 7.z.,.1.0.#.N G 7.E.E.E.E.E.E.E.E.E.E.E.E.E.E.t.G.m.i u m.G.t.E.E.E.E.E.E.E.E.E.E.",
"E.E.E.E.E.E.E.E.E.E.t.S.m.h z E k.8.7.7.Z : ` 7.z.h.` 7.<.b S 7.E.E.E.E.E.E.E.E.E.E.E.E.E.E.t.H.m.i u m.H.t.E.E.E.E.E.E.E.E.E.E.",
"E.E.E.E.E.E.E.E.E.E.u.S.m.h z E k.8.` 7.Z : ` 7.z.h.3.7.<.b S 7.E.E.E.E.E.E.E.E.E.E.E.E.E.E.r.H.m.i u m.G.t.E.E.E.E.E.E.E.E.E.E.",
"E.E.E.E.E.E.E.E.E.E.u.A.m.h z ^ k.0.5.7.Z : ` 7.z.l.` 5.<.b S 7.E.E.E.E.E.E.E.E.E.E.E.E.E.E.t.H.m.i u m.G.t.E.E.E.E.E.E.E.E.E.E.",
"E.E.E.E.E.E.E.E.E.E.u.A.m.h l E k.8.` 7.Z : ` 7.z.h.5.5.` b S 7.E.E.E.E.E.E.E.E.E.E.E.E.E.E.t.H.m.i u m.G.t.E.E.E.E.E.E.E.E.E.E.",
"E.E.E.E.E.E.E.E.E.E.u.S.m.r z E k.8.5.7.Z : ` 7.f.h.` 5.<.b S 7.E.E.E.E.E.E.E.E.E.E.E.E.E.E.t.H.m.i u m.G.t.E.E.E.E.E.E.E.E.E.E.",
"E.E.E.E.E.E.E.E.E.E.t.S.m.r z ^ k.8.` 7.Z : ` 7.f.h.3.5.<.b S 7.E.E.E.E.E.E.E.E.E.E.E.E.E.E.r.G.m.i u m.G.t.E.E.E.E.E.E.E.E.E.E.",
"E.E.E.E.E.E.E.E.E.E.u.A.m.h z ^ k.0.5.7.S : ` 7.f.h.3.7.<.b S 7.E.E.E.E.E.E.E.E.E.E.E.E.E.E.t.G.m.i u m.G.r.E.E.E.E.E.E.E.E.E.E.",
"E.E.E.E.E.E.E.E.E.E.u.S.m.h j E k.8.5.7.S : ` 7.z.h.` 5.<.b S 7.E.E.E.E.E.E.E.E.E.E.E.E.E.E.t.G.m.u u m.H.t.E.E.E.E.E.E.E.E.E.E.",
"E.E.E.E.E.E.E.E.E.E.t.S.m.h z E k.8.5.7.S : ` 7.z.h.5.7.<.b Z 7.E.E.E.E.E.E.E.E.E.E.E.E.E.E.t.H.m.u u m.H.t.E.E.E.E.E.E.E.E.E.E.",
"E.E.E.E.E.E.E.E.E.E.u.S.m.r z ( >.V : s ; 1 4.7.v.} : 2 > ; L 7.E.E.E.E.E.E.E.E.E.E.E.E.E.E.t.H.m.i u m.S.t.E.E.E.E.E.E.E.E.E.E.",
"E.E.E.E.E.E.E.E.E.E.u.S.m.j x W ' X * @ O a 7.9.s.< . - + $ J q.E.E.E.E.E.E.E.E.E.E.E.E.E.E.p.S.m.i u m.G.t.E.E.E.E.E.E.E.E.E.E.",
"E.E.E.E.E.E.E.E.E.E.t.S.m.h l U Y H H J D J 5.7.Q A J J H D ! 6.y.i.i.t.u.t.t.u.t.t.u.t.u.p.H.M.m.i u m.G.t.E.E.E.E.E.E.E.E.E.E.",
"E.E.E.E.E.E.E.E.E.E.t.G.m.r l ~ 7.5.5.5.5.5.5.4.5.5.5.4.5.5.5.0.S.S.S.H.G.H.G.G.F.S.S.G.G.A.N.m.m.i u m.G.t.E.E.E.E.E.E.E.E.E.E.",
"E.E.E.E.E.E.E.E.E.E.t.H.M.t l ~ 5.5.5.3.5.5.5.5.4.4.5.6.4.5.9.8.n.m.m.m.M.M.m.M.M.M.M.M.m.M.m.m.m.l u m.F.t.E.E.E.E.E.E.E.E.E.E.",
"E.E.E.E.E.E.E.E.E.E.r.F.N.e e e r r r r r r r r r r r r r r h e 0 0 8 8 8 8 8 8 8 8 8 8 7 8 8 t t 9 y B.D.o.E.E.E.E.E.E.E.E.E.E."
};
