/* XPM */
static char *result[] = {
/* columns rows colors chars-per-pixel */
"64 64 191 2 ",
"   c #602C4F",
".  c #612E51",
"X  c #622F51",
"o  c #623052",
"O  c #75466C",
"+  c #7D6079",
"@  c #7D6279",
"#  c #7F647B",
"$  c #9F176A",
"%  c #9F1E6E",
"&  c #A81572",
"*  c #AD1B7A",
"=  c #9F2774",
"-  c #9F2975",
";  c #9E2B74",
":  c #A02C76",
">  c #A7257A",
",  c #AC277F",
"<  c #A9297D",
"1  c #AB307F",
"2  c #82697F",
"3  c #B19B71",
"4  c #BBA36F",
"5  c #C5845E",
"6  c #D3A261",
"7  c #B02281",
"8  c #B12381",
"9  c #B72487",
"0  c #AE3383",
"q  c #B33988",
"w  c #B43A89",
"e  c #B73A8B",
"r  c #B9388D",
"t  c #B93A8E",
"y  c #B93D8E",
"u  c #B93F8F",
"i  c #90578B",
"p  c #9B5B97",
"a  c #BA4090",
"s  c #BB4191",
"d  c #856A81",
"f  c #8F6E8C",
"g  c #877986",
"h  c #8D7489",
"j  c #8F748B",
"k  c #90738D",
"l  c #90758D",
"z  c #9A6497",
"x  c #936C92",
"c  c #957492",
"v  c #987295",
"b  c #9C7F98",
"n  c #A06E98",
"m  c #A4759C",
"M  c #AC6EA9",
"N  c #B164AE",
"B  c #A870A5",
"V  c #A87DA2",
"C  c #BB6DB8",
"Z  c #BA71B9",
"A  c #BC79BB",
"S  c #D17DD0",
"D  c #EE76E9",
"F  c #8F8390",
"G  c #9C929E",
"H  c #9D939F",
"J  c #9685A3",
"K  c #9B86A8",
"L  c #A08EAD",
"P  c #A18FAF",
"I  c #B08AAA",
"U  c #A194A3",
"Y  c #A58CB5",
"T  c #BD8CBC",
"R  c #BF8DBF",
"E  c #A591B4",
"W  c #AF99B1",
"Q  c #AA90BA",
"!  c #AA90BB",
"~  c #BA96B8",
"^  c #BB9CBE",
"/  c #B9A4BC",
"(  c #B9ACBD",
")  c #EA8DAD",
"_  c #CAA7AC",
"`  c #AF91C0",
"'  c #BA9DCD",
"]  c #BAAFC0",
"[  c #A4B4C7",
"{  c #BDB0C3",
"}  c #BFB2C5",
"|  c #B79AF6",
" . c #B89BF6",
".. c #BB9DF6",
"X. c #BEA0F6",
"o. c #BFA1F6",
"O. c #C39EC9",
"+. c #C89EC8",
"@. c #C791D3",
"#. c #C19DD6",
"$. c #DD9DDF",
"%. c #F087DC",
"&. c #F391DE",
"*. c #C3B8C8",
"=. c #D7A4D7",
"-. c #D3A9D4",
";. c #D4ABD5",
":. c #D2ACD5",
">. c #DBB6DD",
",. c #EF82EB",
"<. c #F888EF",
"1. c #F986FC",
"2. c #FC87FF",
"3. c #FE87FF",
"4. c #FC89FF",
"5. c #FC8AFF",
"6. c #FF8AFF",
"7. c #FF92FF",
"8. c #C0A2F6",
"9. c #C1A3F7",
"0. c #C6A7F7",
"q. c #CAAAF7",
"w. c #D7AAF0",
"e. c #D0B0F7",
"r. c #D2B2F7",
"t. c #D4B4F7",
"y. c #D5B5F7",
"u. c #D6B6F7",
"i. c #D7B7F7",
"p. c #DBB2F2",
"a. c #D7B8F7",
"s. c #D8B8F7",
"d. c #D8B9F7",
"f. c #D9B9F7",
"g. c #DCBDF7",
"h. c #DCBEF7",
"j. c #DDBEF7",
"k. c #DDBFF7",
"l. c #E2AFE3",
"z. c #E2AEE4",
"x. c #E3AEE5",
"c. c #EEAAF0",
"v. c #A6DEDF",
"b. c #A8DEE0",
"n. c #A9DEE0",
"m. c #AADEE1",
"M. c #ACDEE1",
"N. c #AEDDE2",
"B. c #B0DDE2",
"V. c #B1DDE3",
"C. c #B2DDE3",
"Z. c #B6DCE4",
"A. c #BCDBE6",
"S. c #BDDBE7",
"D. c #BEDBE7",
"F. c #B8DCE5",
"G. c #B9DCE5",
"H. c #C1DAE8",
"J. c #C5DAEA",
"K. c #C6DAEA",
"L. c #CAD9EB",
"P. c #CBD8EC",
"I. c #CCD8EC",
"U. c #CDD8EC",
"Y. c #CED8ED",
"T. c #D3D6EE",
"R. c #D5D5EF",
"E. c #D4D6EF",
"W. c #D5D6EF",
"Q. c #DDC0F7",
"!. c #DEC0F7",
"~. c #DFC2F7",
"^. c #DFC3F7",
"/. c #DFCFF4",
"(. c #D6D5F0",
"). c #D7D5F0",
"_. c #DDD1F3",
"`. c #D8D4F0",
"'. c #EBC1EE",
"]. c #ECC6EE",
"[. c #E0C4F7",
"{. c #E0C6F6",
"}. c #E1CBF5",
"|. c #E1C8F6",
" X c #E0CDF4",
".X c #E0CCF5",
"XX c #E0CDF5",
"oX c #E0CEF4",
"OX c #F1C5F3",
"+X c #F5C4F8",
"@X c None",
/* pixels */
"@X@X@X@X@X@X@X@X@X| s.).b.v.& * 8 7 7 > ; = = = = = = = = = = = = = = = = = = = = = = = = = = - % $ v.B._.r.@X@X@X@X@X@X@X@X@X@X",
"@X@X@X@X@X@X@X@X@X..!.L.v.v.9 D 5.1.7.@.v.v.v.v.v.v.v.v.v.v.v.v.v.v.v.v.v.v.v.v.v.v.v.v.v.v.v.v.[ : v.v.R.d.@X@X@X@X@X@X@X@X@X@X",
"@X@X@X@X@X@X@X@X@XX.[.H.v.v.9 D 5.1.1.p.v.v.v.v.v.v.v.v.v.v.v.v.v.v.v.v.v.v.v.v.v.v.v.v.v.v.v.v.[ : v.v.Y.g. .@X@X@X@X@X@X@X@X@X",
"@X@X@X@X@X@X@X@X@Xo.{.S.v.v.9 D 5.1.1.w.v.v.v.M.G.K.P.P.P.P.P.P.P.P.P.P.P.P.P.P.P.P.L.D.V.v.v.v.[ : v.v.I.h. .@X@X@X@X@X@X@X@X@X",
"@X@X@X@X@X@X@X@X@X8.{.A.v.v.9 D 5.1.1.w.v.v.N.U. X^.j.j.j.j.j.j.j.j.j.j.j.j.j.j.j.j.Q.|.`.F.v.v.[ : v.v.I.h. .@X@X@X@X@X@X@X@X@X",
"@X@X@X@X@X@X@X@X@X8.{.A.v.v.9 D 5.1.1.w.v.v.D..Xt.8. . . . . . . . . . . . . . . . ...q.~.T.n.v.[ : v.v.I.h. .@X@X@X@X@X@X@X@X@X",
"@X@X@X@X@X@X@X@X@X8.{.A.v.v.a *.b '.;.P v.v.Y.k.X.@X@X@X@X@X@X@X@X@X@X@X@X@X@X@X@X@X@X@Xe./.C.v.[ : v.v.I.h. .@X@X@X@X@X@X@X@X@X",
"@X@X@X@X@X@X@X@X@X8.{.A.v.v.s } k +Xl.L v.v.E.d.@X@X@X@X@X@X@X@X@X@X@X@X@X@X@X@X@X@X@X@X0.}.Z.v.[ : v.v.I.h. .@X@X@X@X@X@X@X@X@X",
"@X@X@X@X@X@X@X@X@X8.{.A.v.v.u ] h ].x.L v.v.T.f.@X@X@X@X@X@X@X@X@X@X@X@X@X@X@X@X@X@X@X@X0.}.Z.v.[ : v.v.I.h. .@X@X@X@X@X@X@X@X@X",
"@X@X@X@X@X@X@X@X@X8.{.A.v.v.u ( l >.T E v.v.T.f.@X@X@X@X@X@X@X@X@X@X@X@X@X@X@X@X@X@X@X@X0.}.Z.v.[ : v.v.I.h. .@X@X@X@X@X@X@X@X@X",
"@X@X@X@X@X@X@X@X@X8.{.A.v.v.t ^ v =.N ! v.v.T.d.@X@X@X@X@X@X@X@X@X@X@X@X@X@X@X@X@X@X@X@X0.}.Z.v.[ : v.v.I.h. .@X@X@X@X@X@X@X@X@X",
"@X@X@X@X@X@X@X@X@X8.{.A.v.v.t ^ v =.N ! v.v.E.d.@X@X@X@X@X@X@X@X@X@X@X@X@X@X@X@X@X@X@X@X0.}.Z.v.[ : v.v.I.h. .@X@X@X@X@X@X@X@X@X",
"@X@X@X@X@X@X@X@X@X8.{.A.v.v.t ^ v =.N ! v.v.E.d.@X@X@X@X@X@X@X@X@X@X@X@X@X@X@X@X@X@X@X@X0.}.Z.v.[ : v.v.I.h. .@X@X@X@X@X@X@X@X@X",
"@X@X@X@X@X@X@X@X@X8.{.A.v.v.t ^ v =.N ! v.v.E.s.@X@X@X@X@X@X@X@X@X@X@X@X@X@X@X@X@X@X@X@X0.}.Z.v.[ : v.v.I.h. .@X@X@X@X@X@X@X@X@X",
"@X@X@X@X@X@X@X@X@X8.{.A.v.v.t ^ v =.N ! v.v.E.s.@X@X@X@X@X@X@X@X@X@X@X@X@X@X@X@X@X@X@X@X0.}.Z.v.[ : v.v.I.h. .@X@X@X@X@X@X@X@X@X",
"@X@X@X@X@X@X@X@X@X8.{.A.v.v.t ^ v =.N ! v.v.E.s.@X@X@X@X@X@X@X@X@X@X@X@X@X@X@X@X@X@X@X@X0.}.Z.v.[ : v.v.I.h. .@X@X@X@X@X@X@X@X@X",
"@X@X@X@X@X@X@X@X@X8.{.A.v.v.t ^ v =.N ! v.v.E.s.@X@X@X@X@X@X@X@X@X@X@X@X@X@X@X@X@X@X@X@X0.}.Z.v.[ : v.v.I.h. .@X@X@X@X@X@X@X@X@X",
"@X@X@X@X@X@X@X@X@X8.{.A.v.v.t ^ v =.N ! v.v.E.s.@X@X@X@X@X@X@X@X@X@X@X@X@X@X@X@X@X@X@X@X0.}.Z.v.[ : v.v.I.h. .@X@X@X@X@X@X@X@X@X",
"@X@X@X@X@X@X@X@X@X8.{.A.v.v.t ^ v =.N ! v.v.E.s.@X@X@X@X@X@X@X@X@X@X@X@X@X@X@X@X@X@X@X@X0.}.Z.v.[ : v.v.I.h. .@X@X@X@X@X@X@X@X@X",
"@X@X@X@X@X@X@X@X@X8.{.A.v.v.t ^ v =.N ! v.v.E.s.@X@X@X@X@X@X@X@X@X@X@X@X@X@X@X@X@X@X@X@X0.}.Z.v.[ : v.v.I.h. .@X@X@X@X@X@X@X@X@X",
"@X@X@X@X@X@X@X@X@X8.{.A.v.v.t ^ v =.N ! v.v.E.s.@X@X@X@X@X@X@X@X@X@X@X@X@X@X@X@X@X@X@X@X0.}.Z.v.[ : v.v.I.h. .@X@X@X@X@X@X@X@X@X",
"@X@X@X@X@X@X@X@X@X8.{.A.v.v.t ^ v =.N ! v.v.E.s.@X@X@X@X@X@X@X@X@X@X@X@X@X@X@X@X@X@X@X@X0.}.Z.v.[ : v.v.I.h. .@X@X@X@X@X@X@X@X@X",
"@X@X@X@X@X@X@X@X@X8.{.A.v.v.t ^ v =.N ! v.v.E.s.@X@X@X@X@X@X@X@X@X@X@X@X@X@X@X@X@X@X@X@X0.}.Z.v.[ : v.v.I.h. .@X@X@X@X@X@X@X@X@X",
"@X@X@X@X@X@X@X@X@X8.{.A.v.v.t ^ v =.N ! v.v.E.s.@X@X@X@X@X@X@X@X@X@X@X@X@X@X@X@X@X@X@X@X0.}.Z.v.[ : v.v.I.h. .@X@X@X@X@X@X@X@X@X",
"@X@X@X@X@X@X@X@X@X8.{.A.v.v.t ^ v =.N ! v.v.E.s.@X@X@X@X@X@X@X@X@X@X@X@X@X@X@X@X@X@X@X@X0.}.Z.v.[ : v.v.I.h. .@X@X@X@X@X@X@X@X@X",
"@X@X@X@X@X@X@X@X@X8.{.A.v.v.t ^ v =.N ! v.v.E.s.@X@X@X@X@X@X@X@X@X@X@X@X@X@X@X@X@X@X@X@X0.}.Z.v.[ : v.v.I.h. .@X@X@X@X@X@X@X@X@X",
"@X@X@X@X@X@X@X@X@X8.{.A.v.v.t ^ v =.N ! v.v.E.s.@X@X@X@X@X@X@X@X@X@X@X@X@X@X@X@X@X@X@X@X0.}.Z.v.[ : v.v.I.h. .@X@X@X@X@X@X@X@X@X",
"@X@X@X@X@X@X@X@X@X8.{.A.v.v.t ^ v =.N ! v.v.E.s.@X@X@X@X@X@X@X@X@X@X@X@X@X@X@X@X@X@X@X@X0.}.Z.v.[ : v.v.I.h. .@X@X@X@X@X@X@X@X@X",
"@X@X@X@X@X@X@X@X@X8.{.A.v.v.t ^ v =.N ! v.v.E.d.@X@X@X@X@X@X@X@X@X@X@X@X@X@X@X@X@X@X@X@X0.}.Z.v.[ : v.v.I.h. .@X@X@X@X@X@X@X@X@X",
"@X@X@X@X@X@X@X@X@X8.{.A.v.v.t ^ v =.N ! v.v.E.d.@X@X@X@X@X@X@X@X@X@X@X@X@X@X@X@X@X@X@X@X0.}.Z.v.[ : v.v.I.h. .@X@X@X@X@X@X@X@X@X",
"@X@X@X@X@X@X@X@X@X8.{.A.v.v.t ^ v =.N ! v.v.E.d.@X@X@X@X@X@X@X@X@X@X@X@X@X@X@X@X@X@X@X@X0.}.Z.v.[ : v.v.I.h. .@X@X@X@X@X@X@X@X@X",
"@X@X@X@X@X@X@X@X@X8.{.A.v.v.e W f +.i Y v.v.T.f.@X@X@X@X@X@X@X@X@X@X@X@X@X@X@X@X@X@X@X@X0.}.Z.v.[ : v.v.I.h. .@X@X@X@X@X@X@X@X@X",
"@X@X@X@X@X@X@X@X@X8.{.A.v.v.q G 2 I   J v.v.T.f.@X@X@X@X@X@X@X@X@X@X@X@X@X@X@X@X@X@X@X@X0.}.Z.v.[ : v.v.I.h. .@X@X@X@X@X@X@X@X@X",
"@X@X@X@X@X@X@X@X@X8.{.A.v.v.q H # V . J v.v.E.d.@X@X@X@X@X@X@X@X@X@X@X@X@X@X@X@X@X@X@X@X0.}.Z.v.[ : v.v.I.h. .@X@X@X@X@X@X@X@X@X",
"@X@X@X@X@X@X@X@X@X8.{.A.v.v.1 g + n o J v.v.E.s.@X@X@X@X@X@X@X@X@X@X@X@X@X@X@X@X@X@X@X@X0.}.Z.v.[ : v.v.I.h. .@X@X@X@X@X@X@X@X@X",
"@X@X@X@X@X@X@X@X@X8.{.A.v.v.< x z A p ` v.v.W.a.@X@X@X@X@X@X@X@X@X@X@X@X@X@X@X@X@X@X@X@X0.}.Z.v.[ : v.v.I.h. .@X@X@X@X@X@X@X@X@X",
"@X@X@X@X@X@X@X@X@X8.{.A.v.v.9 D 5.1.1.w.v.v.(.i.@X@X@X@X@X@X@X@X@X@X@X@X@X@X@X@X@X@X@X@X0.}.Z.v.[ : v.v.I.h. .@X@X@X@X@X@X@X@X@X",
"@X@X@X@X@X@X@X@X@X8.{.A.v.v.9 D 5.1.1.w.v.v.(.u.@X@X@X@X@X@X@X@X@X@X@X@X@X@X@X@X@X@X@X@X0.}.Z.v.[ : v.v.I.h. .@X@X@X@X@X@X@X@X@X",
"@X@X@X@X@X@X@X@X@X8.{.A.v.v.9 D 5.1.1.w.v.v.(.u.@X@X@X@X@X@X@X@X@X@X@X@X@X@X@X@X@X@X@X@X0.}.Z.v.[ : v.v.I.h. .@X@X@X@X@X@X@X@X@X",
"@X@X@X@X@X@X@X@X@X8.{.A.v.v.9 D 5.1.1.w.v.v.(.u.@X@X@X@X@X@X@X@X@X@X@X@X@X@X@X@X@X@X@X@X0.}.Z.v.[ : v.v.I.h. .@X@X@X@X@X@X@X@X@X",
"@X@X@X@X@X@X@X@X@X8.{.A.v.v.9 D 4.<.) _ v.v.(.i.@X@X@X@X@X@X@X@X@X@X@X@X@X@X@X@X@X@X@X@X0.}.Z.v.[ : v.v.I.h. .@X@X@X@X@X@X@X@X@X",
"@X@X@X@X@X@X@X@X@X8.{.A.v.v.9 D 3.&.6 4 v.v.R.a.@X@X@X@X@X@X@X@X@X@X@X@X@X@X@X@X@X@X@X@X0.}.Z.v.[ : v.v.I.h. .@X@X@X@X@X@X@X@X@X",
"@X@X@X@X@X@X@X@X@X8.{.A.v.v.9 D 6.%.5 3 v.v.R.a.@X@X@X@X@X@X@X@X@X@X@X@X@X@X@X@X@X@X@X@X0.}.Z.v.[ : v.v.I.h. .@X@X@X@X@X@X@X@X@X",
"@X@X@X@X@X@X@X@X@X8.{.A.v.v.9 D 5.2.,.O.v.v.R.a.@X@X@X@X@X@X@X@X@X@X@X@X@X@X@X@X@X@X@X@X0.}.Z.v.[ : v.v.I.h. .@X@X@X@X@X@X@X@X@X",
"@X@X@X@X@X@X@X@X@X8.{.A.v.v.9 D 5.1.1.w.v.v.R.a.@X@X@X@X@X@X@X@X@X@X@X@X@X@X@X@X@X@X@X@X0.}.Z.v.[ : v.v.I.h. .@X@X@X@X@X@X@X@X@X",
"@X@X@X@X@X@X@X@X@X8.{.A.v.v.9 D 5.1.1.w.v.v.R.a.@X@X@X@X@X@X@X@X@X@X@X@X@X@X@X@X@X@X@X@X0.}.Z.v.[ : v.v.I.h. .@X@X@X@X@X@X@X@X@X",
"@X@X@X@X@X@X@X@X@X8.{.A.v.v.r :.R c.$.' v.v.R.a.@X@X@X@X@X@X@X@X@X@X@X@X@X@X@X@X@X@X@X@X0.}.Z.v.[ : v.v.I.h. .@X@X@X@X@X@X@X@X@X",
"@X@X@X@X@X@X@X@X@X8.{.A.v.v.a { j OXz.L v.v.W.s.@X@X@X@X@X@X@X@X@X@X@X@X@X@X@X@X@X@X@X@X0.}.Z.v.[ : v.v.I.h. .@X@X@X@X@X@X@X@X@X",
"@X@X@X@X@X@X@X@X@X8.{.A.v.v.y / c -.B Q v.v.E.s.@X@X@X@X@X@X@X@X@X@X@X@X@X@X@X@X@X@X@X@X0.}.Z.v.[ : v.v.I.h. .@X@X@X@X@X@X@X@X@X",
"@X@X@X@X@X@X@X@X@X8.{.A.v.v.t ^ v =.N ! v.v.E.d.@X@X@X@X@X@X@X@X@X@X@X@X@X@X@X@X@X@X@X@X0.}.Z.v.[ : v.v.I.h. .@X@X@X@X@X@X@X@X@X",
"@X@X@X@X@X@X@X@X@X8.{.A.v.v.t ^ v =.N ! v.v.E.d.@X@X@X@X@X@X@X@X@X@X@X@X@X@X@X@X@X@X@X@X0.}.Z.v.[ : v.v.I.h. .@X@X@X@X@X@X@X@X@X",
"@X@X@X@X@X@X@X@X@X8.{.A.v.v.t ^ v =.N ! v.v.E.d.@X@X@X@X@X@X@X@X@X@X@X@X@X@X@X@X@X@X@X@X0.}.Z.v.[ : v.v.I.h. .@X@X@X@X@X@X@X@X@X",
"@X@X@X@X@X@X@X@X@X8.{.A.v.v.t ^ v =.N ! v.v.E.s.@X@X@X@X@X@X@X@X@X@X@X@X@X@X@X@X@X@X@X@X0.}.Z.v.[ : v.v.I.h. .@X@X@X@X@X@X@X@X@X",
"@X@X@X@X@X@X@X@X@X8.{.A.v.v.t ^ v =.N ! v.v.E.s.@X@X@X@X@X@X@X@X@X@X@X@X@X@X@X@X@X@X@X@X0.}.Z.v.[ : v.v.I.h. .@X@X@X@X@X@X@X@X@X",
"@X@X@X@X@X@X@X@X@X8.{.A.v.v.t ^ v =.N ! v.v.E.s.@X@X@X@X@X@X@X@X@X@X@X@X@X@X@X@X@X@X@X@X0.}.Z.v.[ : v.v.I.h. .@X@X@X@X@X@X@X@X@X",
"@X@X@X@X@X@X@X@X@X8.{.A.v.v.t ^ v =.N ! v.v.E.d.@X@X@X@X@X@X@X@X@X@X@X@X@X@X@X@X@X@X@X@X0.}.Z.v.[ : v.v.I.h. .@X@X@X@X@X@X@X@X@X",
"@X@X@X@X@X@X@X@X@X8.{.A.v.v.t ^ v =.N ! v.v.E.d.@X@X@X@X@X@X@X@X@X@X@X@X@X@X@X@X@X@X@X@X0.}.Z.v.[ : v.v.I.h. .@X@X@X@X@X@X@X@X@X",
"@X@X@X@X@X@X@X@X@X8.{.A.v.v.t ^ v =.N ! v.v.U.Q.X.@X@X@X@X@X@X@X@X@X@X@X@X@X@X@X@X@X@X@Xe./.C.v.[ : v.v.I.h. .@X@X@X@X@X@X@X@X@X",
"@X@X@X@X@X@X@X@X@X8.{.A.v.v.w U d ~ O K v.v.A.XXy.9. . . . . . . . . . . . . . . . ...q.~.T.n.v.[ : v.v.I.h. .@X@X@X@X@X@X@X@X@X",
"@X@X@X@X@X@X@X@X@X8.{.A.v.v.0 F @ m X J v.v.M.P.oX^.j.j.j.j.j.j.j.j.j.j.j.j.j.j.j.j.Q.|.`.F.v.v.[ : v.v.I.h. .@X@X@X@X@X@X@X@X@X",
"@X@X@X@X@X@X@X@X@Xo.{.S.v.v., M Z S C #.v.v.v.m.F.J.P.P.P.P.P.P.P.P.P.P.P.P.P.P.P.P.L.D.V.v.v.v.[ : v.v.I.h. .@X@X@X@X@X@X@X@X@X",
"@X@X@X@X@X@X@X@X@XX.[.H.v.v.9 D 5.1.1.p.v.v.v.v.v.v.v.v.v.v.v.v.v.v.v.v.v.v.v.v.v.v.v.v.v.v.v.v.[ : v.v.Y.g. .@X@X@X@X@X@X@X@X@X",
"@X@X@X@X@X@X@X@X@X..!.L.v.v.9 D 5.1.7.@.v.v.v.v.v.v.v.v.v.v.v.v.v.v.v.v.v.v.v.v.v.v.v.v.v.v.v.v.[ : v.v.R.d.@X@X@X@X@X@X@X@X@X@X",
"@X@X@X@X@X@X@X@X@X| s.).b.v.& * 8 7 7 > ; = = = = = = = = = = = = = = = = = = = = = = = = = = - % $ v.B._.r.@X@X@X@X@X@X@X@X@X@X"
};
