/* XPM */
static char *result[] = {
/* columns rows colors chars-per-pixel */
"64 64 105 2 ",
"   c #9E176A",
".  c #9E1E6E",
"X  c #9E2773",
"o  c #9E2974",
"O  c #9E2C76",
"+  c #9CB5C4",
"@  c #B397F6",
"#  c #B89AF6",
"$  c #B99BF6",
"%  c #BA9DF6",
"&  c #BB9DF7",
"*  c #BE9FF7",
"=  c #BFA0F7",
"-  c #C1A2F7",
";  c #C2A3F7",
":  c #C4A4F7",
">  c #C5A5F7",
",  c #C6A6F7",
"<  c #C8A7F7",
"1  c #C9A8F7",
"2  c #CBAAF8",
"3  c #CDACF8",
"4  c #CEACF8",
"5  c #CFAEF8",
"6  c #D0AEF8",
"7  c #D1AFF8",
"8  c #D3B1F8",
"9  c #D5B3F8",
"0  c #D9B6F8",
"q  c #D9B7F8",
"w  c #DBB8F8",
"e  c #DCB9F8",
"r  c #DDBAF8",
"t  c #DEBBF8",
"y  c #DEBCF8",
"u  c #DFBDF8",
"i  c #E1BEF8",
"p  c #E1BFF8",
"a  c #9CDFDC",
"s  c #9DDFDC",
"d  c #9EDFDD",
"f  c #9FDFDD",
"g  c #A0DFDD",
"h  c #A1DFDE",
"j  c #A2DEDE",
"k  c #A3DEDE",
"l  c #A2DFDE",
"z  c #A4DEDE",
"x  c #A5DEDF",
"c  c #A6DEDF",
"v  c #A9DEE0",
"b  c #ABDEE1",
"n  c #ACDDE1",
"m  c #AFDDE2",
"M  c #B0DDE2",
"N  c #B1DDE3",
"B  c #B2DDE3",
"V  c #B6DDE4",
"C  c #B7DCE5",
"Z  c #BFDBE7",
"A  c #BADCE6",
"S  c #BBDCE6",
"D  c #BCDCE6",
"F  c #BDDCE6",
"G  c #BDDCE7",
"H  c #C0DBE8",
"J  c #C2DBE8",
"K  c #C4DBE9",
"L  c #C6DAEA",
"P  c #C8DAEA",
"I  c #CADAEB",
"U  c #CDD9EC",
"Y  c #CFD9EC",
"T  c #CCDAEC",
"R  c #D0D9ED",
"E  c #D2D8EE",
"W  c #D6D8EF",
"Q  c #D8D7F0",
"!  c #D9D7F0",
"~  c #DAD6F1",
"^  c #DBD6F1",
"/  c #DDD5F2",
"(  c #DED5F2",
")  c #DFD4F3",
"_  c #E7CAF7",
"`  c #E7CBF7",
"'  c #E7CDF7",
"]  c #E7CEF6",
"[  c #E6CFF6",
"{  c #E7CFF6",
"}  c #E8CBF7",
"|  c #E3C1F8",
" . c #E4C3F8",
".. c #E5C4F8",
"X. c #E5C5F8",
"o. c #E6C6F8",
"O. c #E6C7F8",
"+. c #E7C8F8",
"@. c #E0D4F3",
"#. c #E3D2F4",
"$. c #E5D0F5",
"%. c #E4D1F5",
"&. c #E5D1F5",
"*. c #E4D2F5",
"=. c None",
/* pixels */
"=.=.=.=.=.=.# 2 t ` ( K v s   . o X X X X X X X X X X X X X X X X X X X X X X X X X X X X X X o .   s v K ( ` t 2 # =.=.=.=.=.=.",
"=.=.=.=.=.=.& 6 | { W C h a O + a a a a a a a a a a a a a a a a a a a a a a a a a a a a a a a a + O a h C W { | 6 & =.=.=.=.=.=.",
"=.=.=.=.=.=.= 9 X.*.U n a a O + a a a a a a a a a a a a a a a a a a a a a a a a a a a a a a a a + O a a n U *.X.9 = =.=.=.=.=.=.",
"=.=.=.=.=.=.; 0 +.@.L c a a O + a a a a a a a a f j z x x x x x x x x x x z j f a a a a a a a a + O a a c L @.+.0 ; =.=.=.=.=.=.",
"=.=.=.=.=.=.: w _ / H k a a O + a a a a a a g c M C F Z H H H H H H H H Z F C M c g a a a a a a + O a a k H / _ w : =.=.=.=.=.=.",
"=.=.=.=.=.=., r } ^ F h a a O + a a a a a j m G I E Q ~ ^ ^ ^ ^ ^ ^ ^ ^ ~ Q E I G m j a a a a a + O a a h F ^ } r , =.=.=.=.=.=.",
"=.=.=.=.=.=.< t ' ! A g a a O + a a a a j B L W ) &.] ' ' ' ' ' ' ' ' ' ' ] &.) W L B j a a a a + O a a g A ! ' t < =.=.=.=.=.=.",
"=.=.=.=.=.=.< t ' ! A g a a O + a a a g M P ^ $._ ..p u y y y y y y y y u p .._ $.^ P M g a a a + O a a g A ! ' t < =.=.=.=.=.=.",
"=.=.=.=.=.=.< t ' ! S h a a O + a a s v J ~ [ o.y 9 3 1 1 1 1 1 1 1 1 1 1 3 9 y o.[ ~ J v s a a + O a a h S ! ' t < =.=.=.=.=.=.",
"=.=.=.=.=.=.< t ' ! S l a a O + a a h V R *.O.e 4 - $ @ =.=.=.=.=.=.=.=.@ $ - 4 e O.*.R V h a a + O a a l S ! ' t < =.=.=.=.=.=.",
"=.=.=.=.=.=.< t ' ! D j a a O + a a c H ^ ' i 5 * =.=.=.=.=.=.=.=.=.=.=.=.=.=.* 5 i ' ^ H c a a + O a a j D ! ' t < =.=.=.=.=.=.",
"=.=.=.=.=.=.< t ' ! D j a a O + a a b P @.+.q > =.=.=.=.=.=.=.=.=.=.=.=.=.=.=.=.> q +.@.P b a a + O a a j D ! ' t < =.=.=.=.=.=.",
"=.=.=.=.=.=.< t ' ! F k a a O + a d m T #...8 * =.=.=.=.=.=.=.=.=.=.=.=.=.=.=.=.* 8 ..#.T m d a + O a a k F ! ' t < =.=.=.=.=.=.",
"=.=.=.=.=.=.< t ' ! F k a a O + a d N Y %. .7 % =.=.=.=.=.=.=.=.=.=.=.=.=.=.=.=.% 7  .%.Y N d a + O a a k F ! ' t < =.=.=.=.=.=.",
"=.=.=.=.=.=.< t ' ! F k a a O + a d N Y %. .7 % =.=.=.=.=.=.=.=.=.=.=.=.=.=.=.=.% 7  .%.Y N d a + O a a k F ! ' t < =.=.=.=.=.=.",
"=.=.=.=.=.=.< t ' ! F k a a O + a d N Y %. .7 % =.=.=.=.=.=.=.=.=.=.=.=.=.=.=.=.% 7  .%.Y N d a + O a a k F ! ' t < =.=.=.=.=.=.",
"=.=.=.=.=.=.< t ' ! F k a a O + a d N Y %. .7 % =.=.=.=.=.=.=.=.=.=.=.=.=.=.=.=.% 7  .%.Y N d a + O a a k F ! ' t < =.=.=.=.=.=.",
"=.=.=.=.=.=.< t ' ! F k a a O + a d N Y %. .7 % =.=.=.=.=.=.=.=.=.=.=.=.=.=.=.=.% 7  .%.Y N d a + O a a k F ! ' t < =.=.=.=.=.=.",
"=.=.=.=.=.=.< t ' ! F k a a O + a d N Y %. .7 % =.=.=.=.=.=.=.=.=.=.=.=.=.=.=.=.% 7  .%.Y N d a + O a a k F ! ' t < =.=.=.=.=.=.",
"=.=.=.=.=.=.< t ' ! F k a a O + a d N Y %. .7 % =.=.=.=.=.=.=.=.=.=.=.=.=.=.=.=.% 7  .%.Y N d a + O a a k F ! ' t < =.=.=.=.=.=.",
"=.=.=.=.=.=.< t ' ! F k a a O + a d N Y %. .7 % =.=.=.=.=.=.=.=.=.=.=.=.=.=.=.=.% 7  .%.Y N d a + O a a k F ! ' t < =.=.=.=.=.=.",
"=.=.=.=.=.=.< t ' ! F k a a O + a d N Y %. .7 % =.=.=.=.=.=.=.=.=.=.=.=.=.=.=.=.% 7  .%.Y N d a + O a a k F ! ' t < =.=.=.=.=.=.",
"=.=.=.=.=.=.< t ' ! F k a a O + a d N Y %. .7 % =.=.=.=.=.=.=.=.=.=.=.=.=.=.=.=.% 7  .%.Y N d a + O a a k F ! ' t < =.=.=.=.=.=.",
"=.=.=.=.=.=.< t ' ! F k a a O + a d N Y %. .7 % =.=.=.=.=.=.=.=.=.=.=.=.=.=.=.=.% 7  .%.Y N d a + O a a k F ! ' t < =.=.=.=.=.=.",
"=.=.=.=.=.=.< t ' ! F k a a O + a d N Y %. .7 % =.=.=.=.=.=.=.=.=.=.=.=.=.=.=.=.% 7  .%.Y N d a + O a a k F ! ' t < =.=.=.=.=.=.",
"=.=.=.=.=.=.< t ' ! F k a a O + a d N Y %. .7 % =.=.=.=.=.=.=.=.=.=.=.=.=.=.=.=.% 7  .%.Y N d a + O a a k F ! ' t < =.=.=.=.=.=.",
"=.=.=.=.=.=.< t ' ! F k a a O + a d N Y %. .7 % =.=.=.=.=.=.=.=.=.=.=.=.=.=.=.=.% 7  .%.Y N d a + O a a k F ! ' t < =.=.=.=.=.=.",
"=.=.=.=.=.=.< t ' ! F k a a O + a d N Y %. .7 % =.=.=.=.=.=.=.=.=.=.=.=.=.=.=.=.% 7  .%.Y N d a + O a a k F ! ' t < =.=.=.=.=.=.",
"=.=.=.=.=.=.< t ' ! F k a a O + a d N Y %. .7 % =.=.=.=.=.=.=.=.=.=.=.=.=.=.=.=.% 7  .%.Y N d a + O a a k F ! ' t < =.=.=.=.=.=.",
"=.=.=.=.=.=.< t ' ! F k a a O + a d N Y %. .7 % =.=.=.=.=.=.=.=.=.=.=.=.=.=.=.=.% 7  .%.Y N d a + O a a k F ! ' t < =.=.=.=.=.=.",
"=.=.=.=.=.=.< t ' ! F k a a O + a d N Y %. .7 % =.=.=.=.=.=.=.=.=.=.=.=.=.=.=.=.% 7  .%.Y N d a + O a a k F ! ' t < =.=.=.=.=.=.",
"=.=.=.=.=.=.< t ' ! F k a a O + a d N Y %. .7 % =.=.=.=.=.=.=.=.=.=.=.=.=.=.=.=.% 7  .%.Y N d a + O a a k F ! ' t < =.=.=.=.=.=.",
"=.=.=.=.=.=.< t ' ! F k a a O + a d N Y %. .7 % =.=.=.=.=.=.=.=.=.=.=.=.=.=.=.=.% 7  .%.Y N d a + O a a k F ! ' t < =.=.=.=.=.=.",
"=.=.=.=.=.=.< t ' ! F k a a O + a d N Y %. .7 % =.=.=.=.=.=.=.=.=.=.=.=.=.=.=.=.% 7  .%.Y N d a + O a a k F ! ' t < =.=.=.=.=.=.",
"=.=.=.=.=.=.< t ' ! F k a a O + a d N Y %. .7 % =.=.=.=.=.=.=.=.=.=.=.=.=.=.=.=.% 7  .%.Y N d a + O a a k F ! ' t < =.=.=.=.=.=.",
"=.=.=.=.=.=.< t ' ! F k a a O + a d N Y %. .7 % =.=.=.=.=.=.=.=.=.=.=.=.=.=.=.=.% 7  .%.Y N d a + O a a k F ! ' t < =.=.=.=.=.=.",
"=.=.=.=.=.=.< t ' ! F k a a O + a d N Y %. .7 % =.=.=.=.=.=.=.=.=.=.=.=.=.=.=.=.% 7  .%.Y N d a + O a a k F ! ' t < =.=.=.=.=.=.",
"=.=.=.=.=.=.< t ' ! F k a a O + a d N Y %. .7 % =.=.=.=.=.=.=.=.=.=.=.=.=.=.=.=.% 7  .%.Y N d a + O a a k F ! ' t < =.=.=.=.=.=.",
"=.=.=.=.=.=.< t ' ! F k a a O + a d N Y %. .7 % =.=.=.=.=.=.=.=.=.=.=.=.=.=.=.=.% 7  .%.Y N d a + O a a k F ! ' t < =.=.=.=.=.=.",
"=.=.=.=.=.=.< t ' ! F k a a O + a d N Y %. .7 % =.=.=.=.=.=.=.=.=.=.=.=.=.=.=.=.% 7  .%.Y N d a + O a a k F ! ' t < =.=.=.=.=.=.",
"=.=.=.=.=.=.< t ' ! F k a a O + a d N Y %. .7 % =.=.=.=.=.=.=.=.=.=.=.=.=.=.=.=.% 7  .%.Y N d a + O a a k F ! ' t < =.=.=.=.=.=.",
"=.=.=.=.=.=.< t ' ! F k a a O + a d N Y %. .7 % =.=.=.=.=.=.=.=.=.=.=.=.=.=.=.=.% 7  .%.Y N d a + O a a k F ! ' t < =.=.=.=.=.=.",
"=.=.=.=.=.=.< t ' ! F k a a O + a d N Y %. .7 % =.=.=.=.=.=.=.=.=.=.=.=.=.=.=.=.% 7  .%.Y N d a + O a a k F ! ' t < =.=.=.=.=.=.",
"=.=.=.=.=.=.< t ' ! F k a a O + a d N Y %. .7 % =.=.=.=.=.=.=.=.=.=.=.=.=.=.=.=.% 7  .%.Y N d a + O a a k F ! ' t < =.=.=.=.=.=.",
"=.=.=.=.=.=.< t ' ! F k a a O + a d N Y %. .7 % =.=.=.=.=.=.=.=.=.=.=.=.=.=.=.=.% 7  .%.Y N d a + O a a k F ! ' t < =.=.=.=.=.=.",
"=.=.=.=.=.=.< t ' ! F k a a O + a d N Y %. .7 % =.=.=.=.=.=.=.=.=.=.=.=.=.=.=.=.% 7  .%.Y N d a + O a a k F ! ' t < =.=.=.=.=.=.",
"=.=.=.=.=.=.< t ' ! F k a a O + a d N Y %. .7 % =.=.=.=.=.=.=.=.=.=.=.=.=.=.=.=.% 7  .%.Y N d a + O a a k F ! ' t < =.=.=.=.=.=.",
"=.=.=.=.=.=.< t ' ! F k a a O + a d N Y %. .7 % =.=.=.=.=.=.=.=.=.=.=.=.=.=.=.=.% 7  .%.Y N d a + O a a k F ! ' t < =.=.=.=.=.=.",
"=.=.=.=.=.=.< t ' ! F k a a O + a d N Y %. .7 % =.=.=.=.=.=.=.=.=.=.=.=.=.=.=.=.% 7  .%.Y N d a + O a a k F ! ' t < =.=.=.=.=.=.",
"=.=.=.=.=.=.< t ' ! F k a a O + a d N Y %. .7 % =.=.=.=.=.=.=.=.=.=.=.=.=.=.=.=.% 7  .%.Y N d a + O a a k F ! ' t < =.=.=.=.=.=.",
"=.=.=.=.=.=.< t ' ! F k a a O + a d N Y %. .7 % =.=.=.=.=.=.=.=.=.=.=.=.=.=.=.=.% 7  .%.Y N d a + O a a k F ! ' t < =.=.=.=.=.=.",
"=.=.=.=.=.=.< t ' ! F k a a O + a d m T #...8 * =.=.=.=.=.=.=.=.=.=.=.=.=.=.=.=.* 8 ..#.T m d a + O a a k F ! ' t < =.=.=.=.=.=.",
"=.=.=.=.=.=.< t ' ! D j a a O + a a b P @.+.q > =.=.=.=.=.=.=.=.=.=.=.=.=.=.=.=.> q +.@.P b a a + O a a j D ! ' t < =.=.=.=.=.=.",
"=.=.=.=.=.=.< t ' ! D j a a O + a a c H ^ ' i 5 * =.=.=.=.=.=.=.=.=.=.=.=.=.=.* 5 i ' ^ H c a a + O a a j D ! ' t < =.=.=.=.=.=.",
"=.=.=.=.=.=.< t ' ! S l a a O + a a h V R *.O.e 4 - $ @ =.=.=.=.=.=.=.=.@ $ - 4 e O.*.R V h a a + O a a l S ! ' t < =.=.=.=.=.=.",
"=.=.=.=.=.=.< t ' ! S h a a O + a a s v J ~ [ o.y 9 3 1 1 1 1 1 1 1 1 1 1 3 9 y o.[ ~ J v s a a + O a a h S ! ' t < =.=.=.=.=.=.",
"=.=.=.=.=.=.< t ' ! A g a a O + a a a g M P ^ $._ ..p u y y y y y y y y u p .._ $.^ P M g a a a + O a a g A ! ' t < =.=.=.=.=.=.",
"=.=.=.=.=.=.< t ' ! A g a a O + a a a a j B L W ) &.] ' ' ' ' ' ' ' ' ' ' ] &.) W L B j a a a a + O a a g A ! ' t < =.=.=.=.=.=.",
"=.=.=.=.=.=., r } ^ F h a a O + a a a a a j m G I E Q ~ ^ ^ ^ ^ ^ ^ ^ ^ ~ Q E I G m j a a a a a + O a a h F ^ } r , =.=.=.=.=.=.",
"=.=.=.=.=.=.: w _ / H k a a O + a a a a a a g c M C F Z H H H H H H H H Z F C M c g a a a a a a + O a a k H / _ w : =.=.=.=.=.=.",
"=.=.=.=.=.=.; 0 +.@.L c a a O + a a a a a a a a f j z x x x x x x x x x x z j f a a a a a a a a + O a a c L @.+.0 ; =.=.=.=.=.=.",
"=.=.=.=.=.=.= 9 X.*.U n a a O + a a a a a a a a a a a a a a a a a a a a a a a a a a a a a a a a + O a a n U *.X.9 = =.=.=.=.=.=.",
"=.=.=.=.=.=.& 6 | { W C h a O + a a a a a a a a a a a a a a a a a a a a a a a a a a a a a a a a + O a h C W { | 6 & =.=.=.=.=.=.",
"=.=.=.=.=.=.# 2 t ` ( K v s   . o X X X X X X X X X X X X X X X X X X X X X X X X X X X X X X o .   s v K ( ` t 2 # =.=.=.=.=.=."
};
