/* XPM */
static char *result[] = {
/* columns rows colors chars-per-pixel */
"64 64 152 2 ",
"   c #521C3D",
".  c #483038",
"X  c #7B6E00",
"o  c #551E41",
"O  c #572243",
"+  c #5F2A4C",
"@  c #5A2546",
"#  c #4F3741",
"$  c #4F3842",
"%  c #573447",
"&  c #5A3149",
"*  c #513A44",
"=  c #602D4E",
"-  c #613351",
";  c #663C58",
":  c #613A54",
">  c #6F3A60",
",  c #713762",
"<  c #723A63",
"1  c #6D435F",
"2  c #67505C",
"3  c #704263",
"4  c #79446D",
"5  c #784A6C",
"6  c #745C6B",
"7  c #7A4770",
"8  c #7E4D74",
"9  c #7C5373",
"0  c #7F5578",
"q  c #9F0C64",
"w  c #9F1167",
"e  c #9F176A",
"r  c #9F196C",
"t  c #A81170",
"y  c #A81B75",
"u  c #AD1778",
"i  c #B01F7E",
"p  c #B1207F",
"a  c #824977",
"s  c #805376",
"d  c #875F7C",
"f  c #82537A",
"g  c #BCA405",
"h  c #DB9750",
"j  c #E5BA50",
"k  c #B72487",
"l  c #875A80",
"z  c #935B8D",
"x  c #93548D",
"c  c #9A5C95",
"v  c #9D5D98",
"b  c #8F6685",
"n  c #8E778A",
"m  c #976A92",
"M  c #9F749A",
"N  c #B56C94",
"B  c #A666A3",
"V  c #B06EAE",
"C  c #AA74A7",
"Z  c #AC79AA",
"A  c #B567B1",
"S  c #BB67B7",
"D  c #B56AB1",
"F  c #B86DB5",
"G  c #BD67B9",
"H  c #BE6CBB",
"J  c #B574B2",
"K  c #D87F9C",
"L  c #C070BE",
"P  c #CC72BA",
"I  c #C274C1",
"U  c #CB75CA",
"Y  c #D57DD6",
"T  c #DC7BDC",
"R  c #E37DD7",
"E  c #DF7EE0",
"W  c #EE76E9",
"Q  c #E97FEB",
"!  c #F071EB",
"~  c #F577F0",
"^  c #978391",
"/  c #9D8999",
"(  c #AF85AA",
")  c #AE8AAB",
"_  c #B187AF",
"`  c #AD97A8",
"'  c #B68DB4",
"]  c #BF9EBE",
"[  c #B594B3",
"{  c #D8888B",
"}  c #DE8D84",
"|  c #E986AF",
" . c #CB8ECA",
".. c #C89FC7",
"X. c #DA99DD",
"o. c #CDA2CC",
"O. c #D8ACDB",
"+. c #D6BCD7",
"@. c #DCB3DE",
"#. c #DBBBDC",
"$. c #DF80E1",
"%. c #E081E2",
"&. c #E687E9",
"*. c #EB84ED",
"=. c #E79CE9",
"-. c #EC9BEE",
";. c #EA92EC",
":. c #EE8CF0",
">. c #F683FF",
",. c #F985FD",
"<. c #FF8CFF",
"1. c #EE92F0",
"2. c #E899F6",
"3. c #E99AF8",
"4. c #F194F3",
"5. c #F19AF6",
"6. c #F497F8",
"7. c #F69BFB",
"8. c #FA9DFE",
"9. c #DFA0E0",
"0. c #DEA9E0",
"q. c #DFB5E0",
"w. c #E1A6E2",
"e. c #E3ACE5",
"r. c #E7A7E9",
"t. c #E6A8E8",
"y. c #E8A9EA",
"u. c #E1B2E2",
"i. c #E5BDE7",
"p. c #E6B3E8",
"a. c #E7BFE9",
"s. c #EDBDEF",
"d. c #EDA1F0",
"f. c #EFAEF1",
"g. c #EDA8F8",
"h. c #FBA3FF",
"j. c #F7A8FB",
"k. c #EEB7F1",
"l. c #F4BFF8",
"z. c #D7C0D9",
"x. c #DCC3DE",
"c. c #D3C1D5",
"v. c #DFC3E1",
"b. c #E1C2E3",
"n. c #EAC1ED",
"m. c #F1C0F4",
"M. c #F6C2F9",
"N. c #FAC4FD",
"B. c #FECAFF",
"V. c #F4CAF8",
"C. c #FFD2FF",
"Z. c None",
/* pixels */
"Z.Z.Z.Z.Z.Z.Z.Z.Z.Z.Z.Z.Z.Z.t u i i i i i i i i i i i i i i i p p i i i i i i i p y r r r r e r w q Z.Z.Z.Z.Z.Z.Z.Z.Z.Z.Z.Z.Z.Z.",
"Z.Z.Z.Z.Z.Z.Z.Z.Z.Z.Z.Z.Z.Z.k W 6.,.,.,.,.,.,.,.,.,.:.,.,.,.,.:.,.,.,.,.,.,.4.,.,.g.Z.Z.Z.Z.Z.Z.Z.r Z.Z.Z.Z.Z.Z.Z.Z.Z.Z.Z.Z.Z.Z.",
"Z.Z.Z.Z.Z.Z.Z.Z.Z.Z.Z.Z.Z.Z.k W <.,.,.,.,.,.,.,.,.,.,.,.,.,.,.,.,.,.,.,.,.,.,.,.,.2.Z.Z.Z.Z.Z.Z.Z.r Z.Z.Z.Z.Z.Z.Z.Z.Z.Z.Z.Z.Z.Z.",
"Z.Z.Z.Z.Z.Z.Z.Z.Z.Z.Z.Z.Z.Z.k W <.,.,.,.,.,.,.,.,.,.,.,.,.,.,.,.,.,.,.,.,.,.,.,.,.3.Z.Z.Z.Z.Z.Z.Z.r Z.Z.Z.Z.Z.Z.Z.Z.Z.Z.Z.Z.Z.Z.",
"Z.Z.Z.Z.Z.Z.Z.Z.Z.Z.Z.Z.Z.Z.k W <.,.,.,.,.,.,.,.,.,.,.,.,.,.,.,.,.,.,.,.,.,.,.,.,.3.Z.Z.Z.Z.Z.Z.Z.r Z.Z.Z.Z.Z.Z.Z.Z.Z.Z.Z.Z.Z.Z.",
"Z.Z.Z.Z.Z.Z.Z.Z.Z.Z.Z.Z.Z.Z.k W ,.,.,.,.,.,.,.,.,.,.,.,.,.<.,.,.,.,.,.,.,.,.,.,.,.3.Z.Z.Z.Z.Z.Z.Z.r Z.Z.Z.Z.Z.Z.Z.Z.Z.Z.Z.Z.Z.Z.",
"Z.Z.Z.Z.Z.Z.Z.Z.Z.Z.Z.Z.Z.Z.k ! 5.c.s.a.b.b.a.n.#.) U ,.,.=.+.s.b.a.b.a.b.V./ H ,.3.Z.Z.Z.Z.Z.Z.Z.r Z.Z.Z.Z.Z.Z.Z.Z.Z.Z.Z.Z.Z.Z.",
"Z.Z.Z.Z.Z.Z.Z.Z.Z.Z.Z.Z.Z.Z.k ! 1.z.M.M.M.M.M.B.o.d Y ,.,.4.@.a.N.M.M.M.M.C.n J <.3.Z.Z.Z.Z.Z.Z.Z.r Z.Z.Z.Z.Z.Z.Z.Z.Z.Z.Z.Z.Z.Z.",
"Z.Z.Z.Z.Z.Z.Z.Z.Z.Z.Z.Z.Z.Z.k ! 7.x.m.M.M.M.M.C.' > %.<.~ 4.q.n.N.l.M.M.B.@.2 A ,.3.Z.Z.Z.Z.Z.Z.Z.r Z.Z.Z.Z.Z.Z.Z.Z.Z.Z.Z.Z.Z.Z.",
"Z.Z.Z.Z.Z.Z.Z.Z.Z.Z.Z.Z.Z.Z.k ! 7.b.u.p.p.p.s.O.9 < %.,.,.1.s.s.q.p.p.p.l._ . G <.3.Z.Z.Z.Z.Z.Z.Z.r Z.Z.Z.Z.Z.Z.Z.Z.Z.Z.Z.Z.Z.Z.",
"Z.Z.Z.Z.Z.Z.Z.Z.Z.Z.Z.Z.Z.Z.k ! 7.b.5.,.,.,.<.*.8 ; %.<.,.4.s.k.:.,.,.,.<.A . S <.3.Z.Z.Z.Z.Z.Z.Z.r Z.Z.Z.Z.Z.Z.Z.Z.Z.Z.Z.Z.Z.Z.",
"Z.Z.Z.Z.Z.Z.Z.Z.Z.Z.Z.Z.Z.Z.k ! 7.b.-.~ ,.,.,.*.a < %.<.~ 4.s.k.:.,.,.,.<.V . S <.3.Z.Z.Z.Z.Z.Z.Z.r Z.Z.Z.Z.Z.Z.Z.Z.Z.Z.Z.Z.Z.Z.",
"Z.Z.Z.Z.Z.Z.Z.Z.Z.Z.Z.Z.Z.Z.k ! 7.b.-.,.,.,.<.*.a > %.,.~ 6.s.k.:.,.,.,.<.D . S <.d.Z.Z.Z.Z.Z.Z.Z.r Z.Z.Z.Z.Z.Z.Z.Z.Z.Z.Z.Z.Z.Z.",
"Z.Z.Z.Z.Z.Z.Z.Z.Z.Z.Z.Z.Z.Z.k ! 7.b.-.,.,.,.,.*.a < &.,.,.4.l.k.:.,.,.,.<.D . S <.2.Z.Z.Z.Z.Z.Z.Z.r Z.Z.Z.Z.Z.Z.Z.Z.Z.Z.Z.Z.Z.Z.",
"Z.Z.Z.Z.Z.Z.Z.Z.Z.Z.Z.Z.Z.Z.k ! 7.b.-.,.,.,.<.*.a > %.,.,.4.s.k.:.,.,.,.<.D . S <.3.Z.Z.Z.Z.Z.Z.Z.r Z.Z.Z.Z.Z.Z.Z.Z.Z.Z.Z.Z.Z.Z.",
"Z.Z.Z.Z.Z.Z.Z.Z.Z.Z.Z.Z.Z.Z.k ! 7.b.-.,.<.,.,.*.a > %.<.~ 4.s.k.:.~ ,.,.<.D . S <.d.Z.Z.Z.Z.Z.Z.Z.r Z.Z.Z.Z.Z.Z.Z.Z.Z.Z.Z.Z.Z.Z.",
"Z.Z.Z.Z.Z.Z.Z.Z.Z.Z.Z.Z.Z.Z.k ! 7.b.3.,.,.,.<.*.a < %.<.,.4.s.k.:.,.,.,.<.A . S <.2.Z.Z.Z.Z.Z.Z.Z.r Z.Z.Z.Z.Z.Z.Z.Z.Z.Z.Z.Z.Z.Z.",
"Z.Z.Z.Z.Z.Z.Z.Z.Z.Z.Z.Z.Z.Z.k ! 7.b.5.~ ,.,.,.*.a < %.,.~ 4.s.k.:.,.,.,.<.A . S <.3.Z.Z.Z.Z.Z.Z.Z.r Z.Z.Z.Z.Z.Z.Z.Z.Z.Z.Z.Z.Z.Z.",
"Z.Z.Z.Z.Z.Z.Z.Z.Z.Z.Z.Z.Z.Z.k ! 7.b.-.,.,.,.<.*.a ; %.<.,.4.s.k.:.,.,.,.<.V . S <.d.Z.Z.Z.Z.Z.Z.Z.r Z.Z.Z.Z.Z.Z.Z.Z.Z.Z.Z.Z.Z.Z.",
"Z.Z.Z.Z.Z.Z.Z.Z.Z.Z.Z.Z.Z.Z.k ! 7.b.-.,.,.,.,.*.a < %.<.,.4.s.k.:.,.,.,.<.A . G <.3.Z.Z.Z.Z.Z.Z.Z.r Z.Z.Z.Z.Z.Z.Z.Z.Z.Z.Z.Z.Z.Z.",
"Z.Z.Z.Z.Z.Z.Z.Z.Z.Z.Z.Z.Z.Z.k ! 7.b.1.,.,.,.<.*.a > %.,.,.1.s.k.:.,.,.,.<.V . G <.3.Z.Z.Z.Z.Z.Z.Z.r Z.Z.Z.Z.Z.Z.Z.Z.Z.Z.Z.Z.Z.Z.",
"Z.Z.Z.Z.Z.Z.Z.Z.Z.Z.Z.Z.Z.Z.k ! 7.b.-.,.<.,.,.*.a > %.<.~ 1.s.k.:.,.,.,.<.D . G <.d.Z.Z.Z.Z.Z.Z.Z.r Z.Z.Z.Z.Z.Z.Z.Z.Z.Z.Z.Z.Z.Z.",
"Z.Z.Z.Z.Z.Z.Z.Z.Z.Z.Z.Z.Z.Z.k ! 7.b.-.,.,.,.<.*.a < %.,.,.4.s.k.:.,.,.,.<.D . H <.2.Z.Z.Z.Z.Z.Z.Z.r Z.Z.Z.Z.Z.Z.Z.Z.Z.Z.Z.Z.Z.Z.",
"Z.Z.Z.Z.Z.Z.Z.Z.Z.Z.Z.Z.Z.Z.k ! 7.b.-.,.,.,.<.*.a < %.,.,.4.s.k.:.,.,.,.<.D . F <.3.Z.Z.Z.Z.Z.Z.Z.r Z.Z.Z.Z.Z.Z.Z.Z.Z.Z.Z.Z.Z.Z.",
"Z.Z.Z.Z.Z.Z.Z.Z.Z.Z.Z.Z.Z.Z.k ! 7.b.3.,.,.,.<.*.a < %.,.~ 6.l.k.:.,.,.,.<.D . S <.d.Z.Z.Z.Z.Z.Z.Z.r Z.Z.Z.Z.Z.Z.Z.Z.Z.Z.Z.Z.Z.Z.",
"Z.Z.Z.Z.Z.Z.Z.Z.Z.Z.Z.Z.Z.Z.k ! 7.b.-.,.,.,.<.*.a ; %.<.,.4.s.k.,.~ ,.,.<.D . S <.2.Z.Z.Z.Z.Z.Z.Z.r Z.Z.Z.Z.Z.Z.Z.Z.Z.Z.Z.Z.Z.Z.",
"Z.Z.Z.Z.Z.Z.Z.Z.Z.Z.Z.Z.Z.Z.k ! 7.b.-.,.,.,.,.*.a ; %.<.~ 6.s.k.1.,.,.,.<.A . S <.3.Z.Z.Z.Z.Z.Z.Z.r Z.Z.Z.Z.Z.Z.Z.Z.Z.Z.Z.Z.Z.Z.",
"Z.Z.Z.Z.Z.Z.Z.Z.Z.Z.Z.Z.Z.Z.k ! 7.b.5.~ ,.,.<.*.a < %.<.,.4.s.k.:.,.,.,.<.D . S <.3.Z.Z.Z.Z.Z.Z.Z.r Z.Z.Z.Z.Z.Z.Z.Z.Z.Z.Z.Z.Z.Z.",
"Z.Z.Z.Z.Z.Z.Z.Z.Z.Z.Z.Z.Z.Z.k ! 7.b.-.,.,.,.<.*.a < %.,.,.4.s.k.:.,.,.,.<.V . G <.d.Z.Z.Z.Z.Z.Z.Z.r Z.Z.Z.Z.Z.Z.Z.Z.Z.Z.Z.Z.Z.Z.",
"Z.Z.Z.Z.Z.Z.Z.Z.Z.Z.Z.Z.Z.Z.k ! 7.b.5.,.,.,.<.*.a < %.<.,.4.s.k.:.,.,.,.<.D . G <.2.Z.Z.Z.Z.Z.Z.Z.r Z.Z.Z.Z.Z.Z.Z.Z.Z.Z.Z.Z.Z.Z.",
"Z.Z.Z.Z.Z.Z.Z.Z.Z.Z.Z.Z.Z.Z.k ! 7.b.5.~ ,.,.,.*.a < %.<.~ 4.s.k.:.,.,.,.<.V . G <.3.Z.Z.Z.Z.Z.Z.Z.r Z.Z.Z.Z.Z.Z.Z.Z.Z.Z.Z.Z.Z.Z.",
"Z.Z.Z.Z.Z.Z.Z.Z.Z.Z.Z.Z.Z.Z.k ! 8.b. .V F F L V 3 < %.,.,.4.l.u.J D F S I z . G <.3.Z.Z.Z.Z.Z.Z.Z.r Z.Z.Z.Z.Z.Z.Z.Z.Z.Z.Z.Z.Z.Z.",
"Z.Z.Z.Z.Z.Z.Z.Z.Z.Z.Z.Z.Z.Z.k ! 7.+.d O = = + - % 7 %.<.,.1.V.( O = = = = ; $ G <.3.Z.Z.Z.Z.Z.Z.Z.r Z.Z.Z.Z.Z.Z.Z.Z.Z.Z.Z.Z.Z.Z.",
"Z.Z.Z.Z.Z.Z.Z.Z.Z.Z.Z.Z.Z.Z.k ! h.`   = = = = + & f R <.,.4.i.b   = = = = = . L <.2.Z.Z.Z.Z.Z.Z.Z.r Z.Z.Z.Z.Z.Z.Z.Z.Z.Z.Z.Z.Z.Z.",
"Z.Z.Z.Z.Z.Z.Z.Z.Z.Z.Z.Z.Z.Z.k ~ 5.^ o = = = + + & 0 %.,.~ 7.[ 1 @ = = = = = * I <.3.Z.Z.Z.Z.Z.Z.Z.r Z.Z.Z.Z.Z.Z.Z.Z.Z.Z.Z.Z.Z.Z.",
"Z.Z.Z.Z.Z.Z.Z.Z.Z.Z.Z.Z.Z.Z.k ~ &.m c c c c c m z c R ,.,.4.Z z c c c c c v s U <.3.Z.Z.Z.Z.Z.Z.Z.r Z.Z.Z.Z.Z.Z.Z.Z.Z.Z.Z.Z.Z.Z.",
"Z.Z.Z.Z.Z.Z.Z.Z.Z.Z.Z.Z.Z.Z.k W ,.,.,.,.,.,.,.,.,.,.,.,.,.,.,.,.,.,.,.,.,.,.,.,.,.2.Z.Z.Z.Z.Z.Z.Z.r Z.Z.Z.Z.Z.Z.Z.Z.Z.Z.Z.Z.Z.Z.",
"Z.Z.Z.Z.Z.Z.Z.Z.Z.Z.Z.Z.Z.Z.k W <.,.,.,.,.<.,.,.,.,.,.,.,.,.,.,.,.,.,.4.,.,.,.,.,.2.Z.Z.Z.Z.Z.Z.Z.r Z.Z.Z.Z.Z.Z.Z.Z.Z.Z.Z.Z.Z.Z.",
"Z.Z.Z.Z.Z.Z.Z.Z.Z.Z.Z.Z.Z.Z.k W <.,.,.,.,.,.,.:.,.,.,.,.,.,.,.,.,.,.,.,.,.,.,.,.,.3.Z.Z.Z.Z.Z.Z.Z.r Z.Z.Z.Z.Z.Z.Z.Z.Z.Z.Z.Z.Z.Z.",
"Z.Z.Z.Z.Z.Z.Z.Z.Z.Z.Z.Z.Z.Z.k W <.,.,.,.,.,.,.,.,.,.,.,.:.,.,.,.,.,.,.,.,.,.,.,.,.3.Z.Z.Z.Z.Z.Z.Z.r Z.Z.Z.Z.Z.Z.Z.Z.Z.Z.Z.Z.Z.Z.",
"Z.Z.Z.Z.Z.Z.Z.Z.Z.Z.Z.Z.Z.Z.k W ,.,.,.,.,.,.,.,.,.,.,.,.,.,.,.,.,.,.,.,.,.} { ,.,.3.Z.Z.Z.Z.Z.Z.Z.r Z.Z.Z.Z.Z.Z.Z.Z.Z.Z.Z.Z.Z.Z.",
"Z.Z.Z.Z.Z.Z.Z.Z.Z.Z.Z.Z.Z.Z.k W <.,.,.,.,.,.,.,.,.,.,.,.4.,.,.,.,.,.,.,.| j g { ,.3.Z.Z.Z.Z.Z.Z.Z.r Z.Z.Z.Z.Z.Z.Z.Z.Z.Z.Z.Z.Z.Z.",
"Z.Z.Z.Z.Z.Z.Z.Z.Z.Z.Z.Z.Z.Z.k W 6.,.,.,.,.,.,.,.,.,.,.,.,.,.,.,.,.,.,.,.,.h X N ,.3.Z.Z.Z.Z.Z.Z.Z.r Z.Z.Z.Z.Z.Z.Z.Z.Z.Z.Z.Z.Z.Z.",
"Z.Z.Z.Z.Z.Z.Z.Z.Z.Z.Z.Z.Z.Z.k W ,.,.,.,.,.,.6.,.,.,.,.,.,.,.,.,.,.,.,.,.,.R P *.,.3.Z.Z.Z.Z.Z.Z.Z.r Z.Z.Z.Z.Z.Z.Z.Z.Z.Z.Z.Z.Z.Z.",
"Z.Z.Z.Z.Z.Z.Z.Z.Z.Z.Z.Z.Z.Z.k W <.,.,.,.,.,.,.,.,.,.,.,.,.,.,.,.4.,.,.,.,.,.,.,.,.3.Z.Z.Z.Z.Z.Z.Z.r Z.Z.Z.Z.Z.Z.Z.Z.Z.Z.Z.Z.Z.Z.",
"Z.Z.Z.Z.Z.Z.Z.Z.Z.Z.Z.Z.Z.Z.k W <.,.,.,.,.,.,.:.,.,.,.,.,.,.,.,.,.,.,.,.,.,.,.,.,.3.Z.Z.Z.Z.Z.Z.Z.r Z.Z.Z.Z.Z.Z.Z.Z.Z.Z.Z.Z.Z.Z.",
"Z.Z.Z.Z.Z.Z.Z.Z.Z.Z.Z.Z.Z.Z.k ! 3.@.t.t.t.t.t.y.O. .%.,.,.1.e.t.t.t.t.t.e.y.' Y ,.3.Z.Z.Z.Z.Z.Z.Z.r Z.Z.Z.Z.Z.Z.Z.Z.Z.Z.Z.Z.Z.Z.",
"Z.Z.Z.Z.Z.Z.Z.Z.Z.Z.Z.Z.Z.Z.k ! 1.x.M.M.M.M.N.B.( 5 Q ,.,.1.q.s.M.M.M.M.B.s.6 S <.3.Z.Z.Z.Z.Z.Z.Z.r Z.Z.Z.Z.Z.Z.Z.Z.Z.Z.Z.Z.Z.Z.",
"Z.Z.Z.Z.Z.Z.Z.Z.Z.Z.Z.Z.Z.Z.k ! 7.b.e.=.=.=.d.X.9 < %.,.~ 6.l.a.9.=.=.=.j.C . G <.2.Z.Z.Z.Z.Z.Z.Z.r Z.Z.Z.Z.Z.Z.Z.Z.Z.Z.Z.Z.Z.Z.",
"Z.Z.Z.Z.Z.Z.Z.Z.Z.Z.Z.Z.Z.Z.k ! 7.b.-.,.,.,.<.*.a > %.<.,.4.s.k.:.,.,.,.<.A . S <.3.Z.Z.Z.Z.Z.Z.Z.r Z.Z.Z.Z.Z.Z.Z.Z.Z.Z.Z.Z.Z.Z.",
"Z.Z.Z.Z.Z.Z.Z.Z.Z.Z.Z.Z.Z.Z.k ! 7.b.5.~ ,.,.<.*.a > %.<.,.4.s.k.:.,.,.,.<.V . S <.d.Z.Z.Z.Z.Z.Z.Z.r Z.Z.Z.Z.Z.Z.Z.Z.Z.Z.Z.Z.Z.Z.",
"Z.Z.Z.Z.Z.Z.Z.Z.Z.Z.Z.Z.Z.Z.k ! 7.b.5.,.,.,.,.*.a < %.,.~ 4.s.k.:.,.,.,.<.A . G <.3.Z.Z.Z.Z.Z.Z.Z.r Z.Z.Z.Z.Z.Z.Z.Z.Z.Z.Z.Z.Z.Z.",
"Z.Z.Z.Z.Z.Z.Z.Z.Z.Z.Z.Z.Z.Z.k ! 7.b.-.,.,.,.,.*.a > %.<.,.4.s.k.:.~ ,.,.<.V . G <.3.Z.Z.Z.Z.Z.Z.Z.r Z.Z.Z.Z.Z.Z.Z.Z.Z.Z.Z.Z.Z.Z.",
"Z.Z.Z.Z.Z.Z.Z.Z.Z.Z.Z.Z.Z.Z.k ! 7.b.-.,.,.,.<.*.a > %.,.,.4.s.k.:.,.,.,.<.D . G <.d.Z.Z.Z.Z.Z.Z.Z.r Z.Z.Z.Z.Z.Z.Z.Z.Z.Z.Z.Z.Z.Z.",
"Z.Z.Z.Z.Z.Z.Z.Z.Z.Z.Z.Z.Z.Z.k ! 7.b.-.,.,.,.,.*.a > %.<.~ 4.s.k.4.,.,.,.<.D . H <.2.Z.Z.Z.Z.Z.Z.Z.r Z.Z.Z.Z.Z.Z.Z.Z.Z.Z.Z.Z.Z.Z.",
"Z.Z.Z.Z.Z.Z.Z.Z.Z.Z.Z.Z.Z.Z.k ! 7.b.-.,.,.,.,.*.a > %.<.,.4.s.k.:.,.,.,.<.D . F <.3.Z.Z.Z.Z.Z.Z.Z.r Z.Z.Z.Z.Z.Z.Z.Z.Z.Z.Z.Z.Z.Z.",
"Z.Z.Z.Z.Z.Z.Z.Z.Z.Z.Z.Z.Z.Z.k ! 7.b.3.,.,.,.<.*.a ; %.<.~ 1.s.k.:.,.,.,.<.D . G <.3.Z.Z.Z.Z.Z.Z.Z.r Z.Z.Z.Z.Z.Z.Z.Z.Z.Z.Z.Z.Z.Z.",
"Z.Z.Z.Z.Z.Z.Z.Z.Z.Z.Z.Z.Z.Z.k ! 7.b.-.,.,.,.<.*.a < %.<.,.1.s.s.:.,.,.,.<.V . S <.2.Z.Z.Z.Z.Z.Z.Z.r Z.Z.Z.Z.Z.Z.Z.Z.Z.Z.Z.Z.Z.Z.",
"Z.Z.Z.Z.Z.Z.Z.Z.Z.Z.Z.Z.Z.Z.k ! 7.#.M 5 a a 9 8 ; 4 %.,.,.4.N.o.f 7 a a a 5 . L <.3.Z.Z.Z.Z.Z.Z.Z.r Z.Z.Z.Z.Z.Z.Z.Z.Z.Z.Z.Z.Z.Z.",
"Z.Z.Z.Z.Z.Z.Z.Z.Z.Z.Z.Z.Z.Z.k ! 7.^ o + = = = = + 9 T ,.,.4.] 5 o = = = = = * L <.3.Z.Z.Z.Z.Z.Z.Z.r Z.Z.Z.Z.Z.Z.Z.Z.Z.Z.Z.Z.Z.Z.",
"Z.Z.Z.Z.Z.Z.Z.Z.Z.Z.Z.Z.Z.Z.k ~ :.V F F F J F J D H *.,.,.:.I D F F D J F F B T ,.2.Z.Z.Z.Z.Z.Z.Z.r Z.Z.Z.Z.Z.Z.Z.Z.Z.Z.Z.Z.Z.Z.",
"Z.Z.Z.Z.Z.Z.Z.Z.Z.Z.Z.Z.Z.Z.k W <.,.,.,.,.,.,.,.,.,.,.,.4.,.,.,.,.,.,.,.,.,.,.,.,.2.Z.Z.Z.Z.Z.Z.Z.r Z.Z.Z.Z.Z.Z.Z.Z.Z.Z.Z.Z.Z.Z.",
"Z.Z.Z.Z.Z.Z.Z.Z.Z.Z.Z.Z.Z.Z.k W ,.,.,.,.,.,.,.,.,.,.,.,.,.,.,.,.,.,.,.,.,.,.,.,.,.g.Z.Z.Z.Z.Z.Z.Z.r Z.Z.Z.Z.Z.Z.Z.Z.Z.Z.Z.Z.Z.Z.",
"Z.Z.Z.Z.Z.Z.Z.Z.Z.Z.Z.Z.Z.Z.t u p i i i i i i i p i p p i i i i i p i i i i i i k y r e e r r r w w Z.Z.Z.Z.Z.Z.Z.Z.Z.Z.Z.Z.Z.Z."
};
