/* XPM */
static char *result[] = {
/* columns rows colors chars-per-pixel */
"64 64 160 2 ",
"   c #511A3D",
".  c #541E40",
"X  c #5E294B",
"o  c #592446",
"O  c #533344",
"+  c #543846",
"@  c #5E354F",
"#  c #602D4E",
"$  c #693E5A",
"%  c #5D4052",
"&  c #624457",
"*  c #6D4963",
"=  c #7A476F",
"-  c #754D6C",
";  c #77446C",
":  c #7E4D75",
">  c #7A5A73",
",  c #7C5674",
"<  c #8D7A00",
"1  c #9F1368",
"2  c #A01B6D",
"3  c #A81472",
"4  c #AD1A79",
"5  c #9F2571",
"6  c #A02573",
"7  c #AD227D",
"8  c #804C75",
"9  c #825178",
"0  c #86687E",
"q  c #88637E",
"w  c #B9A800",
"e  c #B22282",
"r  c #B82189",
"t  c #8C4F82",
"y  c #8B5384",
"u  c #8D5788",
"i  c #8C5885",
"p  c #93548B",
"a  c #975792",
"s  c #9A5C95",
"d  c #8F7886",
"f  c #947D8C",
"g  c #9D689C",
"h  c #9A6396",
"j  c #9A7996",
"k  c #BE7588",
"l  c #A1779B",
"z  c #AD69AB",
"x  c #A965A7",
"c  c #B16BAE",
"v  c #A97BA9",
"b  c #B170AE",
"n  c #B465B0",
"m  c #B66AB3",
"M  c #B86DB5",
"N  c #BD6CBA",
"B  c #B967B5",
"V  c #B772B7",
"C  c #B872B8",
"Z  c #B67AB3",
"A  c #D27F81",
"S  c #C773C6",
"D  c #C779C6",
"F  c #D176C1",
"G  c #DD79DA",
"H  c #E374DD",
"J  c #E27FE3",
"K  c #EE76E9",
"L  c #FB7FFE",
"P  c #9C8195",
"I  c #A18B9D",
"U  c #A58FA2",
"Y  c #AB90A9",
"T  c #B796B6",
"R  c #BC9BBB",
"E  c #B59CB3",
"W  c #BDA4BB",
"Q  c #DE8E87",
"!  c #E28E8D",
"~  c #ED8DB9",
"^  c #EFA6B3",
"/  c #A8AEC5",
"(  c #B3B5D2",
")  c #C884C8",
"_  c #C98FC9",
"`  c #C897C7",
"'  c #CF9ECF",
"]  c #DE8BDF",
"[  c #D481D4",
"{  c #D796D8",
"}  c #E281DD",
"|  c #C3AAC2",
" . c #CEA6CF",
".. c #DBB5DE",
"X. c #DDBFDF",
"o. c #D5B6D6",
"O. c #E582E2",
"+. c #E982E4",
"@. c #EA89E5",
"#. c #EC83EF",
"$. c #F084E8",
"%. c #E598E7",
"&. c #E69AE8",
"*. c #EB9DEE",
"=. c #EB97ED",
"-. c #EF8EF1",
";. c #FA85FD",
":. c #FE89FF",
">. c #F686F1",
",. c #F29EF5",
"<. c #F495FB",
"1. c #FF91FF",
"2. c #DEABE0",
"3. c #DEB6E0",
"4. c #C1A3F6",
"5. c #C7A9F7",
"6. c #CBADF7",
"7. c #CFB0F7",
"8. c #D4B7F7",
"9. c #DABFF6",
"0. c #EBA4ED",
"q. c #E6A8E8",
"w. c #ECACEE",
"e. c #E0A1E1",
"r. c #E1B1E3",
"t. c #E2BBE3",
"y. c #E7B2E9",
"u. c #E9B5EC",
"i. c #E5BCE9",
"p. c #E8BFEA",
"a. c #EEA2F1",
"s. c #F1A1F3",
"d. c #F5A1FB",
"f. c #F9A6FD",
"g. c #F6A9FA",
"h. c #EEB9F1",
"j. c #BFC7E8",
"k. c #ABDEE1",
"l. c #B2DDE3",
"z. c #BDDBE7",
"x. c #DCC3DE",
"c. c #D5C2D7",
"v. c #C1CCE9",
"b. c #DEC2E2",
"n. c #CFD6ED",
"m. c #C3D9E9",
"M. c #C8D8EB",
"N. c #D3D4EF",
"B. c #DBC3F6",
"V. c #DBCAF4",
"C. c #D6D2F0",
"Z. c #D9D0F2",
"A. c #EBC2EE",
"S. c #E0C1E3",
"D. c #EDC6F0",
"F. c #F6C2F9",
"G. c #F9C3FD",
"H. c #FECCFF",
"J. c #F0C1F3",
"K. c None",
/* pixels */
"K.K.K.K.K.K.K.K.K.K.K.5.V.l.3 4 e 7 e 7 e 7 7 7 7 e 7 e e 7 e 7 e 7 6 5 5 5 6 6 5 5 2 6 5 6 6 6 2 1 z.B.4.K.K.K.K.K.K.K.K.K.K.K.",
"K.K.K.K.K.K.K.K.K.K.K.7.n.k.r K 1.;.;.;.;.;.;.;.;.;.;.;.;.;.;.;.;.d.( k.k.k.l.l.l.l.l.l.l.k.k.k./ 6 k.Z.5.K.K.K.K.K.K.K.K.K.K.K.",
"K.K.K.K.K.K.K.K.K.K.K.8.m.k.r K :.;.;.;.;.;.;.;.;.;.;.;.;.-.;.;.;.-.j.k.l.M.C.C.C.C.C.C.C.M.l.k./ 6 k.C.6.K.K.K.K.K.K.K.K.K.K.K.",
"K.K.K.K.K.K.K.K.K.K.K.8.m.k.e K :.;.>.;.;.;.;.;.;.-.;.;.;.;.;.;.;.<.j.k.N.9.7.6.7.6.6.7.7.9.C.k./ 5 k.C.6.K.K.K.K.K.K.K.K.K.K.K.",
"K.K.K.K.K.K.K.K.K.K.K.8.m.k.r K :.;.;.;.;.>.;.;.;.;.;.;.;.;.;.;.;.<.j.z.V.4.K.K.K.K.K.K.K.4.V.z./ 6 k.N.7.K.K.K.K.K.K.K.K.K.K.K.",
"K.K.K.K.K.K.K.K.K.K.K.8.m.k.r K :.;.;.;.;.;.;.;.;.;.;.;.;.;.;.;.;.-.j.z.9.K.K.K.K.K.K.K.K.K.9.m./ 6 k.N.7.K.K.K.K.K.K.K.K.K.K.K.",
"K.K.K.K.K.K.K.K.K.K.K.8.m.k.r } c.p.t.t.D.( Z :.;.&.c.p.S.i.D.W D <.j.z.9.K.K.K.K.K.K.K.K.K.9.z./ 6 k.N.6.K.K.K.K.K.K.K.K.K.K.K.",
"K.K.K.K.K.K.K.K.K.K.K.9.m.k.r } x.G.F.F.H.R h :.;.%.x.G.F.F.H.Y z <.v.z.9.K.K.K.K.K.K.K.K.K.9.m./ 6 k.N.6.K.K.K.K.K.K.K.K.K.K.K.",
"K.K.K.K.K.K.K.K.K.K.K.8.m.k.r +.b.p.G.F.H.T y :.;.*.S.h.F.F.H.j x <.j.z.9.K.K.K.K.K.K.K.K.K.9.m./ 5 k.n.6.K.K.K.K.K.K.K.K.K.K.K.",
"K.K.K.K.K.K.K.K.K.K.K.8.m.k.r +.i.t.y.u.r.0 t 1.L s.S.3.y.h. .> n <.j.z.B.K.K.K.K.K.K.K.K.K.9.m./ 5 k.C.6.K.K.K.K.K.K.K.K.K.K.K.",
"K.K.K.K.K.K.K.K.K.K.K.8.m.k.r +.i.=.L ;.#.9 t 1.L ,.t.-.;.:.J 9 n <.j.z.9.K.K.K.K.K.K.K.K.K.9.z./ 5 k.C.6.K.K.K.K.K.K.K.K.K.K.K.",
"K.K.K.K.K.K.K.K.K.K.K.8.m.k.r +.p.=.;.:.#.9 t 1.L s.t.-.;.:.J 9 n <.j.z.9.K.K.K.K.K.K.K.K.K.9.m./ 5 k.C.6.K.K.K.K.K.K.K.K.K.K.K.",
"K.K.K.K.K.K.K.K.K.K.K.8.m.k.r +.i.*.;.:.#.9 t 1.L s.t.-.L :.J 9 n <.j.z.9.K.K.K.K.K.K.K.K.K.9.m./ 5 k.N.6.K.K.K.K.K.K.K.K.K.K.K.",
"K.K.K.K.K.K.K.K.K.K.K.8.m.k.r +.i.*.;.:.#.9 t 1.L s.t.-.;.:.J 9 n <.j.z.9.K.K.K.K.K.K.K.K.K.9.m./ 6 k.N.6.K.K.K.K.K.K.K.K.K.K.K.",
"K.K.K.K.K.K.K.K.K.K.K.8.m.k.r +.i.=.L :.#.9 t 1.L s.t.-.;.:.J 9 n <.v.z.9.K.K.K.K.K.K.K.K.K.9.m./ 5 k.N.6.K.K.K.K.K.K.K.K.K.K.K.",
"K.K.K.K.K.K.K.K.K.K.K.8.m.k.r +.i.*.;.:.#.9 9 1.L ,.t.-.L :.J 9 n <.v.z.9.K.K.K.K.K.K.K.K.K.9.m./ e k.N.6.K.K.K.K.K.K.K.K.K.K.K.",
"K.K.K.K.K.K.K.K.K.K.K.8.m.k.r +.i.*.;.:.K 9 y 1.L s.t.-.;.:.J 9 n <.j.z.9.K.K.K.K.K.K.K.K.K.9.m./ 5 k.n.7.K.K.K.K.K.K.K.K.K.K.K.",
"K.K.K.K.K.K.K.K.K.K.K.8.m.k.r +.i.*.L ;.#.9 y 1.L a.t.-.;.:.J 9 n <.j.z.9.K.K.K.K.K.K.K.K.K.9.m./ 5 k.n.7.K.K.K.K.K.K.K.K.K.K.K.",
"K.K.K.K.K.K.K.K.K.K.K.8.M.k.r +.i.*.;.:.#.9 t :.L ,.t.-.L :.J 9 n <.j.z.B.K.K.K.K.K.K.K.K.K.9.z./ 5 k.n.6.K.K.K.K.K.K.K.K.K.K.K.",
"K.K.K.K.K.K.K.K.K.K.K.8.m.k.r +.i.*.;.:.#.9 y 1.L a.t.-.;.:.J 9 n <.v.z.9.K.K.K.K.K.K.K.K.K.9.m./ e k.N.6.K.K.K.K.K.K.K.K.K.K.K.",
"K.K.K.K.K.K.K.K.K.K.K.8.m.k.r +.i.*.L :.#.9 t 1.L s.t.-.L :.J 9 n <.v.z.9.K.K.K.K.K.K.K.K.K.9.m./ 5 k.N.6.K.K.K.K.K.K.K.K.K.K.K.",
"K.K.K.K.K.K.K.K.K.K.K.8.m.k.r +.i.=.;.;.#.9 t 1.L s.t.-.;.:.J 9 n <.v.z.B.K.K.K.K.K.K.K.K.K.9.m./ 5 k.n.6.K.K.K.K.K.K.K.K.K.K.K.",
"K.K.K.K.K.K.K.K.K.K.K.8.m.k.r +.i.*.;.:.#.9 t 1.L ,.t.-.L :.J 9 n <.j.z.9.K.K.K.K.K.K.K.K.K.9.m./ 5 k.n.6.K.K.K.K.K.K.K.K.K.K.K.",
"K.K.K.K.K.K.K.K.K.K.K.8.m.k.r +.p.*.;.:.#.9 t 1.L ,.t.-.;.:.J 9 n <.v.z.9.K.K.K.K.K.K.K.K.K.9.m./ 5 k.n.6.K.K.K.K.K.K.K.K.K.K.K.",
"K.K.K.K.K.K.K.K.K.K.K.8.m.k.r +.i.*.;.:.#.9 t 1.L s.t.-.;.:.J 9 n <.j.z.9.K.K.K.K.K.K.K.K.K.9.z./ 5 k.N.6.K.K.K.K.K.K.K.K.K.K.K.",
"K.K.K.K.K.K.K.K.K.K.K.8.m.k.r +.i.=.;.:.#.9 t 1.L s.t.-.;.:.J 9 n <.j.z.9.K.K.K.K.K.K.K.K.K.9.m./ 5 k.C.6.K.K.K.K.K.K.K.K.K.K.K.",
"K.K.K.K.K.K.K.K.K.K.K.8.m.k.r +.i.*.L :.#.9 y 1.L a.t.-.;.:.O.9 n <.v.z.9.K.K.K.K.K.K.K.K.K.9.m./ 5 k.C.6.K.K.K.K.K.K.K.K.K.K.K.",
"K.K.K.K.K.K.K.K.K.K.K.8.m.k.r +.i.*.L :.#.9 t 1.L ,.t.-.;.;.O.9 n <.v.z.9.K.K.K.K.K.K.K.K.K.9.m.( 5 k.C.6.K.K.K.K.K.K.K.K.K.K.K.",
"K.K.K.K.K.K.K.K.K.K.K.8.m.k.r +.i.*.;.:.#.9 9 :.L s.t.-.;.:.J : n <.j.z.B.K.K.K.K.K.K.K.K.K.B.m./ 5 k.n.6.K.K.K.K.K.K.K.K.K.K.K.",
"K.K.K.K.K.K.K.K.K.K.K.8.m.k.r +.i.*.L :.K 9 y 1.L s.t.-.;.:.O.9 n <.j.z.9.K.K.K.K.K.K.K.K.K.9.z./ 5 k.n.6.K.K.K.K.K.K.K.K.K.K.K.",
"K.K.K.K.K.K.K.K.K.K.K.8.m.k.r +.i.*.;.:.#.9 y 1.L s.t.-.L :.J 9 n <.v.z.9.K.K.K.K.K.K.K.K.K.8.z./ e k.N.6.K.K.K.K.K.K.K.K.K.K.K.",
"K.K.K.K.K.K.K.K.K.K.K.8.m.k.r +.i._ n N m * p 1.L s.o.Z B N x - B <.v.z.9.K.K.K.K.K.K.K.K.K.B.z./ 5 k.N.7.K.K.K.K.K.K.K.K.K.K.K.",
"K.K.K.K.K.K.K.K.K.K.K.8.M.k.r @...0 o # X O h 1.L f.W $ X X @ % N <.j.z.9.K.K.K.K.K.K.K.K.K.9.z./ 6 k.C.6.K.K.K.K.K.K.K.K.K.K.K.",
"K.K.K.K.K.K.K.K.K.K.K.8.m.k.r @.E X X # X O g :.;.g.P   X X X + C <.j.z.9.K.K.K.K.K.K.K.K.K.9.m./ 6 k.C.6.K.K.K.K.K.K.K.K.K.K.K.",
"K.K.K.K.K.K.K.K.K.K.K.8.m.k.r @.I . X # X O g 1.L a.d . @ X X + C <.v.z.9.K.K.K.K.K.K.K.K.K.9.m./ 5 k.C.6.K.K.K.K.K.K.K.K.K.K.K.",
"K.K.K.K.K.K.K.K.K.K.K.9.m.k.r H v a s s s i z 1.:.O.j a s s s i S <.v.m.9.K.K.K.K.K.K.K.K.K.9.m./ 5 k.n.6.K.K.K.K.K.K.K.K.K.K.K.",
"K.K.K.K.K.K.K.K.K.K.K.8.m.k.r K :.;.;.;.;.;.-.;.;.;.;.;.;.;.;.;.;.-.j.z.B.K.K.K.K.K.K.K.K.K.9.m./ 5 k.N.7.K.K.K.K.K.K.K.K.K.K.K.",
"K.K.K.K.K.K.K.K.K.K.K.8.m.k.r $.:.;.;.;.;.;.;.;.;.;.;.;.;.;.>.;.;.;.j.z.9.K.K.K.K.K.K.K.K.K.9.m./ 5 k.N.7.K.K.K.K.K.K.K.K.K.K.K.",
"K.K.K.K.K.K.K.K.K.K.K.8.m.k.e K :.;.;.;.;.;.;.;.;.;.;.;.;.;.;.;.;.-.v.z.9.K.K.K.K.K.K.K.K.K.9.z./ 6 k.N.6.K.K.K.K.K.K.K.K.K.K.K.",
"K.K.K.K.K.K.K.K.K.K.K.8.m.k.r K :.;.;.-.;.;.;.;.;.-.;.;.;.;.;.;.;.<.v.z.9.K.K.K.K.K.K.K.K.K.9.m./ 5 k.N.6.K.K.K.K.K.K.K.K.K.K.K.",
"K.K.K.K.K.K.K.K.K.K.K.8.m.k.r K :.;.;.;.-.;.;.;.;.;.;.;.;.;.~ Q #.<.j.l.9.K.K.K.K.K.K.K.K.K.9.m./ 5 k.N.6.K.K.K.K.K.K.K.K.K.K.K.",
"K.K.K.K.K.K.K.K.K.K.K.8.m.k.r K ;.;.;.;.;.;.;.;.;.;.;.;.;.;.^ w Q -.j.z.9.K.K.K.K.K.K.K.K.K.9.m./ 5 k.C.6.K.K.K.K.K.K.K.K.K.K.K.",
"K.K.K.K.K.K.K.K.K.K.K.8.m.k.r K <.;.;.;.;.;.;.;.>.;.;.;.;.:.! < k <.j.z.9.K.K.K.K.K.K.K.K.K.9.m./ 5 k.C.6.K.K.K.K.K.K.K.K.K.K.K.",
"K.K.K.K.K.K.K.K.K.K.K.8.m.k.r K ;.;.;.:.;.;.;.;.;.;.;.;.;.;.-.F G ;.j.z.B.K.K.K.K.K.K.K.K.K.9.z.( 5 k.C.6.K.K.K.K.K.K.K.K.K.K.K.",
"K.K.K.K.K.K.K.K.K.K.K.8.m.k.r K :.;.;.;.-.;.;.;.;.;.;.;.;.;.;.;.;.<.j.z.9.K.K.K.K.K.K.K.K.K.9.m./ 5 k.n.6.K.K.K.K.K.K.K.K.K.K.K.",
"K.K.K.K.K.K.K.K.K.K.K.8.m.k.r K ;.;.;.;.;.;.;.;.;.:.;.;.;.;.;.;.;.-.j.z.9.K.K.K.K.K.K.K.K.K.9.m./ 5 k.n.6.K.K.K.K.K.K.K.K.K.K.K.",
"K.K.K.K.K.K.K.K.K.K.K.8.m.k.r O.3.q.q.q.w.' _ :.L =...q.r.q.w.` G <.j.z.9.K.K.K.K.K.K.K.K.K.9.m./ e k.N.6.K.K.K.K.K.K.K.K.K.K.K.",
"K.K.K.K.K.K.K.K.K.K.K.8.m.k.r O.b.D.F.F.H.T u :.;.&.b.F.F.G.H.j x <.j.l.9.K.K.K.K.K.K.K.K.K.9.m./ 5 k.N.6.K.K.K.K.K.K.K.K.K.K.K.",
"K.K.K.K.K.K.K.K.K.K.K.8.m.k.r +.i.2.&.*.{ 9 y :.;.,.X.e.=.*.{ , n <.j.z.9.K.K.K.K.K.K.K.K.K.9.m./ 5 k.M.6.K.K.K.K.K.K.K.K.K.K.K.",
"K.K.K.K.K.K.K.K.K.K.K.8.m.k.r +.i.*.;.:.#.9 t 1.L ,.t.-.;.:.J 9 n <.j.z.9.K.K.K.K.K.K.K.K.K.9.m./ 5 k.n.6.K.K.K.K.K.K.K.K.K.K.K.",
"K.K.K.K.K.K.K.K.K.K.K.8.m.k.r +.i.*.L :.#.9 y 1.L s.t.-.;.:.J 9 n <.j.z.B.K.K.K.K.K.K.K.K.K.9.z./ 5 k.n.6.K.K.K.K.K.K.K.K.K.K.K.",
"K.K.K.K.K.K.K.K.K.K.K.8.m.k.r +.i.*.L :.#.9 y 1.L s.t.-.L :.J 9 n <.v.z.9.K.K.K.K.K.K.K.K.K.9.m./ e k.N.6.K.K.K.K.K.K.K.K.K.K.K.",
"K.K.K.K.K.K.K.K.K.K.K.8.m.k.r +.i.*.;.:.#.9 y 1.L s.t.-.;.:.J 9 n <.v.z.9.K.K.K.K.K.K.K.K.K.9.m./ 5 k.N.6.K.K.K.K.K.K.K.K.K.K.K.",
"K.K.K.K.K.K.K.K.K.K.K.8.m.k.r +.i.*.L :.#.9 t 1.L s.t.-.;.:.J 9 n <.v.z.B.K.K.K.K.K.K.K.K.K.9.m./ 5 k.N.7.K.K.K.K.K.K.K.K.K.K.K.",
"K.K.K.K.K.K.K.K.K.K.K.8.m.k.r +.i.*.;.:.#.9 t 1.L s.t.-.L :.J 9 n <.v.z.9.K.K.K.K.K.K.K.K.K.9.m./ 5 k.N.6.K.K.K.K.K.K.K.K.K.K.K.",
"K.K.K.K.K.K.K.K.K.K.K.8.m.k.r +.i.*.L :.#.9 9 1.L s.t.-.;.:.J 9 n <.v.z.9.K.K.K.K.K.K.K.K.K.9.z./ 5 k.n.6.K.K.K.K.K.K.K.K.K.K.K.",
"K.K.K.K.K.K.K.K.K.K.K.8.m.k.r +.i.*.;.;.#.9 y :.L s.t.-.;.:.O.9 n <.j.z.9.K.K.K.K.K.K.K.K.K.9.m.( 5 k.n.6.K.K.K.K.K.K.K.K.K.K.K.",
"K.K.K.K.K.K.K.K.K.K.K.8.m.k.r +.i.*.;.:.#.9 y 1.L s.t.-.;.:.O.9 n <.j.z.9.K.K.K.K.K.K.K.K.K.B.m./ 5 k.C.6.K.K.K.K.K.K.K.K.K.K.K.",
"K.K.K.K.K.K.K.K.K.K.K.8.M.k.r +...j ; : 8 @ a 1.L f.| 9 = 8 - % N <.v.z.9.K.K.K.K.K.K.K.K.K.9.m./ 5 k.C.6.K.K.K.K.K.K.K.K.K.K.K.",
"K.K.K.K.K.K.K.K.K.K.K.8.m.k.r @.U o # # # O g :.;.s.f   # # X + M <.j.z.V.4.K.K.K.K.K.K.K.4.B.z./ 5 k.C.6.K.K.K.K.K.K.K.K.K.K.K.",
"K.K.K.K.K.K.K.K.K.K.K.8.M.k.r J Z V M M V x S :.:.O.c M c M M z G <.v.k.N.B.7.7.6.6.7.6.6.8.N.l./ 5 k.n.6.K.K.K.K.K.K.K.K.K.K.K.",
"K.K.K.K.K.K.K.K.K.K.K.8.m.k.r K :.;.;.;.;.;.;.;.;.;.;.;.;.;.;.;.;.;.v.k.l.M.C.C.C.Z.C.C.C.M.l.k./ 5 k.N.6.K.K.K.K.K.K.K.K.K.K.K.",
"K.K.K.K.K.K.K.K.K.K.K.7.N.k.r K :.;.;.;.;.;.;.;.;.;.;.;.;.;.;.;.;.d.( k.k.k.k.l.l.l.l.l.l.k.k.k./ 5 l.Z.5.K.K.K.K.K.K.K.K.K.K.K.",
"K.K.K.K.K.K.K.K.K.K.K.5.Z.l.3 4 e e 7 e 7 7 e 7 e 7 e 7 e 7 e 7 e 7 6 6 6 2 6 6 2 6 5 6 6 5 6 5 6 1 z.V.4.K.K.K.K.K.K.K.K.K.K.K."
};
