/* XPM */
static char *result[] = {
/* columns rows colors chars-per-pixel */
"64 64 134 2 ",
"   c #9E2170",
".  c #9D2B75",
"X  c #9D377C",
"o  c #9D397D",
"O  c #9D3C7F",
"+  c #A68DF5",
"@  c #A78EF5",
"#  c #AA90F5",
"$  c #AC92F5",
"%  c #AE93F5",
"&  c #AF94F5",
"*  c #B095F6",
"=  c #B196F6",
"-  c #B397F6",
";  c #B498F6",
":  c #B598F6",
">  c #B699F6",
",  c #B89AF6",
"<  c #B99CF6",
"1  c #BA9CF7",
"2  c #BB9DF7",
"3  c #BC9EF7",
"4  c #BE9FF7",
"5  c #BFA0F7",
"6  c #C1A1F7",
"7  c #C3A3F7",
"8  c #C3A4F7",
"9  c #C4A4F7",
"0  c #C6A6F7",
"q  c #C7A7F7",
"w  c #C8A7F7",
"e  c #CBA9F8",
"r  c #CBAAF8",
"t  c #CCABF8",
"y  c #CFADF8",
"u  c #D0AEF8",
"i  c #D0AFF8",
"p  c #D1AFF8",
"a  c #D3B1F8",
"s  c #D4B1F8",
"d  c #D4B2F8",
"f  c #D5B3F8",
"g  c #D8B5F8",
"h  c #D8B6F8",
"j  c #D9B6F8",
"k  c #DAB7F8",
"l  c #DAB8F8",
"z  c #DBB8F8",
"x  c #DDBAF8",
"c  c #DFBCF8",
"v  c #E0BDF8",
"b  c #E1BEF8",
"n  c #E1BFF8",
"m  c #E2BFF8",
"M  c #9BC1CB",
"N  c #9BDFDC",
"B  c #9CDFDC",
"V  c #9DDFDC",
"C  c #9EDFDD",
"Z  c #9FDFDD",
"A  c #A0DFDD",
"S  c #A1DFDE",
"D  c #A2DEDE",
"F  c #A2DFDE",
"G  c #A5DEDF",
"H  c #A6DEDF",
"J  c #A8DEE0",
"K  c #A9DEE0",
"L  c #ABDEE1",
"P  c #ACDDE1",
"I  c #ADDDE1",
"U  c #AFDDE2",
"Y  c #B0DDE3",
"T  c #B1DDE3",
"R  c #B2DDE3",
"E  c #B3DDE3",
"W  c #B4DDE4",
"Q  c #B5DDE4",
"!  c #B6DCE4",
"~  c #B7DCE5",
"^  c #BFDBE7",
"/  c #BADCE6",
"(  c #BBDCE6",
")  c #BCDCE6",
"_  c #BEDCE7",
"`  c #C0DBE8",
"'  c #C1DBE8",
"]  c #C2DBE8",
"[  c #C3DBE8",
"{  c #C4DBE9",
"}  c #C8DAEA",
"|  c #C9DAEA",
" . c #CDD9EC",
".. c #CED9EC",
"X. c #CFD9ED",
"o. c #CCDAEC",
"O. c #D7D7EF",
"+. c #D0D9ED",
"@. c #D3D8EE",
"#. c #D2D9EE",
"$. c #D4D8EE",
"%. c #D8D7F0",
"&. c #DAD7F0",
"*. c #DAD6F1",
"=. c #DBD6F1",
"-. c #DCD6F1",
";. c #DFD5F2",
":. c #DFD5F3",
">. c #E7CFF6",
",. c #E8CBF7",
"<. c #E8CCF7",
"1. c #E8CDF7",
"2. c #E8CEF7",
"3. c #E2C0F8",
"4. c #E3C1F8",
"5. c #E4C3F8",
"6. c #E5C3F8",
"7. c #E5C4F8",
"8. c #E6C5F8",
"9. c #E7C6F8",
"0. c #E7C7F8",
"q. c #E7C8F8",
"w. c #E8C9F8",
"e. c #E8CAF8",
"r. c #E0D4F3",
"t. c #E1D4F3",
"y. c #E2D3F4",
"u. c #E3D3F4",
"i. c #E5D1F5",
"p. c #E6D1F5",
"a. c #E4D2F4",
"s. c #E5D2F5",
"d. c #E7D0F6",
"f. c None",
/* pixels */
"f.f.f.# , w j 7.>.&.' J B N   . o X X X X X X X X X X X X X X X X X X X X X X X X X X X X X X o .   N B J ' &.>.7.j w , # f.f.f.",
"f.f.f.$ 1 t x w.a.+.Q A N N O M N N N N N N N N N N N N N N N N N N N N N N N N N N N N N N N N M O N N A Q +.a.w.x t 1 $ f.f.f.",
"f.f.f.% 4 u b <.:.} P B N N O M N N N N N N N N N N N N N N N N N N N N N N N N N N N N N N N N M O N N B P } :.<.b u 4 % f.f.f.",
"f.f.f.* 6 a 4.2.=.' G N N N O M N N N N N N N N N N N N N N N N N N N N N N N N N N N N N N N N M O N N N G ' =.2.4.a 6 * f.f.f.",
"f.f.f.= 7 f 6.d.O.) S N N N O M N N N N N N N N N N N B C Z A A A A Z C B N N N N N N N N N N N M O N N N S ) O.d.6.f 7 = f.f.f.",
"f.f.f.- 9 g 8.p.@.~ Z N N N O M N N N N N N N N N A G L U E Q Q Q Q E U L G A N N N N N N N N N M O N N N Z ~ @.p.8.g 9 - f.f.f.",
"f.f.+ ; 0 j 9.s.+.W C N N N O M N N N N N N N C H Y ( [ |  .X.+.+.X. .| [ ( Y H C N N N N N N N M O N N N C W +.s.9.j 0 ; + f.f.",
"f.f.+ : q k 0.a.X.R V N N N O M N N N N N N Z L / } #.*.;.y.u.u.u.u.y.;.*.#.} / L Z N N N N N N M O N N N V R X.a.0.k q : + f.f.",
"f.f.+ : q l 0.u...T V N N N O M N N N N N Z I ` +.-.a.>.<.e.q.q.q.q.e.<.>.a.-.+.` I Z N N N N N M O N N N V T ..u.0.l q : + f.f.",
"f.f.+ : q l 0.u...T V N N N O M N N N N V K _ #.r.>.e.7.n x z z z z x n 7.e.>.r.#._ K V N N N N M O N N N V T ..u.0.l q : + f.f.",
"f.f.@ : q l 0.u...R C N N N O M N N N N F ! ..:.2.9.v h i r w w w w r i h v 9.2.:...! F N N N N M O N N N C R ..u.0.l q : @ f.f.",
"f.f.@ : q l 0.u...R C N N N O M N N N B L ] &.d.0.c s w 5 < > > > > < 5 w s c 0.d.&.] L B N N N M O N N N C R ..u.0.l q : @ f.f.",
"f.f.@ : q l 0.u...E C N N N O M N N N Z E o.t.,.m d 0 < * # @ @ @ @ # * < 0 d m ,.t.o.E Z N N N M O N N N C E ..u.0.l q : @ f.f.",
"f.f.@ : q l 0.u...E C N N N O M N N N D / $.i.9.z e 2 & f.f.f.f.f.f.f.f.& 2 e z 9.i.$./ D N N N M O N N N C E ..u.0.l q : @ f.f.",
"f.f.@ : q l 0.u...E C N N N O M N N N G ^ %.>.5.f 8 - @ f.f.f.f.f.f.f.f.@ - 8 f 5.>.%.^ G N N N M O N N N C E ..u.0.l q : @ f.f.",
"f.f.@ : q l 0.u...E Z N N N O M N N N J ] -.1.3.p 4 % f.f.f.f.f.f.f.f.f.f.% 4 p 3.1.-.] J N N N M O N N N Z E ..u.0.l q : @ f.f.",
"f.f.@ : q l 0.u...E Z N N N O M N N N K { -.<.n y 3 $ f.f.f.f.f.f.f.f.f.f.$ 3 y n <.-.{ K N N N M O N N N Z E ..u.0.l q : @ f.f.",
"f.f.@ : q l 0.u...E Z N N N O M N N N K { -.<.n y 3 $ f.f.f.f.f.f.f.f.f.f.$ 3 y n <.-.{ K N N N M O N N N Z E ..u.0.l q : @ f.f.",
"f.f.@ : q l 0.u...E Z N N N O M N N N K { -.<.n y 3 $ f.f.f.f.f.f.f.f.f.f.$ 3 y n <.-.{ K N N N M O N N N Z E ..u.0.l q : @ f.f.",
"f.f.@ : q l 0.u...E Z N N N O M N N N K { -.<.n y 3 $ f.f.f.f.f.f.f.f.f.f.$ 3 y n <.-.{ K N N N M O N N N Z E ..u.0.l q : @ f.f.",
"f.f.@ : q l 0.u...E Z N N N O M N N N K { -.<.n y 3 $ f.f.f.f.f.f.f.f.f.f.$ 3 y n <.-.{ K N N N M O N N N Z E ..u.0.l q : @ f.f.",
"f.f.@ : q l 0.u...E Z N N N O M N N N K { -.<.n y 3 $ f.f.f.f.f.f.f.f.f.f.$ 3 y n <.-.{ K N N N M O N N N Z E ..u.0.l q : @ f.f.",
"f.f.@ : q l 0.u...E Z N N N O M N N N K { -.<.n y 3 $ f.f.f.f.f.f.f.f.f.f.$ 3 y n <.-.{ K N N N M O N N N Z E ..u.0.l q : @ f.f.",
"f.f.@ : q l 0.u...E Z N N N O M N N N K { -.<.n y 3 $ f.f.f.f.f.f.f.f.f.f.$ 3 y n <.-.{ K N N N M O N N N Z E ..u.0.l q : @ f.f.",
"f.f.@ : q l 0.u...E Z N N N O M N N N K { -.<.n y 3 $ f.f.f.f.f.f.f.f.f.f.$ 3 y n <.-.{ K N N N M O N N N Z E ..u.0.l q : @ f.f.",
"f.f.@ : q l 0.u...E Z N N N O M N N N K { -.<.n y 3 $ f.f.f.f.f.f.f.f.f.f.$ 3 y n <.-.{ K N N N M O N N N Z E ..u.0.l q : @ f.f.",
"f.f.@ : q l 0.u...E Z N N N O M N N N K { -.<.n y 3 $ f.f.f.f.f.f.f.f.f.f.$ 3 y n <.-.{ K N N N M O N N N Z E ..u.0.l q : @ f.f.",
"f.f.@ : q l 0.u...E Z N N N O M N N N K { -.<.n y 3 $ f.f.f.f.f.f.f.f.f.f.$ 3 y n <.-.{ K N N N M O N N N Z E ..u.0.l q : @ f.f.",
"f.f.@ : q l 0.u...E Z N N N O M N N N K { -.<.n y 3 $ f.f.f.f.f.f.f.f.f.f.$ 3 y n <.-.{ K N N N M O N N N Z E ..u.0.l q : @ f.f.",
"f.f.@ : q l 0.u...E Z N N N O M N N N K { -.<.n y 3 $ f.f.f.f.f.f.f.f.f.f.$ 3 y n <.-.{ K N N N M O N N N Z E ..u.0.l q : @ f.f.",
"f.f.@ : q l 0.u...E Z N N N O M N N N K { -.<.n y 3 $ f.f.f.f.f.f.f.f.f.f.$ 3 y n <.-.{ K N N N M O N N N Z E ..u.0.l q : @ f.f.",
"f.f.@ : q l 0.u...E Z N N N O M N N N K { -.<.n y 3 $ f.f.f.f.f.f.f.f.f.f.$ 3 y n <.-.{ K N N N M O N N N Z E ..u.0.l q : @ f.f.",
"f.f.@ : q l 0.u...E Z N N N O M N N N K { -.<.n y 3 $ f.f.f.f.f.f.f.f.f.f.$ 3 y n <.-.{ K N N N M O N N N Z E ..u.0.l q : @ f.f.",
"f.f.@ : q l 0.u...E Z N N N O M N N N K { -.<.n y 3 $ f.f.f.f.f.f.f.f.f.f.$ 3 y n <.-.{ K N N N M O N N N Z E ..u.0.l q : @ f.f.",
"f.f.@ : q l 0.u...E Z N N N O M N N N K { -.<.n y 3 $ f.f.f.f.f.f.f.f.f.f.$ 3 y n <.-.{ K N N N M O N N N Z E ..u.0.l q : @ f.f.",
"f.f.@ : q l 0.u...E Z N N N O M N N N K { -.<.n y 3 $ f.f.f.f.f.f.f.f.f.f.$ 3 y n <.-.{ K N N N M O N N N Z E ..u.0.l q : @ f.f.",
"f.f.@ : q l 0.u...E Z N N N O M N N N K { -.<.n y 3 $ f.f.f.f.f.f.f.f.f.f.$ 3 y n <.-.{ K N N N M O N N N Z E ..u.0.l q : @ f.f.",
"f.f.@ : q l 0.u...E Z N N N O M N N N K { -.<.n y 3 $ f.f.f.f.f.f.f.f.f.f.$ 3 y n <.-.{ K N N N M O N N N Z E ..u.0.l q : @ f.f.",
"f.f.@ : q l 0.u...E Z N N N O M N N N K { -.<.n y 3 $ f.f.f.f.f.f.f.f.f.f.$ 3 y n <.-.{ K N N N M O N N N Z E ..u.0.l q : @ f.f.",
"f.f.@ : q l 0.u...E Z N N N O M N N N K { -.<.n y 3 $ f.f.f.f.f.f.f.f.f.f.$ 3 y n <.-.{ K N N N M O N N N Z E ..u.0.l q : @ f.f.",
"f.f.@ : q l 0.u...E Z N N N O M N N N K { -.<.n y 3 $ f.f.f.f.f.f.f.f.f.f.$ 3 y n <.-.{ K N N N M O N N N Z E ..u.0.l q : @ f.f.",
"f.f.@ : q l 0.u...E Z N N N O M N N N K { -.<.n y 3 $ f.f.f.f.f.f.f.f.f.f.$ 3 y n <.-.{ K N N N M O N N N Z E ..u.0.l q : @ f.f.",
"f.f.@ : q l 0.u...E Z N N N O M N N N K { -.<.n y 3 $ f.f.f.f.f.f.f.f.f.f.$ 3 y n <.-.{ K N N N M O N N N Z E ..u.0.l q : @ f.f.",
"f.f.@ : q l 0.u...E Z N N N O M N N N K { -.<.n y 3 $ f.f.f.f.f.f.f.f.f.f.$ 3 y n <.-.{ K N N N M O N N N Z E ..u.0.l q : @ f.f.",
"f.f.@ : q l 0.u...E Z N N N O M N N N K { -.<.n y 3 $ f.f.f.f.f.f.f.f.f.f.$ 3 y n <.-.{ K N N N M O N N N Z E ..u.0.l q : @ f.f.",
"f.f.@ : q l 0.u...E Z N N N O M N N N K { -.<.n y 3 $ f.f.f.f.f.f.f.f.f.f.$ 3 y n <.-.{ K N N N M O N N N Z E ..u.0.l q : @ f.f.",
"f.f.@ : q l 0.u...E Z N N N O M N N N K { -.<.n y 3 $ f.f.f.f.f.f.f.f.f.f.$ 3 y n <.-.{ K N N N M O N N N Z E ..u.0.l q : @ f.f.",
"f.f.@ : q l 0.u...E Z N N N O M N N N K { -.<.n y 3 $ f.f.f.f.f.f.f.f.f.f.$ 3 y n <.-.{ K N N N M O N N N Z E ..u.0.l q : @ f.f.",
"f.f.@ : q l 0.u...E Z N N N O M N N N J ] -.1.3.p 4 % f.f.f.f.f.f.f.f.f.f.% 4 p 3.1.-.] J N N N M O N N N Z E ..u.0.l q : @ f.f.",
"f.f.@ : q l 0.u...E C N N N O M N N N G ^ %.>.5.f 8 - @ f.f.f.f.f.f.f.f.@ - 8 f 5.>.%.^ G N N N M O N N N C E ..u.0.l q : @ f.f.",
"f.f.@ : q l 0.u...E C N N N O M N N N D / $.i.9.z e 2 & f.f.f.f.f.f.f.f.& 2 e z 9.i.$./ D N N N M O N N N C E ..u.0.l q : @ f.f.",
"f.f.@ : q l 0.u...E C N N N O M N N N Z E o.t.,.m d 0 < * # @ @ @ @ # * < 0 d m ,.t.o.E Z N N N M O N N N C E ..u.0.l q : @ f.f.",
"f.f.@ : q l 0.u...R C N N N O M N N N B L ] &.d.0.c s w 5 < > > > > < 5 w s c 0.d.&.] L B N N N M O N N N C R ..u.0.l q : @ f.f.",
"f.f.@ : q l 0.u...R C N N N O M N N N N F ! ..:.2.9.v h i r w w w w r i h v 9.2.:...! F N N N N M O N N N C R ..u.0.l q : @ f.f.",
"f.f.+ : q l 0.u...T V N N N O M N N N N V K _ #.r.>.e.7.n x z z z z x n 7.e.>.r.#._ K V N N N N M O N N N V T ..u.0.l q : + f.f.",
"f.f.+ : q l 0.u...T V N N N O M N N N N N Z I ` +.-.a.>.<.e.q.q.q.q.e.<.>.a.-.+.` I Z N N N N N M O N N N V T ..u.0.l q : + f.f.",
"f.f.+ : q k 0.a.X.R V N N N O M N N N N N N Z L / } #.*.;.y.u.u.u.u.y.;.*.#.} / L Z N N N N N N M O N N N V R X.a.0.k q : + f.f.",
"f.f.+ ; 0 j 9.s.+.W C N N N O M N N N N N N N C H Y ( [ |  .X.+.+.X. .| [ ( Y H C N N N N N N N M O N N N C W +.s.9.j 0 ; + f.f.",
"f.f.f.- 9 g 8.p.@.~ Z N N N O M N N N N N N N N N A G L U E Q Q Q Q E U L G A N N N N N N N N N M O N N N Z ~ @.p.8.g 9 - f.f.f.",
"f.f.f.= 7 f 6.d.O.) S N N N O M N N N N N N N N N N N B C Z A A A A Z C B N N N N N N N N N N N M O N N N S ) O.d.6.f 7 = f.f.f.",
"f.f.f.* 6 a 4.2.=.' G N N N O M N N N N N N N N N N N N N N N N N N N N N N N N N N N N N N N N M O N N N G ' =.2.4.a 6 * f.f.f.",
"f.f.f.% 4 u b <.:.} P B N N O M N N N N N N N N N N N N N N N N N N N N N N N N N N N N N N N N M O N N B P } :.<.b u 4 % f.f.f.",
"f.f.f.$ 1 t x w.a.+.Q A N N O M N N N N N N N N N N N N N N N N N N N N N N N N N N N N N N N N M O N N A Q +.a.w.x t 1 $ f.f.f.",
"f.f.f.# , w j 7.>.&.' J B N   . o X X X X X X X X X X X X X X X X X X X X X X X X X X X X X X o .   N B J ' &.>.7.j w , # f.f.f."
};
