/* XPM */
static char *result[] = {
/* columns rows colors chars-per-pixel */
"64 64 52 1 ",
"  c #14358A",
". c #33509A",
"X c #36539B",
"o c #39569C",
"O c #3C589E",
"+ c #0071BC",
"@ c #0072BC",
"# c #0172BD",
"$ c #0173BD",
"% c #0273BD",
"& c #0274BE",
"* c #0374BE",
"= c #0375BF",
"- c #0376BF",
"; c #0475BF",
": c #0476BF",
"> c #435EA1",
", c #4660A3",
"< c #4A64A5",
"1 c #536BA9",
"2 c #5870AC",
"3 c #5E75AF",
"4 c #6076B0",
"5 c #6279B1",
"6 c #647BB2",
"7 c #0476C0",
"8 c #0477C0",
"9 c #0577C0",
"0 c #0578C1",
"q c #0679C1",
"w c #067AC1",
"e c #077BC2",
"r c #077CC3",
"t c #087CC3",
"y c #7085B8",
"u c #7286B9",
"i c #7589BA",
"p c #778BBB",
"a c #788BBC",
"s c #7B8EBD",
"d c #8294C1",
"f c #8697C3",
"g c #899AC4",
"h c #8A9BC5",
"j c #8B9CC5",
"k c #90A0C8",
"l c #96A5CB",
"z c #A0ADCF",
"x c #A4B1D2",
"c c #AAB6D5",
"v c #B2BDD9",
"b c None",
/* pixels */
"bbbbbbbbbbbbbbbbbbbbbbbbbbbbbbbbbbbbbbbbbbbbbbbbbbbbbbbbbbbbbbbb",
"bbbbbbbbbbbbbbbbbbbbbbbbbbbbbbbbbbbbbbbbbbbbbbbbbbbbbbbbbbbbbbbb",
"bbbbbbbbbbbbbbbbbbbbbbbbbbbbbbbbbbbbbbbbbbbbbbbbbbbbbbbbbbbbbbbb",
"bbbbbbbbbbbbbbbbbbbbbbbbbbbbbbbbbbbbbbbbbbbbbbbbbbbbbbbbbbbbbbbb",
"bbbbbbbbbbbbbbbbbbbbbbbbbbbbbbbbbbbbbbbbbbbbbbbbbbbbbbbbbbbbbbbb",
"bbbbbbbbbbbbbbbbbbbbbbbbbbbbbbbbbbbbbbbbbbbbbbbbbbbbbbbbbbbbbbbb",
"bbbbbbbbbbbbbbbbbbbbbbbbbbbbbbbbbbbbbbbbbbbbbbbbbbbbbbbbbbbbbbbb",
"bbbbbbbbbbbbbbbbbbbbbbbbbbbbbbbbbbbbbbbbbbbbbbbbbbbbbbbbbbbbbbbb",
"bbbbbbbbbbbbbbbbbbbbbbbbbbbbbbbbbbbbbbbbbbbbbbbbbbbbbbbbbbbbbbbb",
"bbbbbbbbbbbbbbbbbbbbbbbbbbbbbbbbbbbbbbbbbbbbbbbbbbbbbbbbbbbbbbbb",
"bbbbbbbbbbbbbbbbbbbbbbbbbbbbbb++++bbbbbbbbbbbbbbbbbbbbbbbbbbbbbb",
"bbbbbbbbbbbbbbbbbbbbbbbbbb++++@###@+++bbbbbbbbbbbbbbbbbbbbbbbbbb",
"bbbbbbbbbbbbbbbbbbbbbbbb++#&:90qqq09:&#+bbbbbbbbbbbbbbbbbbbbbbbb",
"bbbbbbbbbbbbbbbbbbbbbb++#-0etbbbbbbbte0-#+bbbbbbbbbbbbbbbbbbbbbb",
"bbbbbbbbbbbbbbbbbbbbb++=0rbbbbbbbbbbbbbr0=+bbbbbbbbbbbbbbbbbbbbb",
"bbbbbbbbbbbbbbbbbbbb+#8ebbbbbbbbbbbbbbbbbe8+bbbbbbbbbbbbbbbbbbbb",
"bbbbbbbbbbbbbbbbbbb+$9tbbbbbbbbbbbbbbbbbbbt9@bbbbbbbbbbbbbbbbbbb",
"bbbbbbbbbbbbbbbbbb+#9tbbbbbbbbbbbbbbbbbbbbbt9+bbbbbbbbbbbbbbbbbb",
"bbbbbbbbbbbbbbbbb++8tbbbbbbbbbbbbbbbbbbbbbbbt7+bbbbbbbbbbbbbbbbb",
"bbbbbbbbbbbbbbbbb+=ebbbbbbbbbbbbbbbbbbbbbbbbbe&bbbbbbbbbbbbbbbbb",
"bbbbbbbbbbbbbbbb+#0bbbbbbbbbbbbbbbbbbbbbbbbbbb0+bbbbbbbbbbbbbbbb",
"bbbbbbbbbbbbbbbb+-rbbbbbbbbbbbbbbbbbbbbbbbbbbbr&bbbbbbbbbbbbbbbb",
"bbbbbbbbbbbbbbb+#0bbbbbbbbbbbbbbbbbbbbbbbbbbbbb0+bbbbbbbbbbbbbbb",
"bbbbbbbbbbbbbbb+&ebbbbbbbbbbbbbbbbbbbbbbbbbbbbbe#bbbbbbbbbbbbbbb",
"bbbbbbbbbbbbbbb+:tbbbbbbbbbbbbbbbbbbbbbbbbbbbbbt&bbbbbbbbbbbbbbb",
"bbbbbbbbbbbbbbb+9bbbbbbbbbbbbbbbbbbbbbbbbbbbbbbb;bbbbbbbbbbbbbbb",
"bbbbbbbbbbbbbb+@0bbbbbbbbbbbbbbbbbbbbbbbbbbbbbbb0+bbbbbbbbbbbbbb",
"bbbbbbbbbbbbbb+#qbbbbbbbbbbbbbbbbbbbbbbbbbbbbbbbq+bbbbbbbbbbbbbb",
"bbbbbbbbbbbbbb+#qbbbbbbbbbbbbbbbbbbbbbbbbbbbbbbbq+bbbbbbbbbbbbbb",
"bbbbbbbbbbbbbb+#qbbbbbbbbbbbbbbbbbbbbbbbbbbbbbbbq+bbbbbbbbbbbbbb",
"bbbbbbbbbbbbbbb@0bbbbbbbbbbbbbbbbbbbbbbbbbbbbbbb-bbbbbbbbbbbbbbb",
"bbbbbbbbbbbbbbb+9bbbbbbbbbbbbbbbbbbbbbbbbbbbbbbb*bbbbbbbbbbbbbbb",
"bbbbbbbbbbbbbbb+:tbbbbbbbbbbbbbbbbbbbbbbbbbbbbbt#bbbbbbbbbbbbbbb",
"bbbbbbbbbbbbbbb+&ebbbbbbbbbbbbbbbbbbbbbbbbbbbbbe@bbbbbbbbbbbbbbb",
"bbbbbbbbbbbbbbbb#0bbbbbbbbbbbbbbbbbbbbbbbbbbbbb=bbbbbbbbbbbbbbbb",
"bbbbbbbbbbbbbbbb+-rbbbbbbbbbbbbbbbbbbbbbbbbbbbr#bbbbbbbbbbbbbbbb",
"bbbbbbbbbbbbbbbbb#0bbbbbbbbbbbbbbbbbbbbbbbbbbb=bbbbbbbbbbbbbbbbb",
"bbbbbbbbbbbbbbbbb+=ebbbbbbbbbbbbbbbbbbbbbbbbbw@bbbbbbbbbbbbbbbbb",
"bbbbbbbbbbbbbbbbbb+8tbbbbbbbbbbbbbbbbbbbbbbbt$bbbbbbbbbbbbbbbbbb",
"bbbbbbbbbbbbbbbbbbb+9tbbbbbbbbbbbbbbbbbbbbbt%bbbbbbbbbbbbbbbbbbb",
"bbbbbbbbbbbbbbbbbbbb@9tbbbbbbbbbbbbbbbbbbbt%bbbbbbbbbbbbbbbbbbbb",
"bbbbbbbbbbbbbbbbbbbbb+7ebbbbbbbbbbbbbbbbbw$bbbbbbbbbbbbbbbbbbbbb",
"bbbbbbbbbbbbbbbbbbbbbb+&0rbbbbbbbbbbbbbr=@bbbbbbbbbbbbbbbbbbbbbb",
"bbbbbbbbbbbbbbbbbbbbbbbb+&0etbbbbbbbte=#bbbbbbbbbbbbbbbbbbbbbbbb",
"bbbbbbbbbbbbbbbbbbbbbbbbbb+#&;0qqq-*#@bbbbbbbbbbbbbbbbbbbbbbbbbb",
"bbbbbbbbbbbbbbbbbbbbbbbbbbbbbb++++bbbbbbbbbbbbbbbbbbbbbbbbbbbbbb",
"bbbbbbbbbbbbbbbbbbbbbbbbbbbbbbbbbbbbbbbbbbbbbbbbbbbbbbbbbbbbbbbb",
"bbbbbbbbbbbbbbbbbbbbbbbbbbbbbbbbbbbbbbbbbbbbbbbbbbbbbbbbbbbbbbbb",
"bbbbbbbbbbbbbbbbbbbbbbbbbbbbbbbbbbbbbbbbbbbbbbbbbbbbbbbbbbbbbbbb",
"bbbbbbbbbbbbbbbbbbbbbbbbbbbbbbbbbbbbbbbbbbbbbbbbbbbbbbbbbbbbbbbb",
"bbbbbbbbbbbbbbbbbbbbbbbbbbbbbbbbbbbbbbbbbbbbbbbbbbbbbbbbbbbbbbbb",
"bbbbbbbbbbbbbbbbbbbbbbbbbbbbbbbbbbbbbbbbbbbbbbbbbbbbbbbbbbbbbbbb",
"bbbbbbbbbbbbbbbbbbbbbbbbbbbbbbbbbbbbbbbbbbbbbbbbbbbbbbbbbbbbbbbb",
"bbbbbbbbbbbbbbbbbbbbbbbbbbbbbbbbbbbbbbbbbbbbbbbbbbbbbbbbbbbbbbbb",
"bbbbbbbbbbbbbbbbbbbbbbbbbbbbbbbbbbbbbbbbbbbbbbbbbbbbbbbbbbbbbbbb",
"bbbbbbbbbbbbbbbbbbbbbbbbbbbbbbbbbbbbbbbbbbbbbbbbbbbbbbbbbbbbbbbb",
"bbbbbbbbbbbbbbbbbbbbbbbbbbbbbbbbbbbbbbbbbbbbbbbbbbbbbbbbbbbbbbbb",
"bbbbbbb4xlzhbbuybbbbuybbuyby5llllbbuybbbbba5lllk6bbbb2kllcbbbbbb",
"bbbbbb<Obbbbbb>3bbbb>3bb>3b3>bbbbbb>3bbbbb3>bbbbbX<b6 bbbbbbbbbb",
"bbbbbbb6is2bbb>pllll.3bb>3b3.lllxbb>3bbbbb3>bbbbb21bbp2jy6bbbbbb",
"bbbbbbbbbb1,bb>3bbbb>3bb>3b3>bbbbbb>3bbbbb3>bbbbdXobbbbbb 6bbbbb",
"bbbbbblvlx6bbbuybbbbuybbuyby5lllllbuflllxby5lllz3bbbgvllk3bbbbbb",
"bbbbbbbbbbbbbbbbbbbbbbbbbbbbbbbbbbbbbbbbbbbbbbbbbbbbbbbbbbbbbbbb",
"bbbbbbbbbbbbbbbbbbbbbbbbbbbbbbbbbbbbbbbbbbbbbbbbbbbbbbbbbbbbbbbb"
};
