/* XPM */
static char *result[] = {
/* columns rows colors chars-per-pixel */
"64 64 100 2 ",
"   c #14358A",
".  c #33509A",
"X  c #36539B",
"o  c #39569C",
"O  c #3C589E",
"+  c #0071BC",
"@  c #0072BC",
"#  c #0172BC",
"$  c #0172BD",
"%  c #0173BD",
"&  c #0273BD",
"*  c #0273BE",
"=  c #0274BE",
"-  c #0375BE",
";  c #0375BF",
":  c #0376BF",
">  c #0477BF",
",  c #435EA1",
"<  c #4660A3",
"1  c #4A64A5",
"2  c #536BA9",
"3  c #5870AC",
"4  c #5E75AF",
"5  c #6076B0",
"6  c #6279B1",
"7  c #647BB2",
"8  c #0476C0",
"9  c #0477C0",
"0  c #0578C0",
"q  c #0578C1",
"w  c #0679C1",
"e  c #067AC2",
"r  c #077AC2",
"t  c #077BC2",
"y  c #077BC3",
"u  c #077CC3",
"i  c #087BC3",
"p  c #087CC3",
"a  c #087DC3",
"s  c #087CC4",
"d  c #087DC4",
"f  c #097DC4",
"g  c #097EC4",
"h  c #097EC5",
"j  c #097FC5",
"k  c #0A7EC5",
"l  c #0A7FC5",
"z  c #0A7FC6",
"x  c #7085B8",
"c  c #7286B9",
"v  c #7589BA",
"b  c #778BBB",
"n  c #788BBC",
"m  c #7B8EBD",
"M  c #0A80C6",
"N  c #0B80C6",
"B  c #0B81C6",
"V  c #0B81C7",
"C  c #0C81C6",
"Z  c #0C81C7",
"A  c #0C82C7",
"S  c #0C83C8",
"D  c #0D83C8",
"F  c #0D84C8",
"G  c #0E85C9",
"H  c #0E86C9",
"J  c #0F86C9",
"K  c #0F86CA",
"L  c #1087CA",
"P  c #1087CB",
"I  c #1088CB",
"U  c #1188CB",
"Y  c #1189CC",
"T  c #118ACD",
"R  c #128BCD",
"E  c #138BCD",
"W  c #138CCE",
"Q  c #148CCE",
"!  c #148DCE",
"~  c #148DCF",
"^  c #158FCF",
"/  c #158FD0",
"(  c #1690D0",
")  c #1690D1",
"_  c #1691D1",
"`  c #1792D2",
"'  c #1893D2",
"]  c #1994D3",
"[  c #8294C1",
"{  c #8697C3",
"}  c #899AC4",
"|  c #8A9BC5",
" . c #8B9CC5",
".. c #90A0C8",
"X. c #96A5CB",
"o. c #A0ADCF",
"O. c #A4B1D2",
"+. c #AAB6D5",
"@. c #B2BDD9",
"#. c None",
/* pixels */
"#.#.#.#.#.#.#.#.#.#.#.#.#.#.#.#.#.#.#.#.#.#.#.#.#.#.#.#.#.#.#.#.#.#.#.#.#.#.#.#.#.#.#.#.#.#.#.#.#.#.#.#.#.#.#.#.#.#.#.#.#.#.#.#.",
"#.#.#.#.#.#.#.#.#.#.#.#.#.#.#.#.#.#.#.#.#.#.#.#.#.#.#.#.#.#.#.#.#.#.#.#.#.#.#.#.#.#.#.#.#.#.#.#.#.#.#.#.#.#.#.#.#.#.#.#.#.#.#.#.",
"#.#.#.#.#.#.#.#.#.#.#.#.#.#.#.#.#.#.#.#.#.#.#.#.#.#.#.#.#.#.#.#.#.#.#.#.#.#.#.#.#.#.#.#.#.#.#.#.#.#.#.#.#.#.#.#.#.#.#.#.#.#.#.#.",
"#.#.#.#.#.#.#.#.#.#.#.#.#.#.#.#.#.#.#.#.#.#.#.#.#.#.#.#.#.#.#.#.#.#.#.#.#.#.#.#.#.#.#.#.#.#.#.#.#.#.#.#.#.#.#.#.#.#.#.#.#.#.#.#.",
"#.#.#.#.#.#.#.#.#.#.#.#.#.#.#.#.#.#.#.#.#.#.#.#.#.#.#.#.#.#.#.#.#.#.#.#.#.#.#.#.#.#.#.#.#.#.#.#.#.#.#.#.#.#.#.#.#.#.#.#.#.#.#.#.",
"#.#.#.#.#.#.#.#.#.#.#.#.#.#.#.#.#.#.#.#.#.#.#.#.#.#.#.#.#.#.#.#.#.#.#.#.#.#.#.#.#.#.#.#.#.#.#.#.#.#.#.#.#.#.#.#.#.#.#.#.#.#.#.#.",
"#.#.#.#.#.#.#.#.#.#.#.#.#.#.#.#.#.#.#.#.#.#.#.#.#.#.+ + + + + + + + + + + + #.#.#.#.#.#.#.#.#.#.#.#.#.#.#.#.#.#.#.#.#.#.#.#.#.#.",
"#.#.#.#.#.#.#.#.#.#.#.#.#.#.#.#.#.#.#.#.#.#.#.+ + + + % = - ; : : : ; - = % + + + #.#.#.#.#.#.#.#.#.#.#.#.#.#.#.#.#.#.#.#.#.#.#.",
"#.#.#.#.#.#.#.#.#.#.#.#.#.#.#.#.#.#.#.#.#.+ + + % - 8 0 w e t t y t t e w 0 8 - % + + #.#.#.#.#.#.#.#.#.#.#.#.#.#.#.#.#.#.#.#.#.",
"#.#.#.#.#.#.#.#.#.#.#.#.#.#.#.#.#.#.#.+ + + & : 0 e y #.#.#.#.#.#.#.#.#.#.#.y e 0 : & + + #.#.#.#.#.#.#.#.#.#.#.#.#.#.#.#.#.#.#.",
"#.#.#.#.#.#.#.#.#.#.#.#.#.#.#.#.#.#.+ + $ ; q r d #.#.#.h d p p p p f l #.#.#.#.d r q ; $ + #.#.#.#.#.#.#.#.#.#.#.#.#.#.#.#.#.#.",
"#.#.#.#.#.#.#.#.#.#.#.#.#.#.#.#.#.+ + = 9 e p #.#.d y y p d g h h h a p i p g #.#.#.p e 9 * + #.#.#.#.#.#.#.#.#.#.#.#.#.#.#.#.#.",
"#.#.#.#.#.#.#.#.#.#.#.#.#.#.#.#.+ + = 0 y #.#.s t p h l C A D D D D D A C l f i f #.#.#.y 0 = + #.#.#.#.#.#.#.#.#.#.#.#.#.#.#.#.",
"#.#.#.#.#.#.#.#.#.#.#.#.#.#.#.+ + - q p #.h t p h B S G K L I U Y U I L K G S B f t B #.#.p q - + #.#.#.#.#.#.#.#.#.#.#.#.#.#.#.",
"#.#.#.#.#.#.#.#.#.#.#.#.#.#.+ + = q p #.d t d N D H P Y R R W W ! W W R R Y P H D N u g #.#.p q * + #.#.#.#.#.#.#.#.#.#.#.#.#.#.",
"#.#.#.#.#.#.#.#.#.#.#.#.#.+ + = 0 p #.d y h A G P T R ! ^ ( ) _ _ _ ) ( ^ ! R T P G A p h #.#.p 0 % + #.#.#.#.#.#.#.#.#.#.#.#.#.",
"#.#.#.#.#.#.#.#.#.#.#.#.#.+ $ 9 y #.d y j A J Y E ~ / _ ' ] ] #.#.#.] ] ' _ / ~ E Y J A p h #.#.y 9 + #.#.#.#.#.#.#.#.#.#.#.#.#.",
"#.#.#.#.#.#.#.#.#.#.#.#.+ + ; e #.h t h A K Y Q ^ _ ' #.#.#.#.#.#.#.#.#.#.#.' _ ^ Q Y K A p C #.#.e ; + #.#.#.#.#.#.#.#.#.#.#.#.",
"#.#.#.#.#.#.#.#.#.#.#.#.+ & q p #.t d A J Y W ^ ` ] #.#.#.#.#.#.#.#.#.#.#.#.#.] ` ^ W Y J Z y #.#.p q # #.#.#.#.#.#.#.#.#.#.#.#.",
"#.#.#.#.#.#.#.#.#.#.#.+ + : r #.s p N G Y Q ^ ` #.#.#.#.#.#.#.#.#.#.#.#.#.#.#.#.#.` ^ Q Y G l g #.#.r ; + #.#.#.#.#.#.#.#.#.#.#.",
"#.#.#.#.#.#.#.#.#.#.#.+ % 0 d #.t h D P E ^ ` #.#.#.#.#.#.#.#.#.#.#.#.#.#.#.#.#.#.#.` ^ E P D p #.#.d 0 @ #.#.#.#.#.#.#.#.#.#.#.",
"#.#.#.#.#.#.#.#.#.#.#.+ - e #.d p B H T ~ _ ] #.#.#.#.#.#.#.#.#.#.#.#.#.#.#.#.#.#.#.] _ ~ T H j k #.#.e & #.#.#.#.#.#.#.#.#.#.#.",
"#.#.#.#.#.#.#.#.#.#.+ + 8 y #.y h S P R / ' #.#.#.#.#.#.#.#.#.#.#.#.#.#.#.#.#.#.#.#.#.' / R P S d #.#.y 8 + #.#.#.#.#.#.#.#.#.#.",
"#.#.#.#.#.#.#.#.#.#.+ % 0 #.#.y l G Y ! _ #.#.#.#.#.#.#.#.#.#.#.#.#.#.#.#.#.#.#.#.#.#.#._ ! Y G f #.#.#.0 + #.#.#.#.#.#.#.#.#.#.",
"#.#.#.#.#.#.#.#.#.#.+ = w #.h p C K R ^ ' #.#.#.#.#.#.#.#.#.#.#.#.#.#.#.#.#.#.#.#.#.#.#.' ^ R K l B #.#.w $ #.#.#.#.#.#.#.#.#.#.",
"#.#.#.#.#.#.#.#.#.#.+ - e #.d d A L R ( ] #.#.#.#.#.#.#.#.#.#.#.#.#.#.#.#.#.#.#.#.#.#.#.] ( R L N j #.#.e $ #.#.#.#.#.#.#.#.#.#.",
"#.#.#.#.#.#.#.#.#.#.+ ; t #.p g D I W ) ] #.#.#.#.#.#.#.#.#.#.#.#.#.#.#.#.#.#.#.#.#.#.#.] ) W I D f #.#.t = #.#.#.#.#.#.#.#.#.#.",
"#.#.#.#.#.#.#.#.#.#.+ : t #.p h D U W _ #.#.#.#.#.#.#.#.#.#.#.#.#.#.#.#.#.#.#.#.#.#.#.#.#._ W U D f #.#.t = #.#.#.#.#.#.#.#.#.#.",
"#.#.#.#.#.#.#.#.#.#.+ : y #.p h D Y ! _ #.#.#.#.#.#.#.#.#.#.#.#.#.#.#.#.#.#.#.#.#.#.#.#.#._ ! Y D f #.#.y = #.#.#.#.#.#.#.#.#.#.",
"#.#.#.#.#.#.#.#.#.#.+ : t #.p h D U W _ #.#.#.#.#.#.#.#.#.#.#.#.#.#.#.#.#.#.#.#.#.#.#.#.#._ W U D f #.#.t = #.#.#.#.#.#.#.#.#.#.",
"#.#.#.#.#.#.#.#.#.#.+ ; t #.f a D I W ) ] #.#.#.#.#.#.#.#.#.#.#.#.#.#.#.#.#.#.#.#.#.#.#.] ) W I B l #.#.t $ #.#.#.#.#.#.#.#.#.#.",
"#.#.#.#.#.#.#.#.#.#.+ - e #.l p A L R ( ] #.#.#.#.#.#.#.#.#.#.#.#.#.#.#.#.#.#.#.#.#.#.#.] ( R L l V #.#.e $ #.#.#.#.#.#.#.#.#.#.",
"#.#.#.#.#.#.#.#.#.#.+ = w #.#.i C K R ^ ' #.#.#.#.#.#.#.#.#.#.#.#.#.#.#.#.#.#.#.#.#.#.#.' ^ R K f #.#.#.w @ #.#.#.#.#.#.#.#.#.#.",
"#.#.#.#.#.#.#.#.#.#.+ % 0 #.#.p l G Y ! _ #.#.#.#.#.#.#.#.#.#.#.#.#.#.#.#.#.#.#.#.#.#.#._ ! Y G d #.#.#.0 + #.#.#.#.#.#.#.#.#.#.",
"#.#.#.#.#.#.#.#.#.#.#.+ 8 y #.g f S P R / ' #.#.#.#.#.#.#.#.#.#.#.#.#.#.#.#.#.#.#.#.#.' / R P M z #.#.y = #.#.#.#.#.#.#.#.#.#.#.",
"#.#.#.#.#.#.#.#.#.#.#.+ - e #.#.i B H T ~ _ ] #.#.#.#.#.#.#.#.#.#.#.#.#.#.#.#.#.#.#.] _ ~ T H d #.#.#.e $ #.#.#.#.#.#.#.#.#.#.#.",
"#.#.#.#.#.#.#.#.#.#.#.+ % 0 d #.f f D P E ^ ` #.#.#.#.#.#.#.#.#.#.#.#.#.#.#.#.#.#.#.` ^ E P N l #.#.d 9 + #.#.#.#.#.#.#.#.#.#.#.",
"#.#.#.#.#.#.#.#.#.#.#.#.+ : r #.#.t N G Y Q ^ ` #.#.#.#.#.#.#.#.#.#.#.#.#.#.#.#.#.` ^ Q Y F a #.#.#.r % #.#.#.#.#.#.#.#.#.#.#.#.",
"#.#.#.#.#.#.#.#.#.#.#.#.+ & q p #.B u A J Y W ^ ` ] #.#.#.#.#.#.#.#.#.#.#.#.#.] ` ^ W Y J g A #.#.p 9 + #.#.#.#.#.#.#.#.#.#.#.#.",
"#.#.#.#.#.#.#.#.#.#.#.#.#.+ ; e #.#.g p A K Y Q ^ _ ' #.#.#.#.#.#.#.#.#.#.#.' _ ^ Q Y K g l #.#.#.e $ #.#.#.#.#.#.#.#.#.#.#.#.#.",
"#.#.#.#.#.#.#.#.#.#.#.#.#.+ $ 9 y #.#.h p A J Y E ~ / _ ' ] ] #.#.#.] ] ' _ / ~ E Y J g l #.#.#.y = + #.#.#.#.#.#.#.#.#.#.#.#.#.",
"#.#.#.#.#.#.#.#.#.#.#.#.#.#.+ * 0 p #.#.h p Z G P T R ! ^ ( ) _ _ _ ) ( ^ ! R T P F g l #.#.#.p > + #.#.#.#.#.#.#.#.#.#.#.#.#.#.",
"#.#.#.#.#.#.#.#.#.#.#.#.#.#.#.+ = q p #.#.C y l D H P Y R R W W ! W W R R Y P H N a A #.#.#.p 9 @ #.#.#.#.#.#.#.#.#.#.#.#.#.#.#.",
"#.#.#.#.#.#.#.#.#.#.#.#.#.#.#.#.+ - q p #.#.#.g p j S G K L I U Y U I L K G M d l #.#.#.#.p 9 @ #.#.#.#.#.#.#.#.#.#.#.#.#.#.#.#.",
"#.#.#.#.#.#.#.#.#.#.#.#.#.#.#.#.#.+ * 0 y #.#.#.#.k d f l N D D D D B l f d z #.#.#.#.#.y > @ #.#.#.#.#.#.#.#.#.#.#.#.#.#.#.#.#.",
"#.#.#.#.#.#.#.#.#.#.#.#.#.#.#.#.#.#.+ % 9 e p #.#.#.#.#.B j f f f f l V #.#.#.#.#.#.p e = + #.#.#.#.#.#.#.#.#.#.#.#.#.#.#.#.#.#.",
"#.#.#.#.#.#.#.#.#.#.#.#.#.#.#.#.#.#.#.+ + ; q r d #.#.#.#.#.#.#.#.#.#.#.#.#.#.#.d r 9 $ + #.#.#.#.#.#.#.#.#.#.#.#.#.#.#.#.#.#.#.",
"#.#.#.#.#.#.#.#.#.#.#.#.#.#.#.#.#.#.#.#.#.+ # ; 0 e y #.#.#.#.#.#.#.#.#.#.#.y e 9 % + #.#.#.#.#.#.#.#.#.#.#.#.#.#.#.#.#.#.#.#.#.",
"#.#.#.#.#.#.#.#.#.#.#.#.#.#.#.#.#.#.#.#.#.#.#.+ @ & 8 0 w e t t y t t e w 0 = $ + #.#.#.#.#.#.#.#.#.#.#.#.#.#.#.#.#.#.#.#.#.#.#.",
"#.#.#.#.#.#.#.#.#.#.#.#.#.#.#.#.#.#.#.#.#.#.#.#.#.#.+ + $ $ = = = = $ $ $ + #.#.#.#.#.#.#.#.#.#.#.#.#.#.#.#.#.#.#.#.#.#.#.#.#.#.",
"#.#.#.#.#.#.#.#.#.#.#.#.#.#.#.#.#.#.#.#.#.#.#.#.#.#.#.#.#.#.#.#.#.#.#.#.#.#.#.#.#.#.#.#.#.#.#.#.#.#.#.#.#.#.#.#.#.#.#.#.#.#.#.#.",
"#.#.#.#.#.#.#.#.#.#.#.#.#.#.#.#.#.#.#.#.#.#.#.#.#.#.#.#.#.#.#.#.#.#.#.#.#.#.#.#.#.#.#.#.#.#.#.#.#.#.#.#.#.#.#.#.#.#.#.#.#.#.#.#.",
"#.#.#.#.#.#.#.#.#.#.#.#.#.#.#.#.#.#.#.#.#.#.#.#.#.#.#.#.#.#.#.#.#.#.#.#.#.#.#.#.#.#.#.#.#.#.#.#.#.#.#.#.#.#.#.#.#.#.#.#.#.#.#.#.",
"#.#.#.#.#.#.#.#.#.#.#.#.#.#.#.#.#.#.#.#.#.#.#.#.#.#.#.#.#.#.#.#.#.#.#.#.#.#.#.#.#.#.#.#.#.#.#.#.#.#.#.#.#.#.#.#.#.#.#.#.#.#.#.#.",
"#.#.#.#.#.#.#.#.#.#.#.#.#.#.#.#.#.#.#.#.#.#.#.#.#.#.#.#.#.#.#.#.#.#.#.#.#.#.#.#.#.#.#.#.#.#.#.#.#.#.#.#.#.#.#.#.#.#.#.#.#.#.#.#.",
"#.#.#.#.#.#.#.#.#.#.#.#.#.#.#.#.#.#.#.#.#.#.#.#.#.#.#.#.#.#.#.#.#.#.#.#.#.#.#.#.#.#.#.#.#.#.#.#.#.#.#.#.#.#.#.#.#.#.#.#.#.#.#.#.",
"#.#.#.#.#.#.#.#.#.#.#.#.#.#.#.#.#.#.#.#.#.#.#.#.#.#.#.#.#.#.#.#.#.#.#.#.#.#.#.#.#.#.#.#.#.#.#.#.#.#.#.#.#.#.#.#.#.#.#.#.#.#.#.#.",
"#.#.#.#.#.#.#.5 O.X.o.| #.#.c x #.#.#.#.c x #.#.c x #.x 6 X.X.X.X.#.#.c x #.#.#.#.#.n 6 X.X.X...7 #.#.#.#.3 ..X.X.+.#.#.#.#.#.#.",
"#.#.#.#.#.#.1 O #.#.#.#.#.#., 4 #.#.#.#., 4 #.#., 4 #.4 , #.#.#.#.#.#., 4 #.#.#.#.#.4 , #.#.#.#.#.X 1 #.7   #.#.#.#.#.#.#.#.#.#.",
"#.#.#.#.#.#.#.7 v m 3 #.#.#., b X.X.X.X.. 4 #.#., 4 #.4 . X.X.X.O.#.#., 4 #.#.#.#.#.4 , #.#.#.#.#.3 2 #.#.b 3  .x 7 #.#.#.#.#.#.",
"#.#.#.#.#.#.#.#.#.#.2 < #.#., 4 #.#.#.#., 4 #.#., 4 #.4 , #.#.#.#.#.#., 4 #.#.#.#.#.4 , #.#.#.#.[ X o #.#.#.#.#.#.  7 #.#.#.#.#.",
"#.#.#.#.#.#.X.@.X.O.7 #.#.#.c x #.#.#.#.c x #.#.c x #.x 6 X.X.X.X.X.#.c { X.X.X.O.#.x 6 X.X.X.o.4 #.#.#.} @.X.X...4 #.#.#.#.#.#.",
"#.#.#.#.#.#.#.#.#.#.#.#.#.#.#.#.#.#.#.#.#.#.#.#.#.#.#.#.#.#.#.#.#.#.#.#.#.#.#.#.#.#.#.#.#.#.#.#.#.#.#.#.#.#.#.#.#.#.#.#.#.#.#.#.",
"#.#.#.#.#.#.#.#.#.#.#.#.#.#.#.#.#.#.#.#.#.#.#.#.#.#.#.#.#.#.#.#.#.#.#.#.#.#.#.#.#.#.#.#.#.#.#.#.#.#.#.#.#.#.#.#.#.#.#.#.#.#.#.#."
};
