/* XPM */
static char *result[] = {
/* columns rows colors chars-per-pixel */
"64 64 141 2 ",
"   c #14358A",
".  c #33509A",
"X  c #36539B",
"o  c #39569C",
"O  c #3C589E",
"+  c #0071BC",
"@  c #0072BC",
"#  c #0172BC",
"$  c #0172BD",
"%  c #0173BD",
"&  c #0273BE",
"*  c #0274BD",
"=  c #0274BE",
"-  c #0275BE",
";  c #0375BE",
":  c #0375BF",
">  c #0376BF",
",  c #435EA1",
"<  c #4660A3",
"1  c #4A64A5",
"2  c #536BA9",
"3  c #5870AC",
"4  c #5E75AF",
"5  c #6076B0",
"6  c #6279B1",
"7  c #647BB2",
"8  c #0476C0",
"9  c #0477C0",
"0  c #0578C0",
"q  c #0578C1",
"w  c #0579C1",
"e  c #0679C1",
"r  c #067AC2",
"t  c #077AC2",
"y  c #067BC2",
"u  c #077BC2",
"i  c #077BC3",
"p  c #077CC3",
"a  c #087CC3",
"s  c #087DC3",
"d  c #087CC4",
"f  c #087DC4",
"g  c #097DC4",
"h  c #097EC4",
"j  c #097EC5",
"k  c #097FC5",
"l  c #0A7EC5",
"z  c #0A7FC5",
"x  c #0B7FC5",
"c  c #0A7FC6",
"v  c #7085B8",
"b  c #7286B9",
"n  c #7589BA",
"m  c #778BBB",
"M  c #788BBC",
"N  c #7B8EBD",
"B  c #0A80C5",
"V  c #0A80C6",
"C  c #0B80C6",
"Z  c #0B81C6",
"A  c #0B81C7",
"S  c #0C81C7",
"D  c #0C82C7",
"F  c #0C83C7",
"G  c #0D83C7",
"H  c #0D83C8",
"J  c #0E83C8",
"K  c #0D84C8",
"L  c #0D84C9",
"P  c #0E84C8",
"I  c #0E85C8",
"U  c #0E84C9",
"Y  c #0E85C9",
"T  c #0F85C9",
"R  c #0F86C9",
"E  c #0E85CA",
"W  c #0F85CA",
"Q  c #0E86CA",
"!  c #0F86CA",
"~  c #0F87CA",
"^  c #0F88CB",
"/  c #1086CA",
"(  c #1087CA",
")  c #1087CB",
"_  c #1088CB",
"`  c #1188CB",
"'  c #1189CB",
"]  c #1189CC",
"[  c #118ACC",
"{  c #128ACC",
"}  c #128ACD",
"|  c #128BCD",
" . c #138BCD",
".. c #138BCE",
"X. c #138CCD",
"o. c #138CCE",
"O. c #148DCE",
"+. c #148DCF",
"@. c #148ECF",
"#. c #158ECF",
"$. c #158FD0",
"%. c #1590D0",
"&. c #1690D1",
"*. c #1691D1",
"=. c #1791D1",
"-. c #1792D2",
";. c #1891D1",
":. c #1892D2",
">. c #1894D2",
",. c #1994D2",
"<. c #1994D3",
"1. c #1995D3",
"2. c #1995D4",
"3. c #1996D4",
"4. c #1A96D5",
"5. c #1B97D5",
"6. c #1C98D6",
"7. c #1C99D6",
"8. c #1D99D6",
"9. c #1D9AD7",
"0. c #1D9BD7",
"q. c #1E9BD7",
"w. c #1E9BD8",
"e. c #1E9CD8",
"r. c #1F9CD9",
"t. c #1F9DD9",
"y. c #1F9ED9",
"u. c #209ED9",
"i. c #209FDA",
"p. c #8294C1",
"a. c #8697C3",
"s. c #899AC4",
"d. c #8A9BC5",
"f. c #8B9CC5",
"g. c #90A0C8",
"h. c #96A5CB",
"j. c #A0ADCF",
"k. c #A4B1D2",
"l. c #AAB6D5",
"z. c #B2BDD9",
"x. c None",
/* pixels */
"x.x.x.x.x.x.x.x.x.x.x.x.x.x.x.x.x.x.x.x.x.x.x.x.x.x.x.x.x.x.+ + + + x.x.x.x.x.x.x.x.x.x.x.x.x.x.x.x.x.x.x.x.x.x.x.x.x.x.x.x.x.x.",
"x.x.x.x.x.x.x.x.x.x.x.x.x.x.x.x.x.x.x.x.x.x.x.x.+ + + + + + + + + + + + + + + + x.x.x.x.x.x.x.x.x.x.x.x.x.x.x.x.x.x.x.x.x.x.x.x.",
"x.x.x.x.x.x.x.x.x.x.x.x.x.x.x.x.x.x.x.x.x.x.+ + + + % & = ; : : > : : ; = & % + + + x.x.x.x.x.x.x.x.x.x.x.x.x.x.x.x.x.x.x.x.x.x.",
"x.x.x.x.x.x.x.x.x.x.x.x.x.x.x.x.x.x.x.+ + + + % = > 9 0 w e r r r r r e w 0 9 > = % + + + x.x.x.x.x.x.x.x.x.x.x.x.x.x.x.x.x.x.x.",
"x.x.x.x.x.x.x.x.x.x.x.x.x.x.x.x.x.x.+ + $ = > 9 w r i a x.x.x.x.x.x.x.x.x.a i r w 9 > = $ + x.x.x.x.x.x.x.x.x.x.x.x.x.x.x.x.x.x.",
"x.x.x.x.x.x.x.x.x.x.x.x.x.x.x.x.+ + + = > 0 r i f x.x.x.x.c h h h h V x.x.x.x.x.f i r 0 > = + + x.x.x.x.x.x.x.x.x.x.x.x.x.x.x.x.",
"x.x.x.x.x.x.x.x.x.x.x.x.x.x.x.+ + % : 0 r p x.x.x.f y u t u i i a i u u i u f x.x.x.x.p r 0 : % + x.x.x.x.x.x.x.x.x.x.x.x.x.x.x.",
"x.x.x.x.x.x.x.x.x.x.x.x.x.x.+ + = 8 e i x.x.h r r i d h z x C V V V C x z h a u u z x.x.x.i e 8 = + x.x.x.x.x.x.x.x.x.x.x.x.x.x.",
"x.x.x.x.x.x.x.x.x.x.x.x.x.+ @ = 9 r a x.h y t d j x C D F K K K L K K K F D C x h i i B x.x.a r 9 = + x.x.x.x.x.x.x.x.x.x.x.x.x.",
"x.x.x.x.x.x.x.x.x.x.x.x.+ @ ; 0 u x.x.i r d l V D H U Q ! ) ) ` ` ` ) ) ! Q U H D V h i a x.x.x.u 0 ; + x.x.x.x.x.x.x.x.x.x.x.x.",
"x.x.x.x.x.x.x.x.x.x.x.+ @ ; q u x.z r i g C D K E ( ` [ ! E U P P P Y ) } [ ` ( E K D C a u x.x.x.u q ; + x.x.x.x.x.x.x.x.x.x.x.",
"x.x.x.x.x.x.x.x.x.x.+ + = 0 u x.h t p z Z H Y ) ' Y H H P Y ! ! ! ! Y P J K ! } ' ) Y H Z j u C x.x.u 0 = + x.x.x.x.x.x.x.x.x.x.",
"x.x.x.x.x.x.x.x.x.+ + = 9 u x.h r d z D L ! ' Y G P ! ( ' ] { { } { { ] ' ( T J T | ' ! L D k u C x.x.u 9 & + x.x.x.x.x.x.x.x.x.",
"x.x.x.x.x.x.x.x.x.+ % 8 r x.z t d x D Y ) ~ G P ! ' [  .o.O.@.#.$.#.@.O.o. .[ ' T G ' [ ) Y D z i x.x.x.r 8 @ x.x.x.x.x.x.x.x.x.",
"x.x.x.x.x.x.x.x.+ + : e a x.r p z D Y ) Y G Y _ { X.+.$.&.*.=.-.:.-.=.*.&.$.+.X.{ _ K R } ) Y D j u x.x.a e : + x.x.x.x.x.x.x.x.",
"x.x.x.x.x.x.x.+ + = 0 i x.i i z D Y ) Y H ! ]  .+.%.*.:.>.1.2.3.3.3.2.1.>.:.*.%.+. .] P ! } ) Y D f s x.x.i 0 % + x.x.x.x.x.x.x.",
"x.x.x.x.x.x.x.+ $ > r x.h r g Z L ) Y H ~ ] X.$.=.:.<.3.5.6.6.7.8.7.6.6.5.3.<.:.=.$.X.] P ! } ) L Z i Z x.x.r > + x.x.x.x.x.x.x.",
"x.x.x.x.x.x.x.+ = 0 p x.y d C H ! ~ G ! ] o.$.;.>.3.5.7.9.0.w.w.e.w.w.0.9.7.5.3.>.;.$.o.] P ' [ ! H V a x.x.p 0 % x.x.x.x.x.x.x.",
"x.x.x.x.x.x.+ + > r x.h t l D Y ' G Y ] X.$.=.,.4.6.9.w.t.y.i.x.x.x.i.y.t.w.9.6.4.,.=.$.X.] H o.' Y D a S x.x.r > + x.x.x.x.x.x.",
"x.x.x.x.x.x.+ % 9 i x.r d V K ) Y P _  .$.;.,.4.7.0.r.u.x.x.x.x.x.x.x.x.x.u.r.0.7.4.,.;.$. .! ! | ) K V a x.x.i 9 @ x.x.x.x.x.x.",
"x.x.x.x.x.+ + = w f x.r j D E ' G ! { +.=.>.4.7.q.t.x.x.x.x.x.x.x.x.x.x.x.x.x.t.q.7.4.>.=.+.{ P o.' E D p x.x.f w % + x.x.x.x.x.",
"x.x.x.x.x.+ + > r x.f i x H ( Y P ' X.%.:.3.6.0.t.x.x.x.x.x.x.x.x.x.x.x.x.x.x.x.t.0.6.3.:.%.X.~ / } ( H g j x.x.r > + x.x.x.x.x.",
"x.x.x.x.x.+ % 9 i x.y d C U ` H ! [ +.*.<.5.9.r.x.x.x.x.x.x.x.x.x.x.x.x.x.x.x.x.x.r.9.5.<.*.+.[ Y o.` U C a x.x.i 9 @ x.x.x.x.x.",
"x.x.x.x.x.+ & 0 a x.u h D Q [ H (  .$.:.3.7.w.u.x.x.x.x.x.x.x.x.x.x.x.x.x.x.x.x.x.u.w.7.3.:.$. .Y +.[ Q D a x.x.a 0 $ x.x.x.x.x.",
"x.x.x.x.x.+ = w x.x.t z F ! ! P ' o.&.>.5.9.t.x.x.x.x.x.x.x.x.x.x.x.x.x.x.x.x.x.x.x.t.9.5.>.&.o.~ ] } ! F d x.x.x.w % x.x.x.x.x.",
"x.x.x.x.x.+ ; e x.c u x K ) E Y ] O.*.1.6.0.y.x.x.x.x.x.x.x.x.x.x.x.x.x.x.x.x.x.x.x.y.0.6.1.*.O.) ~ | ) K a x.x.x.e * x.x.x.x.x.",
"x.x.x.x.+ + : r x.h i C K ) U ! { @.=.2.6.w.i.x.x.x.x.x.x.x.x.x.x.x.x.x.x.x.x.x.x.x.i.w.6.2.=.@.{ W ..) K j V x.x.r = + x.x.x.x.",
"x.x.x.x.+ + : r x.h i V K ` P ! { #.-.3.7.w.x.x.x.x.x.x.x.x.x.x.x.x.x.x.x.x.x.x.x.x.x.w.7.3.-.#.{ T o.` K j V x.x.r : + x.x.x.x.",
"x.x.x.x.+ + > r x.h a V L ` P ! } $.:.3.8.e.x.x.x.x.x.x.x.x.x.x.x.x.x.x.x.x.x.x.x.x.x.e.8.3.:.$.} T o.` L j Z x.x.r > + x.x.x.x.",
"x.x.x.x.+ + : r x.h i V K ` P ! { #.-.3.7.w.x.x.x.x.x.x.x.x.x.x.x.x.x.x.x.x.x.x.x.x.x.w.7.3.-.#.{ W o.` K j V x.x.r = + x.x.x.x.",
"x.x.x.x.x.+ : r x.V u C K ) Y Y { @.=.2.6.w.i.x.x.x.x.x.x.x.x.x.x.x.x.x.x.x.x.x.x.x.i.w.6.2.=.@._ ) ..) K d x.x.x.r = x.x.x.x.x.",
"x.x.x.x.x.+ ; e x.x.u x K ) ) P ] O.*.1.6.0.y.x.x.x.x.x.x.x.x.x.x.x.x.x.x.x.x.x.x.x.y.0.6.1.*.O.~ ] | ) K d x.x.x.e * x.x.x.x.x.",
"x.x.x.x.x.+ = w x.x.i z F ! } J ' o.&.>.5.9.t.x.x.x.x.x.x.x.x.x.x.x.x.x.x.x.x.x.x.x.t.9.5.>.&.o.T #.} ! F s x.x.x.w $ x.x.x.x.x.",
"x.x.x.x.x.+ & 0 a x.u h D Q [ K (  .$.:.3.7.w.u.x.x.x.x.x.x.x.x.x.x.x.x.x.x.x.x.x.u.w.7.3.:.$. .Y +.[ Q D a x.x.a 0 $ x.x.x.x.x.",
"x.x.x.x.x.+ % 9 i x.f a C U ` ! T [ +.*.<.5.9.r.x.x.x.x.x.x.x.x.x.x.x.x.x.x.x.x.x.r.9.5.<.*.+.^ ) o.` U j z x.x.i 9 + x.x.x.x.x.",
"x.x.x.x.x.+ + > r x.x.u x H ( } J ' X.%.:.3.6.0.t.x.x.x.x.x.x.x.x.x.x.x.x.x.x.x.t.0.6.3.:.%.X.Y #.} ( H a x.x.x.r - + x.x.x.x.x.",
"x.x.x.x.x.x.+ = w f x.u h D E ' T T { +.=.>.4.7.q.t.x.x.x.x.x.x.x.x.x.x.x.x.x.t.q.7.4.>.=.+._ ) o.' E A a x.x.f w $ x.x.x.x.x.x.",
"x.x.x.x.x.x.+ % 9 i x.z i V K ) | G _  .$.;.,.4.7.0.r.u.x.x.x.x.x.x.x.x.x.u.r.0.7.4.,.;.$.| I @.| ) K f D x.x.i 9 + x.x.x.x.x.x.",
"x.x.x.x.x.x.x.+ > r x.x.i h D Y ' ' K ] X.$.=.,.4.6.9.w.t.y.i.x.x.x.i.y.t.w.9.6.4.,.=.$.X.R { o.' Y A d x.x.x.r = x.x.x.x.x.x.x.",
"x.x.x.x.x.x.x.+ = 0 p x.B i C H ! [ R P ] o.$.;.>.3.5.7.9.0.w.w.e.w.w.0.9.7.5.3.>.;.$.o.R ) O.[ ! H f D x.x.p 0 @ x.x.x.x.x.x.x.",
"x.x.x.x.x.x.x.+ $ > r x.x.a a Z L ) } ! P ] X.$.=.:.<.3.5.6.6.7.8.7.6.6.5.3.<.:.=.$.X.R ) +.} ) L k f x.x.x.r = + x.x.x.x.x.x.x.",
"x.x.x.x.x.x.x.x.+ = 0 i x.x.u j D Y ) } ! P ]  .+.%.*.:.>.1.2.3.3.3.2.1.>.:.*.%.+.| R ) +.} ) Y Z p x.x.x.i 0 @ x.x.x.x.x.x.x.x.",
"x.x.x.x.x.x.x.x.x.+ : e a x.x.u k D Y ) } ' H ! { X.+.$.&.*.=.-.:.-.=.*.&.$.+.X._ I { O.} ) Y A p x.x.x.a e % x.x.x.x.x.x.x.x.x.",
"x.x.x.x.x.x.x.x.x.+ % 8 r x.x.C u z D Y ) [ o.! P ~ [  .o.O.@.#.$.#.@.O.o. .^ Y ) @.o.[ ) Y A p D x.x.x.r : + x.x.x.x.x.x.x.x.x.",
"x.x.x.x.x.x.x.x.x.x.+ = 9 u x.x.C i j D L ! ' | o./ Y Y ~ ) { { } { _ ~ T Y ) #.o.| ' ! L Z p D x.x.x.u 9 + x.x.x.x.x.x.x.x.x.x.",
"x.x.x.x.x.x.x.x.x.x.x.+ = 0 u x.x.x.u f Z H Y ) ' } o.+.] ~ W T T W ) ] #.+.o.} ' ) Y H k p x.x.x.x.u 0 $ x.x.x.x.x.x.x.x.x.x.x.",
"x.x.x.x.x.x.x.x.x.x.x.x.+ ; q u x.x.x.s i V D K E ( ` [ } | ..o.o.o...| } [ ` ( E K A f f x.x.x.x.u q # x.x.x.x.x.x.x.x.x.x.x.x.",
"x.x.x.x.x.x.x.x.x.x.x.x.x.+ ; 0 u x.x.x.Z a a V D H U Q ! ) ) ` ` ` ) ) ! Q U H A f d D x.x.x.x.u 0 # x.x.x.x.x.x.x.x.x.x.x.x.x.",
"x.x.x.x.x.x.x.x.x.x.x.x.x.x.+ = 9 r a x.x.x.S a p g C D F K K K L K K K F D j a a D x.x.x.x.a r 9 $ x.x.x.x.x.x.x.x.x.x.x.x.x.x.",
"x.x.x.x.x.x.x.x.x.x.x.x.x.x.x.+ & 8 e i x.x.x.x.x.j a a d a j j j j d d f a z x.x.x.x.x.x.i e : + x.x.x.x.x.x.x.x.x.x.x.x.x.x.x.",
"x.x.x.x.x.x.x.x.x.x.x.x.x.x.x.x.+ @ : 0 r p x.x.x.x.x.x.x.x.V V Z V x.x.x.x.x.x.x.x.x.p r 0 % + x.x.x.x.x.x.x.x.x.x.x.x.x.x.x.x.",
"x.x.x.x.x.x.x.x.x.x.x.x.x.x.x.x.x.x.+ % > 0 r i f x.x.x.x.x.x.x.x.x.x.x.x.x.x.x.f i r 0 = @ x.x.x.x.x.x.x.x.x.x.x.x.x.x.x.x.x.x.",
"x.x.x.x.x.x.x.x.x.x.x.x.x.x.x.x.x.x.x.+ + % > 9 w r i a x.x.x.x.x.x.x.x.x.a i r w 9 = @ + x.x.x.x.x.x.x.x.x.x.x.x.x.x.x.x.x.x.x.",
"x.x.x.x.x.x.x.x.x.x.x.x.x.x.x.x.x.x.x.x.x.x.+ @ % > 9 0 w e r r r r r e w 0 9 - $ + x.x.x.x.x.x.x.x.x.x.x.x.x.x.x.x.x.x.x.x.x.x.",
"x.x.x.x.x.x.x.x.x.x.x.x.x.x.x.x.x.x.x.x.x.x.x.x.+ + @ $ % * = : > = = * $ $ + + x.x.x.x.x.x.x.x.x.x.x.x.x.x.x.x.x.x.x.x.x.x.x.x.",
"x.x.x.x.x.x.x.x.x.x.x.x.x.x.x.x.x.x.x.x.x.x.x.x.x.x.x.x.x.x.+ + + + x.x.x.x.x.x.x.x.x.x.x.x.x.x.x.x.x.x.x.x.x.x.x.x.x.x.x.x.x.x.",
"x.x.x.x.x.x.x.x.x.x.x.x.x.x.x.x.x.x.x.x.x.x.x.x.x.x.x.x.x.x.x.x.x.x.x.x.x.x.x.x.x.x.x.x.x.x.x.x.x.x.x.x.x.x.x.x.x.x.x.x.x.x.x.x.",
"x.x.x.x.x.x.x.5 k.h.j.d.x.x.b v x.x.x.x.b v x.x.b v x.v 6 h.h.h.h.x.x.b v x.x.x.x.x.M 6 h.h.h.g.7 x.x.x.x.3 g.h.h.l.x.x.x.x.x.x.",
"x.x.x.x.x.x.1 O x.x.x.x.x.x., 4 x.x.x.x., 4 x.x., 4 x.4 , x.x.x.x.x.x., 4 x.x.x.x.x.4 , x.x.x.x.x.X 1 x.7   x.x.x.x.x.x.x.x.x.x.",
"x.x.x.x.x.x.x.7 n N 3 x.x.x., m h.h.h.h.. 4 x.x., 4 x.4 . h.h.h.k.x.x., 4 x.x.x.x.x.4 , x.x.x.x.x.3 2 x.x.m 3 f.v 7 x.x.x.x.x.x.",
"x.x.x.x.x.x.x.x.x.x.2 < x.x., 4 x.x.x.x., 4 x.x., 4 x.4 , x.x.x.x.x.x., 4 x.x.x.x.x.4 , x.x.x.x.p.X o x.x.x.x.x.x.  7 x.x.x.x.x.",
"x.x.x.x.x.x.h.z.h.k.7 x.x.x.b v x.x.x.x.b v x.x.b v x.v 6 h.h.h.h.h.x.b a.h.h.h.k.x.v 6 h.h.h.j.4 x.x.x.s.z.h.h.g.4 x.x.x.x.x.x.",
"x.x.x.x.x.x.x.x.x.x.x.x.x.x.x.x.x.x.x.x.x.x.x.x.x.x.x.x.x.x.x.x.x.x.x.x.x.x.x.x.x.x.x.x.x.x.x.x.x.x.x.x.x.x.x.x.x.x.x.x.x.x.x.x.",
"x.x.x.x.x.x.x.x.x.x.x.x.x.x.x.x.x.x.x.x.x.x.x.x.x.x.x.x.x.x.x.x.x.x.x.x.x.x.x.x.x.x.x.x.x.x.x.x.x.x.x.x.x.x.x.x.x.x.x.x.x.x.x.x."
};
