/* XPM */
static char *Tile_of_BG_stars_11679315726[] = {
/* columns rows colors chars-per-pixel */
"64 64 191 2 ",
"   c #020303",
".  c #090706",
"X  c #0D0907",
"o  c #050708",
"O  c #06090B",
"+  c #0D0D0D",
"@  c #080708",
"#  c #110E0D",
"$  c #1A0E0B",
"%  c #17050A",
"&  c #0F120E",
"*  c #11100E",
"=  c #1D110D",
"-  c #0E0F10",
";  c #110E10",
":  c #0E1112",
">  c #0F1419",
",  c #0F181A",
"<  c #121212",
"1  c #181514",
"2  c #171817",
"3  c #1A1816",
"4  c #12161A",
"5  c #151A1C",
"6  c #1B1A1A",
"7  c #240B0A",
"8  c #2B0E0B",
"9  c #2C0D06",
"0  c #340D0A",
"q  c #3F0F0D",
"w  c #23120C",
"e  c #2E110B",
"r  c #34130B",
"t  c #3C140C",
"y  c #221E1A",
"u  c #26221E",
"i  c #151C25",
"p  c #1A1D21",
"a  c #161F2A",
"s  c #161B24",
"d  c #1B2325",
"f  c #15202C",
"g  c #19222B",
"h  c #192534",
"j  c #1C273A",
"k  c #1B2A3D",
"l  c #162333",
"z  c #2A2622",
"x  c #2D2926",
"c  c #2B2B2B",
"v  c #242727",
"b  c #312B25",
"n  c #3C352E",
"m  c #323232",
"M  c #3A3A39",
"N  c #560F0A",
"B  c #41140B",
"V  c #49170C",
"C  c #56150A",
"Z  c #501E11",
"A  c #630D03",
"S  c #691708",
"D  c #771A05",
"F  c #5B240D",
"G  c #562614",
"H  c #732B0E",
"J  c #73220B",
"K  c #6F2711",
"L  c #40372F",
"P  c #413A32",
"I  c #4C4339",
"U  c #564B3F",
"Y  c #51463C",
"T  c #1C2D43",
"R  c #1C2C4D",
"E  c #1D3045",
"W  c #1F344A",
"Q  c #1B2E52",
"!  c #1F3659",
"~  c #22354C",
"^  c #223454",
"/  c #243D5A",
"(  c #233859",
")  c #223E68",
"_  c #264262",
"`  c #29466B",
"'  c #294979",
"]  c #2F5379",
"[  c #30557E",
"{  c #444444",
"}  c #4B4C4B",
"|  c #4E4B41",
" . c #5A4D41",
".. c #5E5245",
"X. c #565656",
"o. c #585957",
"O. c #5A5A59",
"+. c #695C4E",
"@. c #625548",
"#. c #776656",
"$. c #636363",
"%. c gray42",
"&. c #797978",
"*. c #8B1403",
"=. c #A51703",
"-. c #9A2606",
";. c #86370E",
":. c #862910",
">. c #9D3612",
",. c #88310D",
"<. c #B43606",
"1. c #A93E14",
"2. c #A23710",
"3. c #A93009",
"4. c #CB3405",
"5. c #9C4812",
"6. c #AB4F0F",
"7. c #A74213",
"8. c #B95F14",
"9. c #B7410A",
"0. c #B66518",
"q. c #B87019",
"w. c #D97A1B",
"e. c #E07A1C",
"r. c #E78521",
"t. c #9C8770",
"y. c #AD937A",
"u. c #2E5681",
"i. c #325685",
"p. c #325C8B",
"a. c #3A5F91",
"s. c #244885",
"d. c #36659B",
"f. c #3A679D",
"g. c #3F6B9C",
"h. c #2E6DA9",
"j. c #3669A3",
"k. c #3974AE",
"l. c #3E78B7",
"z. c #436C9D",
"x. c #4B739D",
"c. c #4577AC",
"v. c #417AB3",
"b. c #417EC2",
"n. c #3A81B8",
"m. c #4482B4",
"M. c #4484CB",
"N. c #498BD3",
"B. c #4A8ED8",
"V. c #6B9FC4",
"C. c #6CA4C8",
"Z. c #73A5C7",
"A. c #8B8B8A",
"S. c #959594",
"D. c #BD9D81",
"F. c #BEA387",
"G. c #A8A8A7",
"H. c #B0B0AE",
"J. c #BABAB8",
"K. c #C5A78B",
"L. c #CCAF91",
"P. c #D3B494",
"I. c #DFBF9D",
"U. c #C0BFBC",
"Y. c #EFCEAB",
"T. c #E6C5A3",
"R. c #F1CEAA",
"E. c #F5D1AC",
"W. c #91AFC5",
"Q. c #8DB3C8",
"!. c #8DBAD5",
"~. c #97BAD1",
"^. c #93B6CA",
"/. c #A1BED2",
"(. c #ADC3CF",
"). c #BEC7CD",
"_. c #B9C8D8",
"`. c #C5C5C4",
"'. c #CCCCCA",
"]. c #C9C9C7",
"[. c #C6CDDA",
"{. c #DCCED7",
"}. c #CBD2D7",
"|. c #DEDDDC",
" X c #DDD3DA",
".X c #E1E1DF",
"XX c #E5E5E3",
"oX c #EBEBE9",
"OX c #F0F0EE",
"+X c #F5F5F3",
"@X c #F9F9F7",
/* pixels */
"+ + + + + + + + + + + + + + + + + + + + + + + + + + + + + + + + + + < * + + + + + + + + + + + + + + + + + + + + + < + + + + + + ",
"+ + + + + + + + + + + + + + + + + + + + + + + + + + + + + + + + + + < < + + + + + + + + + + + + + + + + + & # + + + + + + + + + ",
"+ + + + + + + + + + + + + + - - + + + + + + + + + + + + + + + + + + * + + + + + + + + + + + + + + + + + # + + + + + + + + + + + ",
"+ + + + + + + - + + + + + : < + + < + + + + + + + + + @ + + + + + + + + + + + + + + + + + + + + + + + + + + * + # + + + + + + + ",
"+ + + + # + # # + + # # 2 < + + 3 < < & + + + + + + + + + + + + + + + + + + + + + + + + + + + + + + # # + + * + * + + + + + + + ",
"+ + # + # + + + + < + + +   @   @ # + + < + + + + + + + + + + + + + + + + + + + + + + + + + + + # + # + * + $ # + + + + # + + + ",
"+ + # # # + + @ # + # X       @ o o + + + + + + + o + + + + + + + + + + + + + + + + + + + + + + + + # * * # * # # + + + + + + + ",
"+ + # + + O - + + + # .   2 } } <   o + + + + + + + + + + + + + + + + + + + + + + + + + + + # + # # + + $ = # * # # # + + + + + ",
"& O + & + O + # # ; : O 2 m '.].v     2 # + < < + + + + + + + + + + + + + + + + + + + + + + - - + - = q N N e + # # + + + + + + ",
"+ & O @ + 7 r 8 # * , O   m `.J.x     * * < < + + < + + + + + + + + + + + + + + + + + & < * # # - < t :.1.1.:.r = * + # + + + + ",
"+ & $ 9 A *.=.A w : : + X 2 } m 3   @ + # * + O 2 < < # + + + + + + + + + + + + & - + ; : # + X - < G 1.e.w.>.B # * # + + + + + ",
"# # t J <.4.4.*.7 & & + + @     @ + + + + o o   + * + + + + + + + + + + + + + + + + # + +   @ o o - Z 7.r.e.2.t # # # + + + # + ",
"= 7 S 3.0.0.3.N # - ; < * +     o o o o       o o   + + + + + + + + + + + + o + + o o           O o = K 7.>.S 8 * # * + + # + + ",
"w t D 9.q.0.,.0 @ ; < < < * + + + + : o o u .. .< o o # + + + + + + + + + + + + + + + o < n | m 4 o + 7 V t 7 * * * + + + + + + ",
"9 B *.<.6.5.C $ # + + & + + : < * + < + u Y Y.I.u o o & * + + + + + + + + + + + + + + +  .y.Y.K.4     ; = = + X * X + + + + + + ",
"w t S -.-.J 7 + # + & + + + + : + # < # < Y I.K.z   o + + + + + + + + + + + + * ; + < < I t.T.D.z   + : * * * * * + + X + + + + ",
"= = 9 C V e # + + & + + + + + + < + + o + 3 I x :   # + + + + + + + + + + + + + * + o + + z L y + X - # + + + + + + + + + + + + ",
"* # $ $ X + + + + + - + + + + + < # + + + o       o < + + + + + + + + + + + + + * + + + o o     O < + # + + + + + + + + + + + + ",
"X * * * & + + + # + + + + + + + + # < ; * + + o + + + + + + + + + + + + + + + + + * # + + o + o + + + + + + # + + + + + + + + + ",
"* + + + + + + + + + + + + + + + + # < * * + + + < + + + + + + + + + + + + + + + & * < * + + < + # + + + + * + + & o + + + + + + ",
"+ + + + # + + + + + + + + + + + + + + + + + < < # + + + + # + + + + + + + + + + + + ; # + + * * + # + + # < # : # + + + + + + + ",
"+ + + + + + + + + + + + + + + + + + # + + + + + + + + + & + + + + + + + + + + + + + : + + + + + + + + + + + + + + + # + + + + + ",
"+ + + + # + + + + + + + + + + + + - + + + + + + + + + + < < + + < + & ; + + + + + + + + + + + + + - # < < < + + < + + + & + + + ",
"+ + + + + + + + + + + + + + + + - + + + + + # + + + < + +   + + + + + + < + + + + + + + + + + + + + + + +   + o o + + + : + + + ",
"+ + + + + + + + + + + + + + - : & + + + + + + + + @ + o o + + < < o + + + + + + + + + + + + + + + + + +   @ # 2 # o + + + + + + ",
"+ + + + + + + + + + + + + + + + - + - + + + : + + + + o < M &.&.M + + + + + + + + + + + + + + + + + # o   3 +.#.n + + + + + + + ",
"+ + + + + + + + + + + + + + + + - - < - * + + + + & * @ c $.XXXXX.6 + < : # + + + + + + + + + + + * * + + z L.R.#.u + + + & + o ",
"+ + + + + + + + + + & + & + @ + 4 s - - + + : + + * < * 6 $.XX.XO.< + + + : < + + + + + + + + + + & < +   6 F.P.+.< + o + < ; & ",
"+ + + + + + + + + + + + + + > k / / a + - + + + < # + + + c %.X.c + < + + + + + + + + + + + + + + # < + o < n b < + + o + + + + ",
"+ X + + + + + + + + : + + - T p.k.j.` a : : + + # + + + + < 6 + + ; & + + + + + + + + + + + + + + # * - o o       + < + + + + + ",
"+ + + + + + + + + + < & : 4 / l.B.M.[ f + : + - + < < < + + + + + + + + + + + + + + + + + + + + + + < < < +   o + + + + + - + + ",
"+ + + + + + + + + + : : < 4 / l.B.b.i.f - + - - + + < # < + < + + + + * + + + + + + + + + + + + + + < * < + + + + + + + + + # # ",
"+ + + + + + + + + : : & & : g ] d.p.! 5 - : - + + + < + + + * * + + + + + + + # + + + + + + + + + + + < + - - & + + # + + + + : ",
"+ + + + + + + + - : < - + : < f E k 4 + : + + + + + - + + + + < + o + + + + + + + + + + + + + + + + + + + + + + + + + + + + + + ",
"+ + + + + + + + < 6 : : # # : 4 5 , + + + + o + + + + + + + # + & + + < + + + + + + + + + + + + + + + - O + - : - + - + + + + + ",
"+ + + + + + + + +   + + o + : + + + + # + + + + + + + + & # + + + + + + + + + + + + + + + + + + < + + + + + + + + + + + + + + + ",
"+ + + + + + + +   o o + @ @ + + + + + @ + + + + + + < * < < + + < < # : + + + + + + + + + + + + + + & 4 i a < @ : + + + + + + + ",
"+ + + + + + + o   2 O.o.<   + & + + + + + + + + + + + + +   o   + : + + - + + + + + + + + + + + + + 4 ~ u.p./ i : : + + + + + + ",
"+ + + + < * * + < c '.'.v   o : < + + - + + + + + + + +         + o + + + + + + + + + + + + + - + + h ` b.M.p.h : - + : - + + + ",
"+ + + + + * 3 +   m U.J.z   @ : + - + - + + + + + + # o   + L P <   o + + + + + + + + + + + - + + - h [ N.B.d.k - + + : + + + + ",
"o + + & * < < + o < I c <   * + + - + + + + + + + : < + + u P.P.x + o + * + + + + + + + + + : - + - > W d.d.` a - : + + + + - + ",
"+ + + # < < + + + @ o     o # + - + + + + + + + + # 3 +   x R.T.n o o + + * * : + + + + + + - + + + + 4 E T i : - : - + + + + + ",
"+ # 1 < + + < + +   o @ + + + @ + * + + + + + + & # < +   6 #.@.y   + * + : + + + + + + + + + - - + + < & : + + - + + + + + + + ",
"+ + +   o o ; + < + # + + + + + + - + + + + + + + + < -   : y # - o # # + + + + + + + + + + - + : + - + - & # + + + + + + + + + ",
"+ o         o o + + + - + # + + + + + + + + + + - - < < < , o < - + : + + + + o + + + + + + + + - - - + + + + + + + + + + + + + ",
"+   + 3 n n *   o + + + + + + + + + + + + + + + - - 2 6 2 4 5 p < + : & + - + + + + + + + + + + + + - + - + # + + + + + + + + + ",
"+   z @.T.P.3     < < # + + + + + + + + + + + + # ; 2 5 a d v d d 5 4 , : + + + + + + + + + + + + + + + * # & + + + + + + + + + ",
"< < y +.R.P.x   o < + : + + + + + + + + + + - - ; 4 a T ) ' ' ' T g 5 2 : - + + + + + + + + + + < + < # & + + + + + + + + + + + ",
"+ + + u  .m #   - # + + + + + + + + + + + - : : 4 i ~ s.h.l.m.k.s.R p < - - + + + + + + + + + + + < < * - + < : + + + + + + + + ",
"+ @ + + o     @ < + + + + + + + + + + - + - < 4 4 j ' l.V.Q.Q.C.c.' j s < < : + + + + + + + + + < + < + < + < < - + & + + + + + ",
"< - + + o o + + + # * + + + + + + + + + + + : 4 i Q f.C.~.[.)./.V.j.Q s 4 - + - + + + + + + : + + + + + < + 2 < 6 < + + + + + + ",
"< # + + + + + # # # * # + + + + + + & - - : < 2 i ! l.Q.[. X{.[.^.c.! a 4 4 - : + + + + + + < * + + < c { } c < < 6 ; + + + + + ",
"+ * + + - - ; ; # # + + + + + + + + + + + : < 4 s Q c.!.}.|. X[.Q.c.! 6 4 4 - - + + + + + < < < + < M A.G.J.S.X.6 + - + < + + + ",
"# + + + + + # O $ # + + + + * + + + + + < - : < 4 T a.C.(.}.}._.Z.d.k 5 5 < - + - # + + < + < < + c A.|.XX+XXXS.M 6 < < # - + + ",
"+ + + + + + + X 7 7 $ o + + + + + + + + + - < 4 2 l ( z.V.!.~.C.x.( g 5 < : < + + - - + * - < < < m G.@X+X+XoXJ.} 6 6 < < + + + ",
"- + + + + O % V ;.;.B # # + + + + + + + - + - < < 5 a Q i.a.z.p.( a d 5 < - + + + + & + + < < < + M H.@X@X@XOX`.} 6 6 < & + < + ",
"# + + # * + r H w.w.F $ + # # + + + + + + + - - < 4 s f l T T l p 4 < < : + + - + + + + ; * < < < c A.OXOX@XXXG.M 6 6 < + + ; + ",
"+ + + + & * e H w.w.F % + + + # # + + + + + - - < < < 5 2 5 5 i 5 > : + & - + + + + + + : + : + + 6 } S.J.].G.$.d < 6 + + + - + ",
"+ + # + + + = B ;.J r % # + + + + + + + + + + + : : : < < > 5 : , : : - + & + + + + + + + + < < * 2 6 M O.o.{ c 2 # ; + : * + + ",
"+ + + & + + X $ 0 7 # $ # + + + + + + + + + + + & : - : : : : : : - - : + + + + + + + + + + < # + < < < < + < 3 < @ ; + + + + + ",
"+ + + # # + * X + + + O + + + + + + + + + + + + + + + + + + + + + - + - + + + + + + + + + + + < < ; < < < < < < * + + + + + + + ",
"+ & + + * # * + # # & + + # + + + + + + + + + + + + + + + + + + + + + + + + + + + + + + + + + + & - < < < + < < + < + + + + + + ",
"+ + + + * + + + + * + + + + + X + + + + + + + + + - + + + + + + + + + + + + + + + + + + + + & + + + + < + + < + + + + + + + + + ",
"+ + + + + + + + + + + + + + + + + + + + + + - + + + + + + + + + + + + + + + + + + + + + + + + + + + + + + + + + + - + + + + + + "
};
